<?xml version="1.0" standalone="no"?>
<!DOCTYPE svg PUBLIC "-//W3C//DTD SVG 1.1//EN" "http://www.w3.org/Graphics/SVG/1.1/DTD/svg11.dtd" >
<svg>
<metadata>
Created by FontForge 20090914 at Wed Apr 10 03:35:43 2013
 By www-data
Copyright (c) 2008 Andreas Kalpakidis (hello@inderesting.com), with Reserved Font Name "Advent Pro"
</metadata>
<defs>
<font id="AdventPro-Bold" horiz-adv-x="490" >
  <font-face 
    font-family="Advent Pro"
    font-weight="700"
    font-stretch="normal"
    units-per-em="1000"
    panose-1="2 0 5 6 4 0 0 2 0 4"
    ascent="800"
    descent="-200"
    x-height="501"
    cap-height="700"
    bbox="-36 -232 1823 962.001"
    underline-thickness="50"
    underline-position="-50"
    unicode-range="U+0020-U+FB04"
  />
<missing-glyph horiz-adv-x="500" 
d="M500 0h-500v700h500v-700zM450 50v600h-400v-600h400zM425 133l-39 -32l-136 204l-137 -205l-40 29l147 221l-147 221l40 29l137 -205l136 204l39 -32l-145 -217z" />
    <glyph glyph-name=".notdef" horiz-adv-x="500" 
d="M500 0h-500v700h500v-700zM450 50v600h-400v-600h400zM425 133l-39 -32l-136 204l-137 -205l-40 29l147 221l-147 221l40 29l137 -205l136 204l39 -32l-145 -217z" />
    <glyph glyph-name="space" unicode=" " horiz-adv-x="278" 
 />
    <glyph glyph-name="exclam" unicode="!" horiz-adv-x="274" 
d="M173 120h-76l-19 521c0 46 18.667 69 56 69c40 0 60 -22.667 60 -68zM187 50c0 -13.333 -5 -25 -15 -35s-22 -15 -36 -15c-13.333 0 -25 5 -35 15s-15 21.667 -15 35c0 14 5 26 15 36s21.667 15 35 15c14 0 26 -5 36 -15s15 -22 15 -36z" />
    <glyph glyph-name="quotedbl" unicode="&#x22;" horiz-adv-x="426" 
d="M181 512h-62l-14 183c0 16.667 7.66699 29 23 37c7.33301 4 15 6 23 6l21 -6c15.333 -6.66699 23 -19 23 -37zM324 512h-62l-14 183c0 16.667 7.33301 29 22 37c8 4 16 6 24 6l22 -6c14.667 -6.66699 22 -19 22 -37z" />
    <glyph glyph-name="numbersign" unicode="#" horiz-adv-x="613" 
d="M582 168h-146l-40 -168h-112l37 168h-118l-38 -168h-106l40 168h-65v102h89l21 87h-110v112h137l53 231h105l-54 -231h119l54 231h114l-54 -231h74v-112h-102l-20 -87h122v-102zM346 270l21 87h-119l-20 -87h118z" />
    <glyph glyph-name="dollar" unicode="$" horiz-adv-x="540" 
d="M325 -114l-109.997 -0.000976562v108c-56 9.33301 -99.833 31.833 -131.5 67.5s-48.167 74.5 -49.5 116.5l118 17c4 -43.333 25 -72.666 63 -87.999v244c-25.333 10.667 -45.833 20.334 -61.5 29.001s-32.334 20.167 -50.001 34.5s-30.834 31.666 -39.501 51.999
s-13 43.833 -13 70.5c0 38.667 14 73.834 42 105.501s68.667 52.5 122 62.5v112h110v-109c32 -3.33301 64.667 -12.666 98 -27.999l-6 -18l-15 -45l-14 -41c-26 8 -47 13.667 -63 17v-170c26 -12 48.333 -24 67 -36s37.667 -27.167 57 -45.5s34.166 -39.833 44.499 -64.5
s15.5 -52.334 15.5 -83.001c0 -52 -15.167 -96.333 -45.5 -133s-76.5 -59.334 -138.5 -68.001v-107zM325.003 296.999l0.000976562 -192.001c21.333 8 37.166 19.5 47.499 34.5s15.5 29.833 15.5 44.5c0 46.667 -21 84.334 -63 113.001zM215.004 474.998v114
c-30 -11.333 -45 -29.333 -45 -54v-8c2 -18.667 17 -36 45 -52z" />
    <glyph glyph-name="percent" unicode="%" horiz-adv-x="685" 
d="M117 -1l-83 70l531 676l89 -66zM500 -11c-40 0 -74 14 -102 42s-42 62 -42 102s14 74 42 102s62 42 102 42s74 -14 102 -42s42 -62 42 -102s-14 -74 -42 -102s-62 -42 -102 -42zM534 133c0 9.33301 -3 17.333 -9 24s-14.333 10 -25 10s-19 -3.33301 -25 -10
s-9 -14.667 -9 -24s3 -17.333 9 -24s14.333 -10 25 -10s19 3.33301 25 10s9 14.667 9 24zM189 439c-40 0 -74 14 -102 42s-42 62 -42 102s14 74 42 102s62 42 102 42s74 -14 102 -42s42 -62 42 -102s-14 -74 -42 -102s-62 -42 -102 -42zM224 583
c0 8.66699 -3.33301 16.667 -10 24s-15 11 -25 11s-18.333 -3.66699 -25 -11s-10 -15.333 -10 -24c0 -9.33301 3.33301 -17.5 10 -24.5s15 -10.5 25 -10.5s18.333 3.5 25 10.5s10 15.167 10 24.5z" />
    <glyph glyph-name="ampersand" unicode="&#x26;" horiz-adv-x="560" 
d="M498 76l-16 -87.001h-5c-18.667 0 -39.667 3.66699 -63 11c-24.667 8 -46 22 -64 42c-10 -12 -26.667 -23.833 -50 -35.5s-52.333 -17.5 -87 -17.5c-60 0 -105.667 21 -137 63c-27.333 36.667 -41 79 -41 127c0 8 0.333008 16.333 1 25
c3.33301 32.667 12.333 62.667 27 90s31.667 48.833 51 64.5s36.333 27.834 51 36.501s27.334 14.667 38.001 18c-22.667 10 -40.834 27.667 -54.501 53s-20.5 53.333 -20.5 84c0 60 27 105.333 81 136c32 17.333 65 26 99 26c23.333 0 47.666 -4.33301 72.999 -13l-63 -97
c-4.66699 3.33301 -10 5 -16 5c-7.33301 0 -16 -2.33301 -26 -7c-17.333 -7.33301 -28 -20.333 -32 -39c-2 -7.33301 -3 -14.333 -3 -21c0 -19.333 7 -34.666 21 -45.999c18.667 -15.333 34.334 -23 47.001 -23h2l11 1v123l110 14v-125l73 16l24 -111l-97 -19v-187
c0 -56.667 22 -92.334 66 -107.001zM322 222.999v122c-108 -26.667 -167.667 -72 -179 -136c-1.33301 -8 -2 -15.667 -2 -23c0 -20 5.33301 -37.667 16 -53c14.667 -21.333 37 -32 67 -32c32 0 56.333 12.5 73 37.5s25 53.167 25 84.5z" />
    <glyph glyph-name="quotesingle" unicode="'" horiz-adv-x="174" 
d="M122 589h-62l-14 106c0 16.667 7.33301 29 22 37c8 4 16 6 24 6l22 -6c14.667 -6.66699 22 -19 22 -37z" />
    <glyph glyph-name="parenleft" unicode="(" horiz-adv-x="333" 
d="M253 -35l-54.999 -80.999c-42 24 -72.5 48.667 -91.5 74s-28.5 63 -28.5 113v556c0 50 9.66699 88.333 29 115s49.333 51.667 90 75l55 -87c-22.667 -6.66699 -39.167 -19.334 -49.5 -38.001s-15.5 -47 -15.5 -85v-514c0 -12.667 0.5 -24.334 1.5 -35.001
s2.16699 -19.667 3.5 -27s3.66602 -14.166 6.99902 -20.499l7.5 -14c1.66699 -3 5 -6.5 10 -10.5s8.5 -6.66699 10.5 -8s6.33301 -3.5 13 -6.5s11 -5.16699 13 -6.5z" />
    <glyph glyph-name="parenright" unicode=")" horiz-adv-x="333" 
d="M133 -116l-54.999 80.999c2 1.33301 6.33301 3.5 13 6.5s11 5.16699 13 6.5s5.5 4 10.5 8s8.33301 7.5 10 10.5l7.5 14c3.33301 6.33301 5.66602 13.166 6.99902 20.499s2.5 16.333 3.5 27s1.5 22.334 1.5 35.001v514c0 38 -5.16699 66.333 -15.5 85
s-26.833 31.334 -49.5 38.001l55 87c40.667 -23.333 70.667 -48.333 90 -75s29 -65 29 -115v-556c0 -50 -9.5 -87.667 -28.5 -113s-49.5 -50 -91.5 -74z" />
    <glyph glyph-name="asterisk" unicode="*" horiz-adv-x="352" 
d="M314 465l-102 -69l-37 119l-39 -119l-98 71l92 74l-117 10l39 103l96 -67l-33 113h120l-34 -113l94 69l45 -106l-121 -10z" />
    <glyph glyph-name="plus" unicode="+" horiz-adv-x="385" 
d="M250 195h-112v113h-104v105h104v132h112v-132h104v-105h-104v-113z" />
    <glyph glyph-name="comma" unicode="," horiz-adv-x="178" 
d="M70 -84l-69 28.999c14 8 27 16.333 39 25s20.667 15.334 26 20.001l7 7l-12 3c-20 9.33301 -30 25.333 -30 48c0 15.333 5.33301 28 16 38c10 10 22.333 15 37 15h3c17.333 -0.666992 30 -7.66699 38 -21s12 -27.333 12 -42c0 -22.667 -5.16699 -43 -15.5 -61
s-27.5 -38.333 -51.5 -61z" />
    <glyph glyph-name="hyphen" unicode="-" horiz-adv-x="410" 
d="M365 308h-320v105h320v-105z" />
    <glyph glyph-name="period" unicode="." horiz-adv-x="143" 
d="M102 50c0 -13.333 -5 -25 -15 -35s-22 -15 -36 -15c-13.333 0 -25 5 -35 15s-15 21.667 -15 35c0 14 5 26 15 36s21.667 15 35 15c14 0 26 -5 36 -15s15 -22 15 -36z" />
    <glyph glyph-name="slash" unicode="/" horiz-adv-x="469" 
d="M130 -114h-117l324 931h120z" />
    <glyph glyph-name="zero" unicode="0" horiz-adv-x="549" 
d="M483 506v-321.001c0 -67.333 -20.5 -116.833 -61.5 -148.5s-90.167 -47.5 -147.5 -47.5s-106.833 15.833 -148.5 47.5s-62.5 81.167 -62.5 148.5v322c0 68.667 18.833 120.667 56.5 156s89.5 53 155.5 53s117.167 -18.667 153.5 -56s54.5 -88.666 54.5 -153.999z
M373 205.999v264c0 42.667 -6.5 74.5 -19.5 95.5s-39.833 31.5 -80.5 31.5s-67.5 -10.167 -80.5 -30.5s-19.5 -52.166 -19.5 -95.499v-267c0 -32 8.16699 -57.167 24.5 -75.5s41.5 -27.5 75.5 -27.5c31.333 0 55.833 9.66699 73.5 29s26.5 44.666 26.5 75.999z" />
    <glyph glyph-name="one" unicode="1" horiz-adv-x="249" 
d="M237 0l-111 -0.000976562l1 547c-7.33301 -3.33301 -17.833 -6.16602 -31.5 -8.49902s-25.5 -3.83301 -35.5 -4.5l-15 -2l-32 96c4.66699 0.666992 11.167 2 19.5 4s22.5 9.16699 42.5 21.5s37.333 27.833 52 46.5h110v-700z" />
    <glyph glyph-name="two" unicode="2" horiz-adv-x="400" 
d="M388 0l-375 -0.000976562v101l230 337c22 36 33 66.667 33 92c0 10 -1.33301 19 -4 27c-12 30 -36.667 45 -74 45c-18 0 -34 -6.5 -48 -19.5s-21.667 -27.833 -23 -44.5l-97 52c12 34 34 62.5 66 85.5s69 34.5 111 34.5c37.333 0 70.333 -9 99 -27s49.667 -41 63 -69
c10 -22 15 -46.667 15 -74c0 -8 -0.333008 -16.667 -1 -26c-4 -37.333 -18.333 -74.666 -43 -111.999l-199 -301h247v-101z" />
    <glyph glyph-name="three" unicode="3" horiz-adv-x="415" 
d="M13 83l68.002 77.9971c9.33301 -19.333 24 -35.166 44 -47.499s41 -18.5 63 -18.5c33.333 0 59.166 10.333 77.499 31s27.5 45.667 27.5 75c0 66.667 -48.333 102.334 -145 107.001h-110l188 282h-170v110h288v-110l-117 -177l5 -1
c45.333 -9.33301 85.166 -33 119.499 -71s51.5 -84.667 51.5 -140c0 -59.333 -20.833 -109.666 -62.5 -150.999s-91.834 -62 -150.501 -62c-36 0 -69.667 8.5 -101 25.5s-56.666 40.167 -75.999 69.5z" />
    <glyph glyph-name="four" unicode="4" horiz-adv-x="518" 
d="M437 0h-109v308h-315l193 392h112l-127 -287h137v287h109v-287h69l-19 -105h-50v-308z" />
    <glyph glyph-name="five" unicode="5" horiz-adv-x="415" 
d="M13 83l67.999 78.999c16.667 -22.667 32.834 -39.167 48.501 -49.5s35.834 -15.5 60.501 -15.5c36 0 62.167 10 78.5 30s24.5 44.667 24.5 74c0 33.333 -13 59.5 -39 78.5s-61 28.5 -105 28.5h-111l43 392h266v-111h-163l-19 -176h25
c59.333 0 109.666 -20.667 150.999 -62s62 -91.333 62 -150c0 -59.333 -20.833 -109.666 -62.5 -150.999s-91.834 -62 -150.501 -62c-36 0 -69.667 8.5 -101 25.5s-56.666 40.167 -75.999 69.5z" />
    <glyph glyph-name="six" unicode="6" horiz-adv-x="450" 
d="M13 201l-0.000976562 259.997c0 26.667 4 52.834 12 78.501s20.833 51 38.5 76s43.167 45.333 76.5 61s72.333 23.5 117 23.5h35v-110h-26c-20 0 -37.167 -1.66699 -51.5 -5s-29 -9.66602 -44 -18.999s-26.5 -24.666 -34.5 -45.999s-12 -48 -12 -80v-53
c11.333 6.66699 27.333 12.667 48 18s38.334 8 53.001 8c59.333 0 109.666 -20.667 150.999 -62s62 -91.333 62 -150c0 -59.333 -20.667 -109.666 -62 -150.999s-91.666 -62 -150.999 -62c-58.667 0 -108.667 20.667 -150 62s-62 91.666 -62 150.999zM121.999 204.997
v-4.00098c0 -28.667 10 -53.167 30 -73.5s44.333 -30.5 73 -30.5s53 10.167 73 30.5s30 44.833 30 73.5s-10 52.834 -30 72.501s-44.333 29.5 -73 29.5c-28 0 -52.167 -9.5 -72.5 -28.5s-30.5 -42.167 -30.5 -69.5z" />
    <glyph glyph-name="seven" unicode="7" horiz-adv-x="438" 
d="M134 0h-121l290 590h-271v110h394v-110z" />
    <glyph glyph-name="eight" unicode="8" horiz-adv-x="451" 
d="M329 201c0 29.333 -9.66797 54.168 -29.001 74.501s-44.666 30.5 -75.999 30.5c-28 0 -51.833 -10.333 -71.5 -31s-29.5 -45.334 -29.5 -74.001s9.83301 -53 29.5 -73s44.167 -30 73.5 -30s53.833 10 73.5 30s29.5 44.333 29.5 73zM325.999 388.002
c34 -18.667 61.334 -44.5 82.001 -77.5s31 -69.5 31 -109.5c0 -59.333 -20.833 -109.666 -62.5 -150.999s-91.834 -62 -150.501 -62s-108.834 20.667 -150.501 62s-62.5 91.666 -62.5 150.999c0 40.667 10.333 77.667 31 111s48.334 59 83.001 77c-50 34 -75 82 -75 144
c0 48.667 17 90.167 51 124.5s75.333 51.5 124 51.5s90.167 -17.167 124.5 -51.5s51.5 -75.833 51.5 -124.5c0 -62.667 -25.667 -111 -77 -145zM224 468.002c19.333 0 35.667 6.33301 49 19s20 28 20 46c0 18.667 -6.5 34.667 -19.5 48s-28.5 20 -46.5 20
c-18.667 0 -34.667 -6.66699 -48 -20s-20 -29.333 -20 -48c0 -17.333 6.33301 -32.5 19 -45.5s28 -19.5 46 -19.5z" />
    <glyph glyph-name="nine" unicode="9" horiz-adv-x="450" 
d="M194 0h-35.0029v101h39c42.667 0 75.167 14.833 97.5 44.5s33.5 68.834 33.5 117.501v53c-0.666992 0 -3.66699 -1.83301 -9 -5.5s-8.83301 -6 -10.5 -7s-5.16699 -2.83301 -10.5 -5.5s-9.83301 -4.5 -13.5 -5.5s-8.66699 -2.16699 -15 -3.5s-13.166 -2.33301 -20.499 -3
s-15.333 -1 -24 -1c-59.333 0 -109.666 20.667 -150.999 62s-62 91.333 -62 150c0 59.333 20.833 109.666 62.5 150.999s91.834 62 150.501 62s108.667 -20.667 150 -62s62 -91.666 62 -150.999v-258c0 -26.667 -4 -52.834 -12 -78.501s-20.833 -51 -38.5 -76
s-43.167 -45.333 -76.5 -61s-72.333 -23.5 -117 -23.5zM225.997 395c28 0 52.167 10.167 72.5 30.5s30.5 45.5 30.5 75.5c0 26.667 -10.333 50 -31 70s-44.667 30 -72 30c-28 0 -52.167 -10.333 -72.5 -31s-30.5 -45 -30.5 -73s10.167 -52 30.5 -72s44.5 -30 72.5 -30z" />
    <glyph glyph-name="colon" unicode=":" horiz-adv-x="136" 
d="M69 310c-14.667 0 -27.334 5.33301 -38.001 16s-16 23.334 -16 38.001s5.33301 27.334 16 38.001s23.334 16 38.001 16s27.334 -5.33301 38.001 -16s16 -23.334 16 -38.001s-5.33301 -27.334 -16 -38.001s-23.334 -16 -38.001 -16zM124 165
c0 -15.333 -5.5 -28.333 -16.5 -39s-24.167 -16 -39.5 -16c-14.667 0 -27.5 5.33301 -38.5 16s-16.5 23.667 -16.5 39s5.33301 28.5 16 39.5s23.667 16.5 39 16.5s28.5 -5.5 39.5 -16.5s16.5 -24.167 16.5 -39.5z" />
    <glyph glyph-name="semicolon" unicode=";" horiz-adv-x="161" 
d="M96 203c-14.667 0 -27 5 -37 15s-15 22.333 -15 37s5 27 15 37s22.333 15 37 15s27 -5 37 -15s15 -22.333 15 -37s-5 -27 -15 -37s-22.333 -15 -37 -15zM82 -84l-69 28.999c14 8 27 16.333 39 25s20.667 15.334 26 20.001l7 7l-12 3c-20 9.33301 -30 25.333 -30 48
c0 15.333 5.33301 28 16 38c10 10 22.333 15 37 15h3c17.333 -0.666992 30 -7.66699 38 -21s12 -27.333 12 -42c0 -22.667 -5.16699 -43 -15.5 -61s-27.5 -38.333 -51.5 -61z" />
    <glyph glyph-name="less" unicode="&#x3c;" horiz-adv-x="377" 
d="M363 146l-72 -66l-278 278v1l278 278l74 -70l-211 -209z" />
    <glyph glyph-name="equal" unicode="=" horiz-adv-x="345" 
d="M333 357h-320v105h320v-105zM333 204h-320v105h320v-105z" />
    <glyph glyph-name="greater" unicode="&#x3e;" horiz-adv-x="377" 
d="M87 80l-72 66l209 212l-211 209l74 70l278 -278v-1z" />
    <glyph glyph-name="question" unicode="?" horiz-adv-x="395" 
d="M234 119l-109.004 0.000976562v93c0 30.667 4.83301 59.5 14.5 86.5s20.167 48.167 31.5 63.5s25.5 33.5 42.5 54.5s29.167 37.167 36.5 48.5c14 22.667 21 43 21 61c0 3.33301 -0.333008 6.66602 -1 9.99902c-3.33301 20.667 -11.666 37.167 -24.999 49.5
s-27.666 18.5 -42.999 18.5c-26 0 -45.333 -6.66699 -58 -20s-19 -30.666 -19 -51.999h-112c0 50 15.5 92 46.5 126s74.833 51 131.5 51c34.667 0 66.834 -9 96.501 -27s52.834 -40.667 69.501 -68c16.667 -26.667 25 -57.334 25 -92.001c0 -36 -11.333 -70.333 -34 -103
c-12 -17.333 -26.667 -35.333 -44 -54s-30 -33 -38 -43s-15.167 -26.667 -21.5 -50s-9.83301 -53.333 -10.5 -90v-63zM228.996 50.001c0 -13.333 -5 -25 -15 -35s-22 -15 -36 -15c-13.333 0 -25 5 -35 15s-15 21.667 -15 35c0 14 5 26 15 36s21.667 15 35 15
c14 0 26 -5 36 -15s15 -22 15 -36z" />
    <glyph glyph-name="at" unicode="@" horiz-adv-x="769" 
d="M610 162l-1.00195 171.001c0 18.667 0.333008 33 1 43s2.83398 23.333 6.50098 40s9.33398 29.834 17.001 39.501s19 19.334 34 29.001s33.5 16.5 55.5 20.5l34 -90c-13.333 -4.66699 -23.333 -11.834 -30 -21.501s-10.5 -18.167 -11.5 -25.5s-1.5 -18 -1.5 -32v-158
c0 -42.667 -8.5 -80.334 -25.5 -113.001s-38.333 -58.667 -64 -78s-55.667 -35.166 -90 -47.499s-67 -20.666 -98 -24.999s-62.167 -6.5 -93.5 -6.5c-95.333 0 -174.166 24.333 -236.499 73s-93.5 116 -93.5 202v159c0 72.667 21.167 130.167 63.5 172.5
s93.166 69.166 152.499 80.499c24 5.33301 47.667 8 71 8c14 0 28 -1 42 -3c37.333 -4.66699 71.333 -13.834 102 -27.501s55.5 -35.667 74.5 -66s28.5 -66.166 28.5 -107.499l37 -15v-105l-37 15v-203c-31.333 -10 -60.333 -18 -87 -24s-55 -10.667 -85 -14
c-13.333 -1.33301 -26.333 -2 -39 -2c-14.667 0 -28.334 1 -41.001 3c-23.333 4 -45 11.167 -65 21.5s-35.833 26.333 -47.5 48s-18.5 48.5 -20.5 80.5v101c0 74 29.333 122 88 144c17.333 8 37.333 12 60 12c4 0 8 -0.333008 12 -1c27.333 -1.33301 49.666 -4 66.999 -8
s33.333 -8.66699 48 -14c-3.33301 22 -15.166 38.5 -35.499 49.5s-41.5 16.833 -63.5 17.5h-12c-60 0 -109.667 -13.667 -149 -41c-42 -30 -63 -74.667 -63 -134v-140c0 -35.333 7.16699 -65.666 21.5 -90.999s33.5 -44.333 57.5 -57s48.833 -21.834 74.5 -27.501
s52.834 -8.5 81.501 -8.5c30 0 59.5 2.83301 88.5 8.5s56.833 14.167 83.5 25.5s48.167 27.666 64.5 48.999s24.5 45.666 24.5 72.999zM436.998 167.001l0.000976562 163.998c-17.333 8.66699 -35.666 15.667 -54.999 21c-17.333 4 -34 6 -50 6h-6
c-18 -0.666992 -32.833 -6.16699 -44.5 -16.5s-17.5 -25.5 -17.5 -45.5v-55c0 -11.333 0.5 -21.166 1.5 -29.499s4.66699 -18.333 11 -30s15.166 -20.167 26.499 -25.5c9.33301 -4.66699 23 -7 41 -7c3.33301 0 6.66602 0.333008 9.99902 1
c23.333 0.666992 51 6.33398 83 17.001z" />
    <glyph glyph-name="A" unicode="A" horiz-adv-x="527" 
d="M517 0h-131l-41 183h-161l-39 -183h-124l164 700h155zM319 300l-57 216l-52 -216h109z" />
    <glyph glyph-name="B" unicode="B" horiz-adv-x="550" 
d="M297 0l-218.999 -0.000976562v700h204c55.333 0 101.333 -15.333 138 -46s55 -74.334 55 -131.001c0 -62.667 -22 -109 -66 -139c-0.666992 -0.666992 -1 -1.33398 -1 -2.00098v-1c29.333 -13.333 53.833 -34.666 73.5 -63.999s29.5 -66.666 29.5 -111.999
c0 -25.333 -3.66699 -49.5 -11 -72.5s-19 -44.667 -35 -65s-38.333 -36.666 -67 -48.999s-62.334 -18.5 -101.001 -18.5zM188.001 412.999l48 0.000976562c38 0 66 7 84 21s27 38 27 72c0 31.333 -8.33301 53.166 -25 65.499s-42 18.5 -76 18.5h-58v-177zM188.001 101h61
c46 0 80.167 6.83301 102.5 20.5s33.5 42.167 33.5 85.5c0 66.667 -42.333 100 -127 100h-70v-206z" />
    <glyph glyph-name="C" unicode="C" horiz-adv-x="430" 
d="M410 127l17.002 -104c-32.667 -12.667 -65.334 -21.667 -98.001 -27c-21.333 -4 -42.666 -6 -63.999 -6c-10.667 0 -21.667 0.666992 -33 2c-32 2.66699 -60.167 10.5 -84.5 23.5s-44 33.667 -59 62s-22.5 63.5 -22.5 105.5v321c0 50.667 7.16699 89 21.5 115
s36.166 48 65.499 66c30 16.667 65.667 25 107 25h13c46.667 -2 89.667 -13 129 -33l-31 -100c-30.667 11.333 -64.334 17 -101.001 17c-28 0 -50.667 -7.66699 -68 -23s-26 -34.666 -26 -57.999v-328c0 -12 1.33301 -22.833 4 -32.5s7 -17.5 13 -23.5s12 -11.333 18 -16
s14.333 -7.66699 25 -9s19.667 -2.5 27 -3.5s17.5 -0.5 30.5 1.5s23.167 3.5 30.5 4.5s17.833 3.16699 31.5 6.5l28.5 7c5.33301 1.33301 14 3.66602 26 6.99902z" />
    <glyph glyph-name="D" unicode="D" horiz-adv-x="576" 
d="M286 0h-208v701h188c75.333 0 132.833 -20.667 172.5 -62s59.5 -96.333 59.5 -165v-274c0 -133.333 -70.667 -200 -212 -200zM388 190v294c0 36.667 -9.16699 63.5 -27.5 80.5s-46.5 25.5 -84.5 25.5h-88v-489h82c16.667 0 30.667 0.833008 42 2.5
s23.5 5.16699 36.5 10.5s22.833 14.333 29.5 27s10 29 10 49z" />
    <glyph glyph-name="E" unicode="E" horiz-adv-x="465" 
d="M410 0h-332v700h334v-110h-224v-177h137l-31 -105h-106v-208h222v-100z" />
    <glyph glyph-name="F" unicode="F" horiz-adv-x="451" 
d="M188 0h-110v700h334v-110h-224v-177h140l-36 -105h-104v-308z" />
    <glyph glyph-name="G" unicode="G" horiz-adv-x="537" 
d="M476 0l-104 0.000976562l-6 8c-34.667 -12 -64.667 -18 -90 -18c-58.667 0 -108.5 16.667 -149.5 50s-61.5 83 -61.5 149v314c0 85.333 29 145.666 87 180.999c30 16.667 65.667 25 107 25h13c46.667 -2 89.667 -13 129 -33l-33 -99c-32 12 -62.333 18 -91 18
c-32 0 -57 -5.83301 -75 -17.5s-27 -33.5 -27 -65.5v-325c0 -32 8.5 -54.333 25.5 -67s41.833 -19 74.5 -19c60.667 0 91 28.333 91 85v9h-57l-35 105h202v-300z" />
    <glyph glyph-name="H" unicode="H" horiz-adv-x="588" 
d="M508 0h-109v308h-211v-308h-110v700h110v-287h211v287h109v-700z" />
    <glyph glyph-name="I" unicode="I" horiz-adv-x="313" 
d="M233 0h-110v592l-62 2v106h172v-700z" />
    <glyph glyph-name="J" unicode="J" horiz-adv-x="234" 
d="M21 -37l-36.001 94.001c70 0 105 33 105 99v436l-60 2v106h168v-561c0 -63.333 -12.667 -108.333 -38 -135s-71.666 -40.334 -138.999 -41.001z" />
    <glyph glyph-name="K" unicode="K" horiz-adv-x="532" 
d="M530 0h-137l-189 278l-7 -10v-268h-118v701h118v-241l162 241h132l-222 -325z" />
    <glyph glyph-name="L" unicode="L" horiz-adv-x="440" 
d="M439 0h-361v700h110v-599h251v-101z" />
    <glyph glyph-name="M" unicode="M" horiz-adv-x="694" 
d="M614 0h-110v370l-117 -370h-84l-115 369v-369h-110v700h110l157 -463l159 463h110v-700z" />
    <glyph glyph-name="N" unicode="N" horiz-adv-x="650" 
d="M570 0h-111l-271 473v-473h-110v700h110l271 -470v470h111v-700z" />
    <glyph glyph-name="O" unicode="O" horiz-adv-x="549" 
d="M483 506v-321.001c0 -67.333 -20.5 -116.833 -61.5 -148.5s-90.167 -47.5 -147.5 -47.5s-106.833 15.833 -148.5 47.5s-62.5 81.167 -62.5 148.5v322c0 68.667 18.833 120.667 56.5 156s89.5 53 155.5 53s117.167 -18.667 153.5 -56s54.5 -88.666 54.5 -153.999z
M373 205.999v264c0 42.667 -6.5 74.5 -19.5 95.5s-39.833 31.5 -80.5 31.5s-67.5 -10.167 -80.5 -30.5s-19.5 -52.166 -19.5 -95.499v-267c0 -32 8.16699 -57.167 24.5 -75.5s41.5 -27.5 75.5 -27.5c31.333 0 55.833 9.66699 73.5 29s26.5 44.666 26.5 75.999z" />
    <glyph glyph-name="P" unicode="P" horiz-adv-x="551" 
d="M188 300h94.001c22.667 0 42.167 3.66699 58.5 11s28.333 15.5 36 24.5s13.667 21.833 18 38.5s6.66602 29.834 6.99902 39.501s0.5 23.167 0.5 40.5v7c0 51.333 -10 85.666 -30 102.999s-51.333 26 -94 26h-90v-290zM188.001 0h-110v700h228
c70 0 121.833 -22.5 155.5 -67.5s50.5 -101.5 50.5 -169.5c0 -178.667 -65.667 -268 -197 -268h-127v-195z" />
    <glyph glyph-name="Q" unicode="Q" horiz-adv-x="549" 
d="M431 -22l-14 -94.001h-10c-87.333 0 -144.333 36 -171 108c-20 2 -39.167 6.66699 -57.5 14s-36.666 17.833 -54.999 31.5s-33 33.167 -44 58.5s-16.5 55 -16.5 89v322c0 68.667 18.833 120.667 56.5 156s89.5 53 155.5 53s117.167 -18.667 153.5 -56
s54.5 -88.666 54.5 -153.999v-321c0 -56 -13.833 -99 -41.5 -129s-58.834 -48.333 -93.501 -55c8.66699 -10 18.5 -16.333 29.5 -19s28.833 -4 53.5 -4zM373 186.999l-0.00195312 318c0 10 -1.16699 19.5 -3.5 28.5s-6.66602 19 -12.999 30s-16.666 19.667 -30.999 26
s-31.833 9.5 -52.5 9.5c-40 0 -66.667 -8.5 -80 -25.5s-20 -39.833 -20 -68.5v-319c0 -56.667 15 -85 45 -85c-0.666992 4 -1 22.333 -1 55v18h110v-17v-55c30.667 0 46 28.333 46 85z" />
    <glyph glyph-name="R" unicode="R" horiz-adv-x="564" 
d="M513 0l-112 0.000976562l-67 195h-146v-195h-110v700h237c64.667 0 113.667 -22.833 147 -68.5s50 -102.167 50 -169.5c0 -32.667 -0.833008 -58.667 -2.5 -78s-8.5 -44.333 -20.5 -75s-30 -56.334 -54 -77.001zM188 300.001l101 -0.000976562c20.667 0 38.167 4 52.5 12
s24.833 16.833 31.5 26.5s12 23.334 16 41.001s6.16699 31.5 6.5 41.5s0.5 23.667 0.5 41c0 51.333 -10.333 85.333 -31 102s-52.667 25 -96 25h-81v-289z" />
    <glyph glyph-name="S" unicode="S" horiz-adv-x="561" 
d="M37 178l118.001 17.001c3.33301 -29.333 15.333 -53 36 -71s47.667 -27 81 -27c40.667 0 70.667 9.16699 90 27.5s29 38.166 29 59.499c0 26.667 -6.16699 49.667 -18.5 69s-28.5 35.166 -48.5 47.499s-41.833 23.5 -65.5 33.5l-71.5 31.5c-24 11 -46 23.333 -66 37
s-36.167 31.834 -48.5 54.501s-18.5 49.334 -18.5 80.001c0 46.667 19.5 87.167 58.5 121.5s94.833 51.5 167.5 51.5c55.333 0 104 -10 146 -30l-6 -18l-15 -45l-14 -41c-45.333 14.667 -82 22 -110 22c-38 0 -66 -6.66699 -84 -20c-16 -12 -24 -27 -24 -45v-6
c2 -17.333 15 -33.333 39 -48s52.5 -29 85.5 -43s65.667 -30.167 98 -48.5s59.833 -44 82.5 -77s34 -71.833 34 -116.5c0 -59.333 -19.667 -108.333 -59 -147s-99.333 -58 -180 -58c-72.667 0 -129.834 19.167 -171.501 57.5s-63.167 82.166 -64.5 131.499z" />
    <glyph glyph-name="T" unicode="T" horiz-adv-x="402" 
d="M254 0h-110v589h-144v111h402v-111h-148v-589z" />
    <glyph glyph-name="U" unicode="U" horiz-adv-x="566" 
d="M385 230l0.000976562 471h110v-515c0 -35.333 -6.16699 -66 -18.5 -92s-29 -46 -50 -60s-43.167 -24.333 -66.5 -31s-48.333 -10 -75 -10s-51.834 3.33301 -75.501 10s-46 17 -67 31s-37.667 34 -50 60s-18.5 56.667 -18.5 92v515h110v-471
c0 -45.333 6.83301 -78.166 20.5 -98.499s40.167 -30.5 79.5 -30.5c40 0 66.833 10.167 80.5 30.5s20.5 53.166 20.5 98.499z" />
    <glyph glyph-name="V" unicode="V" horiz-adv-x="595" 
d="M382 0h-129l-175 700h124l115 -484l112 484h127z" />
    <glyph glyph-name="W" unicode="W" horiz-adv-x="813" 
d="M640 0h-124l-89 353l-87 -353h-128l-134 700h121l82 -448l107 448h78l107 -448l75 448h126z" />
    <glyph glyph-name="X" unicode="X" horiz-adv-x="694" 
d="M655 0h-141l-152 244l-147 -244h-137l218 350l-206 350h130l147 -232l140 232h131l-205 -341z" />
    <glyph glyph-name="Y" unicode="Y" horiz-adv-x="548" 
d="M342 -19l-35 84.001c22 2.66699 40 11 54 25s21 38.667 21 74v56c-33.333 -16.667 -68.333 -25 -105 -25c-68.667 0 -124 19.667 -166 59s-63 92.333 -63 159v287h110v-277c0 -80 39.667 -120 119 -120c8 0 15.5 0.333008 22.5 1s13.333 1.66699 19 3
s10.834 2.66602 15.501 3.99902s9.16699 3.16602 13.5 5.49902l10.5 5.5c2.66699 1.33301 5.5 3.33301 8.5 6s5.16699 4.66699 6.5 6s3 3.33301 5 6l4 3v357h110v-544c0 -52.667 -11.333 -93.667 -34 -123s-61.334 -46.666 -116.001 -51.999z" />
    <glyph glyph-name="Z" unicode="Z" horiz-adv-x="550" 
d="M518 0h-487v101l342 489h-329v110h468v-110l-344 -486h350v-104z" />
    <glyph glyph-name="bracketleft" unicode="[" horiz-adv-x="319" 
d="M239 -114h-161v931h161v-105l-51 -10v-701l51 -10v-105z" />
    <glyph glyph-name="backslash" unicode="\" horiz-adv-x="561" 
d="M522 -114h-117l-327 931h120z" />
    <glyph glyph-name="bracketright" unicode="]" horiz-adv-x="319" 
d="M239 -114h-161v105l51 10v701l-51 10v105h161v-931z" />
    <glyph glyph-name="asciicircum" unicode="^" horiz-adv-x="407" 
d="M368 758l-67 -39l-76 83l-81 -83l-66 39l148 141z" />
    <glyph glyph-name="underscore" unicode="_" horiz-adv-x="344" 
d="M387 -75h-320v75h320v-75z" />
    <glyph glyph-name="grave" unicode="`" horiz-adv-x="222" 
d="M184 590h-72.999l-49 63c-10.667 14 -16 27 -16 39c0 2 0.333008 4 1 6c2.66699 13.333 10.667 23.333 24 30c4 2.66699 9 4 15 4c5.33301 0 11.666 -1.33301 18.999 -4c15.333 -4.66699 26.333 -14.667 33 -30z" />
    <glyph glyph-name="a" unicode="a" horiz-adv-x="458" 
d="M422 298l0.00195312 -298c-69.333 -6.66699 -124.666 -10 -165.999 -10c-18.667 0 -34.334 0.666992 -47.001 2c-109.333 12 -166.666 66.333 -171.999 163v14v83c0 66 23 110.333 69 133c19.333 10.667 41.333 16 66 16c4 0 7.66699 -0.333008 11 -1
c29.333 -1.33301 54.666 -4.83301 75.999 -10.5s39 -12.5 53 -20.5c0 42.667 -35.667 64 -107 64l9 76c25.333 0 48.166 -1.5 68.499 -4.5s37.5 -8 51.5 -15s26.333 -14.167 37 -21.5s19 -17 25 -29s11 -22.5 15 -31.5s6.66699 -21.167 8 -36.5s2.16602 -27.333 2.49902 -36
s0.5 -21 0.5 -37zM312.002 97v155.002c-10.667 7.33301 -24.5 14.166 -41.5 20.499s-35.167 11.166 -54.5 14.499c-5.33301 0.666992 -10.666 1 -15.999 1c-12 0 -22.667 -2.66699 -32 -8c-13.333 -8 -20 -22 -20 -42v-55c0 -61.333 35.333 -92 106 -92
c17.333 0 36.666 2 57.999 6z" />
    <glyph glyph-name="b" unicode="b" horiz-adv-x="486" 
d="M447 346v-189c0 -66 -26 -112.333 -78 -139c-39.333 -20 -83.333 -30 -132 -30s-101.667 4 -159 12v700h110v-200c28.667 6 55.334 9 80.001 9c35.333 0 66.666 -6.33301 93.999 -19c56.667 -26 85 -74 85 -144zM338 155l-0.00195312 160c0 25.333 -6.66699 45 -20 59
s-28.666 22 -45.999 24h-18c-11.333 0 -22 -0.666992 -32 -2c-16 -3.33301 -27.333 -8 -34 -14v-286c11.333 -4 24 -6 38 -6c16.667 0 35.334 2.66699 56.001 8c37.333 9.33301 56 28.333 56 57z" />
    <glyph glyph-name="c" unicode="c" horiz-adv-x="383" 
d="M328 114l30 -108c-42.667 -11.333 -82.334 -17 -119.001 -17c-32.667 0 -63 4.33301 -91 13c-39.333 13.333 -67.833 33.833 -85.5 61.5s-26.5 66.5 -26.5 116.5v128c0 47.333 9.33301 87 28 119s43.334 54.333 74.001 67c25.333 10.667 53.333 16 84 16
c6 0 12.333 -0.333008 19 -1c38 -2.66699 76.333 -13 115 -31l-30 -95c-34.667 12 -64.334 18 -89.001 18c-18 0 -33 -3 -45 -9c-30.667 -14.667 -46 -40.667 -46 -78v-145c0 -22 7.66699 -38.833 23 -50.5s33.666 -17.834 54.999 -18.501h13c16.667 0 32.334 1 47.001 3
c18.667 2.66699 33.334 6.33398 44.001 11.001z" />
    <glyph glyph-name="d" unicode="d" horiz-adv-x="486" 
d="M78 157l0.000976562 189c0 70 28.333 118 85 144c20 9.33301 42.333 15.333 67 18c13.333 1.33301 25.666 2 36.999 2c10 0 19 -0.666992 27 -2c17.333 -2 32 -5.33301 44 -10v202h109v-700c-57.333 -8 -110.333 -12 -159 -12s-92.667 10 -132 30
c-52 26.667 -78 73 -78 139zM338.001 97l-0.000976562 285c-16 8 -32.667 13 -50 15c-5.33301 0.666992 -10.666 1 -15.999 1c-11.333 0 -22.333 -1.33301 -33 -4c-15.333 -4.66699 -27.833 -14.5 -37.5 -29.5s-14.5 -34.5 -14.5 -58.5v-156
c0 -22.667 15.333 -39.667 46 -51c16 -6 33.667 -9 53 -9c16 0 33.333 2.33301 52 7z" />
    <glyph glyph-name="e" unicode="e" horiz-adv-x="434" 
d="M395 190l-249.001 -12.999v-28c0 -34 15.333 -53.333 46 -58c4.66699 -0.666992 9.33398 -1 14.001 -1c30 0 71.333 13.333 124 40l40 -95c-49.333 -30 -104.333 -45.667 -165 -47h-8c-48 0 -86.667 11.333 -116 34c-30.667 24.667 -46 62 -46 112v205
c0 54 16.833 96 50.5 126s78.167 45 133.5 45s98.5 -14.833 129.5 -44.5s46.5 -70.834 46.5 -123.501v-152zM283.999 287.001v53c0 20 -6.33301 35.333 -19 46s-28.334 16 -47.001 16c-25.333 0 -43.666 -6.66699 -54.999 -20s-17 -28 -17 -44v-60z" />
    <glyph glyph-name="f" unicode="f" horiz-adv-x="325" 
d="M190 0l-112.001 0.000976562v549c0 30 4.5 56.167 13.5 78.5s20.833 39 35.5 50s31.334 19.833 50.001 26.5c16 5.33301 32 8 48 8h7c18.667 -1.33301 36.667 -3 54 -5l-18 -100c-6.66699 1.33301 -16 3 -28 5h-5c-10 0 -19.667 -4.33301 -29 -13
c-10.667 -10.667 -16 -27.334 -16 -50.001v-48h87l-24 -103h-63v-398z" />
    <glyph glyph-name="g" unicode="g" horiz-adv-x="448" 
d="M257 -210l-26 86c22.667 0 40.5 6.5 53.5 19.5s19.5 32.5 19.5 58.5v54c-18 -13.333 -45 -20 -81 -20c-58.667 0 -104.334 16 -137.001 48s-49 78.667 -49 140v149c0 58.667 17.167 104.167 51.5 136.5s80.5 48.5 138.5 48.5c18.667 0 35.334 -2.16699 50.001 -6.5
s24 -8.83301 28 -13.5l21 11h88v-565c0 -97.333 -52.333 -146 -157 -146zM304 231l-0.000976562 84.001c0 57.333 -27 86 -81 86c-27.333 0 -46.833 -7.83301 -58.5 -23.5s-17.5 -34.834 -17.5 -57.501v-129c0 -64.667 25.333 -97 76 -97c32.667 0 54.334 10.667 65.001 32
s16 56.333 16 105z" />
    <glyph glyph-name="h" unicode="h" horiz-adv-x="493" 
d="M433 0l-110.003 -0.000976562v307c0 30.667 -6.16699 54.334 -18.5 71.001s-27.166 26 -44.499 28h-17c-11.333 0 -22 -1 -32 -3c-15.333 -3.33301 -27.666 -8 -36.999 -14v-389h-110v700h110v-203c18.667 8 43.334 12.333 74.001 13h4c30 0 62 -6.33301 96 -19
c56.667 -26 85 -74.333 85 -145v-346z" />
    <glyph glyph-name="i" unicode="i" horiz-adv-x="276" 
d="M138 592c-16 0 -30 6 -42 18s-18 26 -18 42c0 15.333 6 28.833 18 40.5s26 17.5 42 17.5c15.333 0 28.833 -5.83301 40.5 -17.5s17.5 -25.167 17.5 -40.5c0 -16 -5.83301 -30 -17.5 -42s-25.167 -18 -40.5 -18zM190 0h-110v501h110v-501z" />
    <glyph glyph-name="j" unicode="j" horiz-adv-x="236" 
d="M72 -35l0.000976562 433.997l-51 10l-22 92h183v-576c-1.33301 -37.333 -17.5 -69 -48.5 -95s-65.167 -39 -102.5 -39l-30 85c2 0 4.5 0.333008 7.5 1s8.66699 2.83398 17 6.50098s15.666 8.33398 21.999 14.001s12 14.334 17 26.001s7.5 25.5 7.5 41.5zM129.001 591.997
c-16 0 -30 6 -42 18s-18 26 -18 42s6 29.667 18 41s26 17 42 17s29.667 -5.66699 41 -17s17 -25 17 -41s-5.66699 -30 -17 -42s-25 -18 -41 -18z" />
    <glyph glyph-name="k" unicode="k" horiz-adv-x="474" 
d="M476 0h-138l-150 254l-14 -14v-240h-110v700h110v-318l149 138l81 -77l-131 -111z" />
    <glyph glyph-name="l" unicode="l" horiz-adv-x="268" 
d="M188 0h-110v700h110v-700z" />
    <glyph glyph-name="m" unicode="m" horiz-adv-x="741" 
d="M702 0l-109.999 0.00195312v304c0 49.333 -9.66699 80.666 -29 93.999c-8.66699 5.33301 -19.334 8 -32.001 8c-16.667 0 -37.334 -4.66699 -62.001 -14l-17 -7c2.66699 -6.66699 4 -16.334 4 -29.001v-356h-110v301c0 48 -15.667 79.667 -47 95
c-12 6.66699 -25 10 -39 10c-22 0 -46 -7.66699 -72 -23v-383h-110v501h97l13 -7c18 8 38.333 13 61 15c4.66699 0.666992 9.33398 1 14.001 1c18.667 0 38 -3.33301 58 -10c25.333 -8 46.666 -21 63.999 -39c9.33301 5.33301 23.333 12.666 42 21.999
c42.667 17.333 82.334 26 119.001 26h14c41.333 -2.66699 75.333 -18.667 102 -48s40 -67.666 40 -114.999v-346z" />
    <glyph glyph-name="n" unicode="n" horiz-adv-x="500" 
d="M433 0l-109.999 -0.000976562v315c0 38.667 -14.333 65.334 -43 80.001c-12 6 -25 9 -39 9c-20.667 0 -43.334 -6 -68.001 -18v-386h-109v501h97l13 -6c30.667 10 59.667 15 87 15c30.667 0 59.667 -6.33301 87 -19c56.667 -26 85 -74.333 85 -145v-346z" />
    <glyph glyph-name="o" unicode="o" 
d="M451 316v-132c0 -56 -15.333 -102.333 -46 -139s-77 -55 -139 -55s-108.833 18.5 -140.5 55.5s-47.5 83.167 -47.5 138.5v132c0 63.333 16.167 111.833 48.5 145.5s78.833 50.5 139.5 50.5c58 0 103.333 -17.5 136 -52.5s49 -82.833 49 -143.5zM342 174v142.001
c0 19.333 -2.33301 35.166 -7 47.499s-11.5 21 -20.5 26s-17 8.16699 -24 9.5s-15.167 2 -24.5 2c-52 0 -78 -28.333 -78 -85v-142c0 -50.667 26 -76 78 -76c22 0 40.167 6.33301 54.5 19s21.5 31.667 21.5 57z" />
    <glyph glyph-name="p" unicode="p" horiz-adv-x="494" 
d="M188 -188l-110 -21.999v711h104l6 -7c22 10 47.667 15 77 15c62 0 109.167 -18 141.5 -54s48.5 -82.667 48.5 -140v-139c0 -60.667 -17 -107.167 -51 -139.5s-79 -48.5 -135 -48.5c-16 0 -28.667 0.666992 -38 2s-18.5 3.66602 -27.5 6.99902s-14.167 5 -15.5 5v-190z
M345 202.001l-0.000976562 117c0 54.667 -25.333 82 -76 82c-27.333 0 -47.666 -6.83301 -60.999 -20.5s-20 -32.5 -20 -56.5v-136c0 -60 27 -90 81 -90c30.667 0 51 8 61 24s15 42.667 15 80z" />
    <glyph glyph-name="q" unicode="q" horiz-adv-x="448" 
d="M414 -210l-108.998 22.002v191c-1.33301 -0.666992 -4.83301 -2 -10.5 -4s-10.834 -3.66699 -15.501 -5s-12.167 -2.66602 -22.5 -3.99902s-21.5 -2 -33.5 -2c-56 0 -101 16.167 -135 48.5s-51 78.833 -51 139.5v138c0 57.333 16.167 104.166 48.5 140.499
s79.5 54.5 141.5 54.5c10.667 0 20.5 -0.666992 29.5 -2s15.667 -2.83301 20 -4.5s9.66602 -3.83398 15.999 -6.50098s10.5 -4.33398 12.5 -5.00098l7 10h102v-711zM305.002 193.002v120c0 58.667 -27.333 88 -82 88c-51.333 0 -77 -32.667 -77 -98v-124
c0 -54 25.667 -81 77 -81c33.333 0 55.333 8.33301 66 25s16 40 16 70z" />
    <glyph glyph-name="r" unicode="r" horiz-adv-x="380" 
d="M171 0h-109.999v501h102l8 -4c22 7.33301 44.333 11.333 67 12h20c12.667 0 22 -0.333008 28 -1c9.33301 -1.33301 27.666 -5 54.999 -11l-26 -107c-18.667 9.33301 -36.667 14 -54 14c-14.667 0 -29 -3 -43 -9c-31.333 -14 -47 -38.333 -47 -73v-322z" />
    <glyph glyph-name="s" unicode="s" horiz-adv-x="431" 
d="M36 127l110 10.998c0 -12 6.16699 -23.333 18.5 -34s31.166 -16 56.499 -16c22 0 39 5.5 51 16.5s18 23.833 18 38.5c0 19.333 -7.83301 34.833 -23.5 46.5s-34.834 21 -57.501 28s-45.5 15 -68.5 24s-43.333 23.833 -61 44.5s-28.167 47 -31.5 79
c-0.666992 4 -1 8 -1 12c0 32.667 13 62.667 39 90c28 30.667 72.333 46 133 46c21.333 0 41.333 -2.5 60 -7.5s32 -9.83301 40 -14.5l12 -7l-32 -102c-15.333 15.333 -42 23 -80 23c-18.667 0 -32.5 -2.66699 -41.5 -8s-13 -11.166 -12 -17.499s1.5 -11.833 1.5 -16.5
c2 -10 11.833 -19.167 29.5 -27.5s37.834 -16.5 60.501 -24.5s45.334 -18 68.001 -30s41.834 -30 57.501 -54s23.5 -52.667 23.5 -86c0 -43.333 -15.667 -80.166 -47 -110.499s-77.333 -45.5 -138 -45.5c-56.667 0 -101.334 13.667 -134.001 41s-49.667 61 -51 101z" />
    <glyph glyph-name="t" unicode="t" horiz-adv-x="274" 
d="M229 75l-33 -87.999c-101.333 2 -152 50.333 -152 145v568h112v-199h95l-24 -103h-71v-266c0 -22.667 6.33301 -37.834 19 -45.501s30.667 -11.5 54 -11.5z" />
    <glyph glyph-name="u" unicode="u" horiz-adv-x="447" 
d="M409 0l-103 0.000976562l-7 6c-30 -11.333 -55 -17 -75 -17c-125.333 0 -188 61 -188 183v329h110v-313c0 -30.667 5.5 -53.334 16.5 -68.001s31.5 -22 61.5 -22s50 8.16699 60 24.5s15 39.5 15 69.5v309h110v-501z" />
    <glyph glyph-name="v" unicode="v" horiz-adv-x="453" 
d="M278 0h-106l-160 501h120l93 -306l91 306h119z" />
    <glyph glyph-name="w" unicode="w" horiz-adv-x="710" 
d="M530 0h-105l-72 267l-73 -267h-107l-161 501h120l91 -306l81 306h104l84 -306l82 306h118z" />
    <glyph glyph-name="x" unicode="x" horiz-adv-x="551" 
d="M504 0h-131l-88 140l-87 -140h-137l156 249l-156 252h139l86 -143l90 143h136l-159 -251z" />
    <glyph glyph-name="y" unicode="y" horiz-adv-x="506" 
d="M278 -210l-42.999 87.0029c17.333 0 32.833 5.33301 46.5 16s20.5 27.667 20.5 51v58c-30 -9.33301 -57.333 -14 -82 -14c-58.667 0 -103.834 15.833 -135.501 47.5s-47.5 78.5 -47.5 140.5v325h110v-295c0 -42 5.5 -70.5 16.5 -85.5s29.833 -22.5 56.5 -22.5
c29.333 0 50.333 7.16699 63 21.5s19 43.166 19 86.499v157c0 35.333 12.167 67.833 36.5 97.5s55.166 46.167 92.499 49.5l41 -90c-19.333 -4.66699 -34.166 -13.834 -44.499 -27.501s-15.5 -28.834 -15.5 -45.501v-408c0 -43.333 -10.167 -77.5 -30.5 -102.5
s-54.833 -40.5 -103.5 -46.5z" />
    <glyph glyph-name="z" unicode="z" horiz-adv-x="484" 
d="M445 0h-367v104l209 293h-200v104h348v-100l-210 -297h220v-104z" />
    <glyph glyph-name="braceleft" unicode="{" horiz-adv-x="363" 
d="M324 -17l-31 -98.999c-36.667 10 -64.5 22.667 -83.5 38s-33.333 38.5 -43 69.5s-14.5 73.833 -14.5 128.5v127c0 12.667 -5.33301 27.167 -16 43.5s-19.5 27.833 -26.5 34.5l-31.5 29c16 12.667 32 29.334 48 50.001s24 40 24 58v105c0 84 10.333 145.5 31 184.5
s58 62.5 112 70.5l29 -92c-17.333 0 -32 -8.33301 -44 -25s-18 -43.334 -18 -80.001v-169c0 -28.667 -19.333 -62.334 -58 -101.001c40 -40 60 -74 60 -102v-166c0 -38 5.16699 -64.833 15.5 -80.5s25.833 -23.5 46.5 -23.5z" />
    <glyph glyph-name="bar" unicode="|" horiz-adv-x="268" 
d="M188 -114h-110v931h110v-931z" />
    <glyph glyph-name="braceright" unicode="}" horiz-adv-x="363" 
d="M109 -116l-31 98.999c20.667 0 36.167 7.83301 46.5 23.5s15.5 42.5 15.5 80.5v166c0 28 20 62 60 102c-38.667 38.667 -58 72.334 -58 101.001v169c0 36.667 -6 63.334 -18 80.001s-26.667 25 -44 25l29 92c54 -8 91.333 -31.5 112 -70.5s31 -100.5 31 -184.5v-105
c0 -18 8 -37.333 24 -58s32 -37.334 48 -50.001l-31.5 -29c-7 -6.66699 -15.833 -18.167 -26.5 -34.5s-16 -30.833 -16 -43.5v-127c0 -54.667 -4.83301 -97.5 -14.5 -128.5s-24 -54.167 -43 -69.5s-46.833 -28 -83.5 -38z" />
    <glyph glyph-name="asciitilde" unicode="~" horiz-adv-x="539" 
d="M456 379l43.999 -71.001c-21.333 -27.333 -45.666 -44.666 -72.999 -51.999c-13.333 -3.33301 -26.666 -5 -39.999 -5c-14 0 -27.667 2 -41 6c-26.667 7.33301 -53 15 -79 23c-18.667 5.33301 -37 8 -55 8c-8 0 -16 -0.333008 -24 -1c-26 -3.33301 -48.667 -16 -68 -38
l-42 70c22 27.333 47 44.333 75 51c14.667 4 28.667 6 42 6s26.666 -1.66699 39.999 -5c26.667 -6.66699 53 -13.667 79 -21c19.333 -5.33301 38.333 -8 57 -8c7.33301 0 14.333 0.333008 21 1c24.667 2.66699 46 14.667 64 36z" />
    <glyph glyph-name="exclamdown" unicode="&#xa1;" horiz-adv-x="274" 
d="M78 69l19 521h76l21 -522c0 -45.333 -20 -68 -60 -68c-37.333 0 -56 23 -56 69zM136 609c-13.333 0 -25 5 -35 15s-15 22 -15 36c0 13.333 5 25 15 35s21.667 15 35 15c14 0 26 -5 36 -15s15 -21.667 15 -35c0 -14 -5 -26 -15 -36s-22 -15 -36 -15z" />
    <glyph glyph-name="cent" unicode="&#xa2;" horiz-adv-x="439" 
d="M328 -114h-109.001v109c-13.333 2.66699 -23 5 -29 7c-39.333 13.333 -67.833 33.833 -85.5 61.5s-26.5 66.5 -26.5 116.5v128c0 56 12.833 100.667 38.5 134s59.834 54.333 102.501 63v118h109v-121c22.667 -4.66699 46 -12.667 70 -24l-30 -95
c-18.667 6.66699 -32 11 -40 13v-293c18.667 3.33301 32.667 7 42 11l30 -108c-28 -6.66699 -52 -11 -72 -13v-107zM218.999 113v269.001c-20.667 -16 -31 -38.667 -31 -68v-145c0 -26.667 10.333 -45.334 31 -56.001z" />
    <glyph glyph-name="sterling" unicode="&#xa3;" horiz-adv-x="477" 
d="M438 0l-359.999 0.00292969v101c37.333 0 65.666 11 84.999 33s29 52.333 29 91c0 19.333 -4.66699 45.333 -14 78h-77v109h42c-12 34.667 -18 69 -18 103c0 58 18.167 104.833 54.5 140.5s82.5 53.5 138.5 53.5c46 0 82.333 -8.33301 109 -25l-34 -99
c-22.667 12.667 -47.667 19 -75 19c-18 0 -33.167 -3.83301 -45.5 -11.5s-21 -17.334 -26 -29.001s-8.33301 -21.334 -10 -29.001s-2.5 -14.834 -2.5 -21.501c0 -32 6.66699 -65.667 20 -101h167v-109h-131c8 -31.333 12 -56.333 12 -75v-7
c-2 -25.333 -5.16699 -45.5 -9.5 -60.5s-12.833 -34.833 -25.5 -59.5h171v-101z" />
    <glyph glyph-name="currency" unicode="&#xa4;" horiz-adv-x="507" 
d="M390 126l-39.001 39.999c-22.667 -12 -48.334 -18 -77.001 -18c-30.667 0 -56.334 6 -77.001 18l-37 -41l-75 77l36 33c-14.667 20 -22 49.333 -22 88c0 24 6.33301 50.333 19 79l-40 38l83 77l33 -37c20 12.667 46.667 19 80 19c38.667 0 64.334 -6.33301 77.001 -19
l38 38l79 -78l-39 -33l6 -15.5l6 -15.5c1.33301 -3.33301 2.83301 -8 4.5 -14s2.83398 -12 3.50098 -18s1 -13 1 -21c0 -10 -0.666992 -19.167 -2 -27.5s-2.66602 -14.666 -3.99902 -18.999s-3.83301 -11 -7.5 -20s-6.16699 -15.833 -7.5 -20.5l35 -33zM346.999 322.999
c0 20.667 -7.16699 38.167 -21.5 52.5s-31.5 21.5 -51.5 21.5c-20.667 0 -38.167 -7.16699 -52.5 -21.5s-21.5 -31.833 -21.5 -52.5c0 -20 7.16699 -37 21.5 -51s31.833 -21 52.5 -21c20 0 37.167 7 51.5 21s21.5 31 21.5 51z" />
    <glyph glyph-name="yen" unicode="&#xa5;" horiz-adv-x="589" 
d="M369 0h-111v204h-102v105h102v6l-20 42h-82v105h33l-111 238h116l106 -238h26l107 238h117l-112 -238h38v-105h-88l-19 -42v-6h107v-105h-107v-204z" />
    <glyph glyph-name="section" unicode="&#xa7;" horiz-adv-x="594" 
d="M78 -8h113.999c0 -21.333 10.167 -41.5 30.5 -60.5s50.5 -28.5 90.5 -28.5c18.667 0 36.5 1.83301 53.5 5.5s33.5 12.834 49.5 27.501s24 34 24 58c0 21.333 -6.66699 39.5 -20 54.5s-30.666 27.167 -51.999 36.5s-44.666 18.166 -69.999 26.499s-50.5 18.333 -75.5 30
s-47.667 25.667 -68 42s-36.5 38.5 -48.5 66.5c-9.33301 24 -14 51.667 -14 83v16c2 36.667 14 68.667 36 96c-21.333 26.667 -32 58.334 -32 95.001c0 46.667 19.333 87 58 121s94.334 51 167.001 51c55.333 0 104 -10 146 -30l-7 -18c-4 -12 -9.16699 -26.5 -15.5 -43.5
s-11.166 -30.833 -14.499 -41.5c-36.667 18.667 -72.334 28 -107.001 28c-44.667 0 -74.834 -6.5 -90.501 -19.5s-23.5 -29.833 -23.5 -50.5c0 -16.667 8 -31.167 24 -43.5s36 -22.166 60 -29.499s50.333 -17 79 -29s55.667 -25 81 -39s47.333 -34.833 66 -62.5
s30 -60.167 34 -97.5c0.666992 -8.66699 1 -17.334 1 -26.001c0 -16.667 -1.33301 -34 -4 -52c-5.33301 -28.667 -12 -50.667 -20 -66c15.333 -23.333 23 -52 23 -86c0 -61.333 -19.5 -110.5 -58.5 -147.5s-99.167 -55.5 -180.5 -55.5
c-72.667 0 -129.834 19.167 -171.501 57.5s-63.167 82.166 -64.5 131.499zM438.999 171c4.66699 17.333 7.00098 33.666 7.00098 48.999c0 25.333 -10.667 48.166 -32 68.499s-44.833 35.5 -70.5 45.5l-79 29.5c-27 9.66699 -43.167 16.5 -48.5 20.5
c-8.66699 -13.333 -13 -32.666 -13 -57.999c0 -31.333 12.333 -55.666 37 -72.999s59.667 -32.833 105 -46.5s76.666 -25.5 93.999 -35.5z" />
    <glyph glyph-name="dieresis" unicode="&#xa8;" horiz-adv-x="222" 
d="M89 708c0 -12 -4.33301 -22.333 -13 -31s-19.334 -13 -32.001 -13c-12 0 -22.333 4.33301 -31 13s-13 19 -13 31c0 12.667 4.33301 23.334 13 32.001s19 13 31 13c12.667 0 23.334 -4.33301 32.001 -13s13 -19.334 13 -32.001zM177 664
c-12.667 0 -23.334 4.33301 -32.001 13s-13 19.334 -13 32.001s4.33301 23.334 13 32.001s19.334 13 32.001 13s23.334 -4.33301 32.001 -13s13 -19.334 13 -32.001s-4.33301 -23.334 -13 -32.001s-19.334 -13 -32.001 -13z" />
    <glyph glyph-name="copyright" unicode="&#xa9;" horiz-adv-x="800" 
d="M401 -127c-104 0 -192.667 36 -266 108s-110 161.333 -110 268c0 105.333 36.333 193.666 109 264.999s161.667 107 267 107c104.667 0 193 -35.667 265 -107s108 -159.666 108 -264.999c0 -106.667 -36.333 -196 -109 -268s-160.667 -108 -264 -108zM401 -20
c74 0 136.333 25.333 187 76s76 115 76 193c0 74 -25.667 136.667 -77 188s-113.333 77 -186 77c-74.667 0 -137.5 -25 -188.5 -75s-76.5 -113.333 -76.5 -190c0 -78.667 25.5 -143.167 76.5 -193.5s113.833 -75.5 188.5 -75.5zM492 175l106.999 0.000976562
c-10.667 -48 -34 -86.5 -70 -115.5s-77.333 -43.5 -124 -43.5c-66 0 -118.167 21.667 -156.5 65s-57.5 98.666 -57.5 165.999c0 64 19 118.5 57 163.5s89.667 67.5 155 67.5c48.667 0 91.334 -14.333 128.001 -43s59 -66 67 -112h-106
c-3.33301 11.333 -13.833 21.5 -31.5 30.5s-37.5 13.5 -59.5 13.5c-35.333 0 -61.666 -11.333 -78.999 -34s-26 -51 -26 -85c0 -34.667 9.16699 -63.667 27.5 -87s44.5 -35 78.5 -35c23.333 0 44.166 4.66699 62.499 14s27.5 21 27.5 35z" />
    <glyph glyph-name="ordfeminine" unicode="&#xaa;" horiz-adv-x="386" 
d="M347 555l-0.00195312 -163.998c-32 -5.33301 -59.333 -9 -82 -11h-27c-14.667 0 -29.667 0.666992 -45 2c-25.333 2.66699 -45.666 8.66699 -60.999 18s-28.166 24 -38.499 44s-15.5 45 -15.5 75c0 51.333 19.333 85.666 58 102.999c15.333 7.33301 31 11 47 11
c24.667 0 50 -7.66699 76 -23v3c0 8.66699 -0.5 14.667 -1.5 18s-4.16699 7.66602 -9.5 12.999s-14 7.5 -26 6.5s-29 -1.83301 -51 -2.5l10 61c8.66699 0.666992 17 1 25 1c53.333 0 89.333 -10 108 -30c22 -22 33 -63.667 33 -125zM258.998 461.002v74.001
c-16.667 9.33301 -32 15.666 -46 18.999c-5.33301 2 -10.333 3 -15 3c-8 0 -15.333 -2.33301 -22 -7c-10.667 -6 -16 -18.333 -16 -37c0 -36.667 21.667 -55 65 -55c10 0 21.333 1 34 3z" />
    <glyph glyph-name="guillemotleft" unicode="&#xab;" horiz-adv-x="523" 
d="M301 148l-72 -68l-187 187v1l187 187l73 -72l-120 -116zM521 148l-72 -68l-187 187v1l187 187l73 -72l-120 -116z" />
    <glyph glyph-name="uni00AD" unicode="&#xad;" horiz-adv-x="410" 
d="M365 308h-320v105h320v-105z" />
    <glyph glyph-name="registered" unicode="&#xae;" horiz-adv-x="800" 
d="M555 39l-108 -0.000976562l-59 190h-6v-190h-104v437h113c104 0 156 -41.667 156 -125c0 -16 -1 -29.333 -3 -40s-8 -22.667 -18 -36s-24.333 -24.666 -43 -33.999zM382 312.999h22.001c24 0 36 12 36 36c0 10.667 -2.33301 20 -7 28s-11.334 12 -20.001 12h-31v-76z
M401.001 -127.001c-104 0 -192.667 36 -266 108s-110 161.333 -110 268c0 105.333 36.333 193.666 109 264.999s161.667 107 267 107c104.667 0 193 -35.667 265 -107s108 -159.666 108 -264.999c0 -106.667 -36.333 -196 -109 -268s-160.667 -108 -264 -108z
M401.001 -20.001c74 0 136.333 25.333 187 76s76 115 76 193c0 74 -25.667 136.667 -77 188s-113.333 77 -186 77c-74.667 0 -137.5 -25 -188.5 -75s-76.5 -113.333 -76.5 -190c0 -78.667 25.5 -143.167 76.5 -193.5s113.833 -75.5 188.5 -75.5z" />
    <glyph glyph-name="macron" unicode="&#xaf;" horiz-adv-x="338" 
d="M299 619h-221v91h221v-91z" />
    <glyph glyph-name="degree" unicode="&#xb0;" horiz-adv-x="405" 
d="M222 421c-40 0 -74 14 -102 42s-42 62 -42 102s14 74 42 102s62 42 102 42s74 -14 102 -42s42 -62 42 -102s-14 -74 -42 -102s-62 -42 -102 -42zM273 565c0 13.333 -4.66699 25.166 -14 35.499s-21.666 15.5 -36.999 15.5s-27.666 -5.16699 -36.999 -15.5
s-14 -22.166 -14 -35.499c0 -14 4.66699 -26 14 -36s21.666 -15 36.999 -15s27.666 5 36.999 15s14 22 14 36z" />
    <glyph glyph-name="plusminus" unicode="&#xb1;" horiz-adv-x="437" 
d="M398 208h-320v98h109v42h-109v89h109v108h101v-108h110v-89h-110v-42h110v-98z" />
    <glyph glyph-name="acute" unicode="&#xb4;" horiz-adv-x="222" 
d="M119 588h-72.999l46 108c6.66699 15.333 17.667 25.333 33 30c7.33301 2.66699 13.666 4 18.999 4c6 0 11 -1.33301 15 -4c13.333 -6.66699 21.333 -16.667 24 -30c0.666992 -2 1 -4 1 -6c0 -12 -5.33301 -25 -16 -39z" />
    <glyph glyph-name="mu" unicode="&#xb5;" horiz-adv-x="478" 
d="M444 27l-99.999 -33.002l-2 2l-4.5 4.5l-6.5 6.5c-16.667 -12.667 -41 -19 -73 -19c-6.66699 0 -14 0.333008 -22 1c-34 4.66699 -63.667 12.334 -89 23.001v-222l-110 9v702h110v-390c3.33301 -3.33301 16 -7.66602 38 -12.999c19.333 -4 36.666 -6 51.999 -6h6
c42 2.66699 63 37 63 103v302l111 13v-441c2 -18.667 11 -32.667 27 -42z" />
    <glyph glyph-name="paragraph" unicode="&#xb6;" horiz-adv-x="722" 
d="M683 -199h-103.004v835l-68 1v-835l-105 -1v445h-152c-21.333 0 -40.666 2.16699 -57.999 6.5s-32 11 -44 20s-22.5 18.333 -31.5 28s-16 22.5 -21 38.5s-9.16699 30 -12.5 42s-5.66602 28 -6.99902 48s-2.16602 35.667 -2.49902 47s-0.5 27.333 -0.5 48
c0 66.667 15.333 121 46 163s77.334 63 140.001 63h419v-949z" />
    <glyph glyph-name="cedilla" unicode="&#xb8;" horiz-adv-x="266" 
d="M67 -211l34 73c24.667 -16.667 50.667 -25 78 -25c16 0 30 3.16699 42 9.5s18 16.5 18 30.5s-6.66699 23 -20 27c-3.33301 1.33301 -7.33301 2 -12 2c-12 0 -26.333 -4 -43 -12l-44 -22l-35 50l61 78h70l-27 -38c12.667 4.66699 24 7 34 7
c22.667 0 42.667 -8.16699 60 -24.5s26 -38.833 26 -67.5c0 -36.667 -14.833 -64 -44.5 -82s-61.5 -27 -95.5 -27c-30 0 -64 7 -102 21z" />
    <glyph glyph-name="guillemotright" unicode="&#xbb;" horiz-adv-x="519" 
d="M293 80l-72 68l119 119l-120 116l73 72l187 -187v-1zM73 80l-72 68l119 119l-120 116l73 72l187 -187v-1z" />
    <glyph glyph-name="questiondown" unicode="&#xbf;" horiz-adv-x="487" 
d="M336 177h112.004c0 -50 -15.5 -92 -46.5 -126s-74.833 -51 -131.5 -51c-34.667 0 -66.834 9 -96.501 27s-52.834 40.667 -69.501 68c-16.667 26.667 -25 57.334 -25 92.001c0 36 11.333 70.333 34 103c12 17.333 26.667 35.333 44 54s30 33 38 43s15.167 26.667 21.5 50
s9.83301 53.333 10.5 90v63h109v-93c0 -30.667 -4.83301 -59.5 -14.5 -86.5s-20.167 -48.167 -31.5 -63.5s-25.5 -33.5 -42.5 -54.5s-29.167 -37.167 -36.5 -48.5c-14 -22.667 -21 -43 -21 -61c0 -3.33301 0.333008 -7 1 -11c3.33301 -20 11.666 -36.167 24.999 -48.5
s27.666 -18.5 42.999 -18.5c26 0 45.333 6.66699 58 20s19 30.666 19 51.999zM283.004 608c-14 0 -26 5 -36 15s-15 22 -15 36c0 13.333 5 25 15 35s22 15 36 15c13.333 0 25 -5 35 -15s15 -21.667 15 -35c0 -14 -5 -26 -15 -36s-21.667 -15 -35 -15z" />
    <glyph glyph-name="Agrave" unicode="&#xc0;" horiz-adv-x="527" 
d="M517 0h-131l-41 183h-161l-39 -183h-124l164 700h155zM319 300l-57 216l-52 -216h109zM286 733l-72.999 -0.00195312l-49 63c-10.667 14 -16 27 -16 39c0 2 0.333008 4.33301 1 7c2.66699 12.667 10.667 22.334 24 29.001c4 2.66699 9 4 15 4
c5.33301 0 11.666 -1 18.999 -3c15.333 -5.33301 26.333 -15.666 33 -30.999z" />
    <glyph glyph-name="Aacute" unicode="&#xc1;" horiz-adv-x="527" 
d="M517 0h-131l-41 183h-161l-39 -183h-124l164 700h155zM319 300l-57 216l-52 -216h109zM302 731l-72.999 0.00195312l46 108c6.66699 15.333 17.667 25.666 33 30.999c7.33301 2 13.666 3 18.999 3c6 0 11 -1.33301 15 -4c13.333 -6.66699 21.333 -16.334 24 -29.001
c0.666992 -2.66699 1 -5 1 -7c0 -12 -5.33301 -25 -16 -39z" />
    <glyph glyph-name="Acircumflex" unicode="&#xc2;" horiz-adv-x="527" 
d="M517 0h-131l-41 183h-161l-39 -183h-124l164 700h155zM319 300l-57 216l-52 -216h109zM410 770l-67 -39l-76 83l-81 -83l-66 39l148 141z" />
    <glyph glyph-name="Atilde" unicode="&#xc3;" horiz-adv-x="527" 
d="M517 0h-131l-41 183h-161l-39 -183h-124l164 700h155zM319 300l-57 216l-52 -216h109zM405 846l42.001 -65c-22.667 -26.667 -45.334 -43 -68.001 -49c-10 -2.66699 -19.333 -4 -28 -4c-12 0 -23.667 2.33301 -35 7l-58 25c-14.667 6.66699 -30.334 10 -47.001 10h-13
c-22 -2.66699 -43 -14.667 -63 -36l-39 65c23.333 26 46.666 42.333 69.999 49c10.667 2.66699 20.667 4 30 4c12 0 23.333 -2 34 -6l58 -24c14.667 -7.33301 30.334 -11 47.001 -11c4 0 7.66699 0.333008 11 1c20.667 2 40.334 13.333 59.001 34z" />
    <glyph glyph-name="Adieresis" unicode="&#xc4;" horiz-adv-x="527" 
d="M517 0h-131l-41 183h-161l-39 -183h-124l164 700h155zM319 300l-57 216l-52 -216h109zM240 775c0 -12 -4.33301 -22.333 -13 -31s-19.334 -13 -32.001 -13c-12 0 -22.333 4.33301 -31 13s-13 19 -13 31c0 12.667 4.33301 23.334 13 32.001s19 13 31 13
c12.667 0 23.334 -4.33301 32.001 -13s13 -19.334 13 -32.001zM328 731c-12.667 0 -23.334 4.33301 -32.001 13s-13 19.334 -13 32.001s4.33301 23.334 13 32.001s19.334 13 32.001 13s23.334 -4.33301 32.001 -13s13 -19.334 13 -32.001s-4.33301 -23.334 -13 -32.001
s-19.334 -13 -32.001 -13z" />
    <glyph glyph-name="Aring" unicode="&#xc5;" horiz-adv-x="527" 
d="M517 0h-131l-41 183h-161l-39 -183h-124l163 697c-18.667 20.667 -28 45 -28 73c0 29.333 10.5 54.5 31.5 75.5s46.167 31.5 75.5 31.5s54.5 -10.5 75.5 -31.5s31.5 -46.167 31.5 -75.5c0 -28 -9.66699 -52.333 -29 -73zM319 300l-57 216l-52 -216h109zM263 740
c8.66699 0 15.667 2.83301 21 8.5s8 12.834 8 21.501s-2.66699 15.667 -8 21s-12.333 8 -21 8s-15.834 -2.66699 -21.501 -8s-8.5 -12.333 -8.5 -21s2.83301 -15.834 8.5 -21.501s12.834 -8.5 21.501 -8.5z" />
    <glyph glyph-name="AE" unicode="&#xc6;" horiz-adv-x="818" 
d="M777 0h-333l1 195h-137l-100 -195h-130l366 700h335v-110h-224v-177h152l-34 -105h-118v-207h222v-101zM445 300v162l-82 -162h82z" />
    <glyph glyph-name="Ccedilla" unicode="&#xc7;" horiz-adv-x="430" 
d="M125 -211l34.0029 73.001c24.667 -16.667 50.667 -25 78 -25c16 0 30 3.16699 42 9.5s18 16.5 18 30.5s-6.66699 23 -20 27c-3.33301 1.33301 -7.33301 2 -12 2c-12 0 -26.333 -4 -43 -12l-44 -22l-35 50l58 74c-90 19.333 -135 81.666 -135 186.999v321
c0 50.667 7.16699 89 21.5 115s36.166 48 65.499 66c30 16.667 65.667 25 107 25h13c46.667 -2 89.667 -13 129 -33l-31 -100c-30.667 11.333 -64.334 17 -101.001 17c-28 0 -50.667 -7.66699 -68 -23s-26 -34.666 -26 -57.999v-328c0 -12 1.33301 -22.833 4 -32.5
s7 -17.5 13 -23.5s12 -11.333 18 -16s14.333 -7.66699 25 -9s19.667 -2.5 27 -3.5s17.5 -0.5 30.5 1.5s23.167 3.5 30.5 4.5s17.833 3.16699 31.5 6.5l28.5 7c5.33301 1.33301 14 3.66602 26 6.99902l17 -104c-54.667 -21.333 -108.334 -32.333 -161.001 -33l-19 -28
c12.667 4.66699 24 7 34 7c22.667 0 42.667 -8.16699 60 -24.5s26 -38.833 26 -67.5c0 -36.667 -14.833 -64 -44.5 -82s-61.5 -27 -95.5 -27c-30 0 -64 7 -102 21z" />
    <glyph glyph-name="Egrave" unicode="&#xc8;" horiz-adv-x="465" 
d="M410 0h-332v700h334v-110h-224v-177h137l-31 -105h-106v-208h222v-100zM280 732h-72.999l-49 63c-10.667 14 -16 27 -16 39c0 2 0.333008 4 1 6c2.66699 13.333 10.667 23.333 24 30c4 2.66699 9 4 15 4c5.33301 0 11.666 -1.33301 18.999 -4
c15.333 -4.66699 26.333 -14.667 33 -30z" />
    <glyph glyph-name="Eacute" unicode="&#xc9;" horiz-adv-x="465" 
d="M410 0h-332v700h334v-110h-224v-177h137l-31 -105h-106v-208h222v-100zM310 730h-72.999l46 108c6.66699 15.333 17.667 25.333 33 30c7.33301 2.66699 13.666 4 18.999 4c6 0 11 -1.33301 15 -4c13.333 -6.66699 21.333 -16.667 24 -30c0.666992 -2 1 -4 1 -6
c0 -12 -5.33301 -25 -16 -39z" />
    <glyph glyph-name="Ecircumflex" unicode="&#xca;" horiz-adv-x="465" 
d="M410 0h-332v700h334v-110h-224v-177h137l-31 -105h-106v-208h222v-100zM392 770l-67 -39l-76 83l-81 -83l-66 39l148 141z" />
    <glyph glyph-name="Edieresis" unicode="&#xcb;" horiz-adv-x="465" 
d="M410 0h-332v700h334v-110h-224v-177h137l-31 -105h-106v-208h222v-100zM220 775c0 -12 -4.33301 -22.333 -13 -31s-19.334 -13 -32.001 -13c-12 0 -22.333 4.33301 -31 13s-13 19 -13 31c0 12.667 4.33301 23.334 13 32.001s19 13 31 13
c12.667 0 23.334 -4.33301 32.001 -13s13 -19.334 13 -32.001zM308 731c-12.667 0 -23.334 4.33301 -32.001 13s-13 19.334 -13 32.001s4.33301 23.334 13 32.001s19.334 13 32.001 13s23.334 -4.33301 32.001 -13s13 -19.334 13 -32.001s-4.33301 -23.334 -13 -32.001
s-19.334 -13 -32.001 -13z" />
    <glyph glyph-name="Igrave" unicode="&#xcc;" horiz-adv-x="330" 
d="M250 0h-110v592l-62 2v106h172v-700zM248 732h-72.999l-49 63c-10.667 14 -16 27 -16 39c0 2 0.333008 4 1 6c2.66699 13.333 10.667 23.333 24 30c4 2.66699 9 4 15 4c5.33301 0 11.666 -1.33301 18.999 -4c15.333 -4.66699 26.333 -14.667 33 -30z" />
    <glyph glyph-name="Iacute" unicode="&#xcd;" horiz-adv-x="383" 
d="M250 0h-110v592l-62 2v106h172v-700zM238 730h-72.999l46 108c6.66699 15.333 17.667 25.333 33 30c7.33301 2.66699 13.666 4 18.999 4c6 0 11 -1.33301 15 -4c13.333 -6.66699 21.333 -16.667 24 -30c0.666992 -2 1 -4 1 -6c0 -12 -5.33301 -25 -16 -39z" />
    <glyph glyph-name="Icircumflex" unicode="&#xce;" horiz-adv-x="448" 
d="M280 0h-110v592l-62 2v106h172v-700zM368 770l-67 -39l-76 83l-81 -83l-66 39l148 141z" />
    <glyph glyph-name="Idieresis" unicode="&#xcf;" horiz-adv-x="380" 
d="M262 0h-110v592l-62 2v106h172v-700zM167 773c0 -12 -4.33301 -22.333 -13 -31s-19.334 -13 -32.001 -13c-12 0 -22.333 4.33301 -31 13s-13 19 -13 31c0 12.667 4.33301 23.334 13 32.001s19 13 31 13c12.667 0 23.334 -4.33301 32.001 -13s13 -19.334 13 -32.001z
M255 729c-12.667 0 -23.334 4.33301 -32.001 13s-13 19.334 -13 32.001s4.33301 23.334 13 32.001s19.334 13 32.001 13s23.334 -4.33301 32.001 -13s13 -19.334 13 -32.001s-4.33301 -23.334 -13 -32.001s-19.334 -13 -32.001 -13z" />
    <glyph glyph-name="Eth" unicode="&#xd0;" horiz-adv-x="644" 
d="M335 0l-207.999 -0.000976562v395h-49v105h49v201h188c70 0 124.667 -18.167 164 -54.5s61.666 -85.166 66.999 -146.499h59v-105h-58v-195c0 -133.333 -70.667 -200 -212 -200zM437.001 189.999v205h-200v-294h82c16.667 0 30.667 0.833008 42 2.5
s23.5 5.16699 36.5 10.5s22.833 14.333 29.5 27s10 29 10 49zM237.001 499.999h199c-4.66699 60 -41.667 90 -111 90h-88v-90z" />
    <glyph glyph-name="Ntilde" unicode="&#xd1;" horiz-adv-x="650" 
d="M570 0h-111l-271 473v-473h-110v700h110l271 -470v470h111v-700zM467 845l42.002 -65c-22.667 -26.667 -45.334 -43 -68.001 -49c-10 -2.66699 -19.333 -4 -28 -4c-12 0 -23.667 2.33301 -35 7l-58 25c-14.667 6.66699 -30.334 10 -47.001 10
c-4.66699 0 -9 -0.333008 -13 -1c-22 -2 -43 -13.667 -63 -35l-39 65c23.333 26 46.666 42 69.999 48c10.667 3.33301 20.667 5 30 5c12 0 23.333 -2.33301 34 -7c19.333 -7.33301 38.666 -15.333 57.999 -24c14.667 -6.66699 30.334 -10 47.001 -10
c4 0 7.66699 0.333008 11 1c20.667 2 40.334 13.333 59.001 34z" />
    <glyph glyph-name="Ograve" unicode="&#xd2;" horiz-adv-x="549" 
d="M483 506v-321.001c0 -67.333 -20.5 -116.833 -61.5 -148.5s-90.167 -47.5 -147.5 -47.5s-106.833 15.833 -148.5 47.5s-62.5 81.167 -62.5 148.5v322c0 68.667 18.833 120.667 56.5 156s89.5 53 155.5 53s117.167 -18.667 153.5 -56s54.5 -88.666 54.5 -153.999z
M373 205.999v264c0 42.667 -6.5 74.5 -19.5 95.5s-39.833 31.5 -80.5 31.5s-67.5 -10.167 -80.5 -30.5s-19.5 -52.166 -19.5 -95.499v-267c0 -32 8.16699 -57.167 24.5 -75.5s41.5 -27.5 75.5 -27.5c31.333 0 55.833 9.66699 73.5 29s26.5 44.666 26.5 75.999zM302 731.999
h-72.999l-49 63c-10.667 14 -16 27 -16 39c0 2 0.333008 4 1 6c2.66699 13.333 10.667 23.333 24 30c4 2.66699 9 4 15 4c5.33301 0 11.666 -1.33301 18.999 -4c15.333 -4.66699 26.333 -14.667 33 -30z" />
    <glyph glyph-name="Oacute" unicode="&#xd3;" horiz-adv-x="549" 
d="M483 506v-321.001c0 -67.333 -20.5 -116.833 -61.5 -148.5s-90.167 -47.5 -147.5 -47.5s-106.833 15.833 -148.5 47.5s-62.5 81.167 -62.5 148.5v322c0 68.667 18.833 120.667 56.5 156s89.5 53 155.5 53s117.167 -18.667 153.5 -56s54.5 -88.666 54.5 -153.999z
M373 205.999v264c0 42.667 -6.5 74.5 -19.5 95.5s-39.833 31.5 -80.5 31.5s-67.5 -10.167 -80.5 -30.5s-19.5 -52.166 -19.5 -95.499v-267c0 -32 8.16699 -57.167 24.5 -75.5s41.5 -27.5 75.5 -27.5c31.333 0 55.833 9.66699 73.5 29s26.5 44.666 26.5 75.999zM330 729.999
h-72.999l46 108c6.66699 15.333 17.667 25.333 33 30c7.33301 2.66699 13.666 4 18.999 4c6 0 11 -1.33301 15 -4c13.333 -6.66699 21.333 -16.667 24 -30c0.666992 -2 1 -4 1 -6c0 -12 -5.33301 -25 -16 -39z" />
    <glyph glyph-name="Ocircumflex" unicode="&#xd4;" horiz-adv-x="549" 
d="M483 506v-321.001c0 -67.333 -20.5 -116.833 -61.5 -148.5s-90.167 -47.5 -147.5 -47.5s-106.833 15.833 -148.5 47.5s-62.5 81.167 -62.5 148.5v322c0 68.667 18.833 120.667 56.5 156s89.5 53 155.5 53s117.167 -18.667 153.5 -56s54.5 -88.666 54.5 -153.999z
M373 205.999v264c0 42.667 -6.5 74.5 -19.5 95.5s-39.833 31.5 -80.5 31.5s-67.5 -10.167 -80.5 -30.5s-19.5 -52.166 -19.5 -95.499v-267c0 -32 8.16699 -57.167 24.5 -75.5s41.5 -27.5 75.5 -27.5c31.333 0 55.833 9.66699 73.5 29s26.5 44.666 26.5 75.999zM420 769.999
l-67 -39l-76 83l-81 -83l-66 39l148 141z" />
    <glyph glyph-name="Otilde" unicode="&#xd5;" horiz-adv-x="549" 
d="M483 506v-321.001c0 -67.333 -20.5 -116.833 -61.5 -148.5s-90.167 -47.5 -147.5 -47.5s-106.833 15.833 -148.5 47.5s-62.5 81.167 -62.5 148.5v322c0 68.667 18.833 120.667 56.5 156s89.5 53 155.5 53s117.167 -18.667 153.5 -56s54.5 -88.666 54.5 -153.999z
M373 205.999v264c0 42.667 -6.5 74.5 -19.5 95.5s-39.833 31.5 -80.5 31.5s-67.5 -10.167 -80.5 -30.5s-19.5 -52.166 -19.5 -95.499v-267c0 -32 8.16699 -57.167 24.5 -75.5s41.5 -27.5 75.5 -27.5c31.333 0 55.833 9.66699 73.5 29s26.5 44.666 26.5 75.999zM420 846.999
l42.0029 -65c-22.667 -26.667 -45.334 -43 -68.001 -49c-10 -2.66699 -19.333 -4 -28 -4c-12 0 -23.667 2.33301 -35 7c-19.333 8 -38.333 16.333 -57 25c-15.333 6.66699 -31.333 10 -48 10c-4.66699 0 -9.33398 -0.333008 -14.001 -1c-21.333 -2 -42 -13.667 -62 -35
l-39 65c23.333 26 46.666 42 69.999 48c10.667 3.33301 20.667 5 30 5c12 0 23.333 -2.33301 34 -7c19.333 -7.33301 38.333 -15.333 57 -24c15.333 -6.66699 31.333 -10 48 -10c4 0 8 0.333008 12 1c20 2 39.333 13.333 58 34z" />
    <glyph glyph-name="Odieresis" unicode="&#xd6;" horiz-adv-x="549" 
d="M483 506v-321.001c0 -67.333 -20.5 -116.833 -61.5 -148.5s-90.167 -47.5 -147.5 -47.5s-106.833 15.833 -148.5 47.5s-62.5 81.167 -62.5 148.5v322c0 68.667 18.833 120.667 56.5 156s89.5 53 155.5 53s117.167 -18.667 153.5 -56s54.5 -88.666 54.5 -153.999z
M373 205.999v264c0 42.667 -6.5 74.5 -19.5 95.5s-39.833 31.5 -80.5 31.5s-67.5 -10.167 -80.5 -30.5s-19.5 -52.166 -19.5 -95.499v-267c0 -32 8.16699 -57.167 24.5 -75.5s41.5 -27.5 75.5 -27.5c31.333 0 55.833 9.66699 73.5 29s26.5 44.666 26.5 75.999zM249 774.999
c0 -12 -4.33301 -22.333 -13 -31s-19.334 -13 -32.001 -13c-12 0 -22.333 4.33301 -31 13s-13 19 -13 31c0 12.667 4.33301 23.334 13 32.001s19 13 31 13c12.667 0 23.334 -4.33301 32.001 -13s13 -19.334 13 -32.001zM337 730.999c-12.667 0 -23.334 4.33301 -32.001 13
s-13 19.334 -13 32.001s4.33301 23.334 13 32.001s19.334 13 32.001 13s23.334 -4.33301 32.001 -13s13 -19.334 13 -32.001s-4.33301 -23.334 -13 -32.001s-19.334 -13 -32.001 -13z" />
    <glyph glyph-name="multiply" unicode="&#xd7;" horiz-adv-x="432" 
d="M392 218l-70 -61l-87 103l-86 -104l-68 62l94 115l-97 115l71 60l86 -103l86 104l72 -58l-98 -118z" />
    <glyph glyph-name="Oslash" unicode="&#xd8;" horiz-adv-x="561" 
d="M195 -114h-117.001l57 163c-32.667 34 -49 79.333 -49 136v322c0 68.667 18.833 120.667 56.5 156s89.5 53 155.5 53c22.667 0 44.667 -2.66699 66 -8l38 109h120l-60 -169c29.333 -36.667 44 -84 44 -142v-321c0 -67.333 -20.5 -116.833 -61.5 -148.5
s-90.167 -47.5 -147.5 -47.5c-23.333 0 -44.666 2.33301 -63.999 7zM195.999 225l128 368.999c-8 2 -17.333 3 -28 3c-40.667 0 -67.5 -10.167 -80.5 -30.5s-19.5 -52.166 -19.5 -95.499v-246zM395.999 205.999v252.001l-125 -355c4.66699 -1.33301 13 -2 25 -2
c31.333 0 55.833 9.66699 73.5 29s26.5 44.666 26.5 75.999z" />
    <glyph glyph-name="Ugrave" unicode="&#xd9;" horiz-adv-x="566" 
d="M385 230l0.000976562 471h110v-515c0 -35.333 -6.16699 -66 -18.5 -92s-29 -46 -50 -60s-43.167 -24.333 -66.5 -31s-48.333 -10 -75 -10s-51.834 3.33301 -75.501 10s-46 17 -67 31s-37.667 34 -50 60s-18.5 56.667 -18.5 92v515h110v-471
c0 -45.333 6.83301 -78.166 20.5 -98.499s40.167 -30.5 79.5 -30.5c40 0 66.833 10.167 80.5 30.5s20.5 53.166 20.5 98.499zM322.001 732h-72.999l-49 63c-10.667 14 -16 27 -16 39c0 2 0.333008 4 1 6c2.66699 13.333 10.667 23.333 24 30c4 2.66699 9 4 15 4
c5.33301 0 11.666 -1.33301 18.999 -4c15.333 -4.66699 26.333 -14.667 33 -30z" />
    <glyph glyph-name="Uacute" unicode="&#xda;" horiz-adv-x="566" 
d="M385 230l0.000976562 471h110v-515c0 -35.333 -6.16699 -66 -18.5 -92s-29 -46 -50 -60s-43.167 -24.333 -66.5 -31s-48.333 -10 -75 -10s-51.834 3.33301 -75.501 10s-46 17 -67 31s-37.667 34 -50 60s-18.5 56.667 -18.5 92v515h110v-471
c0 -45.333 6.83301 -78.166 20.5 -98.499s40.167 -30.5 79.5 -30.5c40 0 66.833 10.167 80.5 30.5s20.5 53.166 20.5 98.499zM321.001 731l-72.999 0.00195312l46 108c6.66699 15.333 17.667 25.666 33 30.999c7.33301 2 13.666 3 18.999 3c6 0 11 -1.33301 15 -4
c13.333 -6.66699 21.333 -16.334 24 -29.001c0.666992 -2.66699 1 -5 1 -7c0 -12 -5.33301 -25 -16 -39z" />
    <glyph glyph-name="Ucircumflex" unicode="&#xdb;" horiz-adv-x="566" 
d="M385 230l0.000976562 471h110v-515c0 -35.333 -6.16699 -66 -18.5 -92s-29 -46 -50 -60s-43.167 -24.333 -66.5 -31s-48.333 -10 -75 -10s-51.834 3.33301 -75.501 10s-46 17 -67 31s-37.667 34 -50 60s-18.5 56.667 -18.5 92v515h110v-471
c0 -45.333 6.83301 -78.166 20.5 -98.499s40.167 -30.5 79.5 -30.5c40 0 66.833 10.167 80.5 30.5s20.5 53.166 20.5 98.499zM429.001 770l-67 -39l-76 83l-81 -83l-66 39l148 141z" />
    <glyph glyph-name="Udieresis" unicode="&#xdc;" horiz-adv-x="566" 
d="M385 230l0.000976562 471h110v-515c0 -35.333 -6.16699 -66 -18.5 -92s-29 -46 -50 -60s-43.167 -24.333 -66.5 -31s-48.333 -10 -75 -10s-51.834 3.33301 -75.501 10s-46 17 -67 31s-37.667 34 -50 60s-18.5 56.667 -18.5 92v515h110v-471
c0 -45.333 6.83301 -78.166 20.5 -98.499s40.167 -30.5 79.5 -30.5c40 0 66.833 10.167 80.5 30.5s20.5 53.166 20.5 98.499zM261.001 775c0 -12 -4.33301 -22.333 -13 -31s-19.334 -13 -32.001 -13c-12 0 -22.333 4.33301 -31 13s-13 19 -13 31
c0 12.667 4.33301 23.334 13 32.001s19 13 31 13c12.667 0 23.334 -4.33301 32.001 -13s13 -19.334 13 -32.001zM349.001 731c-12.667 0 -23.334 4.33301 -32.001 13s-13 19.334 -13 32.001s4.33301 23.334 13 32.001s19.334 13 32.001 13s23.334 -4.33301 32.001 -13
s13 -19.334 13 -32.001s-4.33301 -23.334 -13 -32.001s-19.334 -13 -32.001 -13z" />
    <glyph glyph-name="Yacute" unicode="&#xdd;" horiz-adv-x="548" 
d="M342 -19l-35 84.001c22 2.66699 40 11 54 25s21 38.667 21 74v56c-33.333 -16.667 -68.333 -25 -105 -25c-68.667 0 -124 19.667 -166 59s-63 92.333 -63 159v287h110v-277c0 -80 39.667 -120 119 -120c8 0 15.5 0.333008 22.5 1s13.333 1.66699 19 3
s10.834 2.66602 15.501 3.99902s9.16699 3.16602 13.5 5.49902l10.5 5.5c2.66699 1.33301 5.5 3.33301 8.5 6s5.16699 4.66699 6.5 6s3 3.33301 5 6l4 3v357h110v-544c0 -52.667 -11.333 -93.667 -34 -123s-61.334 -46.666 -116.001 -51.999zM307 731.001
l-72.999 0.00195312l46 108c6.66699 15.333 17.667 25.666 33 30.999c7.33301 2 13.666 3 18.999 3c6 0 11 -1.33301 15 -4c13.333 -6.66699 21.333 -16.334 24 -29.001c0.666992 -2.66699 1 -5 1 -7c0 -12 -5.33301 -25 -16 -39z" />
    <glyph glyph-name="Thorn" unicode="&#xde;" horiz-adv-x="494" 
d="M186 0h-108v700h108v-208c25.333 11.333 51.666 17 78.999 17c62 0 109.167 -18 141.5 -54s48.5 -82.667 48.5 -140c0 -62.667 -17.167 -111.5 -51.5 -146.5s-79.166 -52.5 -134.499 -52.5c-33.333 0 -61 7.66699 -83 23v-139zM269 220c20 0 37.833 7.5 53.5 22.5
s23.5 39.5 23.5 73.5c0 22 -6.16699 42.167 -18.5 60.5s-31.833 27.5 -58.5 27.5c-20.667 0 -39.667 -8 -57 -24s-26 -36.667 -26 -62c0 -34.667 8.16699 -59.667 24.5 -75s35.833 -23 58.5 -23z" />
    <glyph glyph-name="germandbls" unicode="&#xdf;" horiz-adv-x="564" 
d="M187 0l-109 -0.00390625v537c0 49.333 14.667 89 44 119s68.333 45 117 45c40 0 73.333 -8.83301 100 -26.5s44 -38.5 52 -62.5c4.66699 -15.333 7 -30.666 7 -45.999c0 -9.33301 -0.666992 -19 -2 -29c-5.33301 -25.333 -16.666 -45.666 -33.999 -60.999l-20 1
c-6.66699 -10 -10 -20 -10 -30c0 -11.333 2.66699 -21.666 8 -30.999c4.66699 -8.66699 12.167 -18.5 22.5 -29.5s20.5 -20.833 30.5 -29.5l37 -32.5c14.667 -13 27 -25.167 37 -36.5c17.333 -18.667 31 -38.834 41 -60.501s15.667 -46.167 17 -73.5v-7
c0 -25.333 -7 -51 -21 -77c-18 -34.667 -46 -58.667 -84 -72c-23.333 -7.33301 -46.666 -11 -69.999 -11c-14.667 0 -29.334 1.66699 -44.001 5c-38.667 8 -71.334 23 -98.001 45l48 101c18.667 -18 38 -30.667 58 -38c14 -4.66699 26.667 -7 38 -7c4 0 8 0.333008 12 1
c14 2.66699 24.333 9 31 19c9.33301 12.667 14 26.334 14 41.001c0 27.333 -15.667 57 -47 89l-40.5 39l-42 40c-10.333 10 -21.333 23 -33 39s-19.5 30.667 -23.5 44c-2.66699 9.33301 -4 20 -4 32c0 4.66699 0.333008 9.66699 1 15c1.33301 18 7.33301 36.333 18 55
c20 0 34.667 7.66699 44 23c5.33301 8.66699 8 17.334 8 26.001c0 6 -1.33301 12 -4 18c-6.66699 14.667 -19.667 22 -39 22c-40 0 -60 -30 -60 -90v-506z" />
    <glyph glyph-name="agrave" unicode="&#xe0;" horiz-adv-x="502" 
d="M463 298l0.00195312 -298c-69.333 -6.66699 -124.666 -10 -165.999 -10c-18.667 0 -34.334 0.666992 -47.001 2c-109.333 12 -166.666 66.333 -171.999 163v14v83c0 66 23 110.333 69 133c19.333 10.667 41.333 16 66 16c4 0 7.66699 -0.333008 11 -1
c29.333 -1.33301 54.666 -4.83301 75.999 -10.5s39 -12.5 53 -20.5c0 42.667 -35.667 64 -107 64l9 76c25.333 0 48.166 -1.5 68.499 -4.5s37.5 -8 51.5 -15s26.333 -14.167 37 -21.5s19 -17 25 -29s11 -22.5 15 -31.5s6.66699 -21.167 8 -36.5s2.16602 -27.333 2.49902 -36
s0.5 -21 0.5 -37zM353.002 97l0.000976562 155.002c-10.667 7.33301 -24.5 14.166 -41.5 20.499s-34.833 11.166 -53.5 14.499c-6 0.666992 -11.667 1 -17 1c-12 0 -22.667 -2.66699 -32 -8c-13.333 -8 -20 -22 -20 -42v-55c0 -61.333 35.333 -92 106 -92
c17.333 0 36.666 2 57.999 6zM302.003 540.002h-72.999l-49 63c-10.667 14 -16 27 -16 39c0 2 0.333008 4 1 6c2.66699 13.333 10.667 23.333 24 30c4 2.66699 9 4 15 4c5.33301 0 11.666 -1.33301 18.999 -4c15.333 -4.66699 26.333 -14.667 33 -30z" />
    <glyph glyph-name="aacute" unicode="&#xe1;" horiz-adv-x="502" 
d="M463 298l0.00195312 -298c-69.333 -6.66699 -124.666 -10 -165.999 -10c-18.667 0 -34.334 0.666992 -47.001 2c-109.333 12 -166.666 66.333 -171.999 163v14v83c0 66 23 110.333 69 133c19.333 10.667 41.333 16 66 16c4 0 7.66699 -0.333008 11 -1
c29.333 -1.33301 54.666 -4.83301 75.999 -10.5s39 -12.5 53 -20.5c0 42.667 -35.667 64 -107 64l9 76c25.333 0 48.166 -1.5 68.499 -4.5s37.5 -8 51.5 -15s26.333 -14.167 37 -21.5s19 -17 25 -29s11 -22.5 15 -31.5s6.66699 -21.167 8 -36.5s2.16602 -27.333 2.49902 -36
s0.5 -21 0.5 -37zM353.002 97l0.000976562 155.002c-10.667 7.33301 -24.5 14.166 -41.5 20.499s-34.833 11.166 -53.5 14.499c-6 0.666992 -11.667 1 -17 1c-12 0 -22.667 -2.66699 -32 -8c-13.333 -8 -20 -22 -20 -42v-55c0 -61.333 35.333 -92 106 -92
c17.333 0 36.666 2 57.999 6zM331.003 538.002h-72.999l46 108c6.66699 15.333 17.667 25.333 33 30c7.33301 2.66699 13.666 4 18.999 4c6 0 11 -1.33301 15 -4c13.333 -6.66699 21.333 -16.667 24 -30c0.666992 -2 1 -4 1 -6c0 -12 -5.33301 -25 -16 -39z" />
    <glyph glyph-name="acircumflex" unicode="&#xe2;" horiz-adv-x="502" 
d="M463 298l0.00195312 -298c-69.333 -6.66699 -124.666 -10 -165.999 -10c-18.667 0 -34.334 0.666992 -47.001 2c-109.333 12 -166.666 66.333 -171.999 163v14v83c0 66 23 110.333 69 133c19.333 10.667 41.333 16 66 16c4 0 7.66699 -0.333008 11 -1
c29.333 -1.33301 54.666 -4.83301 75.999 -10.5s39 -12.5 53 -20.5c0 42.667 -35.667 64 -107 64l9 76c25.333 0 48.166 -1.5 68.499 -4.5s37.5 -8 51.5 -15s26.333 -14.167 37 -21.5s19 -17 25 -29s11 -22.5 15 -31.5s6.66699 -21.167 8 -36.5s2.16602 -27.333 2.49902 -36
s0.5 -21 0.5 -37zM353.002 97l0.000976562 155.002c-10.667 7.33301 -24.5 14.166 -41.5 20.499s-34.833 11.166 -53.5 14.499c-6 0.666992 -11.667 1 -17 1c-12 0 -22.667 -2.66699 -32 -8c-13.333 -8 -20 -22 -20 -42v-55c0 -61.333 35.333 -92 106 -92
c17.333 0 36.666 2 57.999 6zM426.003 577.002l-67 -39l-76 83l-81 -83l-66 39l148 141z" />
    <glyph glyph-name="atilde" unicode="&#xe3;" horiz-adv-x="502" 
d="M463 298l0.00195312 -298c-69.333 -6.66699 -124.666 -10 -165.999 -10c-18.667 0 -34.334 0.666992 -47.001 2c-109.333 12 -166.666 66.333 -171.999 163v14v83c0 66 23 110.333 69 133c19.333 10.667 41.333 16 66 16c4 0 7.66699 -0.333008 11 -1
c29.333 -1.33301 54.666 -4.83301 75.999 -10.5s39 -12.5 53 -20.5c0 42.667 -35.667 64 -107 64l9 76c25.333 0 48.166 -1.5 68.499 -4.5s37.5 -8 51.5 -15s26.333 -14.167 37 -21.5s19 -17 25 -29s11 -22.5 15 -31.5s6.66699 -21.167 8 -36.5s2.16602 -27.333 2.49902 -36
s0.5 -21 0.5 -37zM353.002 97l0.000976562 155.002c-10.667 7.33301 -24.5 14.166 -41.5 20.499s-34.833 11.166 -53.5 14.499c-6 0.666992 -11.667 1 -17 1c-12 0 -22.667 -2.66699 -32 -8c-13.333 -8 -20 -22 -20 -42v-55c0 -61.333 35.333 -92 106 -92
c17.333 0 36.666 2 57.999 6zM412.003 657.002l42.0029 -65c-22.667 -26.667 -45.334 -43 -68.001 -49c-10 -2.66699 -19.333 -4 -28 -4c-12 0 -23.667 2.33301 -35 7c-19.333 8 -38.333 16.333 -57 25c-15.333 6.66699 -31.333 10 -48 10
c-4.66699 0 -9.33398 -0.333008 -14.001 -1c-21.333 -2 -42 -13.667 -62 -35l-39 65c23.333 26 46.666 42 69.999 48c10.667 3.33301 20.667 5 30 5c12 0 23.333 -2.33301 34 -7c19.333 -7.33301 38.333 -15.333 57 -24c15.333 -6.66699 31.333 -10 48 -10
c4 0 8 0.333008 12 1c20 2 39.333 13.333 58 34z" />
    <glyph glyph-name="adieresis" unicode="&#xe4;" horiz-adv-x="502" 
d="M463 298l0.00195312 -298c-69.333 -6.66699 -124.666 -10 -165.999 -10c-18.667 0 -34.334 0.666992 -47.001 2c-109.333 12 -166.666 66.333 -171.999 163v14v83c0 66 23 110.333 69 133c19.333 10.667 41.333 16 66 16c4 0 7.66699 -0.333008 11 -1
c29.333 -1.33301 54.666 -4.83301 75.999 -10.5s39 -12.5 53 -20.5c0 42.667 -35.667 64 -107 64l9 76c25.333 0 48.166 -1.5 68.499 -4.5s37.5 -8 51.5 -15s26.333 -14.167 37 -21.5s19 -17 25 -29s11 -22.5 15 -31.5s6.66699 -21.167 8 -36.5s2.16602 -27.333 2.49902 -36
s0.5 -21 0.5 -37zM353.002 97l0.000976562 155.002c-10.667 7.33301 -24.5 14.166 -41.5 20.499s-34.833 11.166 -53.5 14.499c-6 0.666992 -11.667 1 -17 1c-12 0 -22.667 -2.66699 -32 -8c-13.333 -8 -20 -22 -20 -42v-55c0 -61.333 35.333 -92 106 -92
c17.333 0 36.666 2 57.999 6zM259.003 583.002c0 -12 -4.33301 -22.333 -13 -31s-19.334 -13 -32.001 -13c-12 0 -22.333 4.33301 -31 13s-13 19 -13 31c0 12.667 4.33301 23.334 13 32.001s19 13 31 13c12.667 0 23.334 -4.33301 32.001 -13s13 -19.334 13 -32.001z
M347.003 539.002c-12.667 0 -23.334 4.33301 -32.001 13s-13 19.334 -13 32.001s4.33301 23.334 13 32.001s19.334 13 32.001 13s23.334 -4.33301 32.001 -13s13 -19.334 13 -32.001s-4.33301 -23.334 -13 -32.001s-19.334 -13 -32.001 -13z" />
    <glyph glyph-name="aring" unicode="&#xe5;" horiz-adv-x="502" 
d="M463 298v-297.998c-69.333 -6.66699 -124.666 -10 -165.999 -10c-18.667 0 -34.334 0.666992 -47.001 2c-109.333 12 -166.666 66.333 -171.999 163v14v83c0 66 23 110.333 69 133c19.333 10.667 41.333 16 66 16c4 0 7.66699 -0.333008 11 -1
c29.333 -1.33301 54.666 -4.83301 75.999 -10.5s39 -12.5 53 -20.5c0 42.667 -35.667 64 -107 64v1c-26 3.33301 -47.833 15.166 -65.5 35.499s-26.5 43.833 -26.5 70.5c0 29.333 10.5 54.5 31.5 75.5s46.167 31.5 75.5 31.5s54.5 -10.5 75.5 -31.5s31.5 -46.167 31.5 -75.5
c0 -14.667 -3.33301 -29.334 -10 -44.001c24.667 -8 44.667 -18.833 60 -32.5s26 -31 32 -52s9.66699 -38.667 11 -53s2 -34.5 2 -60.5zM353 97.002l0.000976562 155.002c-10.667 7.33301 -24.5 14.166 -41.5 20.499s-34.833 11.166 -53.5 14.499
c-6 0.666992 -11.667 1 -17 1c-12 0 -22.667 -2.66699 -32 -8c-13.333 -8 -20 -22 -20 -42v-55c0 -61.333 35.333 -92 106 -92c17.333 0 36.666 2 57.999 6zM261.001 510.004c8.66699 0 15.667 2.83301 21 8.5s8 12.834 8 21.501s-2.66699 15.667 -8 21s-12.333 8 -21 8
s-15.834 -2.66699 -21.501 -8s-8.5 -12.333 -8.5 -21s2.83301 -15.834 8.5 -21.501s12.834 -8.5 21.501 -8.5z" />
    <glyph glyph-name="ae" unicode="&#xe6;" horiz-adv-x="752" 
d="M713 190l-249 -13v-28c0 -34 15.333 -53.333 46 -58c4.66699 -0.666992 9.33398 -1 14.001 -1c30 0 71.333 13.333 124 40l40 -95c-49.333 -30 -104.333 -45.667 -165 -47h-13c-24.667 0 -47 3.33301 -67 10c-23.333 -2 -41.5 -3.66699 -54.5 -5
s-31.167 -2.33301 -54.5 -3h-26h-30c-14 1.33301 -31 3.33301 -51 6s-36.333 6.83398 -49 12.501s-26 13 -40 22s-24.833 19.833 -32.5 32.5s-14.167 28 -19.5 46s-8 38 -8 60v83c0 66 23 110.333 69 133c19.333 10.667 41.333 16 66 16c4 0 7.66699 -0.333008 11 -1
c29.333 -1.33301 54.666 -4.83301 75.999 -10.5s39 -12.5 53 -20.5c0 42.667 -35.667 64 -107 64l9 76c69.333 0 120.666 -13 153.999 -39c32.667 26.667 75.334 40 128.001 40c55.333 0 98.5 -14.833 129.5 -44.5s46.5 -70.834 46.5 -123.501v-152zM353 97
l0.000976562 155.002c-10.667 7.33301 -24.5 14.166 -41.5 20.499s-34.833 11.166 -53.5 14.499c-6 0.666992 -11.667 1 -17 1c-12 0 -22.667 -2.66699 -32 -8c-13.333 -8 -20 -22 -20 -42v-55c0 -61.333 35.333 -92 106 -92c17.333 0 36.666 2 57.999 6zM602.001 287.002
v53c0 20 -6.33301 35.333 -19 46s-28.334 16 -47.001 16c-25.333 0 -43.666 -6.66699 -54.999 -20s-17 -28 -17 -44v-60z" />
    <glyph glyph-name="ccedilla" unicode="&#xe7;" horiz-adv-x="383" 
d="M89 -211l33.999 73c24.667 -16.667 50.667 -25 78 -25c16 0 30 3.16699 42 9.5s18 16.5 18 30.5s-6.66699 23 -20 27c-3.33301 1.33301 -7.33301 2 -12 2c-12 0 -26.333 -4 -43 -12l-44 -22l-35 50l59 75c-2 0.666992 -5 1.5 -9 2.5s-7 1.83301 -9 2.5
c-39.333 13.333 -67.833 33.833 -85.5 61.5s-26.5 66.5 -26.5 116.5v128c0 47.333 9.33301 87 28 119s43.334 54.333 74.001 67c25.333 10.667 53.333 16 84 16c6 0 12.333 -0.333008 19 -1c38 -2.66699 76.333 -13 115 -31l-30 -95c-34.667 12 -64.334 18 -89.001 18
c-18 0 -33 -3 -45 -9c-30.667 -14.667 -46 -40.667 -46 -78v-145c0 -22 7.66699 -38.833 23 -50.5s33.666 -17.834 54.999 -18.501h13c16.667 0 32.334 1 47.001 3c18.667 2.66699 33.334 6.33398 44.001 11.001l30 -108c-42 -10.667 -82.333 -16 -121 -16h-7l-19 -28
c12.667 4.66699 24 7 34 7c22.667 0 42.667 -8.16699 60 -24.5s26 -38.833 26 -67.5c0 -36.667 -14.833 -64 -44.5 -82s-61.5 -27 -95.5 -27c-30 0 -64 7 -102 21z" />
    <glyph glyph-name="egrave" unicode="&#xe8;" horiz-adv-x="477" 
d="M438 190l-249 -12.999v-28c0 -34 15.667 -53.333 47 -58c4 -0.666992 8.33301 -1 13 -1c30 0 71.333 13.333 124 40l40 -95c-49.333 -30 -104.333 -45.667 -165 -47h-8c-48 0 -86.667 11.333 -116 34c-30.667 24.667 -46 62 -46 112v205c0 54 16.833 96 50.5 126
s78.167 45 133.5 45s98.5 -14.833 129.5 -44.5s46.5 -70.834 46.5 -123.501v-152zM327 287.001v53c0 20 -6.33301 35.333 -19 46s-28.334 16 -47.001 16c-25.333 0 -43.666 -6.66699 -54.999 -20s-17 -28 -17 -44v-60zM294 540.001h-72.999l-49 63c-10.667 14 -16 27 -16 39
c0 2 0.333008 4 1 6c2.66699 13.333 10.667 23.333 24 30c4 2.66699 9 4 15 4c5.33301 0 11.666 -1.33301 18.999 -4c15.333 -4.66699 26.333 -14.667 33 -30z" />
    <glyph glyph-name="eacute" unicode="&#xe9;" horiz-adv-x="477" 
d="M438 190l-249 -12.999v-28c0 -34 15.667 -53.333 47 -58c4 -0.666992 8.33301 -1 13 -1c30 0 71.333 13.333 124 40l40 -95c-49.333 -30 -104.333 -45.667 -165 -47h-8c-48 0 -86.667 11.333 -116 34c-30.667 24.667 -46 62 -46 112v205c0 54 16.833 96 50.5 126
s78.167 45 133.5 45s98.5 -14.833 129.5 -44.5s46.5 -70.834 46.5 -123.501v-152zM327 287.001v53c0 20 -6.33301 35.333 -19 46s-28.334 16 -47.001 16c-25.333 0 -43.666 -6.66699 -54.999 -20s-17 -28 -17 -44v-60zM313 538.001h-72.999l46 108
c6.66699 15.333 17.667 25.333 33 30c7.33301 2.66699 13.666 4 18.999 4c6 0 11 -1.33301 15 -4c13.333 -6.66699 21.333 -16.667 24 -30c0.666992 -2 1 -4 1 -6c0 -12 -5.33301 -25 -16 -39z" />
    <glyph glyph-name="ecircumflex" unicode="&#xea;" horiz-adv-x="477" 
d="M438 190l-249 -12.999v-28c0 -34 15.667 -53.333 47 -58c4 -0.666992 8.33301 -1 13 -1c30 0 71.333 13.333 124 40l40 -95c-49.333 -30 -104.333 -45.667 -165 -47h-8c-48 0 -86.667 11.333 -116 34c-30.667 24.667 -46 62 -46 112v205c0 54 16.833 96 50.5 126
s78.167 45 133.5 45s98.5 -14.833 129.5 -44.5s46.5 -70.834 46.5 -123.501v-152zM327 287.001v53c0 20 -6.33301 35.333 -19 46s-28.334 16 -47.001 16c-25.333 0 -43.666 -6.66699 -54.999 -20s-17 -28 -17 -44v-60zM418 577.001l-67 -39l-76 83l-81 -83l-66 39l148 141z
" />
    <glyph glyph-name="edieresis" unicode="&#xeb;" horiz-adv-x="537" 
d="M395 190l-249.001 -12.999v-28c0 -34 15.333 -53.333 46 -58c4.66699 -0.666992 9.33398 -1 14.001 -1c30 0 71.333 13.333 124 40l40 -95c-49.333 -30 -104.333 -45.667 -165 -47h-8c-48 0 -86.667 11.333 -116 34c-30.667 24.667 -46 62 -46 112v205
c0 54 16.833 96 50.5 126s78.167 45 133.5 45s98.5 -14.833 129.5 -44.5s46.5 -70.834 46.5 -123.501v-152zM283.999 287.001v53c0 20 -6.33301 35.333 -19 46s-28.334 16 -47.001 16c-25.333 0 -43.666 -6.66699 -54.999 -20s-17 -28 -17 -44v-60zM193.999 583.001
c0 -12 -4.33301 -22.333 -13 -31s-19.334 -13 -32.001 -13c-12 0 -22.333 4.33301 -31 13s-13 19 -13 31c0 12.667 4.33301 23.334 13 32.001s19 13 31 13c12.667 0 23.334 -4.33301 32.001 -13s13 -19.334 13 -32.001zM281.999 539.001
c-12.667 0 -23.334 4.33301 -32.001 13s-13 19.334 -13 32.001s4.33301 23.334 13 32.001s19.334 13 32.001 13s23.334 -4.33301 32.001 -13s13 -19.334 13 -32.001s-4.33301 -23.334 -13 -32.001s-19.334 -13 -32.001 -13z" />
    <glyph glyph-name="igrave" unicode="&#xec;" horiz-adv-x="274" 
d="M216 540h-72.999l-49 63c-10.667 14 -16 27 -16 39c0 2 0.333008 4 1 6c2.66699 13.333 10.667 23.333 24 30c4 2.66699 9 4 15 4c5.33301 0 11.666 -1.33301 18.999 -4c15.333 -4.66699 26.333 -14.667 33 -30zM235.001 0h-110v501h110v-501z" />
    <glyph glyph-name="iacute" unicode="&#xed;" horiz-adv-x="278" 
d="M174 538h-72.999l46 108c6.66699 15.333 17.667 25.333 33 30c7.33301 2.66699 13.666 4 18.999 4c6 0 11 -1.33301 15 -4c13.333 -6.66699 21.333 -16.667 24 -30c0.666992 -2 1 -4 1 -6c0 -12 -5.33301 -25 -16 -39zM188.001 0h-110v501h110v-501z" />
    <glyph glyph-name="icircumflex" unicode="&#xee;" horiz-adv-x="231" 
d="M254 577l-67 -39l-76 83l-81 -83l-66 39l148 141zM165 0h-110v501h110v-501z" />
    <glyph glyph-name="idieresis" unicode="&#xef;" horiz-adv-x="339" 
d="M167 583c0 -12 -4.33301 -22.333 -13 -31s-19.334 -13 -32.001 -13c-12 0 -22.333 4.33301 -31 13s-13 19 -13 31c0 12.667 4.33301 23.334 13 32.001s19 13 31 13c12.667 0 23.334 -4.33301 32.001 -13s13 -19.334 13 -32.001zM255 539
c-12.667 0 -23.334 4.33301 -32.001 13s-13 19.334 -13 32.001s4.33301 23.334 13 32.001s19.334 13 32.001 13s23.334 -4.33301 32.001 -13s13 -19.334 13 -32.001s-4.33301 -23.334 -13 -32.001s-19.334 -13 -32.001 -13zM241 0h-110v501h110v-501z" />
    <glyph glyph-name="ntilde" unicode="&#xf1;" horiz-adv-x="486" 
d="M447 0l-109.999 -0.000976562v315c0 38.667 -14.333 65.334 -43 80.001c-12 6 -25 9 -39 9c-20.667 0 -43.334 -6 -68.001 -18v-386h-109v501h97l13 -6c30.667 10 59.667 15 87 15c30.667 0 59.667 -6.33301 87 -19c56.667 -26 85 -74.333 85 -145v-346zM401.001 657.999
l42.001 -65c-22.667 -26.667 -45.334 -43 -68.001 -49c-10 -2.66699 -19.333 -4 -28 -4c-12 0 -23.667 2.33301 -35 7l-58 25c-14.667 6.66699 -30.334 10 -47.001 10h-13c-22 -2.66699 -43 -14.667 -63 -36l-39 65c23.333 26 46.666 42.333 69.999 49
c10.667 2.66699 20.667 4 30 4c12 0 23.333 -2 34 -6l58 -24c14.667 -7.33301 30.334 -11 47.001 -11c4 0 7.66699 0.333008 11 1c20.667 2 40.334 13.333 59.001 34z" />
    <glyph glyph-name="ograve" unicode="&#xf2;" 
d="M451 316v-132c0 -56 -15.333 -102.333 -46 -139s-77 -55 -139 -55s-108.833 18.5 -140.5 55.5s-47.5 83.167 -47.5 138.5v132c0 63.333 16.167 111.833 48.5 145.5s78.833 50.5 139.5 50.5c58 0 103.333 -17.5 136 -52.5s49 -82.833 49 -143.5zM342 174v142.001
c0 19.333 -2.33301 35.166 -7 47.499s-11.5 21 -20.5 26s-17 8.16699 -24 9.5s-15.167 2 -24.5 2c-52 0 -78 -28.333 -78 -85v-142c0 -50.667 26 -76 78 -76c22 0 40.167 6.33301 54.5 19s21.5 31.667 21.5 57zM293 540.001h-72.999l-49 63c-10.667 14 -16 27 -16 39
c0 2 0.333008 4 1 6c2.66699 13.333 10.667 23.333 24 30c4 2.66699 9 4 15 4c5.33301 0 11.666 -1.33301 18.999 -4c15.333 -4.66699 26.333 -14.667 33 -30z" />
    <glyph glyph-name="oacute" unicode="&#xf3;" 
d="M451 316v-132c0 -56 -15.333 -102.333 -46 -139s-77 -55 -139 -55s-108.833 18.5 -140.5 55.5s-47.5 83.167 -47.5 138.5v132c0 63.333 16.167 111.833 48.5 145.5s78.833 50.5 139.5 50.5c58 0 103.333 -17.5 136 -52.5s49 -82.833 49 -143.5zM342 174v142.001
c0 19.333 -2.33301 35.166 -7 47.499s-11.5 21 -20.5 26s-17 8.16699 -24 9.5s-15.167 2 -24.5 2c-52 0 -78 -28.333 -78 -85v-142c0 -50.667 26 -76 78 -76c22 0 40.167 6.33301 54.5 19s21.5 31.667 21.5 57zM312 538.001h-72.999l46 108
c6.66699 15.333 17.667 25.333 33 30c7.33301 2.66699 13.666 4 18.999 4c6 0 11 -1.33301 15 -4c13.333 -6.66699 21.333 -16.667 24 -30c0.666992 -2 1 -4 1 -6c0 -12 -5.33301 -25 -16 -39z" />
    <glyph glyph-name="ocircumflex" unicode="&#xf4;" 
d="M451 316v-132c0 -56 -15.333 -102.333 -46 -139s-77 -55 -139 -55s-108.833 18.5 -140.5 55.5s-47.5 83.167 -47.5 138.5v132c0 63.333 16.167 111.833 48.5 145.5s78.833 50.5 139.5 50.5c58 0 103.333 -17.5 136 -52.5s49 -82.833 49 -143.5zM342 174v142.001
c0 19.333 -2.33301 35.166 -7 47.499s-11.5 21 -20.5 26s-17 8.16699 -24 9.5s-15.167 2 -24.5 2c-52 0 -78 -28.333 -78 -85v-142c0 -50.667 26 -76 78 -76c22 0 40.167 6.33301 54.5 19s21.5 31.667 21.5 57zM415 577.001l-67 -39l-76 83l-81 -83l-66 39l148 141z" />
    <glyph glyph-name="otilde" unicode="&#xf5;" horiz-adv-x="491" 
d="M451 316v-132c0 -56 -15.333 -102.333 -46 -139s-77 -55 -139 -55s-108.833 18.5 -140.5 55.5s-47.5 83.167 -47.5 138.5v132c0 63.333 16.167 111.833 48.5 145.5s78.833 50.5 139.5 50.5c58 0 103.333 -17.5 136 -52.5s49 -82.833 49 -143.5zM342 174v142.001
c0 19.333 -2.33301 35.166 -7 47.499s-11.5 21 -20.5 26s-17 8.16699 -24 9.5s-15.167 2 -24.5 2c-52 0 -78 -28.333 -78 -85v-142c0 -50.667 26 -76 78 -76c22 0 40.167 6.33301 54.5 19s21.5 31.667 21.5 57zM410 632.001l42.002 -65
c-22.667 -26.667 -45.334 -43 -68.001 -49c-10 -2.66699 -19.333 -4 -28 -4c-12 0 -23.667 2.33301 -35 7c-19.333 8 -38.333 16.333 -57 25c-15.333 6.66699 -31.333 10 -48 10h-14c-21.333 -2.66699 -42 -14.667 -62 -36l-39 65c23.333 26 46.666 42.333 69.999 49
c10.667 2.66699 20.667 4 30 4c12 0 23.333 -2 34 -6l57 -24c15.333 -7.33301 31.333 -11 48 -11c4 0 8 0.333008 12 1c20 2 39.333 13.333 58 34z" />
    <glyph glyph-name="odieresis" unicode="&#xf6;" 
d="M451 316v-132c0 -56 -15.333 -102.333 -46 -139s-77 -55 -139 -55s-108.833 18.5 -140.5 55.5s-47.5 83.167 -47.5 138.5v132c0 63.333 16.167 111.833 48.5 145.5s78.833 50.5 139.5 50.5c58 0 103.333 -17.5 136 -52.5s49 -82.833 49 -143.5zM342 174v142.001
c0 19.333 -2.33301 35.166 -7 47.499s-11.5 21 -20.5 26s-17 8.16699 -24 9.5s-15.167 2 -24.5 2c-52 0 -78 -28.333 -78 -85v-142c0 -50.667 26 -76 78 -76c22 0 40.167 6.33301 54.5 19s21.5 31.667 21.5 57zM248 583.001c0 -12 -4.33301 -22.333 -13 -31
s-19.334 -13 -32.001 -13c-12 0 -22.333 4.33301 -31 13s-13 19 -13 31c0 12.667 4.33301 23.334 13 32.001s19 13 31 13c12.667 0 23.334 -4.33301 32.001 -13s13 -19.334 13 -32.001zM336 539.001c-12.667 0 -23.334 4.33301 -32.001 13s-13 19.334 -13 32.001
s4.33301 23.334 13 32.001s19.334 13 32.001 13s23.334 -4.33301 32.001 -13s13 -19.334 13 -32.001s-4.33301 -23.334 -13 -32.001s-19.334 -13 -32.001 -13z" />
    <glyph glyph-name="divide" unicode="&#xf7;" horiz-adv-x="437" 
d="M398 339h-320v89h320v-89zM241 447c-14.667 0 -27.334 5.33301 -38.001 16s-16 23.334 -16 38.001s5.33301 27.334 16 38.001s23.334 16 38.001 16s27.334 -5.33301 38.001 -16s16 -23.334 16 -38.001s-5.33301 -27.334 -16 -38.001s-23.334 -16 -38.001 -16zM241 208
c-14.667 0 -27.334 5.33301 -38.001 16s-16 23.334 -16 38.001s5.33301 27.334 16 38.001s23.334 16 38.001 16s27.334 -5.33301 38.001 -16s16 -23.334 16 -38.001s-5.33301 -27.334 -16 -38.001s-23.334 -16 -38.001 -16z" />
    <glyph glyph-name="oslash" unicode="&#xf8;" horiz-adv-x="505" 
d="M183 -67l-105 0.000976562l48 113c-31.333 35.333 -47 81.333 -47 138v132c0 63.333 16.167 111.833 48.5 145.5s78.833 50.5 139.5 50.5c21.333 0 40 -2.33301 56 -7l36 83h107l-58 -135c29.333 -34.667 44 -80.334 44 -137.001v-132c0 -56 -15.333 -102.333 -46 -139
s-77 -55 -139 -55c-22 0 -41 2.33301 -57 7zM189 191.001l89.001 209c-2.66699 0.666992 -6.33398 1 -11.001 1c-52 0 -78 -28.333 -78 -85v-125zM343.001 174.001v129l-89 -205h13c22 0 40.167 6.33301 54.5 19s21.5 31.667 21.5 57z" />
    <glyph glyph-name="ugrave" unicode="&#xf9;" 
d="M451 0l-103 0.000976562l-7 6c-30 -11.333 -55 -17 -75 -17c-125.333 0 -188 61 -188 183v329h110v-313c0 -30.667 5.5 -53.334 16.5 -68.001s31.5 -22 61.5 -22s50 8.16699 60 24.5s15 39.5 15 69.5v309h110v-501zM300 540.001h-72.999l-49 63c-10.667 14 -16 27 -16 39
c0 2 0.333008 4 1 6c2.66699 13.333 10.667 23.333 24 30c4 2.66699 9 4 15 4c5.33301 0 11.666 -1.33301 18.999 -4c15.333 -4.66699 26.333 -14.667 33 -30z" />
    <glyph glyph-name="uacute" unicode="&#xfa;" 
d="M451 0l-103 0.000976562l-7 6c-30 -11.333 -55 -17 -75 -17c-125.333 0 -188 61 -188 183v329h110v-313c0 -30.667 5.5 -53.334 16.5 -68.001s31.5 -22 61.5 -22s50 8.16699 60 24.5s15 39.5 15 69.5v309h110v-501zM312 538.001h-72.999l46 108
c6.66699 15.333 17.667 25.333 33 30c7.33301 2.66699 13.666 4 18.999 4c6 0 11 -1.33301 15 -4c13.333 -6.66699 21.333 -16.667 24 -30c0.666992 -2 1 -4 1 -6c0 -12 -5.33301 -25 -16 -39z" />
    <glyph glyph-name="ucircumflex" unicode="&#xfb;" 
d="M451 0l-103 0.000976562l-7 6c-30 -11.333 -55 -17 -75 -17c-125.333 0 -188 61 -188 183v329h110v-313c0 -30.667 5.5 -53.334 16.5 -68.001s31.5 -22 61.5 -22s50 8.16699 60 24.5s15 39.5 15 69.5v309h110v-501zM410 577.001l-67 -39l-76 83l-81 -83l-66 39l148 141z
" />
    <glyph glyph-name="udieresis" unicode="&#xfc;" 
d="M451 0l-103 0.000976562l-7 6c-30 -11.333 -55 -17 -75 -17c-125.333 0 -188 61 -188 183v329h110v-313c0 -30.667 5.5 -53.334 16.5 -68.001s31.5 -22 61.5 -22s50 8.16699 60 24.5s15 39.5 15 69.5v309h110v-501zM243 583.001c0 -12 -4.33301 -22.333 -13 -31
s-19.334 -13 -32.001 -13c-12 0 -22.333 4.33301 -31 13s-13 19 -13 31c0 12.667 4.33301 23.334 13 32.001s19 13 31 13c12.667 0 23.334 -4.33301 32.001 -13s13 -19.334 13 -32.001zM331 539.001c-12.667 0 -23.334 4.33301 -32.001 13s-13 19.334 -13 32.001
s4.33301 23.334 13 32.001s19.334 13 32.001 13s23.334 -4.33301 32.001 -13s13 -19.334 13 -32.001s-4.33301 -23.334 -13 -32.001s-19.334 -13 -32.001 -13z" />
    <glyph glyph-name="yacute" unicode="&#xfd;" horiz-adv-x="552" 
d="M319 -210l-42.999 87.0029c17.333 0 32.833 5.33301 46.5 16s20.5 27.667 20.5 51v58c-30 -9.33301 -57.333 -14 -82 -14c-58.667 0 -103.834 15.833 -135.501 47.5s-47.5 78.5 -47.5 140.5v325h110v-295c0 -42 5.66699 -70.5 17 -85.5s30 -22.5 56 -22.5
c29.333 0 50.333 7.16699 63 21.5s19 43.166 19 86.499v157c0 35.333 12.167 67.833 36.5 97.5s55.166 46.167 92.499 49.5l41 -90c-19.333 -4.66699 -34.166 -13.834 -44.499 -27.501s-15.5 -28.834 -15.5 -45.501v-408c0 -43.333 -10.167 -77.5 -30.5 -102.5
s-54.833 -40.5 -103.5 -46.5zM309.001 538.003h-72.999l46 108c6.66699 15.333 17.667 25.333 33 30c7.33301 2.66699 13.666 4 18.999 4c6 0 11 -1.33301 15 -4c13.333 -6.66699 21.333 -16.667 24 -30c0.666992 -2 1 -4 1 -6c0 -12 -5.33301 -25 -16 -39z" />
    <glyph glyph-name="thorn" unicode="&#xfe;" horiz-adv-x="494" 
d="M186 0h-108v588h108v-96c25.333 11.333 51.666 17 78.999 17c62 0 109.167 -18 141.5 -54s48.5 -82.667 48.5 -140c0 -62.667 -17.167 -111.5 -51.5 -146.5s-79.166 -52.5 -134.499 -52.5c-33.333 0 -61 7.66699 -83 23v-139zM269 220c20 0 37.833 7.5 53.5 22.5
s23.5 39.5 23.5 73.5c0 22 -6.16699 42.167 -18.5 60.5s-31.833 27.5 -58.5 27.5c-20.667 0 -39.667 -8 -57 -24s-26 -36.667 -26 -62c0 -34.667 8.16699 -59.667 24.5 -75s35.833 -23 58.5 -23z" />
    <glyph glyph-name="ydieresis" unicode="&#xff;" horiz-adv-x="552" 
d="M319 -210l-42.999 87.0029c17.333 0 32.833 5.33301 46.5 16s20.5 27.667 20.5 51v58c-30 -9.33301 -57.333 -14 -82 -14c-58.667 0 -103.834 15.833 -135.501 47.5s-47.5 78.5 -47.5 140.5v325h110v-295c0 -42 5.66699 -70.5 17 -85.5s30 -22.5 56 -22.5
c29.333 0 50.333 7.16699 63 21.5s19 43.166 19 86.499v157c0 35.333 12.167 67.833 36.5 97.5s55.166 46.167 92.499 49.5l41 -90c-19.333 -4.66699 -34.166 -13.834 -44.499 -27.501s-15.5 -28.834 -15.5 -45.501v-408c0 -43.333 -10.167 -77.5 -30.5 -102.5
s-54.833 -40.5 -103.5 -46.5zM337.001 539.003c-12.667 0 -23.334 4.33301 -32.001 13s-13 19.334 -13 32.001s4.33301 23.334 13 32.001s19.334 13 32.001 13s23.334 -4.33301 32.001 -13s13 -19.334 13 -32.001s-4.33301 -23.334 -13 -32.001s-19.334 -13 -32.001 -13z
M249.001 583.003c0 -12 -4.33301 -22.333 -13 -31s-19.334 -13 -32.001 -13c-12 0 -22.333 4.33301 -31 13s-13 19 -13 31c0 12.667 4.33301 23.334 13 32.001s19 13 31 13c12.667 0 23.334 -4.33301 32.001 -13s13 -19.334 13 -32.001z" />
    <glyph glyph-name="Amacron" unicode="&#x100;" horiz-adv-x="527" 
d="M517 0h-131l-41 183h-161l-39 -183h-124l164 700h155zM319 300l-57 216l-52 -216h109zM368 730h-217v91h217v-91z" />
    <glyph glyph-name="amacron" unicode="&#x101;" horiz-adv-x="502" 
d="M463 298l0.00195312 -298c-69.333 -6.66699 -124.666 -10 -165.999 -10c-18.667 0 -34.334 0.666992 -47.001 2c-109.333 12 -166.666 66.333 -171.999 163v14v83c0 66 23 110.333 69 133c19.333 10.667 41.333 16 66 16c4 0 7.66699 -0.333008 11 -1
c29.333 -1.33301 54.666 -4.83301 75.999 -10.5s39 -12.5 53 -20.5c0 42.667 -35.667 64 -107 64l9 76c25.333 0 48.166 -1.5 68.499 -4.5s37.5 -8 51.5 -15s26.333 -14.167 37 -21.5s19 -17 25 -29s11 -22.5 15 -31.5s6.66699 -21.167 8 -36.5s2.16602 -27.333 2.49902 -36
s0.5 -21 0.5 -37zM353.002 97l0.000976562 155.002c-10.667 7.33301 -24.5 14.166 -41.5 20.499s-34.833 11.166 -53.5 14.499c-6 0.666992 -11.667 1 -17 1c-12 0 -22.667 -2.66699 -32 -8c-13.333 -8 -20 -22 -20 -42v-55c0 -61.333 35.333 -92 106 -92
c17.333 0 36.666 2 57.999 6zM386.003 538.002h-217v91h217v-91z" />
    <glyph glyph-name="Abreve" unicode="&#x102;" horiz-adv-x="527" 
d="M517 0h-131l-41 183h-161l-39 -183h-124l164 700h155zM319 300l-57 216l-52 -216h109zM378 848v-5c0 -31.333 -11 -58 -33 -80s-48.667 -33 -80 -33s-58 11 -80 33s-33 48.667 -33 80v5h83v-5c0 -23.333 10 -35 30 -35c9.33301 0 16.833 3.16699 22.5 9.5
s8.5 14.833 8.5 25.5v5h82z" />
    <glyph glyph-name="abreve" unicode="&#x103;" horiz-adv-x="502" 
d="M463 298l0.00195312 -298c-69.333 -6.66699 -124.666 -10 -165.999 -10c-18.667 0 -34.334 0.666992 -47.001 2c-109.333 12 -166.666 66.333 -171.999 163v14v83c0 66 23 110.333 69 133c19.333 10.667 41.333 16 66 16c4 0 7.66699 -0.333008 11 -1
c29.333 -1.33301 54.666 -4.83301 75.999 -10.5s39 -12.5 53 -20.5c0 42.667 -35.667 64 -107 64l9 76c25.333 0 48.166 -1.5 68.499 -4.5s37.5 -8 51.5 -15s26.333 -14.167 37 -21.5s19 -17 25 -29s11 -22.5 15 -31.5s6.66699 -21.167 8 -36.5s2.16602 -27.333 2.49902 -36
s0.5 -21 0.5 -37zM353.002 97l0.000976562 155.002c-10.667 7.33301 -24.5 14.166 -41.5 20.499s-34.833 11.166 -53.5 14.499c-6 0.666992 -11.667 1 -17 1c-12 0 -22.667 -2.66699 -32 -8c-13.333 -8 -20 -22 -20 -42v-55c0 -61.333 35.333 -92 106 -92
c17.333 0 36.666 2 57.999 6zM422.003 656.002v-5c0 -31.333 -11 -58 -33 -80s-48.667 -33 -80 -33s-58 11 -80 33s-33 48.667 -33 80v5h83v-5c0 -23.333 10 -35 30 -35c9.33301 0 16.833 3.16699 22.5 9.5s8.5 14.833 8.5 25.5v5h82z" />
    <glyph glyph-name="Aogonek" unicode="&#x104;" horiz-adv-x="647" 
d="M559 -110l49 -53c-12 -18.667 -26.5 -31.667 -43.5 -39s-39.167 -11 -66.5 -11c-10.667 0 -22.5 2.66699 -35.5 8s-25.167 15.666 -36.5 30.999c-10 14.667 -15 31.334 -15 50.001v7c2 41.333 33 80.333 93 117h-61l-41 183h-161l-39 -183h-124l164 700h155l177 -700h-1
c-60 -49.333 -90 -88 -90 -116v-5c2.66699 -16 13.667 -24 33 -24c6 0 13.167 2.83301 21.5 8.5s15.5 14.5 21.5 26.5zM376 300l-57 216l-52 -216h109z" />
    <glyph glyph-name="aogonek" unicode="&#x105;" horiz-adv-x="492" 
d="M407 -110l49.0029 -53.002c-12 -18.667 -26.5 -31.667 -43.5 -39s-39.167 -11 -66.5 -11c-10.667 0 -22.5 2.66699 -35.5 8s-25.167 15.666 -36.5 30.999c-10 14.667 -15 31.334 -15 50.001v7c2 38.667 29 75.334 81 110.001c-29.333 -1.33301 -58.333 -2.33301 -87 -3
h-8c-26 0 -50.667 3 -74 9c-26 6.66699 -49 15.834 -69 27.501s-35.833 29.667 -47.5 54s-17.5 53.833 -17.5 88.5v83c0 66 23 110.333 69 133c19.333 10.667 41.333 16 66 16c4 0 7.66699 -0.333008 11 -1c29.333 -1.33301 54.666 -4.83301 75.999 -10.5s39 -12.5 53 -20.5
c0 42.667 -35.667 64 -107 64l9 76c25.333 0 48.166 -1.5 68.499 -4.5s37.5 -8 51.5 -15s26.333 -14.167 37 -21.5s19 -17 25 -29s11 -22.5 15 -31.5s6.66699 -21.167 8 -36.5s2.16602 -27.333 2.49902 -36s0.5 -21 0.5 -37v-298h-1c-60 -49.333 -90 -88 -90 -116v-5
c2.66699 -16 13.667 -24 33 -24c6 0 13.167 2.83301 21.5 8.5s15.5 14.5 21.5 26.5zM312.003 96.998v155.002c-10.667 7.33301 -24.5 14.166 -41.5 20.499s-35.167 11.166 -54.5 14.499c-5.33301 0.666992 -10.666 1 -15.999 1c-12 0 -22.667 -2.66699 -32 -8
c-13.333 -8 -20 -22 -20 -42v-55c0 -61.333 35.333 -92 106 -92c17.333 0 36.666 2 57.999 6z" />
    <glyph glyph-name="Cacute" unicode="&#x106;" horiz-adv-x="430" 
d="M410 127l17.002 -104c-32.667 -12.667 -65.334 -21.667 -98.001 -27c-21.333 -4 -42.666 -6 -63.999 -6c-10.667 0 -21.667 0.666992 -33 2c-32 2.66699 -60.167 10.5 -84.5 23.5s-44 33.667 -59 62s-22.5 63.5 -22.5 105.5v321c0 50.667 7.16699 89 21.5 115
s36.166 48 65.499 66c30 16.667 65.667 25 107 25h13c46.667 -2 89.667 -13 129 -33l-31 -100c-30.667 11.333 -64.334 17 -101.001 17c-28 0 -50.667 -7.66699 -68 -23s-26 -34.666 -26 -57.999v-328c0 -12 1.33301 -22.833 4 -32.5s7 -17.5 13 -23.5s12 -11.333 18 -16
s14.333 -7.66699 25 -9s19.667 -2.5 27 -3.5s17.5 -0.5 30.5 1.5s23.167 3.5 30.5 4.5s17.833 3.16699 31.5 6.5l28.5 7c5.33301 1.33301 14 3.66602 26 6.99902zM297.002 734h-72.999l46 108c6.66699 15.333 17.667 25.333 33 30c7.33301 2.66699 13.666 4 18.999 4
c6 0 11 -1.33301 15 -4c13.333 -6.66699 21.333 -16.667 24 -30c0.666992 -2 1 -4 1 -6c0 -12 -5.33301 -25 -16 -39z" />
    <glyph glyph-name="cacute" unicode="&#x107;" horiz-adv-x="439" 
d="M370 114l30 -108c-42.667 -11.333 -82.334 -17 -119.001 -17c-32.667 0 -63 4.33301 -91 13c-39.333 13.333 -67.833 33.833 -85.5 61.5s-26.5 66.5 -26.5 116.5v128c0 47.333 9.33301 87 28 119s43.334 54.333 74.001 67c25.333 10.667 53.333 16 84 16
c6 0 12.333 -0.333008 19 -1c38 -2.66699 76.333 -13 115 -31l-30 -95c-34.667 12 -64.334 18 -89.001 18c-18 0 -33 -3 -45 -9c-30.667 -14.667 -46 -40.667 -46 -78v-145c0 -22 7.66699 -38.833 23 -50.5s33.666 -17.834 54.999 -18.501h13c16.667 0 32.334 1 47.001 3
c18.667 2.66699 33.334 6.33398 44.001 11.001zM282 538h-72.999l46 108c6.66699 15.333 17.667 25.333 33 30c7.33301 2.66699 13.666 4 18.999 4c6 0 11 -1.33301 15 -4c13.333 -6.66699 21.333 -16.667 24 -30c0.666992 -2 1 -4 1 -6c0 -12 -5.33301 -25 -16 -39z" />
    <glyph glyph-name="Ccircumflex" unicode="&#x108;" horiz-adv-x="430" 
d="M392 770l-67 -39l-76 83l-81 -83l-66 39l148 141zM410 127l17.002 -104c-32.667 -12.667 -65.334 -21.667 -98.001 -27c-21.333 -4 -42.666 -6 -63.999 -6c-10.667 0 -21.667 0.666992 -33 2c-32 2.66699 -60.167 10.5 -84.5 23.5s-44 33.667 -59 62
s-22.5 63.5 -22.5 105.5v321c0 50.667 7.16699 89 21.5 115s36.166 48 65.499 66c30 16.667 65.667 25 107 25h13c46.667 -2 89.667 -13 129 -33l-31 -100c-30.667 11.333 -64.334 17 -101.001 17c-28 0 -50.667 -7.66699 -68 -23s-26 -34.666 -26 -57.999v-328
c0 -12 1.33301 -22.833 4 -32.5s7 -17.5 13 -23.5s12 -11.333 18 -16s14.333 -7.66699 25 -9s19.667 -2.5 27 -3.5s17.5 -0.5 30.5 1.5s23.167 3.5 30.5 4.5s17.833 3.16699 31.5 6.5l28.5 7c5.33301 1.33301 14 3.66602 26 6.99902z" />
    <glyph glyph-name="ccircumflex" unicode="&#x109;" horiz-adv-x="442" 
d="M370 114l30 -108c-42.667 -11.333 -82.334 -17 -119.001 -17c-32.667 0 -63 4.33301 -91 13c-39.333 13.333 -67.833 33.833 -85.5 61.5s-26.5 66.5 -26.5 116.5v128c0 47.333 9.33301 87 28 119s43.334 54.333 74.001 67c25.333 10.667 53.333 16 84 16
c6 0 12.333 -0.333008 19 -1c38 -2.66699 76.333 -13 115 -31l-30 -95c-34.667 12 -64.334 18 -89.001 18c-18 0 -33 -3 -45 -9c-30.667 -14.667 -46 -40.667 -46 -78v-145c0 -22 7.66699 -38.833 23 -50.5s33.666 -17.834 54.999 -18.501h13c16.667 0 32.334 1 47.001 3
c18.667 2.66699 33.334 6.33398 44.001 11.001zM403 578l-67 -39l-76 83l-81 -83l-66 39l148 141z" />
    <glyph glyph-name="Cdotaccent" unicode="&#x10a;" horiz-adv-x="430" 
d="M410 127l17.002 -104c-32.667 -12.667 -65.334 -21.667 -98.001 -27c-21.333 -4 -42.666 -6 -63.999 -6c-10.667 0 -21.667 0.666992 -33 2c-32 2.66699 -60.167 10.5 -84.5 23.5s-44 33.667 -59 62s-22.5 63.5 -22.5 105.5v321c0 50.667 7.16699 89 21.5 115
s36.166 48 65.499 66c30 16.667 65.667 25 107 25h13c46.667 -2 89.667 -13 129 -33l-31 -100c-30.667 11.333 -64.334 17 -101.001 17c-28 0 -50.667 -7.66699 -68 -23s-26 -34.666 -26 -57.999v-328c0 -12 1.33301 -22.833 4 -32.5s7 -17.5 13 -23.5s12 -11.333 18 -16
s14.333 -7.66699 25 -9s19.667 -2.5 27 -3.5s17.5 -0.5 30.5 1.5s23.167 3.5 30.5 4.5s17.833 3.16699 31.5 6.5l28.5 7c5.33301 1.33301 14 3.66602 26 6.99902zM266.002 730c-16 0 -30 6 -42 18s-18 26 -18 42c0 15.333 6 28.833 18 40.5s26 17.5 42 17.5
c15.333 0 28.833 -5.83301 40.5 -17.5s17.5 -25.167 17.5 -40.5c0 -16 -5.83301 -30 -17.5 -42s-25.167 -18 -40.5 -18z" />
    <glyph glyph-name="cdotaccent" unicode="&#x10b;" horiz-adv-x="439" 
d="M370 114l30 -108c-42.667 -11.333 -82.334 -17 -119.001 -17c-32.667 0 -63 4.33301 -91 13c-39.333 13.333 -67.833 33.833 -85.5 61.5s-26.5 66.5 -26.5 116.5v128c0 47.333 9.33301 87 28 119s43.334 54.333 74.001 67c25.333 10.667 53.333 16 84 16
c6 0 12.333 -0.333008 19 -1c38 -2.66699 76.333 -13 115 -31l-30 -95c-34.667 12 -64.334 18 -89.001 18c-18 0 -33 -3 -45 -9c-30.667 -14.667 -46 -40.667 -46 -78v-145c0 -22 7.66699 -38.833 23 -50.5s33.666 -17.834 54.999 -18.501h13c16.667 0 32.334 1 47.001 3
c18.667 2.66699 33.334 6.33398 44.001 11.001zM265 538c-16 0 -30 6 -42 18s-18 26 -18 42c0 15.333 6 28.833 18 40.5s26 17.5 42 17.5c15.333 0 28.833 -5.83301 40.5 -17.5s17.5 -25.167 17.5 -40.5c0 -16 -5.83301 -30 -17.5 -42s-25.167 -18 -40.5 -18z" />
    <glyph glyph-name="Ccaron" unicode="&#x10c;" horiz-adv-x="430" 
d="M410 127l17.002 -104c-32.667 -12.667 -65.334 -21.667 -98.001 -27c-21.333 -4 -42.666 -6 -63.999 -6c-10.667 0 -21.667 0.666992 -33 2c-32 2.66699 -60.167 10.5 -84.5 23.5s-44 33.667 -59 62s-22.5 63.5 -22.5 105.5v321c0 50.667 7.16699 89 21.5 115
s36.166 48 65.499 66c30 16.667 65.667 25 107 25h13c46.667 -2 89.667 -13 129 -33l-31 -100c-30.667 11.333 -64.334 17 -101.001 17c-28 0 -50.667 -7.66699 -68 -23s-26 -34.666 -26 -57.999v-328c0 -12 1.33301 -22.833 4 -32.5s7 -17.5 13 -23.5s12 -11.333 18 -16
s14.333 -7.66699 25 -9s19.667 -2.5 27 -3.5s17.5 -0.5 30.5 1.5s23.167 3.5 30.5 4.5s17.833 3.16699 31.5 6.5l28.5 7c5.33301 1.33301 14 3.66602 26 6.99902zM398.002 875l-142 -141l-148 141l66 39l81 -83l76 83z" />
    <glyph glyph-name="ccaron" unicode="&#x10d;" horiz-adv-x="440" 
d="M370 114l30 -108c-42.667 -11.333 -82.334 -17 -119.001 -17c-32.667 0 -63 4.33301 -91 13c-39.333 13.333 -67.833 33.833 -85.5 61.5s-26.5 66.5 -26.5 116.5v128c0 47.333 9.33301 87 28 119s43.334 54.333 74.001 67c25.333 10.667 53.333 16 84 16
c6 0 12.333 -0.333008 19 -1c38 -2.66699 76.333 -13 115 -31l-30 -95c-34.667 12 -64.334 18 -89.001 18c-18 0 -33 -3 -45 -9c-30.667 -14.667 -46 -40.667 -46 -78v-145c0 -22 7.66699 -38.833 23 -50.5s33.666 -17.834 54.999 -18.501h13c16.667 0 32.334 1 47.001 3
c18.667 2.66699 33.334 6.33398 44.001 11.001zM401 684l-142 -141l-148 141l66 39l81 -83l76 83z" />
    <glyph glyph-name="Dcaron" unicode="&#x10e;" horiz-adv-x="576" 
d="M286 0h-208v701h188c75.333 0 132.833 -20.667 172.5 -62s59.5 -96.333 59.5 -165v-274c0 -133.333 -70.667 -200 -212 -200zM388 190v294c0 36.667 -9.16699 63.5 -27.5 80.5s-46.5 25.5 -84.5 25.5h-88v-489h82c16.667 0 30.667 0.833008 42 2.5
s23.5 5.16699 36.5 10.5s22.833 14.333 29.5 27s10 29 10 49zM416 875l-142 -141l-148 141l66 39l81 -83l76 83z" />
    <glyph glyph-name="dcaron" unicode="&#x10f;" horiz-adv-x="650" 
d="M78 157l0.000976562 189c0 70 28.333 118 85 144c20 9.33301 42.333 15.333 67 18c13.333 1.33301 25.666 2 36.999 2c10 0 19 -0.666992 27 -2c17.333 -2 32 -5.33301 44 -10v202h109v-700c-57.333 -8 -110.333 -12 -159 -12s-92.667 10 -132 30
c-52 26.667 -78 73 -78 139zM338.001 97l-0.000976562 285c-16 8 -32.667 13 -50 15c-5.33301 0.666992 -10.666 1 -15.999 1c-11.333 0 -22.333 -1.33301 -33 -4c-15.333 -4.66699 -27.833 -14.5 -37.5 -29.5s-14.5 -34.5 -14.5 -58.5v-156
c0 -22.667 15.333 -39.667 46 -51c16 -6 33.667 -9 53 -9c16 0 33.333 2.33301 52 7zM544 524l-69 28.999c14 8 27 16.333 39 25s20.667 15.334 26 20.001l7 7l-12 3c-20 9.33301 -30 25.333 -30 48c0 15.333 5.33301 28 16 38c10 10 22.333 15 37 15h3
c17.333 -0.666992 30 -7.66699 38 -21s12 -27.333 12 -42c0 -22.667 -5.16699 -43 -15.5 -61s-27.5 -38.333 -51.5 -61z" />
    <glyph glyph-name="Dcroat" unicode="&#x110;" horiz-adv-x="576" 
d="M286 0h-208v701h188c75.333 0 132.833 -20.667 172.5 -62s59.5 -96.333 59.5 -165v-274c0 -133.333 -70.667 -200 -212 -200zM388 190v294c0 36.667 -9.16699 63.5 -27.5 80.5s-46.5 25.5 -84.5 25.5h-88v-489h82c16.667 0 30.667 0.833008 42 2.5
s23.5 5.16699 36.5 10.5s22.833 14.333 29.5 27s10 29 10 49zM392 730h-217v91h217v-91z" />
    <glyph glyph-name="dcroat" unicode="&#x111;" horiz-adv-x="548" 
d="M509 536h-61.999v-536c-57.333 -8 -110.333 -12 -159 -12s-92.667 10 -132 30c-52 26.667 -78 73 -78 139v189c0 70 28.333 118 85 144c20 9.33301 42.333 15.333 67 18c13.333 1.33301 25.666 2 36.999 2c10 0 19 -0.666992 27 -2c17.333 -2 32 -5.33301 44 -10v38h-63
v105h63v59h109v-59h62v-105zM338.001 97l-0.000976562 285c-16 8 -32.667 13 -50 15c-5.33301 0.666992 -10.666 1 -15.999 1c-11.333 0 -22.333 -1.33301 -33 -4c-15.333 -4.66699 -27.833 -14.5 -37.5 -29.5s-14.5 -34.5 -14.5 -58.5v-156
c0 -22.667 15.333 -39.667 46 -51c16 -6 33.667 -9 53 -9c16 0 33.333 2.33301 52 7z" />
    <glyph glyph-name="Emacron" unicode="&#x112;" horiz-adv-x="465" 
d="M410 0h-332v700h334v-110h-224v-177h137l-31 -105h-106v-208h222v-100zM352 730h-217v91h217v-91z" />
    <glyph glyph-name="emacron" unicode="&#x113;" horiz-adv-x="537" 
d="M395 190l-249.001 -12.999v-28c0 -34 15.333 -53.333 46 -58c4.66699 -0.666992 9.33398 -1 14.001 -1c30 0 71.333 13.333 124 40l40 -95c-49.333 -30 -104.333 -45.667 -165 -47h-8c-48 0 -86.667 11.333 -116 34c-30.667 24.667 -46 62 -46 112v205
c0 54 16.833 96 50.5 126s78.167 45 133.5 45s98.5 -14.833 129.5 -44.5s46.5 -70.834 46.5 -123.501v-152zM283.999 287.001v53c0 20 -6.33301 35.333 -19 46s-28.334 16 -47.001 16c-25.333 0 -43.666 -6.66699 -54.999 -20s-17 -28 -17 -44v-60zM324.999 538.001h-216v91
h216v-91z" />
    <glyph glyph-name="Edotaccent" unicode="&#x116;" horiz-adv-x="465" 
d="M410 0h-332v700h334v-110h-224v-177h137l-31 -105h-106v-208h222v-100zM256 730c-16 0 -30 6 -42 18s-18 26 -18 42c0 15.333 6 28.833 18 40.5s26 17.5 42 17.5c15.333 0 28.833 -5.83301 40.5 -17.5s17.5 -25.167 17.5 -40.5c0 -16 -5.83301 -30 -17.5 -42
s-25.167 -18 -40.5 -18z" />
    <glyph glyph-name="edotaccent" unicode="&#x117;" horiz-adv-x="477" 
d="M438 190l-249 -12.999v-28c0 -34 15.667 -53.333 47 -58c4 -0.666992 8.33301 -1 13 -1c30 0 71.333 13.333 124 40l40 -95c-49.333 -30 -104.333 -45.667 -165 -47h-8c-48 0 -86.667 11.333 -116 34c-30.667 24.667 -46 62 -46 112v205c0 54 16.833 96 50.5 126
s78.167 45 133.5 45s98.5 -14.833 129.5 -44.5s46.5 -70.834 46.5 -123.501v-152zM327 287.001v53c0 20 -6.33301 35.333 -19 46s-28.334 16 -47.001 16c-25.333 0 -43.666 -6.66699 -54.999 -20s-17 -28 -17 -44v-60zM264 538.001c-16 0 -30 6 -42 18s-18 26 -18 42
c0 15.333 6 28.833 18 40.5s26 17.5 42 17.5c15.333 0 28.833 -5.83301 40.5 -17.5s17.5 -25.167 17.5 -40.5c0 -16 -5.83301 -30 -17.5 -42s-25.167 -18 -40.5 -18z" />
    <glyph glyph-name="Eogonek" unicode="&#x118;" horiz-adv-x="497" 
d="M395 -110l49 -53c-12 -18.667 -26.5 -31.667 -43.5 -39s-39.167 -11 -66.5 -11c-10.667 0 -22.5 2.66699 -35.5 8s-25.167 15.666 -36.5 30.999c-10 14.667 -15 31.334 -15 50.001v7c2 41.333 33 80.333 93 117h-262v700h334v-110h-224v-177h137l-31 -105h-106v-208h222
v-100h-1c-60 -49.333 -90 -88 -90 -116v-5c2.66699 -16 13.667 -24 33 -24c6 0 13.167 2.83301 21.5 8.5s15.5 14.5 21.5 26.5z" />
    <glyph glyph-name="eogonek" unicode="&#x119;" horiz-adv-x="434" 
d="M258 -110l48.999 -52.999c-12 -18.667 -26.5 -31.667 -43.5 -39s-39.167 -11 -66.5 -11c-10.667 0 -22.5 2.66699 -35.5 8s-25.167 15.666 -36.5 30.999c-10 14.667 -15 31.334 -15 50.001v7c2 36.667 26.667 71.667 74 105c-46 2 -82.333 15.167 -109 39.5
s-40 59.833 -40 106.5v205c0 54 16.833 96 50.5 126s78.167 45 133.5 45s98.5 -14.833 129.5 -44.5s46.5 -70.834 46.5 -123.501v-152l-249 -13v-28c0 -34 15.333 -53.333 46 -58c4.66699 -0.666992 9.33398 -1 14.001 -1c30 0 71.333 13.333 124 40l40 -95
c-32 -20 -67 -33.333 -105 -40c-55.333 -46.667 -83 -83.667 -83 -111v-5c2.66699 -16 13.667 -24 33 -24c6 0 13.167 2.83301 21.5 8.5s15.5 14.5 21.5 26.5zM283.999 287.001v53c0 20 -6.33301 35.333 -19 46s-28.334 16 -47.001 16
c-25.333 0 -43.666 -6.66699 -54.999 -20s-17 -28 -17 -44v-60z" />
    <glyph glyph-name="Ecaron" unicode="&#x11a;" horiz-adv-x="465" 
d="M410 0h-332v700h334v-110h-224v-177h137l-31 -105h-106v-208h222v-100zM393 875l-142 -141l-148 141l66 39l81 -83l76 83z" />
    <glyph glyph-name="ecaron" unicode="&#x11b;" horiz-adv-x="477" 
d="M438 190l-249 -12.999v-28c0 -34 15.667 -53.333 47 -58c4 -0.666992 8.33301 -1 13 -1c30 0 71.333 13.333 124 40l40 -95c-49.333 -30 -104.333 -45.667 -165 -47h-8c-48 0 -86.667 11.333 -116 34c-30.667 24.667 -46 62 -46 112v205c0 54 16.833 96 50.5 126
s78.167 45 133.5 45s98.5 -14.833 129.5 -44.5s46.5 -70.834 46.5 -123.501v-152zM327 287.001v53c0 20 -6.33301 35.333 -19 46s-28.334 16 -47.001 16c-25.333 0 -43.666 -6.66699 -54.999 -20s-17 -28 -17 -44v-60zM407 684.001l-142 -141l-148 141l66 39l81 -83l76 83z
" />
    <glyph glyph-name="Gcircumflex" unicode="&#x11c;" horiz-adv-x="537" 
d="M476 0l-104 0.000976562l-6 8c-34.667 -12 -64.667 -18 -90 -18c-58.667 0 -108.5 16.667 -149.5 50s-61.5 83 -61.5 149v314c0 85.333 29 145.666 87 180.999c30 16.667 65.667 25 107 25h13c46.667 -2 89.667 -13 129 -33l-33 -99c-32 12 -62.333 18 -91 18
c-32 0 -57 -5.83301 -75 -17.5s-27 -33.5 -27 -65.5v-325c0 -32 8.5 -54.333 25.5 -67s41.833 -19 74.5 -19c60.667 0 91 28.333 91 85v9h-57l-35 105h202v-300zM427 770.001l-67 -39l-76 83l-81 -83l-66 39l148 141z" />
    <glyph glyph-name="gcircumflex" unicode="&#x11d;" horiz-adv-x="494" 
d="M427 578l-67 -39l-76 83l-81 -83l-66 39l148 141zM298 -210l-26 86c22.667 0 40.5 6.5 53.5 19.5s19.5 32.5 19.5 58.5v54c-18 -13.333 -45 -20 -81 -20c-58.667 0 -104.334 16 -137.001 48s-49 78.667 -49 140v149c0 58.667 17.167 104.167 51.5 136.5
s80.5 48.5 138.5 48.5c18.667 0 35.334 -2.16699 50.001 -6.5s24 -8.83301 28 -13.5l21 11h88v-565c0 -97.333 -52.333 -146 -157 -146zM345 231l-0.000976562 84.001c0 57.333 -27 86 -81 86c-27.333 0 -46.833 -7.83301 -58.5 -23.5s-17.5 -34.834 -17.5 -57.501v-129
c0 -64.667 25.333 -97 76 -97c32.667 0 54.334 10.667 65.001 32s16 56.333 16 105z" />
    <glyph glyph-name="Gbreve" unicode="&#x11e;" horiz-adv-x="537" 
d="M476 0l-104 0.000976562l-6 8c-34.667 -12 -64.667 -18 -90 -18c-58.667 0 -108.5 16.667 -149.5 50s-61.5 83 -61.5 149v314c0 85.333 29 145.666 87 180.999c30 16.667 65.667 25 107 25h13c46.667 -2 89.667 -13 129 -33l-33 -99c-32 12 -62.333 18 -91 18
c-32 0 -57 -5.83301 -75 -17.5s-27 -33.5 -27 -65.5v-325c0 -32 8.5 -54.333 25.5 -67s41.833 -19 74.5 -19c60.667 0 91 28.333 91 85v9h-57l-35 105h202v-300zM389 846.001v-5c0 -31.333 -11.167 -58 -33.5 -80s-48.833 -33 -79.5 -33s-57.167 11 -79.5 33
s-33.5 48.667 -33.5 80v5h83v-5c0 -23.333 10 -35 30 -35c9.33301 0 16.833 3.16699 22.5 9.5s8.5 14.833 8.5 25.5v5h82z" />
    <glyph glyph-name="gbreve" unicode="&#x11f;" horiz-adv-x="494" 
d="M395 650v-5c0 -31.333 -11.167 -58 -33.5 -80s-48.833 -33 -79.5 -33s-57.167 11 -79.5 33s-33.5 48.667 -33.5 80v5h83v-5c0 -23.333 10 -35 30 -35c9.33301 0 16.833 3.16699 22.5 9.5s8.5 14.833 8.5 25.5v5h82zM298 -210l-26 86c22.667 0 40.5 6.5 53.5 19.5
s19.5 32.5 19.5 58.5v54c-18 -13.333 -45 -20 -81 -20c-58.667 0 -104.334 16 -137.001 48s-49 78.667 -49 140v149c0 58.667 17.167 104.167 51.5 136.5s80.5 48.5 138.5 48.5c18.667 0 35.334 -2.16699 50.001 -6.5s24 -8.83301 28 -13.5l21 11h88v-565
c0 -97.333 -52.333 -146 -157 -146zM345 231l-0.000976562 84.001c0 57.333 -27 86 -81 86c-27.333 0 -46.833 -7.83301 -58.5 -23.5s-17.5 -34.834 -17.5 -57.501v-129c0 -64.667 25.333 -97 76 -97c32.667 0 54.334 10.667 65.001 32s16 56.333 16 105z" />
    <glyph glyph-name="Gdotaccent" unicode="&#x120;" horiz-adv-x="566" 
d="M293 729c-16 0 -30 6 -42 18s-18 26 -18 42c0 15.333 6 28.833 18 40.5s26 17.5 42 17.5c15.333 0 28.833 -5.83301 40.5 -17.5s17.5 -25.167 17.5 -40.5c0 -16 -5.83301 -30 -17.5 -42s-25.167 -18 -40.5 -18zM496 0l-104 0.000976562l-6 8
c-34.667 -12 -64.667 -18 -90 -18c-58.667 0 -108.5 16.667 -149.5 50s-61.5 83 -61.5 149v314c0 85.333 29 145.666 87 180.999c30 16.667 65.667 25 107 25h13c46.667 -2 89.667 -13 129 -33l-33 -99c-32 12 -62.333 18 -91 18c-32 0 -57 -5.83301 -75 -17.5
s-27 -33.5 -27 -65.5v-325c0 -32 8.5 -54.333 25.5 -67s41.833 -19 74.5 -19c60.667 0 91 28.333 91 85v9h-57l-35 105h202v-300z" />
    <glyph glyph-name="gdotaccent" unicode="&#x121;" horiz-adv-x="494" 
d="M280 537c-16 0 -30 6 -42 18s-18 26 -18 42c0 15.333 6 28.833 18 40.5s26 17.5 42 17.5c15.333 0 28.833 -5.83301 40.5 -17.5s17.5 -25.167 17.5 -40.5c0 -16 -5.83301 -30 -17.5 -42s-25.167 -18 -40.5 -18zM298 -210l-26 86c22.667 0 40.5 6.5 53.5 19.5
s19.5 32.5 19.5 58.5v54c-18 -13.333 -45 -20 -81 -20c-58.667 0 -104.334 16 -137.001 48s-49 78.667 -49 140v149c0 58.667 17.167 104.167 51.5 136.5s80.5 48.5 138.5 48.5c18.667 0 35.334 -2.16699 50.001 -6.5s24 -8.83301 28 -13.5l21 11h88v-565
c0 -97.333 -52.333 -146 -157 -146zM345 231l-0.000976562 84.001c0 57.333 -27 86 -81 86c-27.333 0 -46.833 -7.83301 -58.5 -23.5s-17.5 -34.834 -17.5 -57.501v-129c0 -64.667 25.333 -97 76 -97c32.667 0 54.334 10.667 65.001 32s16 56.333 16 105z" />
    <glyph glyph-name="Gcommaaccent" unicode="&#x122;" horiz-adv-x="537" 
d="M476 0l-104 0.000976562l-6 8c-34.667 -12 -64.667 -18 -90 -18c-58.667 0 -108.5 16.667 -149.5 50s-61.5 83 -61.5 149v314c0 85.333 29 145.666 87 180.999c30 16.667 65.667 25 107 25h13c46.667 -2 89.667 -13 129 -33l-33 -99c-32 12 -62.333 18 -91 18
c-32 0 -57 -5.83301 -75 -17.5s-27 -33.5 -27 -65.5v-325c0 -32 8.5 -54.333 25.5 -67s41.833 -19 74.5 -19c60.667 0 91 28.333 91 85v9h-57l-35 105h202v-300zM260 -217.999l-69 28.999c14 8 27 16.333 39 25s20.667 15.334 26 20.001l7 7l-12 3
c-20 9.33301 -30 25.333 -30 48c0 15.333 5.33301 28 16 38c10 10 22.333 15 37 15h3c17.333 -0.666992 30 -7.66699 38 -21s12 -27.333 12 -42c0 -22.667 -5.16699 -43 -15.5 -61s-27.5 -38.333 -51.5 -61z" />
    <glyph glyph-name="gcommaaccent" unicode="&#x123;" horiz-adv-x="494" 
d="M298 -210l-26 86c22.667 0 40.5 6.5 53.5 19.5s19.5 32.5 19.5 58.5v54c-18 -13.333 -45 -20 -81 -20c-58.667 0 -104.334 16 -137.001 48s-49 78.667 -49 140v149c0 58.667 17.167 104.167 51.5 136.5s80.5 48.5 138.5 48.5c18.667 0 35.334 -2.16699 50.001 -6.5
s24 -8.83301 28 -13.5l21 11h88v-565c0 -97.333 -52.333 -146 -157 -146zM345 231l-0.000976562 84.001c0 57.333 -27 86 -81 86c-27.333 0 -46.833 -7.83301 -58.5 -23.5s-17.5 -34.834 -17.5 -57.501v-129c0 -64.667 25.333 -97 76 -97c32.667 0 54.334 10.667 65.001 32
s16 56.333 16 105zM279.999 646.001l12 -2.99902c20 -9.33301 30 -25.333 30 -48c0 -15.333 -5.33301 -28.333 -16 -39c-10 -9.33301 -22.333 -14 -37 -14h-3c-17.333 0.666992 -30 7.66699 -38 21s-12 27.333 -12 42c0 22.667 5.16699 43 15.5 61s27.5 38.333 51.5 61
l69 -29c-14 -8 -27 -16.333 -39 -25s-20.333 -15.334 -25 -20.001z" />
    <glyph glyph-name="Hcircumflex" unicode="&#x124;" horiz-adv-x="588" 
d="M508 0h-109v308h-211v-308h-110v700h110v-287h211v287h109v-700zM440 770l-67 -39l-76 83l-81 -83l-66 39l148 141z" />
    <glyph glyph-name="hcircumflex" unicode="&#x125;" horiz-adv-x="582" 
d="M354 770l-67 -39l-76 83l-81 -83l-66 39l148 141zM522 0l-110.003 -0.000976562v307c0 30.667 -6.16699 54.334 -18.5 71.001s-27.166 26 -44.499 28h-17c-11.333 0 -22 -1 -32 -3c-15.333 -3.33301 -27.666 -8 -36.999 -14v-389h-110v700h110v-203
c18.667 8 43.334 12.333 74.001 13h4c30 0 62 -6.33301 96 -19c56.667 -26 85 -74.333 85 -145v-346z" />
    <glyph glyph-name="Hbar" unicode="&#x126;" horiz-adv-x="685" 
d="M557 0h-109v308h-211v-308h-110v473h-49v105h49v122h110v-122h211v122h109v-122h48v-105h-48v-473zM448 413v60h-211v-60h211z" />
    <glyph glyph-name="hbar" unicode="&#x127;" horiz-adv-x="547" 
d="M508 0l-110.003 -0.000976562v307c0 30.667 -6.16699 54.334 -18.5 71.001s-27.166 26 -44.499 28h-17c-11.333 0 -22 -1 -32 -3c-15.333 -3.33301 -27.666 -8 -36.999 -14v-389h-110v536h-61v105h61v59h110v-59h63v-105h-63v-39c18.667 8 43.334 12.333 74.001 13h4
c30 0 62 -6.33301 96 -19c56.667 -26 85 -74.333 85 -145v-346z" />
    <glyph glyph-name="Itilde" unicode="&#x128;" horiz-adv-x="509" 
d="M318 0h-110v592l-62 2v106h172v-700zM387 821l42.002 -65c-22.667 -26.667 -45.334 -43 -68.001 -49c-10 -2.66699 -19.333 -4 -28 -4c-12 0 -23.667 2.33301 -35 7l-58 25c-14.667 6.66699 -30.334 10 -47.001 10c-4.66699 0 -9 -0.333008 -13 -1
c-22 -2 -43 -13.667 -63 -35l-39 65c23.333 26 46.666 42 69.999 48c10.667 3.33301 20.667 5 30 5c12 0 23.333 -2.33301 34 -7c19.333 -7.33301 38.666 -15.333 57.999 -24c14.667 -6.66699 30.334 -10 47.001 -10c4 0 7.66699 0.333008 11 1
c20.667 2 40.334 13.333 59.001 34z" />
    <glyph glyph-name="itilde" unicode="&#x129;" horiz-adv-x="468" 
d="M387 622l42.001 -65c-22.667 -26.667 -45.334 -43 -68.001 -49c-10 -2.66699 -19.333 -4 -28 -4c-12 0 -23.667 2.33301 -35 7l-58 25c-14.667 6.66699 -30.334 10 -47.001 10h-13c-22 -2.66699 -43 -14.667 -63 -36l-39 65c23.333 26 46.666 42.333 69.999 49
c10.667 2.66699 20.667 4 30 4c12 0 23.333 -2 34 -6l58 -24c14.667 -7.33301 30.334 -11 47.001 -11c4 0 7.66699 0.333008 11 1c20.667 2 40.334 13.333 59.001 34zM293.001 0h-110v501h110v-501z" />
    <glyph glyph-name="Imacron" unicode="&#x12a;" horiz-adv-x="374" 
d="M252 0h-110v592l-62 2v106h172v-700zM294 730h-216v91h216v-91z" />
    <glyph glyph-name="imacron" unicode="&#x12b;" horiz-adv-x="334" 
d="M295 538h-217v91h217v-91zM244 0h-110v501h110v-501z" />
    <glyph glyph-name="Iogonek" unicode="&#x12e;" horiz-adv-x="365" 
d="M236 -110l49 -53c-12 -18.667 -26.5 -31.667 -43.5 -39s-39.167 -11 -66.5 -11c-10.667 0 -22.5 2.66699 -35.5 8s-25.167 15.666 -36.5 30.999c-10 14.667 -15 31.334 -15 50.001v7c2 41.333 33 80.333 93 117h-41v592l-62 2v106h172v-700c-60 -49.333 -90 -88 -90 -116
v-5c2.66699 -16 13.667 -24 33 -24c6 0 13.167 2.83301 21.5 8.5s15.5 14.5 21.5 26.5z" />
    <glyph glyph-name="iogonek" unicode="&#x12f;" horiz-adv-x="246" 
d="M148 -110l49 -53c-12 -18.667 -26.5 -31.667 -43.5 -39s-39.167 -11 -66.5 -11c-10.667 0 -22.5 2.66699 -35.5 8s-25.167 15.666 -36.5 30.999c-10 14.667 -15 31.334 -15 50.001v7c2 41.333 33 80.333 93 117h-38v501h110v-501h-3c-60 -49.333 -90 -88 -90 -116v-5
c2.66699 -16 13.667 -24 33 -24c6 0 13.167 2.83301 21.5 8.5s15.5 14.5 21.5 26.5zM113 592c-16 0 -30 6 -42 18s-18 26 -18 42c0 15.333 6 28.833 18 40.5s26 17.5 42 17.5c15.333 0 28.833 -5.83301 40.5 -17.5s17.5 -25.167 17.5 -40.5c0 -16 -5.83301 -30 -17.5 -42
s-25.167 -18 -40.5 -18z" />
    <glyph glyph-name="Idotaccent" unicode="&#x130;" horiz-adv-x="338" 
d="M250 0h-110v592l-62 2v106h172v-700zM200 730c-16 0 -30 6 -42 18s-18 26 -18 42c0 15.333 6 28.833 18 40.5s26 17.5 42 17.5c15.333 0 28.833 -5.83301 40.5 -17.5s17.5 -25.167 17.5 -40.5c0 -16 -5.83301 -30 -17.5 -42s-25.167 -18 -40.5 -18z" />
    <glyph glyph-name="dotlessi" unicode="&#x131;" horiz-adv-x="184" 
d="M146 0h-110v501h110v-501z" />
    <glyph glyph-name="Jcircumflex" unicode="&#x134;" horiz-adv-x="278" 
d="M21 -37l-36.001 94.001c70 0 105 33 105 99v436l-60 2v106h168v-561c0 -63.333 -12.667 -108.333 -38 -135s-71.666 -40.334 -138.999 -41.001zM241.999 846.001v-5c0 -31.333 -11 -58 -33 -80s-48.667 -33 -80 -33s-58 11 -80 33s-33 48.667 -33 80v5h83v-5
c0 -23.333 10 -35 30 -35c9.33301 0 16.833 3.16699 22.5 9.5s8.5 14.833 8.5 25.5v5h82z" />
    <glyph glyph-name="jcircumflex" unicode="&#x135;" horiz-adv-x="407" 
d="M368 578l-67 -39l-76 83l-81 -83l-66 39l148 141zM188 -35l0.000976562 433.997l-51 10l-22 92h183v-576c-1.33301 -37.333 -17.5 -69 -48.5 -95s-65.167 -39 -102.5 -39l-30 85c2 0 4.5 0.333008 7.5 1s8.66699 2.83398 17 6.50098s15.666 8.33398 21.999 14.001
s12 14.334 17 26.001s7.5 25.5 7.5 41.5z" />
    <glyph glyph-name="Kcommaaccent" unicode="&#x136;" horiz-adv-x="532" 
d="M530 0h-137l-189 278l-7 -10v-268h-118v701h118v-241l162 241h132l-222 -325zM256 -218l-69 28.999c14 8 27 16.333 39 25s20.667 15.334 26 20.001l7 7l-12 3c-20 9.33301 -30 25.333 -30 48c0 15.333 5.33301 28 16 38c10 10 22.333 15 37 15h3
c17.333 -0.666992 30 -7.66699 38 -21s12 -27.333 12 -42c0 -22.667 -5.16699 -43 -15.5 -61s-27.5 -38.333 -51.5 -61z" />
    <glyph glyph-name="kcommaaccent" unicode="&#x137;" horiz-adv-x="474" 
d="M476 0h-138l-150 254l-14 -14v-240h-110v700h110v-318l149 138l81 -77l-131 -111zM232 -219l-69 28.999c14 8 27 16.333 39 25s20.667 15.334 26 20.001l7 7l-12 3c-20 9.33301 -30 25.333 -30 48c0 15.333 5.33301 28.333 16 39c10 9.33301 22.333 14 37 14h3
c17.333 -0.666992 30 -7.66699 38 -21s12 -27.333 12 -42c0 -22.667 -5.16699 -43 -15.5 -61s-27.5 -38.333 -51.5 -61z" />
    <glyph glyph-name="kgreenlandic" unicode="&#x138;" horiz-adv-x="520" 
d="M481 96l-33.001 -97.001c-23.333 0 -45 6.16699 -65 18.5s-35.167 24.5 -45.5 36.5s-24.833 30.667 -43.5 56l-79 109l-27 -24v-195h-110v512l110 -13v-166l154 168h136l-182 -201l99 -140c18.667 -25.333 34.334 -42.166 47.001 -50.499s25.667 -12.833 39 -13.5z" />
    <glyph glyph-name="Lacute" unicode="&#x139;" horiz-adv-x="440" 
d="M439 0h-361v700h110v-599h251v-101zM176 731l-72.999 0.00195312l46 108c6.66699 15.333 17.667 25.666 33 30.999c7.33301 2 13.666 3 18.999 3c6 0 11 -1.33301 15 -4c13.333 -6.66699 21.333 -16.334 24 -29.001c0.666992 -2.66699 1 -5 1 -7
c0 -12 -5.33301 -25 -16 -39z" />
    <glyph glyph-name="lacute" unicode="&#x13a;" horiz-adv-x="320" 
d="M188 0h-110v700h110v-700zM175 734h-72.999l46 108c6.66699 15.333 17.667 25.333 33 30c7.33301 2.66699 13.666 4 18.999 4c6 0 11 -1.33301 15 -4c13.333 -6.66699 21.333 -16.667 24 -30c0.666992 -2 1 -4 1 -6c0 -12 -5.33301 -25 -16 -39z" />
    <glyph glyph-name="Lcommaaccent" unicode="&#x13b;" horiz-adv-x="440" 
d="M439 0h-361v700h110v-599h251v-101zM250 -219l-69 28.999c14 8 27 16.333 39 25s20.667 15.334 26 20.001l7 7l-12 3c-20 9.33301 -30 25.333 -30 48c0 15.333 5.33301 28.333 16 39c10 9.33301 22.333 14 37 14h3c17.333 -0.666992 30 -7.66699 38 -21
s12 -27.333 12 -42c0 -22.667 -5.16699 -43 -15.5 -61s-27.5 -38.333 -51.5 -61z" />
    <glyph glyph-name="lcommaaccent" unicode="&#x13c;" horiz-adv-x="295" 
d="M215 0h-110v700h110v-700zM147 -220l-69 28.999c14 8 27 16.333 39 25s20.333 15.334 25 20.001l8 7l-12 3c-20 9.33301 -30 25.333 -30 48c0 15.333 5.33301 28 16 38c10 10 22.333 15 37 15h3c17.333 -0.666992 30 -7.66699 38 -21s12 -27.333 12 -42
c0 -22.667 -5.16699 -43 -15.5 -61s-27.5 -38.333 -51.5 -61z" />
    <glyph glyph-name="Lcaron" unicode="&#x13d;" horiz-adv-x="532" 
d="M531 0h-361v700h110v-599h251v-101zM368 875l-142 -141l-148 141l66 39l81 -83l76 83z" />
    <glyph glyph-name="lcaron" unicode="&#x13e;" horiz-adv-x="448" 
d="M278 0h-110v700h110v-700zM368 875l-142 -141l-148 141l66 39l81 -83l76 83z" />
    <glyph glyph-name="Lslash" unicode="&#x141;" horiz-adv-x="586" 
d="M547 0h-361v309l-72 -32l-36 81l108 49v293h110v-243l73 33l37 -81l-110 -50v-258h251v-101z" />
    <glyph glyph-name="lslash" unicode="&#x142;" horiz-adv-x="445" 
d="M301 0h-110v312l-77 -35l-36 81l113 51v183l-62 2v106h172v-241l68 31l37 -81l-105 -48v-361z" />
    <glyph glyph-name="Nacute" unicode="&#x143;" horiz-adv-x="650" 
d="M570 0h-111l-271 473v-473h-110v700h110l271 -470v470h111v-700zM351 730h-72.999l46 108c6.66699 15.333 17.667 25.333 33 30c7.33301 2.66699 13.666 4 18.999 4c6 0 11 -1.33301 15 -4c13.333 -6.66699 21.333 -16.667 24 -30c0.666992 -2 1 -4 1 -6
c0 -12 -5.33301 -25 -16 -39z" />
    <glyph glyph-name="nacute" unicode="&#x144;" horiz-adv-x="486" 
d="M447 0l-109.999 -0.000976562v315c0 38.667 -14.333 65.334 -43 80.001c-12 6 -25 9 -39 9c-20.667 0 -43.334 -6 -68.001 -18v-386h-109v501h97l13 -6c30.667 10 59.667 15 87 15c30.667 0 59.667 -6.33301 87 -19c56.667 -26 85 -74.333 85 -145v-346zM304.001 537.999
h-72.999l46 108c6.66699 15.333 17.667 25.333 33 30c7.33301 2.66699 13.666 4 18.999 4c6 0 11 -1.33301 15 -4c13.333 -6.66699 21.333 -16.667 24 -30c0.666992 -2 1 -4 1 -6c0 -12 -5.33301 -25 -16 -39z" />
    <glyph glyph-name="Ncommaaccent" unicode="&#x145;" horiz-adv-x="650" 
d="M570 0h-111l-271 473v-473h-110v700h110l271 -470v470h111v-700zM314 -214l-69 28.999c14 8 27 16.333 39 25s20.667 15.334 26 20.001l7 7l-12 3c-20 9.33301 -30 25.333 -30 48c0 15.333 5.33301 28 16 38c10 10 22.333 15 37 15h3
c17.333 -0.666992 30 -7.66699 38 -21s12 -27.333 12 -42c0 -22.667 -5.16699 -43 -15.5 -61s-27.5 -38.333 -51.5 -61z" />
    <glyph glyph-name="ncommaaccent" unicode="&#x146;" horiz-adv-x="500" 
d="M433 0l-109.999 -0.000976562v315c0 38.667 -14.333 65.334 -43 80.001c-12 6 -25 9 -39 9c-20.667 0 -43.334 -6 -68.001 -18v-386h-109v501h97l13 -6c30.667 10 59.667 15 87 15c30.667 0 59.667 -6.33301 87 -19c56.667 -26 85 -74.333 85 -145v-346z
M232.001 -220.001l-69 28.999c14 8 27 16.333 39 25s20.667 15.334 26 20.001l7 7l-12 3c-20 9.33301 -30 25.333 -30 48c0 15.333 5.33301 28 16 38c10 10 22.333 15 37 15h3c17.333 -0.666992 30 -7.66699 38 -21s12 -27.333 12 -42c0 -22.667 -5.16699 -43 -15.5 -61
s-27.5 -38.333 -51.5 -61z" />
    <glyph glyph-name="Ncaron" unicode="&#x147;" horiz-adv-x="650" 
d="M570 0h-111l-271 473v-473h-110v700h110l271 -470v470h111v-700zM474 875l-142 -141l-148 141l66 39l81 -83l76 83z" />
    <glyph glyph-name="ncaron" unicode="&#x148;" horiz-adv-x="486" 
d="M447 0l-109.999 -0.000976562v315c0 38.667 -14.333 65.334 -43 80.001c-12 6 -25 9 -39 9c-20.667 0 -43.334 -6 -68.001 -18v-386h-109v501h97l13 -6c30.667 10 59.667 15 87 15c30.667 0 59.667 -6.33301 87 -19c56.667 -26 85 -74.333 85 -145v-346zM421.001 730.999
l-142 -141l-148 141l66 39l81 -83l76 83z" />
    <glyph glyph-name="Eng" unicode="&#x14a;" horiz-adv-x="650" 
d="M459 230l-0.000976562 362.001l-57 2v106h168v-537c0 -67.333 -17.667 -117.333 -53 -150s-76.666 -49.334 -123.999 -50.001l-18 47l-18 47c26 0 46.667 4 62 12l-231 404v-473h-110v700h110l135.5 -234.5z" />
    <glyph glyph-name="eng" unicode="&#x14b;" horiz-adv-x="500" 
d="M324 -39l-0.000976562 365.001c0 24 -5.83301 42.5 -17.5 55.5s-26.167 19.833 -43.5 20.5c-4.66699 0.666992 -9 1 -13 1c-12.667 0 -24.667 -1 -36 -3c-15.333 -3.33301 -29 -8 -41 -14v-386h-109v501h98l11 -4c8.66699 3.33301 21.667 6.33301 39 9
c10.667 2 23.334 3 38.001 3c8.66699 0 17.667 -0.333008 27 -1c26.667 -1.33301 50.334 -7 71.001 -17c56.667 -26 85 -74.333 85 -145v-419c0 -40.667 -17.833 -73.5 -53.5 -98.5s-73.834 -37.5 -114.501 -37.5l-25 86c2 0 5 0.166992 9 0.5s10.833 2 20.5 5
s18.167 7.16699 25.5 12.5s14 13.666 20 24.999s9 25 9 41z" />
    <glyph glyph-name="Omacron" unicode="&#x14c;" horiz-adv-x="549" 
d="M483 506v-321.001c0 -67.333 -20.5 -116.833 -61.5 -148.5s-90.167 -47.5 -147.5 -47.5s-106.833 15.833 -148.5 47.5s-62.5 81.167 -62.5 148.5v322c0 68.667 18.833 120.667 56.5 156s89.5 53 155.5 53s117.167 -18.667 153.5 -56s54.5 -88.666 54.5 -153.999z
M373 205.999v264c0 42.667 -6.5 74.5 -19.5 95.5s-39.833 31.5 -80.5 31.5s-67.5 -10.167 -80.5 -30.5s-19.5 -52.166 -19.5 -95.499v-267c0 -32 8.16699 -57.167 24.5 -75.5s41.5 -27.5 75.5 -27.5c31.333 0 55.833 9.66699 73.5 29s26.5 44.666 26.5 75.999zM377 729.999
h-217v91h217v-91z" />
    <glyph glyph-name="omacron" unicode="&#x14d;" 
d="M451 316v-132c0 -56 -15.333 -102.333 -46 -139s-77 -55 -139 -55s-108.833 18.5 -140.5 55.5s-47.5 83.167 -47.5 138.5v132c0 63.333 16.167 111.833 48.5 145.5s78.833 50.5 139.5 50.5c58 0 103.333 -17.5 136 -52.5s49 -82.833 49 -143.5zM342 174v142.001
c0 19.333 -2.33301 35.166 -7 47.499s-11.5 21 -20.5 26s-17 8.16699 -24 9.5s-15.167 2 -24.5 2c-52 0 -78 -28.333 -78 -85v-142c0 -50.667 26 -76 78 -76c22 0 40.167 6.33301 54.5 19s21.5 31.667 21.5 57zM372 538.001h-216v91h216v-91z" />
    <glyph glyph-name="Ohungarumlaut" unicode="&#x150;" horiz-adv-x="549" 
d="M483 506v-321.001c0 -67.333 -20.5 -116.833 -61.5 -148.5s-90.167 -47.5 -147.5 -47.5s-106.833 15.833 -148.5 47.5s-62.5 81.167 -62.5 148.5v322c0 68.667 18.833 120.667 56.5 156s89.5 53 155.5 53s117.167 -18.667 153.5 -56s54.5 -88.666 54.5 -153.999z
M373 205.999v264c0 42.667 -6.5 74.5 -19.5 95.5s-39.833 31.5 -80.5 31.5s-67.5 -10.167 -80.5 -30.5s-19.5 -52.166 -19.5 -95.499v-267c0 -32 8.16699 -57.167 24.5 -75.5s41.5 -27.5 75.5 -27.5c31.333 0 55.833 9.66699 73.5 29s26.5 44.666 26.5 75.999zM359 733.999
h-72.999l46 108c6.66699 15.333 17.667 25.333 33 30c7.33301 2.66699 13.666 4 18.999 4c6 0 11 -1.33301 15 -4c13.333 -6.66699 21.333 -16.667 24 -30c0.666992 -2 1 -4 1 -6c0 -12 -5.33301 -25 -16 -39zM218.001 733.999h-72.999l46 108
c6.66699 15.333 17.667 25.333 33 30c7.33301 2.66699 13.666 4 18.999 4c6 0 11 -1.33301 15 -4c13.333 -6.66699 21.333 -16.667 24 -30c0.666992 -2 1 -4 1 -6c0 -12 -5.33301 -25 -16 -39z" />
    <glyph glyph-name="ohungarumlaut" unicode="&#x151;" 
d="M451 316v-132c0 -56 -15.333 -102.333 -46 -139s-77 -55 -139 -55s-108.833 18.5 -140.5 55.5s-47.5 83.167 -47.5 138.5v132c0 63.333 16.167 111.833 48.5 145.5s78.833 50.5 139.5 50.5c58 0 103.333 -17.5 136 -52.5s49 -82.833 49 -143.5zM342 174v142.001
c0 19.333 -2.33301 35.166 -7 47.499s-11.5 21 -20.5 26s-17 8.16699 -24 9.5s-15.167 2 -24.5 2c-52 0 -78 -28.333 -78 -85v-142c0 -50.667 26 -76 78 -76c22 0 40.167 6.33301 54.5 19s21.5 31.667 21.5 57zM359 543.001l-72.999 0.00195312l46 108
c6.66699 15.333 17.667 25.666 33 30.999c7.33301 2 13.666 3 18.999 3c6 0 11 -1.33301 15 -4c13.333 -6.66699 21.333 -16.334 24 -29.001c0.666992 -2.66699 1 -5 1 -7c0 -12 -5.33301 -25 -16 -39zM218.001 543.003l-72.999 0.00195312l46 108
c6.66699 15.333 17.667 25.666 33 30.999c7.33301 2 13.666 3 18.999 3c6 0 11 -1.33301 15 -4c13.333 -6.66699 21.333 -16.334 24 -29.001c0.666992 -2.66699 1 -5 1 -7c0 -12 -5.33301 -25 -16 -39z" />
    <glyph glyph-name="OE" unicode="&#x152;" horiz-adv-x="761" 
d="M720 0h-332v7c-30.667 -12 -63.667 -18 -99 -18c-57.333 0 -106.833 15.833 -148.5 47.5s-62.5 81.167 -62.5 148.5v322c0 68.667 18.833 120.667 56.5 156s89.5 53 155.5 53c37.333 0 70 -6 98 -18v2h334v-110h-224v-75v-9v-93h137l-31 -105h-106v-123v-11v-74h222v-100
zM388 201l0.000976562 268.999c0 42.667 -6.5 74.5 -19.5 95.5s-39.833 31.5 -80.5 31.5s-67.5 -10.167 -80.5 -30.5s-19.5 -52.166 -19.5 -95.499v-267c0 -32 8.16699 -57.167 24.5 -75.5s41.5 -27.5 75.5 -27.5c30.667 0 54.667 9.16699 72 27.5s26.666 42.5 27.999 72.5z
" />
    <glyph glyph-name="oe" unicode="&#x153;" horiz-adv-x="772" 
d="M691 120l40 -84.999c-49.333 -30 -104.333 -45.667 -165 -47h-18c-31.333 0 -58.666 3 -81.999 9c-28 7.33301 -52 21.666 -72 42.999c-26.667 -33.333 -69.334 -50 -128.001 -50c-62 0 -108.833 18.5 -140.5 55.5s-47.5 83.167 -47.5 138.5v132
c0 63.333 16.167 111.833 48.5 145.5s78.833 50.5 139.5 50.5c60 0 106.333 -19.333 139 -58c26 23.333 49.833 38.5 71.5 45.5s51.167 10.5 88.5 10.5c49.333 0 89.666 -17.5 120.999 -52.5s47 -79.167 47 -132.5v-141l-281 -19v-6c0 -24.667 12.667 -43 38 -55
c20 -9.33301 43.333 -14 70 -14c7.33301 0 15.333 0.333008 24 1c36.667 3.33301 72.334 13 107.001 29zM342 174.001v142.001c0 62 -25.333 93 -76 93c-52 0 -78 -31 -78 -93v-142c0 -57.333 26 -86 78 -86c7.33301 0 14.5 0.833008 21.5 2.5s15 5.16699 24 10.5
s16.333 14.166 22 26.499s8.5 27.833 8.5 46.5zM623 278.002v39c0 30.667 -6.66699 53.667 -20 69s-31 23 -53 23c-65.333 0 -98 -34.667 -98 -104v-36z" />
    <glyph glyph-name="Racute" unicode="&#x154;" horiz-adv-x="564" 
d="M513 0l-112 0.000976562l-67 195h-146v-195h-110v700h237c64.667 0 113.667 -22.833 147 -68.5s50 -102.167 50 -169.5c0 -32.667 -0.833008 -58.667 -2.5 -78s-8.5 -44.333 -20.5 -75s-30 -56.334 -54 -77.001zM188 300.001l101 -0.000976562c20.667 0 38.167 4 52.5 12
s24.833 16.833 31.5 26.5s12 23.334 16 41.001s6.16699 31.5 6.5 41.5s0.5 23.667 0.5 41c0 51.333 -10.333 85.333 -31 102s-52.667 25 -96 25h-81v-289zM300 730h-72.999l46 108c6.66699 15.333 17.667 25.333 33 30c7.33301 2.66699 13.666 4 18.999 4
c6 0 11 -1.33301 15 -4c13.333 -6.66699 21.333 -16.667 24 -30c0.666992 -2 1 -4 1 -6c0 -12 -5.33301 -25 -16 -39z" />
    <glyph glyph-name="racute" unicode="&#x155;" horiz-adv-x="397" 
d="M188 0h-109.999v501h102l8 -4c22 7.33301 44.333 11.333 67 12h20c12.667 0 22 -0.333008 28 -1c9.33301 -1.33301 27.666 -5 54.999 -11l-26 -107c-18.667 9.33301 -36.667 14 -54 14c-14.667 0 -29 -3 -43 -9c-31.333 -14 -47 -38.333 -47 -73v-322zM211.001 538
h-72.999l46 108c6.66699 15.333 17.667 25.333 33 30c7.33301 2.66699 13.666 4 18.999 4c6 0 11 -1.33301 15 -4c13.333 -6.66699 21.333 -16.667 24 -30c0.666992 -2 1 -4 1 -6c0 -12 -5.33301 -25 -16 -39z" />
    <glyph glyph-name="Rcommaaccent" unicode="&#x156;" horiz-adv-x="564" 
d="M513 0l-112 0.000976562l-67 195h-146v-195h-110v700h237c64.667 0 113.667 -22.833 147 -68.5s50 -102.167 50 -169.5c0 -32.667 -0.833008 -58.667 -2.5 -78s-8.5 -44.333 -20.5 -75s-30 -56.334 -54 -77.001zM188 300.001l101 -0.000976562c20.667 0 38.167 4 52.5 12
s24.833 16.833 31.5 26.5s12 23.334 16 41.001s6.16699 31.5 6.5 41.5s0.5 23.667 0.5 41c0 51.333 -10.333 85.333 -31 102s-52.667 25 -96 25h-81v-289zM270 -221l-69 28.999c14 8 27 16.333 39 25s20.667 15.334 26 20.001l7 7l-12 3c-20 9.33301 -30 25.333 -30 48
c0 15.333 5.33301 28.333 16 39c10 9.33301 22.333 14 37 14h3c17.333 -0.666992 30 -7.66699 38 -21s12 -27.333 12 -42c0 -22.667 -5.16699 -43 -15.5 -61s-27.5 -38.333 -51.5 -61z" />
    <glyph glyph-name="rcommaaccent" unicode="&#x157;" horiz-adv-x="406" 
d="M197 0h-109.999v501h102l8 -4c22 7.33301 44.333 11.333 67 12h20c12.667 0 22 -0.333008 28 -1c9.33301 -1.33301 27.666 -5 54.999 -11l-26 -107c-18.667 9.33301 -36.667 14 -54 14c-14.667 0 -29 -3 -43 -9c-31.333 -14 -47 -38.333 -47 -73v-322zM130.001 -219
l-69 28.999c14 8 27 16.333 39 25s20.667 15.334 26 20.001l7 7l-12 3c-20 9.33301 -30 25.333 -30 48c0 15.333 5.33301 28.333 16 39c10 9.33301 22.333 14 37 14h3c17.333 -0.666992 30 -7.66699 38 -21s12 -27.333 12 -42c0 -22.667 -5.16699 -43 -15.5 -61
s-27.5 -38.333 -51.5 -61z" />
    <glyph glyph-name="Rcaron" unicode="&#x158;" horiz-adv-x="564" 
d="M513 0l-112 0.000976562l-67 195h-146v-195h-110v700h237c64.667 0 113.667 -22.833 147 -68.5s50 -102.167 50 -169.5c0 -32.667 -0.833008 -58.667 -2.5 -78s-8.5 -44.333 -20.5 -75s-30 -56.334 -54 -77.001zM188 300.001l101 -0.000976562c20.667 0 38.167 4 52.5 12
s24.833 16.833 31.5 26.5s12 23.334 16 41.001s6.16699 31.5 6.5 41.5s0.5 23.667 0.5 41c0 51.333 -10.333 85.333 -31 102s-52.667 25 -96 25h-81v-289zM426 875l-142 -141l-148 141l66 39l81 -83l76 83z" />
    <glyph glyph-name="rcaron" unicode="&#x159;" horiz-adv-x="407" 
d="M190 0h-109.999v501h102l8 -4c22 7.33301 44.333 11.333 67 12h20c12.667 0 22 -0.333008 28 -1c9.33301 -1.33301 27.666 -5 54.999 -11l-26 -107c-18.667 9.33301 -36.667 14 -54 14c-14.667 0 -29 -3 -43 -9c-31.333 -14 -47 -38.333 -47 -73v-322zM368.001 731
l-142 -141l-148 141l66 39l81 -83l76 83z" />
    <glyph glyph-name="Sacute" unicode="&#x15a;" horiz-adv-x="561" 
d="M37 178l118.001 17.001c3.33301 -29.333 15.333 -53 36 -71s47.667 -27 81 -27c40.667 0 70.667 9.16699 90 27.5s29 38.166 29 59.499c0 26.667 -6.16699 49.667 -18.5 69s-28.5 35.166 -48.5 47.499s-41.833 23.5 -65.5 33.5l-71.5 31.5c-24 11 -46 23.333 -66 37
s-36.167 31.834 -48.5 54.501s-18.5 49.334 -18.5 80.001c0 46.667 19.5 87.167 58.5 121.5s94.833 51.5 167.5 51.5c55.333 0 104 -10 146 -30l-6 -18l-15 -45l-14 -41c-45.333 14.667 -82 22 -110 22c-38 0 -66 -6.66699 -84 -20c-16 -12 -24 -27 -24 -45v-6
c2 -17.333 15 -33.333 39 -48s52.5 -29 85.5 -43s65.667 -30.167 98 -48.5s59.833 -44 82.5 -77s34 -71.833 34 -116.5c0 -59.333 -19.667 -108.333 -59 -147s-99.333 -58 -180 -58c-72.667 0 -129.834 19.167 -171.501 57.5s-63.167 82.166 -64.5 131.499zM312.001 734.001
h-72.999l46 108c6.66699 15.333 17.667 25.333 33 30c7.33301 2.66699 13.666 4 18.999 4c6 0 11 -1.33301 15 -4c13.333 -6.66699 21.333 -16.667 24 -30c0.666992 -2 1 -4 1 -6c0 -12 -5.33301 -25 -16 -39z" />
    <glyph glyph-name="sacute" unicode="&#x15b;" horiz-adv-x="487" 
d="M78 127l110 10.998c0 -12 6.16699 -23.333 18.5 -34s31.166 -16 56.499 -16c22 0 39 5.5 51 16.5s18 23.833 18 38.5c0 19.333 -7.83301 34.833 -23.5 46.5s-34.834 21 -57.501 28s-45.5 15 -68.5 24s-43.333 23.833 -61 44.5s-28.167 47 -31.5 79
c-0.666992 4 -1 8 -1 12c0 32.667 13 62.667 39 90c28 30.667 72.333 46 133 46c21.333 0 41.333 -2.5 60 -7.5s32 -9.83301 40 -14.5l12 -7l-32 -102c-15.333 15.333 -42 23 -80 23c-18.667 0 -32.5 -2.66699 -41.5 -8s-13 -11.166 -12 -17.499s1.5 -11.833 1.5 -16.5
c2 -10 11.833 -19.167 29.5 -27.5s37.834 -16.5 60.501 -24.5s45.334 -18 68.001 -30s41.834 -30 57.501 -54s23.5 -52.667 23.5 -86c0 -43.333 -15.667 -80.166 -47 -110.499s-77.333 -45.5 -138 -45.5c-56.667 0 -101.334 13.667 -134.001 41s-49.667 61 -51 101z
M297 537.998h-72.999l46 108c6.66699 15.333 17.667 25.333 33 30c7.33301 2.66699 13.666 4 18.999 4c6 0 11 -1.33301 15 -4c13.333 -6.66699 21.333 -16.667 24 -30c0.666992 -2 1 -4 1 -6c0 -12 -5.33301 -25 -16 -39z" />
    <glyph glyph-name="Scircumflex" unicode="&#x15c;" horiz-adv-x="561" 
d="M37 178l118.001 17.001c3.33301 -29.333 15.333 -53 36 -71s47.667 -27 81 -27c40.667 0 70.667 9.16699 90 27.5s29 38.166 29 59.499c0 26.667 -6.16699 49.667 -18.5 69s-28.5 35.166 -48.5 47.499s-41.833 23.5 -65.5 33.5l-71.5 31.5c-24 11 -46 23.333 -66 37
s-36.167 31.834 -48.5 54.501s-18.5 49.334 -18.5 80.001c0 46.667 19.5 87.167 58.5 121.5s94.833 51.5 167.5 51.5c55.333 0 104 -10 146 -30l-6 -18l-15 -45l-14 -41c-45.333 14.667 -82 22 -110 22c-38 0 -66 -6.66699 -84 -20c-16 -12 -24 -27 -24 -45v-6
c2 -17.333 15 -33.333 39 -48s52.5 -29 85.5 -43s65.667 -30.167 98 -48.5s59.833 -44 82.5 -77s34 -71.833 34 -116.5c0 -59.333 -19.667 -108.333 -59 -147s-99.333 -58 -180 -58c-72.667 0 -129.834 19.167 -171.501 57.5s-63.167 82.166 -64.5 131.499zM415.001 770.001
l-67 -39l-76 83l-81 -83l-66 39l148 141z" />
    <glyph glyph-name="scircumflex" unicode="&#x15d;" horiz-adv-x="487" 
d="M408 578l-67 -39l-76 83l-81 -83l-66 39l148 141zM78 127l110 10.998c0 -12 6.16699 -23.333 18.5 -34s31.166 -16 56.499 -16c22 0 39 5.5 51 16.5s18 23.833 18 38.5c0 19.333 -7.83301 34.833 -23.5 46.5s-34.834 21 -57.501 28s-45.5 15 -68.5 24
s-43.333 23.833 -61 44.5s-28.167 47 -31.5 79c-0.666992 4 -1 8 -1 12c0 32.667 13 62.667 39 90c28 30.667 72.333 46 133 46c21.333 0 41.333 -2.5 60 -7.5s32 -9.83301 40 -14.5l12 -7l-32 -102c-15.333 15.333 -42 23 -80 23c-18.667 0 -32.5 -2.66699 -41.5 -8
s-13 -11.166 -12 -17.499s1.5 -11.833 1.5 -16.5c2 -10 11.833 -19.167 29.5 -27.5s37.834 -16.5 60.501 -24.5s45.334 -18 68.001 -30s41.834 -30 57.501 -54s23.5 -52.667 23.5 -86c0 -43.333 -15.667 -80.166 -47 -110.499s-77.333 -45.5 -138 -45.5
c-56.667 0 -101.334 13.667 -134.001 41s-49.667 61 -51 101z" />
    <glyph glyph-name="scedilla" unicode="&#x15f;" horiz-adv-x="431" 
d="M100 -211l33.9971 73.002c24.667 -16.667 50.667 -25 78 -25c16 0 30 3.16699 42 9.5s18 16.5 18 30.5s-6.66699 23 -20 27c-3.33301 1.33301 -7.33301 2 -12 2c-12 0 -26.333 -4 -43 -12l-44 -22l-35 50l53 68c-42 7.33301 -74.667 23.666 -98 48.999
s-35.666 54.666 -36.999 87.999l110 11c0 -12 6.16699 -23.333 18.5 -34s31.166 -16 56.499 -16c22 0 39 5.5 51 16.5s18 23.833 18 38.5c0 19.333 -7.83301 34.833 -23.5 46.5s-34.834 21 -57.501 28s-45.5 15 -68.5 24s-43.333 23.833 -61 44.5s-28.167 47 -31.5 79
c-0.666992 4 -1 8 -1 12c0 32.667 13 62.667 39 90c28 30.667 72.333 46 133 46c21.333 0 41.333 -2.5 60 -7.5s32 -9.83301 40 -14.5l12 -7l-32 -102c-15.333 15.333 -42 23 -80 23c-18.667 0 -32.5 -2.66699 -41.5 -8s-13 -11.166 -12 -17.499s1.5 -11.833 1.5 -16.5
c2 -10 11.833 -19.167 29.5 -27.5s37.834 -16.5 60.501 -24.5s45.334 -18 68.001 -30s41.834 -30 57.501 -54s23.5 -52.667 23.5 -86c0 -41.333 -14.167 -76.833 -42.5 -106.5s-70.166 -45.834 -125.499 -48.501l-16 -24c12.667 4.66699 24 7 34 7
c22.667 0 42.667 -8.16699 60 -24.5s26 -38.833 26 -67.5c0 -36.667 -14.833 -64 -44.5 -82s-61.5 -27 -95.5 -27c-30 0 -64 7 -102 21z" />
    <glyph glyph-name="Scaron" unicode="&#x160;" horiz-adv-x="561" 
d="M37 178l118.001 17.001c3.33301 -29.333 15.333 -53 36 -71s47.667 -27 81 -27c40.667 0 70.667 9.16699 90 27.5s29 38.166 29 59.499c0 26.667 -6.16699 49.667 -18.5 69s-28.5 35.166 -48.5 47.499s-41.833 23.5 -65.5 33.5l-71.5 31.5c-24 11 -46 23.333 -66 37
s-36.167 31.834 -48.5 54.501s-18.5 49.334 -18.5 80.001c0 46.667 19.5 87.167 58.5 121.5s94.833 51.5 167.5 51.5c55.333 0 104 -10 146 -30l-6 -18l-15 -45l-14 -41c-45.333 14.667 -82 22 -110 22c-38 0 -66 -6.66699 -84 -20c-16 -12 -24 -27 -24 -45v-6
c2 -17.333 15 -33.333 39 -48s52.5 -29 85.5 -43s65.667 -30.167 98 -48.5s59.833 -44 82.5 -77s34 -71.833 34 -116.5c0 -59.333 -19.667 -108.333 -59 -147s-99.333 -58 -180 -58c-72.667 0 -129.834 19.167 -171.501 57.5s-63.167 82.166 -64.5 131.499zM443.001 923.001
l-142 -141l-148 141l66 39l81 -83l76 83z" />
    <glyph glyph-name="scaron" unicode="&#x161;" horiz-adv-x="487" 
d="M78 127l110 10.998c0 -12 6.16699 -23.333 18.5 -34s31.166 -16 56.499 -16c22 0 39 5.5 51 16.5s18 23.833 18 38.5c0 19.333 -7.83301 34.833 -23.5 46.5s-34.834 21 -57.501 28s-45.5 15 -68.5 24s-43.333 23.833 -61 44.5s-28.167 47 -31.5 79
c-0.666992 4 -1 8 -1 12c0 32.667 13 62.667 39 90c28 30.667 72.333 46 133 46c21.333 0 41.333 -2.5 60 -7.5s32 -9.83301 40 -14.5l12 -7l-32 -102c-15.333 15.333 -42 23 -80 23c-18.667 0 -32.5 -2.66699 -41.5 -8s-13 -11.166 -12 -17.499s1.5 -11.833 1.5 -16.5
c2 -10 11.833 -19.167 29.5 -27.5s37.834 -16.5 60.501 -24.5s45.334 -18 68.001 -30s41.834 -30 57.501 -54s23.5 -52.667 23.5 -86c0 -43.333 -15.667 -80.166 -47 -110.499s-77.333 -45.5 -138 -45.5c-56.667 0 -101.334 13.667 -134.001 41s-49.667 61 -51 101z
M404 729.998l-142 -141l-148 141l66 39l81 -83l76 83z" />
    <glyph glyph-name="Tcommaaccent" unicode="&#x162;" horiz-adv-x="402" 
d="M254 0h-110v589h-144v111h402v-111h-148v-589zM183 -218l-69 28.999c14 8 27 16.333 39 25s20.333 15.334 25 20.001l8 7l-12 3c-20 9.33301 -30 25.333 -30 48c0 15.333 5.33301 28 16 38c10 10 22.333 15 37 15h3c17.333 -0.666992 30 -7.66699 38 -21
s12 -27.333 12 -42c0 -22.667 -5.16699 -43 -15.5 -61s-27.5 -38.333 -51.5 -61z" />
    <glyph glyph-name="tcommaaccent" unicode="&#x163;" horiz-adv-x="278" 
d="M233 75l-33 -87.999c-101.333 2 -152 50.333 -152 145v568h112v-199h95l-24 -103h-71v-266c0 -22.667 6.33301 -37.834 19 -45.501s30.667 -11.5 54 -11.5zM113 -217.999l-69 28.999c14 8 27 16.333 39 25s20.333 15.334 25 20.001l8 7l-12 3
c-20 9.33301 -30 25.333 -30 48c0 15.333 5.33301 28 16 38c10 10 22.333 15 37 15h3c17.333 -0.666992 30 -7.66699 38 -21s12 -27.333 12 -42c0 -22.667 -5.16699 -43 -15.5 -61s-27.5 -38.333 -51.5 -61z" />
    <glyph glyph-name="Tcaron" unicode="&#x164;" horiz-adv-x="402" 
d="M254 0h-110v589h-144v111h402v-111h-148v-589zM345 875l-142 -141l-148 141l66 39l81 -83l76 83z" />
    <glyph glyph-name="tcaron" unicode="&#x165;" horiz-adv-x="359" 
d="M314 75l-33 -87.999c-101.333 2 -152 50.333 -152 145v568h112v-199h95l-24 -103h-71v-266c0 -22.667 6.33301 -37.834 19 -45.501s30.667 -11.5 54 -11.5zM334 875.001l-142 -141l-148 141l66 39l81 -83l76 83z" />
    <glyph glyph-name="Tbar" unicode="&#x166;" horiz-adv-x="402" 
d="M254 0h-110v589h-144v111h402v-111h-148v-589zM307 730h-217v91h217v-91z" />
    <glyph glyph-name="tbar" unicode="&#x167;" horiz-adv-x="394" 
d="M333 75l-33 -87.999c-101.333 2 -152 50.333 -152 145v121h-70v105h70v342h112v-199h95l-24 -103h-71v-40h52v-105h-52v-121c0 -22.667 6.33301 -37.834 19 -45.501s30.667 -11.5 54 -11.5z" />
    <glyph glyph-name="Utilde" unicode="&#x168;" horiz-adv-x="566" 
d="M385 230l0.000976562 471h110v-515c0 -35.333 -6.16699 -66 -18.5 -92s-29 -46 -50 -60s-43.167 -24.333 -66.5 -31s-48.333 -10 -75 -10s-51.834 3.33301 -75.501 10s-46 17 -67 31s-37.667 34 -50 60s-18.5 56.667 -18.5 92v515h110v-471
c0 -45.333 6.83301 -78.166 20.5 -98.499s40.167 -30.5 79.5 -30.5c40 0 66.833 10.167 80.5 30.5s20.5 53.166 20.5 98.499zM429.001 848l42.001 -65c-22.667 -26.667 -45.334 -43 -68.001 -49c-10 -2.66699 -19.333 -4 -28 -4c-12 0 -23.667 2.33301 -35 7l-58 25
c-14.667 6.66699 -30.334 10 -47.001 10h-13c-22 -2.66699 -43 -14.667 -63 -36l-39 65c23.333 26 46.666 42.333 69.999 49c10.667 2.66699 20.667 4 30 4c12 0 23.333 -2 34 -6l58 -24c14.667 -7.33301 30.334 -11 47.001 -11c4 0 7.66699 0.333008 11 1
c20.667 2 40.334 13.333 59.001 34z" />
    <glyph glyph-name="utilde" unicode="&#x169;" 
d="M451 0l-103 0.000976562l-7 6c-30 -11.333 -55 -17 -75 -17c-125.333 0 -188 61 -188 183v329h110v-313c0 -30.667 5.5 -53.334 16.5 -68.001s31.5 -22 61.5 -22s50 8.16699 60 24.5s15 39.5 15 69.5v309h110v-501zM406 632.001l42.002 -65
c-22.667 -26.667 -45.334 -43 -68.001 -49c-10 -2.66699 -19.333 -4 -28 -4c-12 0 -23.667 2.33301 -35 7c-19.333 8 -38.333 16.333 -57 25c-15.333 6.66699 -31.333 10 -48 10h-14c-21.333 -2.66699 -42 -14.667 -62 -36l-39 65c23.333 26 46.666 42.333 69.999 49
c10.667 2.66699 20.667 4 30 4c12 0 23.333 -2 34 -6l57 -24c15.333 -7.33301 31.333 -11 48 -11c4 0 8 0.333008 12 1c20 2 39.333 13.333 58 34z" />
    <glyph glyph-name="Umacron" unicode="&#x16a;" horiz-adv-x="566" 
d="M385 230l0.000976562 471h110v-515c0 -35.333 -6.16699 -66 -18.5 -92s-29 -46 -50 -60s-43.167 -24.333 -66.5 -31s-48.333 -10 -75 -10s-51.834 3.33301 -75.501 10s-46 17 -67 31s-37.667 34 -50 60s-18.5 56.667 -18.5 92v515h110v-471
c0 -45.333 6.83301 -78.166 20.5 -98.499s40.167 -30.5 79.5 -30.5c40 0 66.833 10.167 80.5 30.5s20.5 53.166 20.5 98.499zM391.001 730h-217v91h217v-91z" />
    <glyph glyph-name="umacron" unicode="&#x16b;" 
d="M451 0l-103 0.000976562l-7 6c-30 -11.333 -55 -17 -75 -17c-125.333 0 -188 61 -188 183v329h110v-313c0 -30.667 5.5 -53.334 16.5 -68.001s31.5 -22 61.5 -22s50 8.16699 60 24.5s15 39.5 15 69.5v309h110v-501zM368 538.001h-217v91h217v-91z" />
    <glyph glyph-name="Ubreve" unicode="&#x16c;" horiz-adv-x="566" 
d="M385 230l0.000976562 471h110v-515c0 -35.333 -6.16699 -66 -18.5 -92s-29 -46 -50 -60s-43.167 -24.333 -66.5 -31s-48.333 -10 -75 -10s-51.834 3.33301 -75.501 10s-46 17 -67 31s-37.667 34 -50 60s-18.5 56.667 -18.5 92v515h110v-471
c0 -45.333 6.83301 -78.166 20.5 -98.499s40.167 -30.5 79.5 -30.5c40 0 66.833 10.167 80.5 30.5s20.5 53.166 20.5 98.499zM397.001 842v-5c0 -31.333 -11.167 -58 -33.5 -80s-48.833 -33 -79.5 -33s-57.167 11 -79.5 33s-33.5 48.667 -33.5 80v5h83v-5
c0 -23.333 10 -35 30 -35c9.33301 0 16.833 3.16699 22.5 9.5s8.5 14.833 8.5 25.5v5h82z" />
    <glyph glyph-name="ubreve" unicode="&#x16d;" 
d="M383 653v-5c0 -30.667 -11.167 -57.167 -33.5 -79.5s-48.833 -33.5 -79.5 -33.5s-57.167 11.167 -79.5 33.5s-33.5 48.833 -33.5 79.5v5h83v-5c0 -23.333 10 -35 30 -35c9.33301 0 16.833 3.16699 22.5 9.5s8.5 14.833 8.5 25.5v5h82zM451 0l-103 0.000976562l-7 6
c-30 -11.333 -55 -17 -75 -17c-125.333 0 -188 61 -188 183v329h110v-313c0 -30.667 5.5 -53.334 16.5 -68.001s31.5 -22 61.5 -22s50 8.16699 60 24.5s15 39.5 15 69.5v309h110v-501z" />
    <glyph glyph-name="Uring" unicode="&#x16e;" horiz-adv-x="566" 
d="M385 230l0.000976562 471h110v-515c0 -35.333 -6.16699 -66 -18.5 -92s-29 -46 -50 -60s-43.167 -24.333 -66.5 -31s-48.333 -10 -75 -10s-51.834 3.33301 -75.501 10s-46 17 -67 31s-37.667 34 -50 60s-18.5 56.667 -18.5 92v515h110v-471
c0 -45.333 6.83301 -78.166 20.5 -98.499s40.167 -30.5 79.5 -30.5c40 0 66.833 10.167 80.5 30.5s20.5 53.166 20.5 98.499zM284.001 740c8.66699 0 15.667 2.83301 21 8.5s8 12.834 8 21.501s-2.66699 15.667 -8 21s-12.333 8 -21 8s-15.834 -2.66699 -21.501 -8
s-8.5 -12.333 -8.5 -21s2.83301 -15.834 8.5 -21.501s12.834 -8.5 21.501 -8.5zM284.001 663c-29.333 0 -54.5 10.5 -75.5 31.5s-31.5 46.167 -31.5 75.5s10.5 54.5 31.5 75.5s46.167 31.5 75.5 31.5s54.5 -10.5 75.5 -31.5s31.5 -46.167 31.5 -75.5
s-10.5 -54.5 -31.5 -75.5s-46.167 -31.5 -75.5 -31.5z" />
    <glyph glyph-name="uring" unicode="&#x16f;" 
d="M451 0l-103 0.000976562l-7 6c-30 -11.333 -55 -17 -75 -17c-125.333 0 -188 61 -188 183v329h110v-313c0 -30.667 5.5 -53.334 16.5 -68.001s31.5 -22 61.5 -22s50 8.16699 60 24.5s15 39.5 15 69.5v309h110v-501zM270 559.001c8.66699 0 15.667 2.83301 21 8.5
s8 12.834 8 21.501s-2.66699 15.667 -8 21s-12.333 8 -21 8s-15.834 -2.66699 -21.501 -8s-8.5 -12.333 -8.5 -21s2.83301 -15.834 8.5 -21.501s12.834 -8.5 21.501 -8.5zM270 482.001c-29.333 0 -54.5 10.5 -75.5 31.5s-31.5 46.167 -31.5 75.5s10.5 54.5 31.5 75.5
s46.167 31.5 75.5 31.5s54.5 -10.5 75.5 -31.5s31.5 -46.167 31.5 -75.5s-10.5 -54.5 -31.5 -75.5s-46.167 -31.5 -75.5 -31.5z" />
    <glyph glyph-name="Uhungarumlaut" unicode="&#x170;" horiz-adv-x="566" 
d="M385 230l0.000976562 471h110v-515c0 -35.333 -6.16699 -66 -18.5 -92s-29 -46 -50 -60s-43.167 -24.333 -66.5 -31s-48.333 -10 -75 -10s-51.834 3.33301 -75.501 10s-46 17 -67 31s-37.667 34 -50 60s-18.5 56.667 -18.5 92v515h110v-471
c0 -45.333 6.83301 -78.166 20.5 -98.499s40.167 -30.5 79.5 -30.5c40 0 66.833 10.167 80.5 30.5s20.5 53.166 20.5 98.499zM390.001 734h-72.999l46 108c6.66699 15.333 17.667 25.333 33 30c7.33301 2.66699 13.666 4 18.999 4c6 0 11 -1.33301 15 -4
c13.333 -6.66699 21.333 -16.667 24 -30c0.666992 -2 1 -4 1 -6c0 -12 -5.33301 -25 -16 -39zM249.002 734h-72.999l46 108c6.66699 15.333 17.667 25.333 33 30c7.33301 2.66699 13.666 4 18.999 4c6 0 11 -1.33301 15 -4c13.333 -6.66699 21.333 -16.667 24 -30
c0.666992 -2 1 -4 1 -6c0 -12 -5.33301 -25 -16 -39z" />
    <glyph glyph-name="uhungarumlaut" unicode="&#x171;" 
d="M451 0l-103 0.000976562l-7 6c-30 -11.333 -55 -17 -75 -17c-125.333 0 -188 61 -188 183v329h110v-313c0 -30.667 5.5 -53.334 16.5 -68.001s31.5 -22 61.5 -22s50 8.16699 60 24.5s15 39.5 15 69.5v309h110v-501zM359 543.001l-72.999 0.00195312l46 108
c6.66699 15.333 17.667 25.666 33 30.999c7.33301 2 13.666 3 18.999 3c6 0 11 -1.33301 15 -4c13.333 -6.66699 21.333 -16.334 24 -29.001c0.666992 -2.66699 1 -5 1 -7c0 -12 -5.33301 -25 -16 -39zM218.001 543.003l-72.999 0.00195312l46 108
c6.66699 15.333 17.667 25.666 33 30.999c7.33301 2 13.666 3 18.999 3c6 0 11 -1.33301 15 -4c13.333 -6.66699 21.333 -16.334 24 -29.001c0.666992 -2.66699 1 -5 1 -7c0 -12 -5.33301 -25 -16 -39z" />
    <glyph glyph-name="Uogonek" unicode="&#x172;" horiz-adv-x="566" 
d="M315 -110l49 -53c-12 -18.667 -26.5 -31.667 -43.5 -39s-39.167 -11 -66.5 -11c-10.667 0 -22.5 2.66699 -35.5 8s-25.167 15.666 -36.5 30.999c-10 14.667 -15 31.334 -15 50.001v7c2 39.333 30 76.666 84 111.999c-50.667 5.33301 -92.834 23.333 -126.501 54
s-50.5 76.334 -50.5 137.001v515h110v-471c0 -45.333 6.83301 -78.166 20.5 -98.499s40.167 -30.5 79.5 -30.5c40 0 66.833 10.167 80.5 30.5s20.5 53.166 20.5 98.499v471h110v-515c0 -59.333 -16.167 -104.5 -48.5 -135.5s-73.166 -49.167 -122.499 -54.5
c-56.667 -48 -85 -85.333 -85 -112v-5c2.66699 -16 13.667 -24 33 -24c6 0 13.167 2.83301 21.5 8.5s15.5 14.5 21.5 26.5z" />
    <glyph glyph-name="uogonek" unicode="&#x173;" horiz-adv-x="481" 
d="M394 -110l49 -52.999c-12 -18.667 -26.5 -31.667 -43.5 -39s-39.167 -11 -66.5 -11c-10.667 0 -22.5 2.66699 -35.5 8s-25.167 15.666 -36.5 30.999c-10 14.667 -15 31.334 -15 50.001v7c2 41.333 33 80.333 93 117h-33l-7 6c-30 -11.333 -55 -17 -75 -17
c-125.333 0 -188 61 -188 183v329h110v-313c0 -30.667 5.5 -53.334 16.5 -68.001s31.5 -22 61.5 -22s50 8.16699 60 24.5s15 39.5 15 69.5v309h110v-501h-1c-60 -49.333 -90 -88 -90 -116v-5c2.66699 -16 13.667 -24 33 -24c6 0 13.167 2.83301 21.5 8.5
s15.5 14.5 21.5 26.5z" />
    <glyph glyph-name="Ydieresis" unicode="&#x178;" horiz-adv-x="548" 
d="M342 -19l-35 84.001c22 2.66699 40 11 54 25s21 38.667 21 74v56c-33.333 -16.667 -68.333 -25 -105 -25c-68.667 0 -124 19.667 -166 59s-63 92.333 -63 159v287h110v-277c0 -80 39.667 -120 119 -120c8 0 15.5 0.333008 22.5 1s13.333 1.66699 19 3
s10.834 2.66602 15.501 3.99902s9.16699 3.16602 13.5 5.49902l10.5 5.5c2.66699 1.33301 5.5 3.33301 8.5 6s5.16699 4.66699 6.5 6s3 3.33301 5 6l4 3v357h110v-544c0 -52.667 -11.333 -93.667 -34 -123s-61.334 -46.666 -116.001 -51.999zM248 775.001
c0 -12 -4.33301 -22.333 -13 -31s-19.334 -13 -32.001 -13c-12 0 -22.333 4.33301 -31 13s-13 19 -13 31c0 12.667 4.33301 23.334 13 32.001s19 13 31 13c12.667 0 23.334 -4.33301 32.001 -13s13 -19.334 13 -32.001zM336 731.001c-12.667 0 -23.334 4.33301 -32.001 13
s-13 19.334 -13 32.001s4.33301 23.334 13 32.001s19.334 13 32.001 13s23.334 -4.33301 32.001 -13s13 -19.334 13 -32.001s-4.33301 -23.334 -13 -32.001s-19.334 -13 -32.001 -13z" />
    <glyph glyph-name="Zacute" unicode="&#x179;" horiz-adv-x="550" 
d="M518 0h-487v101l342 489h-329v110h468v-110l-344 -486h350v-104zM277 785l-72.999 0.00195312l46 108c6.66699 15.333 17.667 25.666 33 30.999c7.33301 2 13.666 3 18.999 3c6 0 11 -1.33301 15 -4c13.333 -6.66699 21.333 -16.334 24 -29.001
c0.666992 -2.66699 1 -5 1 -7c0 -12 -5.33301 -25 -16 -39z" />
    <glyph glyph-name="zacute" unicode="&#x17a;" horiz-adv-x="484" 
d="M445 0h-367v104l209 293h-200v104h348v-100l-210 -297h220v-104zM297 538h-72.999l46 108c6.66699 15.333 17.667 25.333 33 30c7.33301 2.66699 13.666 4 18.999 4c6 0 11 -1.33301 15 -4c13.333 -6.66699 21.333 -16.667 24 -30c0.666992 -2 1 -4 1 -6
c0 -12 -5.33301 -25 -16 -39z" />
    <glyph glyph-name="Zdotaccent" unicode="&#x17b;" horiz-adv-x="550" 
d="M518 0h-487v101l342 489h-329v110h468v-110l-344 -486h350v-104zM288 726c-16 0 -30 6 -42 18s-18 26 -18 42c0 15.333 6 28.833 18 40.5s26 17.5 42 17.5c15.333 0 28.833 -5.83301 40.5 -17.5s17.5 -25.167 17.5 -40.5c0 -16 -5.83301 -30 -17.5 -42
s-25.167 -18 -40.5 -18z" />
    <glyph glyph-name="zdotaccent" unicode="&#x17c;" horiz-adv-x="484" 
d="M445 0h-367v104l209 293h-200v104h348v-100l-210 -297h220v-104zM261 535c-16 0 -30 6 -42 18s-18 26 -18 42c0 15.333 6 28.833 18 40.5s26 17.5 42 17.5c15.333 0 28.833 -5.83301 40.5 -17.5s17.5 -25.167 17.5 -40.5c0 -16 -5.83301 -30 -17.5 -42
s-25.167 -18 -40.5 -18z" />
    <glyph glyph-name="Zcaron" unicode="&#x17d;" horiz-adv-x="550" 
d="M518 0h-487v101l342 489h-329v110h468v-110l-344 -486h350v-104zM443 923l-142 -141l-148 141l66 39l81 -83l76 83z" />
    <glyph glyph-name="zcaron" unicode="&#x17e;" horiz-adv-x="484" 
d="M445 0h-367v104l209 293h-200v104h348v-100l-210 -297h220v-104zM431 730l-142 -141l-148 141l66 39l81 -83l76 83z" />
    <glyph glyph-name="Scommaaccent" unicode="&#x218;" horiz-adv-x="561" 
d="M37 178l118.001 17.001c3.33301 -29.333 15.333 -53 36 -71s47.667 -27 81 -27c40.667 0 70.667 9.16699 90 27.5s29 38.166 29 59.499c0 26.667 -6.16699 49.667 -18.5 69s-28.5 35.166 -48.5 47.499s-41.833 23.5 -65.5 33.5l-71.5 31.5c-24 11 -46 23.333 -66 37
s-36.167 31.834 -48.5 54.501s-18.5 49.334 -18.5 80.001c0 46.667 19.5 87.167 58.5 121.5s94.833 51.5 167.5 51.5c55.333 0 104 -10 146 -30l-6 -18l-15 -45l-14 -41c-45.333 14.667 -82 22 -110 22c-38 0 -66 -6.66699 -84 -20c-16 -12 -24 -27 -24 -45v-6
c2 -17.333 15 -33.333 39 -48s52.5 -29 85.5 -43s65.667 -30.167 98 -48.5s59.833 -44 82.5 -77s34 -71.833 34 -116.5c0 -59.333 -19.667 -108.333 -59 -147s-99.333 -58 -180 -58c-72.667 0 -129.834 19.167 -171.501 57.5s-63.167 82.166 -64.5 131.499z
M262.001 -217.999l-69 28.999c14 8 27 16.333 39 25s20.667 15.334 26 20.001l7 7l-12 3c-20 9.33301 -30 25.333 -30 48c0 15.333 5.33301 28 16 38c10 10 22.333 15 37 15h3c17.333 -0.666992 30 -7.66699 38 -21s12 -27.333 12 -42c0 -22.667 -5.16699 -43 -15.5 -61
s-27.5 -38.333 -51.5 -61z" />
    <glyph glyph-name="scommaaccent" unicode="&#x219;" horiz-adv-x="431" 
d="M36 127l110 10.998c0 -12 6.16699 -23.333 18.5 -34s31.166 -16 56.499 -16c22 0 39 5.5 51 16.5s18 23.833 18 38.5c0 19.333 -7.83301 34.833 -23.5 46.5s-34.834 21 -57.501 28s-45.5 15 -68.5 24s-43.333 23.833 -61 44.5s-28.167 47 -31.5 79
c-0.666992 4 -1 8 -1 12c0 32.667 13 62.667 39 90c28 30.667 72.333 46 133 46c21.333 0 41.333 -2.5 60 -7.5s32 -9.83301 40 -14.5l12 -7l-32 -102c-15.333 15.333 -42 23 -80 23c-18.667 0 -32.5 -2.66699 -41.5 -8s-13 -11.166 -12 -17.499s1.5 -11.833 1.5 -16.5
c2 -10 11.833 -19.167 29.5 -27.5s37.834 -16.5 60.501 -24.5s45.334 -18 68.001 -30s41.834 -30 57.501 -54s23.5 -52.667 23.5 -86c0 -43.333 -15.667 -80.166 -47 -110.499s-77.333 -45.5 -138 -45.5c-56.667 0 -101.334 13.667 -134.001 41s-49.667 61 -51 101z
M202 -219.002l-69 28.999c14 8 27 16.333 39 25s20.667 15.334 26 20.001l7 7l-12 3c-20 9.33301 -30 25.333 -30 48c0 15.333 5.33301 28.333 16 39c10 9.33301 22.333 14 37 14h3c17.333 -0.666992 30 -7.66699 38 -21s12 -27.333 12 -42
c0 -22.667 -5.16699 -43 -15.5 -61s-27.5 -38.333 -51.5 -61z" />
    <glyph glyph-name="circumflex" unicode="&#x2c6;" horiz-adv-x="374" 
d="M336 628l-67 -39l-76 83l-81 -83l-66 39l148 141z" />
    <glyph glyph-name="caron" unicode="&#x2c7;" horiz-adv-x="374" 
d="M336 730l-142 -141l-148 141l66 39l81 -83l76 83z" />
    <glyph glyph-name="breve" unicode="&#x2d8;" horiz-adv-x="310" 
d="M272 700v-5c0 -31.333 -11 -58 -33 -80s-48.667 -33 -80 -33s-58 11 -80 33s-33 48.667 -33 80v5h83v-5c0 -23.333 10 -35 30 -35c9.33301 0 16.833 3.16699 22.5 9.5s8.5 14.833 8.5 25.5v5h82z" />
    <glyph glyph-name="dotaccent" unicode="&#x2d9;" horiz-adv-x="118" 
d="M60 643c-16 0 -30 6 -42 18s-18 26 -18 42c0 15.333 6 28.833 18 40.5s26 17.5 42 17.5c15.333 0 28.833 -5.83301 40.5 -17.5s17.5 -25.167 17.5 -40.5c0 -16 -5.83301 -30 -17.5 -42s-25.167 -18 -40.5 -18z" />
    <glyph glyph-name="ring" unicode="&#x2da;" horiz-adv-x="222" 
d="M111 632c8.66699 0 15.667 2.83301 21 8.5s8 12.834 8 21.501s-2.66699 15.667 -8 21s-12.333 8 -21 8s-15.834 -2.66699 -21.501 -8s-8.5 -12.333 -8.5 -21s2.83301 -15.834 8.5 -21.501s12.834 -8.5 21.501 -8.5zM111 555c-29.333 0 -54.5 10.5 -75.5 31.5
s-31.5 46.167 -31.5 75.5s10.5 54.5 31.5 75.5s46.167 31.5 75.5 31.5s54.5 -10.5 75.5 -31.5s31.5 -46.167 31.5 -75.5s-10.5 -54.5 -31.5 -75.5s-46.167 -31.5 -75.5 -31.5z" />
    <glyph glyph-name="ogonek" unicode="&#x2db;" horiz-adv-x="222" 
d="M216 -107l49 -53c-12 -18.667 -26.5 -31.667 -43.5 -39s-39.167 -11 -66.5 -11c-10.667 0 -22.5 2.66699 -35.5 8s-25.167 16 -36.5 32c-10 14 -15 30.333 -15 49v7c2 41.333 33 80.333 93 117h69c-60 -49.333 -90 -88 -90 -116v-5c2.66699 -16 13.667 -24 33 -24
c6 0 13.167 2.83301 21.5 8.5s15.5 14.5 21.5 26.5z" />
    <glyph glyph-name="tilde" unicode="&#x2dc;" horiz-adv-x="468" 
d="M387 697l42.002 -65c-22.667 -26.667 -45.334 -43 -68.001 -49c-10 -2.66699 -19.333 -4 -28 -4c-12 0 -23.667 2.33301 -35 7l-58 25c-14.667 6.66699 -30.334 10 -47.001 10c-4.66699 0 -9 -0.333008 -13 -1c-22 -2 -43 -13.667 -63 -35l-39 65
c23.333 26 46.666 42 69.999 48c10.667 3.33301 20.667 5 30 5c12 0 23.333 -2.33301 34 -7c19.333 -7.33301 38.666 -15.333 57.999 -24c14.667 -6.66699 30.334 -10 47.001 -10c4 0 7.66699 0.333008 11 1c20.667 2 40.334 13.333 59.001 34z" />
    <glyph glyph-name="hungarumlaut" unicode="&#x2dd;" horiz-adv-x="288" 
d="M219 570h-72.999l46 108c6.66699 15.333 17.667 25.333 33 30c7.33301 2.66699 13.666 4 18.999 4c6 0 11 -1.33301 15 -4c13.333 -6.66699 21.333 -16.667 24 -30c0.666992 -2 1 -4 1 -6c0 -12 -5.33301 -25 -16 -39zM77.001 568h-72.999l46 108
c6.66699 15.333 17.667 25.333 33 30c7.33301 2.66699 13.666 4 18.999 4c6 0 11 -1.33301 15 -4c13.333 -6.66699 21.333 -16.667 24 -30c0.666992 -2 1 -4 1 -6c0 -12 -5.33301 -25 -16 -39z" />
    <glyph glyph-name="dieresistonos" unicode="&#x385;" horiz-adv-x="339" 
d="M111 664c-8.66699 0 -16.334 3.33301 -23.001 10s-10 14.334 -10 23.001s3.33301 16.334 10 23.001s14.334 10 23.001 10s16.334 -3.33301 23.001 -10s10 -14.334 10 -23.001s-3.33301 -16.334 -10 -23.001s-14.334 -10 -23.001 -10zM267 664
c-8.66699 0 -16.334 3.33301 -23.001 10s-10 14.334 -10 23.001s3.33301 16.334 10 23.001s14.334 10 23.001 10s16.334 -3.33301 23.001 -10s10 -14.334 10 -23.001s-3.33301 -16.334 -10 -23.001s-14.334 -10 -23.001 -10zM224 731l-72.999 0.00195312l46 108
c6.66699 15.333 17.667 25.666 33 30.999c7.33301 2 13.666 3 18.999 3c6 0 11 -1.33301 15 -4c13.333 -6.66699 21.333 -16.334 24 -29.001c0.666992 -2.66699 1 -5 1 -7c0 -12 -5.33301 -25 -16 -39z" />
    <glyph glyph-name="Alphatonos" unicode="&#x386;" horiz-adv-x="627" 
d="M588 0h-131l-41 183h-161l-39 -183h-124l164 700h155zM390 300l-57 216l-52 -216h109zM151 567l-72.999 0.00195312l46 108c6.66699 15.333 17.667 25.666 33 30.999c7.33301 2 13.666 3 18.999 3c6 0 11 -1.33301 15 -4c13.333 -6.66699 21.333 -16.334 24 -29.001
c0.666992 -2.66699 1 -5 1 -7c0 -12 -5.33301 -25 -16 -39z" />
    <glyph glyph-name="Epsilontonos" unicode="&#x388;" horiz-adv-x="618" 
d="M151 568h-72.999l46 108c6.66699 15.333 17.667 25.333 33 30c7.33301 2.66699 13.666 4 18.999 4c6 0 11 -1.33301 15 -4c13.333 -6.66699 21.333 -16.667 24 -30c0.666992 -2 1 -4 1 -6c0 -12 -5.33301 -25 -16 -39zM577.001 0h-332v700h334v-110h-224v-177h137
l-31 -105h-106v-208h222v-100z" />
    <glyph glyph-name="Etatonos" unicode="&#x389;" horiz-adv-x="716" 
d="M151 568h-72.999l46 108c6.66699 15.333 17.667 25.333 33 30c7.33301 2.66699 13.666 4 18.999 4c6 0 11 -1.33301 15 -4c13.333 -6.66699 21.333 -16.667 24 -30c0.666992 -2 1 -4 1 -6c0 -12 -5.33301 -25 -16 -39zM677.001 0h-109v308h-211v-308h-110v700h110v-287
h211v287h109v-700z" />
    <glyph glyph-name="Iotatonos" unicode="&#x38a;" horiz-adv-x="447" 
d="M408 0h-110v592l-62 2v106h172v-700zM151 568h-72.999l46 108c6.66699 15.333 17.667 25.333 33 30c7.33301 2.66699 13.666 4 18.999 4c6 0 11 -1.33301 15 -4c13.333 -6.66699 21.333 -16.667 24 -30c0.666992 -2 1 -4 1 -6c0 -12 -5.33301 -25 -16 -39z" />
    <glyph glyph-name="Omicrontonos" unicode="&#x38c;" horiz-adv-x="654" 
d="M615 506v-321.001c0 -67.333 -20.5 -116.833 -61.5 -148.5s-90.167 -47.5 -147.5 -47.5s-106.833 15.833 -148.5 47.5s-62.5 81.167 -62.5 148.5v322c0 68.667 18.833 120.667 56.5 156s89.5 53 155.5 53s117.167 -18.667 153.5 -56s54.5 -88.666 54.5 -153.999z
M505 205.999v264c0 42.667 -6.5 74.5 -19.5 95.5s-39.833 31.5 -80.5 31.5s-67.5 -10.167 -80.5 -30.5s-19.5 -52.166 -19.5 -95.499v-267c0 -32 8.16699 -57.167 24.5 -75.5s41.5 -27.5 75.5 -27.5c31.333 0 55.833 9.66699 73.5 29s26.5 44.666 26.5 75.999zM151 567.999
h-72.999l46 108c6.66699 15.333 17.667 25.333 33 30c7.33301 2.66699 13.666 4 18.999 4c6 0 11 -1.33301 15 -4c13.333 -6.66699 21.333 -16.667 24 -30c0.666992 -2 1 -4 1 -6c0 -12 -5.33301 -25 -16 -39z" />
    <glyph glyph-name="Upsilontonos" unicode="&#x38e;" horiz-adv-x="720" 
d="M151 568h-72.999l46 108c6.66699 15.333 17.667 25.333 33 30c7.33301 2.66699 13.666 4 18.999 4c6 0 11 -1.33301 15 -4c13.333 -6.66699 21.333 -16.667 24 -30c0.666992 -2 1 -4 1 -6c0 -12 -5.33301 -25 -16 -39zM531.001 -19l-35 84.001c22 2.66699 40 11 54 25
s21 38.667 21 74v56c-33.333 -16.667 -68.333 -25 -105 -25c-68.667 0 -124 19.667 -166 59s-63 92.333 -63 159v287h110v-277c0 -80 39.667 -120 119 -120c8 0 15.5 0.333008 22.5 1s13.333 1.66699 19 3s10.834 2.66602 15.501 3.99902s9.16699 3.16602 13.5 5.49902
l10.5 5.5c2.66699 1.33301 5.5 3.33301 8.5 6s5.16699 4.66699 6.5 6l6 6l3 3v357h110v-544c0 -52.667 -11.333 -93.667 -34 -123s-61.334 -46.666 -116.001 -51.999z" />
    <glyph glyph-name="Omegatonos" unicode="&#x38f;" horiz-adv-x="725" 
d="M686 0l-228.002 -0.000976562v101c0.666992 0 4.16699 -0.166992 10.5 -0.5s11.5 -0.5 15.5 -0.5s9.66699 0.666992 17 2s13.5 3.16602 18.5 5.49902s10.5 5.83301 16.5 10.5s10.667 10.334 14 17.001s6.33301 15.167 9 25.5s4 22.166 4 35.499v273
c0 38 -8 67.667 -24 89s-39 32 -69 32h-77c-34.667 0 -59.834 -9 -75.501 -27s-23.5 -49.333 -23.5 -94v-274c0 -15.333 1.5 -28.666 4.5 -39.999s7.33301 -20.333 13 -27s11.334 -12.167 17.001 -16.5s12.834 -7.16602 21.501 -8.49902s15.167 -2.16602 19.5 -2.49902
s10.333 -0.333008 18 0s11.834 0.5 12.501 0.5v-101h-228l17 101h18c-14.667 23.333 -22 55 -22 95v307c0 61.333 15.667 110.666 47 147.999s78.333 56 141 56h112c62.667 0 109.667 -18.667 141 -56s47 -86.666 47 -147.999v-307c0 -18.667 -1.33301 -34.167 -4 -46.5
s-6.16699 -22.833 -10.5 -31.5s-6.83301 -14.334 -7.5 -17.001h18zM150.998 567.999h-72.999l46 108c6.66699 15.333 17.667 25.333 33 30c7.33301 2.66699 13.666 4 18.999 4c6 0 11 -1.33301 15 -4c13.333 -6.66699 21.333 -16.667 24 -30c0.666992 -2 1 -4 1 -6
c0 -12 -5.33301 -25 -16 -39z" />
    <glyph glyph-name="iotadieresistonos" unicode="&#x390;" horiz-adv-x="426" 
d="M283 0h-110v501h110v-501zM258 574h-72.999l46 108c6.66699 15.333 17.667 25.333 33 30c7.33301 2.66699 13.666 4 18.999 4c6 0 11 -1.33301 15 -4c13.333 -6.66699 21.333 -16.667 24 -30c0.666992 -2 1 -4 1 -6c0 -12 -5.33301 -25 -16 -39zM342.001 542
c-12.667 0 -23.334 4.33301 -32.001 13s-13 19.334 -13 32.001s4.33301 23.334 13 32.001s19.334 13 32.001 13s23.334 -4.33301 32.001 -13s13 -19.334 13 -32.001s-4.33301 -23.334 -13 -32.001s-19.334 -13 -32.001 -13zM167.001 586c0 -12 -4.33301 -22.333 -13 -31
s-19.334 -13 -32.001 -13c-12 0 -22.333 4.33301 -31 13s-13 19 -13 31c0 12.667 4.33301 23.334 13 32.001s19 13 31 13c12.667 0 23.334 -4.33301 32.001 -13s13 -19.334 13 -32.001z" />
    <glyph glyph-name="Alpha" unicode="&#x391;" horiz-adv-x="523" 
d="M517 0h-131l-41 183h-161l-39 -183h-124l164 700h155zM319 300l-57 216l-52 -216h109z" />
    <glyph glyph-name="Beta" unicode="&#x392;" horiz-adv-x="550" 
d="M297 0l-218.999 -0.000976562v700h204c55.333 0 101.333 -15.333 138 -46s55 -74.334 55 -131.001c0 -62.667 -22 -109 -66 -139c-0.666992 -0.666992 -1 -1.33398 -1 -2.00098v-1c29.333 -13.333 53.833 -34.666 73.5 -63.999s29.5 -66.666 29.5 -111.999
c0 -25.333 -3.66699 -49.5 -11 -72.5s-19 -44.667 -35 -65s-38.333 -36.666 -67 -48.999s-62.334 -18.5 -101.001 -18.5zM188.001 412.999l48 0.000976562c38 0 66 7 84 21s27 38 27 72c0 31.333 -8.33301 53.166 -25 65.499s-42 18.5 -76 18.5h-58v-177zM188.001 101h61
c46 0 80.167 6.83301 102.5 20.5s33.5 42.167 33.5 85.5c0 66.667 -42.333 100 -127 100h-70v-206z" />
    <glyph glyph-name="Gamma" unicode="&#x393;" horiz-adv-x="451" 
d="M189 0h-111v700h334v-110h-223v-590z" />
    <glyph glyph-name="uni0394" unicode="&#x394;" horiz-adv-x="532" 
d="M526 0h-505l191 700h110zM377 101l-105 381l-102 -381h207z" />
    <glyph glyph-name="Epsilon" unicode="&#x395;" horiz-adv-x="451" 
d="M410 0h-332v700h334v-110h-224v-177h137l-31 -105h-106v-208h222v-100z" />
    <glyph glyph-name="Zeta" unicode="&#x396;" horiz-adv-x="604" 
d="M565 0h-487v101l342 489h-329v110h468v-110l-344 -486h350v-104z" />
    <glyph glyph-name="Eta" unicode="&#x397;" horiz-adv-x="581" 
d="M510 0h-109v308h-211v-308h-110v700h110v-287h211v287h109v-700z" />
    <glyph glyph-name="Theta" unicode="&#x398;" horiz-adv-x="537" 
d="M498 506v-321.001c0 -67.333 -20.5 -116.833 -61.5 -148.5s-90.167 -47.5 -147.5 -47.5s-106.833 15.833 -148.5 47.5s-62.5 81.167 -62.5 148.5v322c0 68.667 18.833 120.667 56.5 156s89.5 53 155.5 53s117.167 -18.667 153.5 -56s54.5 -88.666 54.5 -153.999z
M388 205.999v102.001h-200v-104c0 -32 8.16699 -57.167 24.5 -75.5s41.5 -27.5 75.5 -27.5c31.333 0 55.833 9.66699 73.5 29s26.5 44.666 26.5 75.999zM388 413v56.999c0 42.667 -6.5 74.5 -19.5 95.5s-39.833 31.5 -80.5 31.5s-67.5 -10.167 -80.5 -30.5
s-19.5 -52.166 -19.5 -95.499v-58h200z" />
    <glyph glyph-name="Iota" unicode="&#x399;" horiz-adv-x="323" 
d="M252 0h-110v592l-62 2v106h172v-700z" />
    <glyph glyph-name="Kappa" unicode="&#x39a;" horiz-adv-x="568" 
d="M529 0h-137l-189 278l-7 -10v-268h-118v701h118v-241l162 241h132l-222 -325z" />
    <glyph glyph-name="Lambda" unicode="&#x39b;" horiz-adv-x="532" 
d="M526 0h-126l-129 454l-126 -454h-124l200 700h102z" />
    <glyph glyph-name="Mu" unicode="&#x39c;" horiz-adv-x="687" 
d="M616 0h-110v370l-117 -370h-84l-115 369v-369h-110v700h110l157 -463l159 463h110v-700z" />
    <glyph glyph-name="Nu" unicode="&#x39d;" horiz-adv-x="643" 
d="M572 0h-111l-271 473v-473h-110v700h110l271 -470v470h111v-700z" />
    <glyph glyph-name="Xi" unicode="&#x39e;" horiz-adv-x="626" 
d="M469 308h-264v105h264v-105zM527 590h-282.998c-48.667 0 -78.334 -15 -89.001 -45l-77 50c10.667 37.333 27.667 64.333 51 81s54.666 25 93.999 25h325zM442.002 0h-325.001l31 101h254c26.667 0 47 3.83301 61 11.5s24.667 22.5 32 44.5l92 -51
c-10.667 -37.333 -27.667 -64.333 -51 -81s-54.666 -25 -93.999 -25z" />
    <glyph glyph-name="Omicron" unicode="&#x39f;" horiz-adv-x="543" 
d="M482 506v-321.001c0 -67.333 -20.5 -116.833 -61.5 -148.5s-90.167 -47.5 -147.5 -47.5s-106.833 15.833 -148.5 47.5s-62.5 81.167 -62.5 148.5v322c0 68.667 18.833 120.667 56.5 156s89.5 53 155.5 53s117.167 -18.667 153.5 -56s54.5 -88.666 54.5 -153.999z
M372 205.999v264c0 42.667 -6.5 74.5 -19.5 95.5s-39.833 31.5 -80.5 31.5s-67.5 -10.167 -80.5 -30.5s-19.5 -52.166 -19.5 -95.499v-267c0 -32 8.16699 -57.167 24.5 -75.5s41.5 -27.5 75.5 -27.5c31.333 0 55.833 9.66699 73.5 29s26.5 44.666 26.5 75.999z" />
    <glyph glyph-name="Pi" unicode="&#x3a0;" horiz-adv-x="581" 
d="M510 0h-110v590h-210v-590h-110v700h430v-700z" />
    <glyph glyph-name="Rho" unicode="&#x3a1;" horiz-adv-x="551" 
d="M188 300h94.001c22.667 0 42.167 3.66699 58.5 11s28.333 15.5 36 24.5s13.667 21.833 18 38.5s6.66602 29.834 6.99902 39.501s0.5 23.167 0.5 40.5v7c0 51.333 -10 85.666 -30 102.999s-51.333 26 -94 26h-90v-290zM188.001 0h-110v700h228
c70 0 121.833 -22.5 155.5 -67.5s50.5 -101.5 50.5 -169.5c0 -178.667 -65.667 -268 -197 -268h-127v-195z" />
    <glyph glyph-name="Sigma" unicode="&#x3a3;" horiz-adv-x="585" 
d="M401 0h-323.001l226 384l-210 318h428l-34 -112h-191l137 -203l-169 -286h105c25.333 0 43.333 3.5 54 10.5s20 22.167 28 45.5l94 -51c-10.667 -37.333 -27.667 -64.333 -51 -81s-54.666 -25 -93.999 -25z" />
    <glyph glyph-name="Tau" unicode="&#x3a4;" horiz-adv-x="519" 
d="M332 0h-110v589h-144v111h402v-111h-148v-589z" />
    <glyph glyph-name="Upsilon" unicode="&#x3a5;" horiz-adv-x="556" 
d="M354 -19l-35 84.001c22 2.66699 40 11 54 25s21 38.667 21 74v56c-33.333 -16.667 -68.333 -25 -105 -25c-68.667 0 -124 19.667 -166 59s-63 92.333 -63 159v287h110v-277c0 -80 39.667 -120 119 -120c8 0 15.5 0.333008 22.5 1s13.333 1.66699 19 3
s10.834 2.66602 15.501 3.99902s9.16699 3.16602 13.5 5.49902l10.5 5.5c2.66699 1.33301 5.5 3.33301 8.5 6s5.16699 4.66699 6.5 6s3 3.33301 5 6l4 3v357h110v-544c0 -52.667 -11.333 -93.667 -34 -123s-61.334 -46.666 -116.001 -51.999z" />
    <glyph glyph-name="Phi" unicode="&#x3a6;" horiz-adv-x="644" 
d="M394 -35l-110.004 12.9961v37h-18c-37.333 0 -68.666 5.33301 -93.999 16s-44.666 26 -57.999 46s-22.666 41.833 -27.999 65.5s-8 51.167 -8 82.5v292c0 101.333 38.667 164.333 116 189l58 -84c-14 -5.33301 -23.167 -9.16602 -27.5 -11.499
s-10.333 -7.16602 -18 -14.499s-12.667 -17.166 -15 -29.499s-3.5 -28.833 -3.5 -49.5v-266c0 -22.667 0.333008 -40 1 -52s2.33398 -25.333 5.00098 -40s6.66699 -25.5 12 -32.5s13 -13 23 -18s22.333 -7.5 37 -7.5h18v504c2 32 16.5 57.667 43.5 77s57.167 29 90.5 29
c58 0 103.667 -18.167 137 -54.5s50 -84.833 50 -145.5v-286c0 -65.333 -13.833 -116.666 -41.5 -153.999s-76.5 -56 -146.5 -56h-23v-50zM393.996 100.996h22.999c14.667 0 27 2.5 37 7.5s17.5 10.833 22.5 17.5s8.83301 17.834 11.5 33.501s4.16699 29 4.5 40
s0.5 28.167 0.5 51.5v203c0 56 -3 94.5 -9 115.5s-21 31.5 -45 31.5c-4.66699 0 -9 -0.333008 -13 -1s-7.5 -1.33398 -10.5 -2.00098s-5.66699 -2.16699 -8 -4.5s-4.16602 -4 -5.49902 -5s-2.5 -3.16699 -3.5 -6.5s-1.83301 -5.5 -2.5 -6.5s-1.16699 -3.5 -1.5 -7.5
s-0.5 -6.5 -0.5 -7.5v-8v-7.5v-444z" />
    <glyph glyph-name="Chi" unicode="&#x3a7;" horiz-adv-x="694" 
d="M655 0h-141l-152 244l-147 -244h-137l218 350l-206 350h130l147 -232l140 232h131l-205 -341z" />
    <glyph glyph-name="Psi" unicode="&#x3a8;" horiz-adv-x="632" 
d="M370 0l-108.002 -0.000976562l-1 212h-19c-63.333 0 -110.5 17.167 -141.5 51.5s-46.5 81.833 -46.5 142.5v294h109v-259c0 -52 4.33301 -87.167 13 -105.5s30.667 -27.5 66 -27.5h19v392h109v-392h23c35.333 0 57.333 9.5 66 28.5s13 54.5 13 106.5v121
c0 16.667 -0.5 30.334 -1.5 41.001s-3.66699 19.667 -8 27l-8.5 14.5c-1.33301 2.33301 -6.16602 6 -14.499 11s-13.166 8.16699 -14.499 9.5l100 42c18 -11.333 31.333 -26.833 40 -46.5s13.5 -36.5 14.5 -50.5s1.5 -35 1.5 -63v-143
c0 -60.667 -15.5 -108.167 -46.5 -142.5s-78.167 -51.5 -141.5 -51.5h-23v-212z" />
    <glyph glyph-name="Iotadieresis" unicode="&#x3aa;" horiz-adv-x="380" 
d="M176 775c0 -12 -4.33301 -22.333 -13 -31s-19.334 -13 -32.001 -13c-12 0 -22.333 4.33301 -31 13s-13 19 -13 31c0 12.667 4.33301 23.334 13 32.001s19 13 31 13c12.667 0 23.334 -4.33301 32.001 -13s13 -19.334 13 -32.001zM264 731
c-12.667 0 -23.334 4.33301 -32.001 13s-13 19.334 -13 32.001s4.33301 23.334 13 32.001s19.334 13 32.001 13s23.334 -4.33301 32.001 -13s13 -19.334 13 -32.001s-4.33301 -23.334 -13 -32.001s-19.334 -13 -32.001 -13zM252 0h-110v592l-62 2v106h172v-700z" />
    <glyph glyph-name="Upsilondieresis_alt" unicode="&#x3ab;" horiz-adv-x="518" 
d="M215 773c0 -12 -4.33301 -22.333 -13 -31s-19.334 -13 -32.001 -13c-12 0 -22.333 4.33301 -31 13s-13 19 -13 31c0 12.667 4.33301 23.334 13 32.001s19 13 31 13c12.667 0 23.334 -4.33301 32.001 -13s13 -19.334 13 -32.001zM303 729
c-12.667 0 -23.334 4.33301 -32.001 13s-13 19.334 -13 32.001s4.33301 23.334 13 32.001s19.334 13 32.001 13s23.334 -4.33301 32.001 -13s13 -19.334 13 -32.001s-4.33301 -23.334 -13 -32.001s-19.334 -13 -32.001 -13zM298 0h-111v315l-180 385h116l119 -267l120 267
h117l-181 -385v-315z" />
    <glyph glyph-name="alphatonos" unicode="&#x3ac;" horiz-adv-x="512" 
d="M473 35l-110.998 -35.001l-14 8c-24 -10.667 -50.667 -16.667 -80 -18c-4.66699 -0.666992 -9.33398 -1 -14.001 -1c-24 0 -48.333 3.66699 -73 11c-29.333 8 -53.833 26.5 -73.5 55.5s-29.5 66.833 -29.5 113.5v185c0 37.333 7 67.833 21 91.5s31.167 39.667 51.5 48
s43.5 12.833 69.5 13.5h10c21.333 0 40.666 -1.66699 57.999 -5c19.333 -4.66699 37.333 -10 54 -16l9 25l99 -25c-4.66699 -43.333 -7 -75.666 -7 -96.999v-312c4 -18.667 14 -32.667 30 -42zM332.002 109.999l0.00292969 274.001
c-10.667 5.33301 -23.667 9.66602 -39 12.999s-31 5 -47 5c-0.666992 0.666992 -1.33398 1 -2.00098 1c-16 0 -29.333 -4.33301 -40 -13s-16 -21.667 -16 -39v-140v-22.5c0 -4.33301 0.5 -11.5 1.5 -21.5s2.16699 -17.167 3.5 -21.5s3.66602 -10.333 6.99902 -18
s7.33301 -13 12 -16s10.667 -6.33301 18 -10s15.666 -5.5 24.999 -5.5s20.5 1 33.5 3s27.5 5.66699 43.5 11zM310.005 538h-72.999l46 108c6.66699 15.333 17.667 25.333 33 30c7.33301 2.66699 13.666 4 18.999 4c6 0 11 -1.33301 15 -4
c13.333 -6.66699 21.333 -16.667 24 -30c0.666992 -2 1 -4 1 -6c0 -12 -5.33301 -25 -16 -39z" />
    <glyph glyph-name="epsilontonos" unicode="&#x3ad;" horiz-adv-x="462" 
d="M298 538h-72.999l46 108c6.66699 15.333 17.667 25.333 33 30c7.33301 2.66699 13.666 4 18.999 4c6 0 11 -1.33301 15 -4c13.333 -6.66699 21.333 -16.667 24 -30c0.666992 -2 1 -4 1 -6c0 -12 -5.33301 -25 -16 -39zM390.001 129l33 -106
c-52 -22.667 -108.667 -34 -170 -34c-51.333 0 -92.333 13.667 -123 41s-47.667 61.333 -51 102c-0.666992 6 -1 12 -1 18c0 56.667 21.333 98.667 64 126c-12.667 10 -24 26.667 -34 50c-7.33301 18 -11 36 -11 54c0 6 0.333008 12 1 18
c4.66699 36.667 21.667 64.667 51 84c28.667 19.333 60 29 94 29h4c36 -0.666992 71.333 -5.66699 106 -15l3 -98c-17.333 6 -34 10.333 -50 13c-11.333 2 -23 3 -35 3h-13c-16 -1.33301 -28.833 -6.83301 -38.5 -16.5s-14.5 -23.5 -14.5 -41.5s8.66699 -31.667 26 -41
s40 -14 68 -14h53l-31 -106h-44c-59.333 0 -89 -14 -89 -42c0 -34 28.333 -51 85 -51h6c20.667 0 40.167 2.33301 58.5 7s31.833 9 40.5 13z" />
    <glyph glyph-name="etatonos" unicode="&#x3ae;" horiz-adv-x="486" 
d="M322 538h-72.999l46 108c6.66699 15.333 17.667 25.333 33 30c7.33301 2.66699 13.666 4 18.999 4c6 0 11 -1.33301 15 -4c13.333 -6.66699 21.333 -16.667 24 -30c0.666992 -2 1 -4 1 -6c0 -12 -5.33301 -25 -16 -39zM447.001 -210l-109 24v529c0 32 -14.667 53 -44 63
c-8.66699 2.66699 -17.667 4 -27 4c-23.333 0 -50 -8 -80 -24v-386h-109v501h101l8 -4c18.667 7.33301 44 11.333 76 12h5c30.667 0 62 -6 94 -18c56.667 -26 85 -74.333 85 -145v-556z" />
    <glyph glyph-name="iotatonos" unicode="&#x3af;" horiz-adv-x="278" 
d="M174 538h-72.999l46 108c6.66699 15.333 17.667 25.333 33 30c7.33301 2.66699 13.666 4 18.999 4c6 0 11 -1.33301 15 -4c13.333 -6.66699 21.333 -16.667 24 -30c0.666992 -2 1 -4 1 -6c0 -12 -5.33301 -25 -16 -39zM188.001 0h-110v501h110v-501z" />
    <glyph glyph-name="upsilondieresistonos" unicode="&#x3b0;" horiz-adv-x="497" 
d="M211 586c0 -12 -4.33301 -22.333 -13 -31s-19.334 -13 -32.001 -13c-12 0 -22.333 4.33301 -31 13s-13 19 -13 31c0 12.667 4.33301 23.334 13 32.001s19 13 31 13c12.667 0 23.334 -4.33301 32.001 -13s13 -19.334 13 -32.001zM386 542
c-12.667 0 -23.334 4.33301 -32.001 13s-13 19.334 -13 32.001s4.33301 23.334 13 32.001s19.334 13 32.001 13s23.334 -4.33301 32.001 -13s13 -19.334 13 -32.001s-4.33301 -23.334 -13 -32.001s-19.334 -13 -32.001 -13zM302 574h-72.999l46 108
c6.66699 15.333 17.667 25.333 33 30c7.33301 2.66699 13.666 4 18.999 4c6 0 11 -1.33301 15 -4c13.333 -6.66699 21.333 -16.667 24 -30c0.666992 -2 1 -4 1 -6c0 -12 -5.33301 -25 -16 -39zM348.001 227l0.000976562 273.999h110v-329c0 -121.333 -64 -182 -192 -182
c-125.333 0 -188 60.667 -188 182v329h110v-276c0 -50 4.16699 -83.167 12.5 -99.5s30.166 -24.5 65.499 -24.5c37.333 0 60.333 8.33301 69 25s13 50.334 13 101.001z" />
    <glyph glyph-name="alpha" unicode="&#x3b1;" horiz-adv-x="512" 
d="M473 35l-110.998 -35.001l-14 8c-24 -10.667 -50.667 -16.667 -80 -18c-4.66699 -0.666992 -9.33398 -1 -14.001 -1c-24 0 -48.333 3.66699 -73 11c-29.333 8 -53.833 26.5 -73.5 55.5s-29.5 66.833 -29.5 113.5v185c0 37.333 7 67.833 21 91.5s31.167 39.667 51.5 48
s43.5 12.833 69.5 13.5h10c21.333 0 40.666 -1.66699 57.999 -5c19.333 -4.66699 37.333 -10 54 -16l9 25l99 -25c-4.66699 -43.333 -7 -75.666 -7 -96.999v-312c4 -18.667 14 -32.667 30 -42zM332.002 109.999l0.00292969 274.001
c-10.667 5.33301 -23.667 9.66602 -39 12.999s-31 5 -47 5c-0.666992 0.666992 -1.33398 1 -2.00098 1c-16 0 -29.333 -4.33301 -40 -13s-16 -21.667 -16 -39v-140v-22.5c0 -4.33301 0.5 -11.5 1.5 -21.5s2.16699 -17.167 3.5 -21.5s3.66602 -10.333 6.99902 -18
s7.33301 -13 12 -16s10.667 -6.33301 18 -10s15.666 -5.5 24.999 -5.5s20.5 1 33.5 3s27.5 5.66699 43.5 11z" />
    <glyph glyph-name="beta" unicode="&#x3b2;" horiz-adv-x="487" 
d="M186 -161l-108.004 -0.000976562v698c0 49.333 13.833 89 41.5 119s65.834 45 114.501 45c32 0 60.167 -8 84.5 -24s41.5 -35 51.5 -57c7.33301 -17.333 11 -35 11 -53c0 -6 -0.333008 -12.333 -1 -19c-3.33301 -25.333 -14.666 -46.333 -33.999 -63
c28 -10 52 -27.833 72 -53.5s30 -59.5 30 -101.5v-184c0 -22.667 -3.16699 -43 -9.5 -61s-13.666 -32.667 -21.999 -44s-20.666 -21.166 -36.999 -29.499s-30 -14.333 -41 -18s-27 -6.5 -48 -8.5s-35.833 -3 -44.5 -3h-43h-17v-143zM338.996 201.999v94
c0 66.667 -24 100 -72 100c-22 0 -49 -7 -81 -21v-274c31.333 -5.33301 58 -8 80 -8c1.33301 0 2.66602 0.333008 3.99902 1c22.667 0 39.834 8.5 51.501 25.5s17.5 44.5 17.5 82.5zM185.996 523.999v-38c12.667 6 28.667 12 48 18c20 6.66699 32.667 17 38 31
c1.33301 5.33301 2 10.333 2 15c0 8 -2.66699 15.667 -8 23c-8 11.333 -19 17 -33 17c-14.667 0 -25.667 -3.33301 -33 -10s-11.5 -13.667 -12.5 -21s-1.5 -19 -1.5 -35z" />
    <glyph glyph-name="gamma" unicode="&#x3b3;" horiz-adv-x="479" 
d="M271 -167l-97 -31c-16.667 17.333 -26.667 40.333 -30 69c-0.666992 7.33301 -1 14.666 -1 21.999c0 20 3.33301 39 10 57l23 71l-9.5 9.5c-5 5 -9.5 10.167 -13.5 15.5s-9.66699 15.333 -17 30s-14.333 32.334 -21 53.001l-108 372h118l55 -233
c15.333 -64.667 27.333 -101 36 -109l73 241c10.667 36.667 26.834 64.167 48.501 82.5s49.834 31.5 84.501 39.5l69 -67c-14 -2.66699 -25.833 -6.33398 -35.5 -11.001s-21.334 -15.167 -35.001 -31.5s-24.834 -38.166 -33.501 -65.499l-120 -397
c-4.66699 -12.667 -8 -24.167 -10 -34.5s-3.5 -18.5 -4.5 -24.5s-0.5 -12.667 1.5 -20s3.16699 -11.833 3.5 -13.5s2.5 -6 6.5 -13s6.33301 -10.833 7 -11.5z" />
    <glyph glyph-name="delta" unicode="&#x3b4;" 
d="M451 288l-0.000976562 -104.001c0 -129.333 -61.667 -194 -185 -194c-63.333 0 -110.5 17.167 -141.5 51.5s-46.5 81.833 -46.5 142.5v126c0 48.667 8.83301 87.667 26.5 117s38.167 49 61.5 59c-17.333 16.667 -28.666 37.334 -33.999 62.001
c-1.33301 10 -2 19.333 -2 28c0 15.333 2.66699 30 8 44c8 23.333 25.667 43.333 53 60s61.333 25 102 25h55l-21 -115h-43c-10 0 -18.667 -2.66699 -26 -8s-10 -13.333 -8 -24s11.667 -22 29 -34c59.333 -42.667 97.333 -73 114 -91c38.667 -40 58 -88.333 58 -145z
M341.999 177.999l-0.00195312 77.998c0 38 -6.66699 68 -20 90c-15.333 24 -37.666 44.333 -66.999 61c-13.333 -1.33301 -24.666 -4.33301 -33.999 -9s-16.333 -9.66699 -21 -15s-8.16699 -13.166 -10.5 -23.499s-3.5 -18.166 -3.5 -23.499s0.166992 -14.166 0.5 -26.499
s0.5 -19.833 0.5 -22.5v-109c0 -26.667 8.16699 -46.834 24.5 -60.501s34.5 -20.5 54.5 -20.5c19.333 0 36.833 6 52.5 18s23.5 33 23.5 63z" />
    <glyph glyph-name="epsilon" unicode="&#x3b5;" horiz-adv-x="462" 
d="M390 129l33 -106c-52 -22.667 -108.667 -34 -170 -34c-51.333 0 -92.333 13.667 -123 41s-47.667 61.333 -51 102c-0.666992 6 -1 12 -1 18c0 56.667 21.333 98.667 64 126c-12.667 10 -24 26.667 -34 50c-7.33301 18 -11 36 -11 54c0 6 0.333008 12 1 18
c4.66699 36.667 21.667 64.667 51 84c28.667 19.333 60 29 94 29h4c36 -0.666992 71.333 -5.66699 106 -15l3 -98c-17.333 6 -34 10.333 -50 13c-11.333 2 -23 3 -35 3h-13c-16 -1.33301 -28.833 -6.83301 -38.5 -16.5s-14.5 -23.5 -14.5 -41.5s8.66699 -31.667 26 -41
s40 -14 68 -14h53l-31 -106h-44c-59.333 0 -89 -14 -89 -42c0 -34 28.333 -51 85 -51h6c20.667 0 40.167 2.33301 58.5 7s31.833 9 40.5 13z" />
    <glyph glyph-name="zeta" unicode="&#x3b6;" horiz-adv-x="504" 
d="M407 -183l-110.001 -26.001v209c-10 -0.666992 -19.667 -1 -29 -1c-44 0 -82.333 10.333 -115 31c-40 24.667 -64 60.667 -72 108c-2 12.667 -3 25.667 -3 39c0 18.667 2 38.667 6 60c6 36.667 16 69.667 30 99c8.66699 18 17.834 35.667 27.501 53s19.667 33.5 30 48.5
l28 39.5c8.33301 11.333 18 23.5 29 36.5l25 29l24.5 26.5c10.667 11.333 17 18.333 19 21h-151v110h272l47 -100c-81.333 -64 -155 -153.333 -221 -268c-33.333 -56.667 -50 -103.667 -50 -141c0 -23.333 6.66699 -42.666 20 -57.999c16.667 -20 44.667 -30 84 -30
c30 0 66.333 5.66699 109 17v-303z" />
    <glyph glyph-name="eta" unicode="&#x3b7;" horiz-adv-x="486" 
d="M447 -210l-109 24v529c0 32 -14.667 53 -44 63c-8.66699 2.66699 -17.667 4 -27 4c-23.333 0 -50 -8 -80 -24v-386h-109v501h101l8 -4c18.667 7.33301 44 11.333 76 12h5c30.667 0 62 -6 94 -18c56.667 -26 85 -74.333 85 -145v-556z" />
    <glyph glyph-name="theta" unicode="&#x3b8;" horiz-adv-x="503" 
d="M442 505l0.000976562 -314.001c0 -59.333 -16.5 -107 -49.5 -143s-79.833 -54 -140.5 -54c-61.333 0.666992 -108.333 18.834 -141 54.501s-49 83.167 -49 142.5v150c1.33301 42.667 19 75 53 97c-22.667 44 -34 85.333 -34 124v6c1.33301 40.667 17.333 74.5 48 101.5
s71 40.5 121 40.5c63.333 -1.33301 111.166 -20 143.499 -56s48.5 -85.667 48.5 -149zM334.001 194.999v204c-49.333 -4.66699 -89 -15 -119 -31s-45 -35 -45 -57v-126c0 -31.333 13.667 -53.333 41 -66c12.667 -6 25.667 -9 39 -9l43 11c27.333 14 41 38.667 41 74z
M214.001 484.999c42 14 82 21 120 21c0 31.333 -7 55.333 -21 72s-33 25 -57 25c-31.333 0 -52 -10.333 -62 -31c-2.66699 -6.66699 -4 -13.667 -4 -21c0 -18 8 -40 24 -66z" />
    <glyph glyph-name="iota" unicode="&#x3b9;" horiz-adv-x="213" 
d="M176 0h-110v501h110v-501z" />
    <glyph glyph-name="kappa" unicode="&#x3ba;" horiz-adv-x="520" 
d="M481 96l-33.001 -97.001c-23.333 0 -45 6.16699 -65 18.5s-35.167 24.5 -45.5 36.5s-24.833 30.667 -43.5 56l-79 109l-27 -24v-195h-110v512l110 -13v-166l154 168h136l-182 -201l99 -140c18.667 -25.333 34.334 -42.166 47.001 -50.499s25.667 -12.833 39 -13.5z" />
    <glyph glyph-name="lambda" unicode="&#x3bb;" horiz-adv-x="601" 
d="M562 46l-68.999 -67.002c-34.667 8 -62.834 21.167 -84.501 39.5s-37.834 45.833 -48.501 82.5l-73 241c-8.66699 -8 -20.667 -44.333 -36 -109l-55 -233h-118l108 372c6.66699 20.667 13.667 38.334 21 53.001s13 24.667 17 30s8.5 10.5 13.5 15.5l9.5 9.5l-23 71
c-8.66699 24.667 -17.667 41 -27 49s-26 12.667 -50 14l31 86h5c38 0 67.667 -8 89 -24c22 -16 39.667 -43.667 53 -83l133 -439c12.667 -39.333 27.834 -66.166 45.501 -80.499s37.167 -23.5 58.5 -27.5z" />
    <glyph glyph-name="uni03BC" unicode="&#x3bc;" horiz-adv-x="524" 
d="M485 27l-100 -33.002l-1 2c-1.33301 0.666992 -3.16602 2.16699 -5.49902 4.5l-6.5 6.5c-16.667 -12.667 -41 -19 -73 -19c-6.66699 0 -14 0.333008 -22 1c-34 4.66699 -63.667 12.334 -89 23.001v-222l-110 9v702h110v-390c3.33301 -3.33301 16 -7.66602 38 -12.999
c19.333 -4 36.666 -6 51.999 -6h6c42 2.66699 63 37 63 103v302l111 13v-441c2 -18.667 11 -32.667 27 -42z" />
    <glyph glyph-name="nu" unicode="&#x3bd;" horiz-adv-x="540" 
d="M344 0h-106l-160 501h120l93 -306l91 306h119z" />
    <glyph glyph-name="xi" unicode="&#x3be;" horiz-adv-x="419" 
d="M380 -192l-108.998 -26.001v216h-15c-15.333 0 -30.666 1.33301 -45.999 4c-20 4 -40.5 11.5 -61.5 22.5s-38 28.5 -51 52.5s-19.5 53 -19.5 87v184c0 43.333 11.167 78.166 33.5 104.499s45.166 43.5 68.499 51.5c-17.333 18 -26.666 39 -27.999 63
c-0.666992 3.33301 -1 6.33301 -1 9c0 20.667 5 40 15 58c10.667 20.667 28 38.167 52 52.5s51.333 21.5 82 21.5h45l-21 -118h-18c-17.333 0 -29.5 -4 -36.5 -12s-8.66699 -17.167 -5 -27.5s10.834 -19.166 21.501 -26.499c11.333 -8 35.333 -18 72 -30l-31 -96
c-24.667 8 -46.334 12 -65.001 12c-14.667 0 -27.334 -2.66699 -38.001 -8c-24.667 -11.333 -37 -39 -37 -83v-124c0 -23.333 3.16699 -42.166 9.5 -56.499s14.833 -24.833 25.5 -31.5s24.667 -10 42 -10s34.666 1.83301 51.999 5.5s38.666 9.5 63.999 17.5v-312z" />
    <glyph glyph-name="omicron" unicode="&#x3bf;" 
d="M451 316v-132c0 -56 -15.333 -102.333 -46 -139s-77 -55 -139 -55s-108.833 18.5 -140.5 55.5s-47.5 83.167 -47.5 138.5v132c0 63.333 16.167 111.833 48.5 145.5s78.833 50.5 139.5 50.5c58 0 103.333 -17.5 136 -52.5s49 -82.833 49 -143.5zM342 174v142.001
c0 19.333 -2.33301 35.166 -7 47.499s-11.5 21 -20.5 26s-17 8.16699 -24 9.5s-15.167 2 -24.5 2c-52 0 -78 -28.333 -78 -85v-142c0 -50.667 26 -76 78 -76c22 0 40.167 6.33301 54.5 19s21.5 31.667 21.5 57z" />
    <glyph glyph-name="pi" unicode="&#x3c0;" horiz-adv-x="511" 
d="M474 62l-64.999 -78.001c-2 0.666992 -4.66699 1.66699 -8 3s-9.33301 4.66602 -18 9.99902s-16.334 11.333 -23.001 18s-12.667 16.334 -18 29.001s-8 26.334 -8 41.001l1 313h-159v-398h-110v501h379v-397c3.33301 -18.667 13 -32.667 29 -42z" />
    <glyph glyph-name="rho" unicode="&#x3c1;" 
d="M188 -195l-110 -15.999v526c0 59.333 16.333 106.166 49 140.499s78.667 51.5 138 51.5c64 0 111 -17.833 141 -53.5s45 -84.5 45 -146.5v-135c0 -58.667 -15.5 -103.667 -46.5 -135s-77.167 -47 -138.5 -47c-22 0 -48 4.66699 -78 14v-199zM340 192.001
l-0.000976562 105c0 41.333 -6 69.5 -18 84.5s-31.333 22.5 -58 22.5c-25.333 0 -44.333 -7.66699 -57 -23s-19 -43 -19 -83v-106c0 -33.333 5.83301 -57.5 17.5 -72.5s31.834 -22.5 60.501 -22.5c28 0 47.333 7.16699 58 21.5s16 38.833 16 73.5z" />
    <glyph glyph-name="sigma1" unicode="&#x3c2;" horiz-adv-x="435" 
d="M364 -152l-81.999 46.0029c7.33301 10.667 12.333 22 15 34c0.666992 4.66699 1 9 1 13c0 8 -1.33301 16.333 -4 25c-4.66699 14 -14.334 25.667 -29.001 35c-60 37.333 -99.333 64.333 -118 81c-46 41.333 -69 89.666 -69 144.999v140
c0 35.333 13.833 67.166 41.5 95.499s71.167 42.5 130.5 42.5c21.333 0 41.333 -2.16699 60 -6.5s32 -8.83301 40 -13.5l12 -7l-26 -96c-22 16 -52 24 -90 24c-14 0 -25 -1.83301 -33 -5.5s-13.667 -10.167 -17 -19.5s-5.33301 -17.5 -6 -24.5s-1 -18.5 -1 -34.5v-11v-56
c0 -16 0.333008 -29 1 -39s3.66699 -20.333 9 -31s10 -18.834 14 -24.501s13.167 -14.167 27.5 -25.5s26.833 -20.5 37.5 -27.5l56 -36.5c28 -18 46.333 -42 55 -72c5.33301 -18 8 -35 8 -51c0 -11.333 -1.33301 -22 -4 -32c-6 -26 -15.667 -48.667 -29 -68z" />
    <glyph glyph-name="sigma" unicode="&#x3c3;" horiz-adv-x="575" 
d="M451 310l-0.000976562 -135.002c0 -129.333 -61.667 -194 -185 -194c-63.333 0 -110.5 17.167 -141.5 51.5s-46.5 81.833 -46.5 142.5v179c0 32 6.16699 59.167 18.5 81.5s28.5 38.5 48.5 48.5s42.333 17.333 67 22c12 2 24 3 36 3l38 -4c22 -3.33301 41.667 -5 59 -5
c14 0 26.667 1 38 3c26 4.66699 51 18 75 40l78 -65c-6 -16 -19.167 -32 -39.5 -48s-40.5 -26.667 -60.5 -32l2 -6c2 -3.33301 3.5 -6.66602 4.5 -9.99902s2.33301 -8.16602 4 -14.499s2.83398 -14.5 3.50098 -24.5s1 -21 1 -33zM339.999 197.998l0.000976562 96
c0 21.333 -1.5 40.5 -4.5 57.5s-5.83301 28.833 -8.5 35.5s-4.66699 10 -6 10c-27.333 4.66699 -50.833 7 -70.5 7s-34.834 -6.33301 -45.501 -19s-16 -32.667 -16 -60v-127c0 -34.667 5.83301 -59.834 17.5 -75.501s31.167 -23.5 58.5 -23.5c28 0 47.5 7.33301 58.5 22
s16.5 40.334 16.5 77.001z" />
    <glyph glyph-name="tau" unicode="&#x3c4;" horiz-adv-x="418" 
d="M343 56l-45.999 -76c-40 10 -71 28.167 -93 54.5s-33 58.833 -33 97.5v266h-93v102h301v-102h-99v-251c0 -24.667 4.66699 -44 14 -58s25.666 -25 48.999 -33z" />
    <glyph glyph-name="upsilon" unicode="&#x3c5;" horiz-adv-x="483" 
d="M336 227l0.000976562 273.999h110v-329c0 -121.333 -64 -182 -192 -182c-125.333 0 -188 60.667 -188 182v329h110v-276c0 -50 4.16699 -83.167 12.5 -99.5s30.166 -24.5 65.499 -24.5c37.333 0 60.333 8.33301 69 25s13 50.334 13 101.001z" />
    <glyph glyph-name="phi" unicode="&#x3c6;" horiz-adv-x="644" 
d="M395 -216l-109.999 13.002v198h-19c-63.333 0 -110.5 17.167 -141.5 51.5s-46.5 81.833 -46.5 142.5v125c0 101.333 38.667 164.333 116 189l59 -83c-22.667 -4.66699 -39.334 -13.834 -50.001 -27.501s-16 -39.834 -16 -78.501v-76c0 -52.667 4.33301 -88.667 13 -108
s30.667 -29 66 -29h19v300c2 32 16.333 57.667 43 77s56.667 29 90 29c58 0 103.667 -18.167 137 -54.5s50 -84.833 50 -145.5v-118c0 -60.667 -15.5 -108.167 -46.5 -142.5s-78.167 -51.5 -141.5 -51.5h-22v-211zM395.001 101.002h22.001
c35.333 0 57.166 9.33301 65.499 28s12.5 54 12.5 106v75c0 41.333 -4.83301 70 -14.5 86s-23.167 24 -40.5 24c-12 0 -22.5 -3.66699 -31.5 -11s-13.5 -17 -13.5 -29v-279z" />
    <glyph glyph-name="chi" unicode="&#x3c7;" horiz-adv-x="650" 
d="M611 -139l-51.999 -73h-2c-54 0 -97.333 32 -130 96l-102 208l-151 -296l-96 43l191 369l-148 293h119l87 -181l94 181h124l-162 -296l128 -264c21.333 -53.333 54.666 -80 99.999 -80z" />
    <glyph glyph-name="psi" unicode="&#x3c8;" horiz-adv-x="645" 
d="M393 -219l-108.997 12.998v201h-18c-63.333 0 -110.5 17.167 -141.5 51.5s-46.5 81.833 -46.5 142.5v311h108v-260c0 -52.667 4.5 -89 13.5 -109s31.167 -30 66.5 -30h18v399h109v-399h24c35.333 0 57.333 10 66 30s13 56.333 13 109v121c0 12 -0.5 22.667 -1.5 32
s-2.66699 17.5 -5 24.5l-6 17.5c-1.66699 4.66699 -4.83398 9 -9.50098 13s-7.83398 6.83301 -9.50098 8.5s-5.33398 4.33398 -11.001 8.00098s-9.16699 5.83398 -10.5 6.50098l106 35c18 -11.333 31.333 -26.833 40 -46.5s13.5 -36.5 14.5 -50.5s1.5 -35 1.5 -63v-157
c0 -60.667 -15.5 -108.167 -46.5 -142.5s-78.167 -51.5 -141.5 -51.5h-24v-214z" />
    <glyph glyph-name="omega" unicode="&#x3c9;" horiz-adv-x="635" 
d="M488 195l-0.00390625 132c0 34 -4.33301 58.5 -13 73.5s-23.334 27.5 -44.001 37.5l60 62c71.333 -26.667 107 -87.667 107 -183v-129c0 -133.333 -53.667 -200 -161 -200c-46.667 0 -81.667 17.667 -105 53c-24.667 -35.333 -59.667 -53 -105 -53
c-107.333 0 -161 66.667 -161 200v129c0 95.333 35.667 156.333 107 183l62 -62c-20 -8.66699 -34.833 -21 -44.5 -37s-14.5 -40.667 -14.5 -74v-132c0 -36 3.83301 -60.667 11.5 -74s19.834 -20 36.501 -20c18.667 0 31.834 6.33301 39.501 19s11.834 37.667 12.501 75v104
h109v-104c0.666992 -37.333 4.83398 -62.333 12.501 -75s21.834 -19 42.501 -19c18 0 30.5 7.16699 37.5 21.5s10.5 38.5 10.5 72.5z" />
    <glyph glyph-name="iotadieresis" unicode="&#x3ca;" horiz-adv-x="279" 
d="M185 0h-110v501h110v-501zM107 583c0 -12 -4.33301 -22.333 -13 -31s-19.334 -13 -32.001 -13c-12 0 -22.333 4.33301 -31 13s-13 19 -13 31c0 12.667 4.33301 23.334 13 32.001s19 13 31 13c12.667 0 23.334 -4.33301 32.001 -13s13 -19.334 13 -32.001zM195 539
c-12.667 0 -23.334 4.33301 -32.001 13s-13 19.334 -13 32.001s4.33301 23.334 13 32.001s19.334 13 32.001 13s23.334 -4.33301 32.001 -13s13 -19.334 13 -32.001s-4.33301 -23.334 -13 -32.001s-19.334 -13 -32.001 -13z" />
    <glyph glyph-name="upsilondieresis" unicode="&#x3cb;" horiz-adv-x="497" 
d="M252 583c0 -12 -4.33301 -22.333 -13 -31s-19.334 -13 -32.001 -13c-12 0 -22.333 4.33301 -31 13s-13 19 -13 31c0 12.667 4.33301 23.334 13 32.001s19 13 31 13c12.667 0 23.334 -4.33301 32.001 -13s13 -19.334 13 -32.001zM340 539
c-12.667 0 -23.334 4.33301 -32.001 13s-13 19.334 -13 32.001s4.33301 23.334 13 32.001s19.334 13 32.001 13s23.334 -4.33301 32.001 -13s13 -19.334 13 -32.001s-4.33301 -23.334 -13 -32.001s-19.334 -13 -32.001 -13zM348 227l0.000976562 273.999h110v-329
c0 -121.333 -64 -182 -192 -182c-125.333 0 -188 60.667 -188 182v329h110v-276c0 -50 4.16699 -83.167 12.5 -99.5s30.166 -24.5 65.499 -24.5c37.333 0 60.333 8.33301 69 25s13 50.334 13 101.001z" />
    <glyph glyph-name="omicrontonos" unicode="&#x3cc;" 
d="M312 538h-72.999l46 108c6.66699 15.333 17.667 25.333 33 30c7.33301 2.66699 13.666 4 18.999 4c6 0 11 -1.33301 15 -4c13.333 -6.66699 21.333 -16.667 24 -30c0.666992 -2 1 -4 1 -6c0 -12 -5.33301 -25 -16 -39zM451.001 316v-132c0 -56 -15.333 -102.333 -46 -139
s-77 -55 -139 -55s-108.833 18.5 -140.5 55.5s-47.5 83.167 -47.5 138.5v132c0 63.333 16.167 111.833 48.5 145.5s78.833 50.5 139.5 50.5c58 0 103.333 -17.5 136 -52.5s49 -82.833 49 -143.5zM342.001 174v142.001c0 19.333 -2.33301 35.166 -7 47.499s-11.5 21 -20.5 26
s-17 8.16699 -24 9.5s-15.167 2 -24.5 2c-52 0 -78 -28.333 -78 -85v-142c0 -50.667 26 -76 78 -76c22 0 40.167 6.33301 54.5 19s21.5 31.667 21.5 57z" />
    <glyph glyph-name="upsilontonos" unicode="&#x3cd;" horiz-adv-x="497" 
d="M322 538h-72.999l46 108c6.66699 15.333 17.667 25.333 33 30c7.33301 2.66699 13.666 4 18.999 4c6 0 11 -1.33301 15 -4c13.333 -6.66699 21.333 -16.667 24 -30c0.666992 -2 1 -4 1 -6c0 -12 -5.33301 -25 -16 -39zM348.001 227l0.000976562 273.999h110v-329
c0 -121.333 -64 -182 -192 -182c-125.333 0 -188 60.667 -188 182v329h110v-276c0 -50 4.16699 -83.167 12.5 -99.5s30.166 -24.5 65.499 -24.5c37.333 0 60.333 8.33301 69 25s13 50.334 13 101.001z" />
    <glyph glyph-name="omegatonos" unicode="&#x3ce;" horiz-adv-x="649" 
d="M396 538h-72.999l46 108c6.66699 15.333 17.667 25.333 33 30c7.33301 2.66699 13.666 4 18.999 4c6 0 11 -1.33301 15 -4c13.333 -6.66699 21.333 -16.667 24 -30c0.666992 -2 1 -4 1 -6c0 -12 -5.33301 -25 -16 -39zM500.001 195l-0.00390625 132
c0 34 -4.33301 58.5 -13 73.5s-23.334 27.5 -44.001 37.5l60 62c71.333 -26.667 107 -87.667 107 -183v-129c0 -133.333 -53.667 -200 -161 -200c-46.667 0 -81.667 17.667 -105 53c-24.667 -35.333 -59.667 -53 -105 -53c-107.333 0 -161 66.667 -161 200v129
c0 95.333 35.667 156.333 107 183l62 -62c-20 -8.66699 -34.833 -21 -44.5 -37s-14.5 -40.667 -14.5 -74v-132c0 -36 3.83301 -60.667 11.5 -74s19.834 -20 36.501 -20c18.667 0 31.834 6.33301 39.501 19s11.834 37.667 12.501 75v104h109v-104
c0.666992 -37.333 4.83398 -62.333 12.501 -75s21.834 -19 42.501 -19c18 0 30.5 7.16699 37.5 21.5s10.5 38.5 10.5 72.5z" />
    <glyph glyph-name="quoteleft" unicode="&#x2018;" horiz-adv-x="144" 
d="M68 633l12 -2.99902c20 -9.33301 30 -25.333 30 -48c0 -15.333 -5.33301 -28 -16 -38c-10 -10 -22.333 -15 -37 -15h-3c-17.333 0.666992 -30 7.66699 -38 21s-12 27.333 -12 42c0 22.667 5.16699 43 15.5 61s27.5 38.333 51.5 61l69 -29c-14 -8 -27 -16.333 -39 -25
s-20.333 -15.334 -25 -20.001z" />
    <glyph glyph-name="quoteright" unicode="&#x2019;" horiz-adv-x="144" 
d="M73 524l-69 28.999c14 8 27 16.333 39 25s20.333 15.334 25 20.001l8 7l-12 3c-20 9.33301 -30 25.333 -30 48c0 15.333 5.33301 28 16 38c10 10 22.333 15 37 15h3c17.333 -0.666992 30 -7.66699 38 -21s12 -27.333 12 -42c0 -22.667 -5.16699 -43 -15.5 -61
s-27.5 -38.333 -51.5 -61z" />
    <glyph glyph-name="quotesinglbase" unicode="&#x201a;" horiz-adv-x="178" 
d="M70 -84l-69 28.999c14 8 27 16.333 39 25s20.667 15.334 26 20.001l7 7l-12 3c-20 9.33301 -30 25.333 -30 48c0 15.333 5.33301 28 16 38c10 10 22.333 15 37 15h3c17.333 -0.666992 30 -7.66699 38 -21s12 -27.333 12 -42c0 -22.667 -5.16699 -43 -15.5 -61
s-27.5 -38.333 -51.5 -61z" />
    <glyph glyph-name="quotedblleft" unicode="&#x201c;" horiz-adv-x="294" 
d="M218 637l12 -2.99902c20 -9.33301 30 -25.333 30 -48c0 -15.333 -5.33301 -28 -16 -38c-10 -10 -22.333 -15 -37 -15h-3c-17.333 0.666992 -30 7.66699 -38 21s-12 27.333 -12 42c0 22.667 5.16699 43 15.5 61s27.5 38.333 51.5 61l69 -29c-14 -8 -27 -16.333 -39 -25
s-20.333 -15.334 -25 -20.001zM68 637.001l12 -2.99902c20 -9.33301 30 -25.333 30 -48c0 -15.333 -5.33301 -28 -16 -38c-10 -10 -22.333 -15 -37 -15h-3c-17.333 0.666992 -30 7.66699 -38 21s-12 27.333 -12 42c0 22.667 5.16699 43 15.5 61s27.5 38.333 51.5 61l69 -29
c-14 -8 -27 -16.333 -39 -25s-20.333 -15.334 -25 -20.001z" />
    <glyph glyph-name="quotedblright" unicode="&#x201d;" horiz-adv-x="294" 
d="M223 525l-69 28.999c14 8 27 16.333 39 25s20.333 15.334 25 20.001l8 7l-12 3c-20 9.33301 -30 25.333 -30 48c0 15.333 5.33301 28.333 16 39c10 9.33301 22.333 14 37 14h3c17.333 -0.666992 30 -7.66699 38 -21s12 -27.333 12 -42c0 -22.667 -5.16699 -43 -15.5 -61
s-27.5 -38.333 -51.5 -61zM73 524.999l-69 28.999c14 8 27 16.333 39 25s20.333 15.334 25 20.001l8 7l-12 3c-20 9.33301 -30 25.333 -30 48c0 15.333 5.33301 28.333 16 39c10 9.33301 22.333 14 37 14h3c17.333 -0.666992 30 -7.66699 38 -21s12 -27.333 12 -42
c0 -22.667 -5.16699 -43 -15.5 -61s-27.5 -38.333 -51.5 -61z" />
    <glyph glyph-name="quotedblbase" unicode="&#x201e;" horiz-adv-x="328" 
d="M220 -84l-69 28.999c14 8 27 16.333 39 25s20.667 15.334 26 20.001l7 7l-12 3c-20 9.33301 -30 25.333 -30 48c0 15.333 5.33301 28 16 38c10 10 22.333 15 37 15h3c17.333 -0.666992 30 -7.66699 38 -21s12 -27.333 12 -42c0 -22.667 -5.16699 -43 -15.5 -61
s-27.5 -38.333 -51.5 -61zM70 -84.001l-69 28.999c14 8 27 16.333 39 25s20.667 15.334 26 20.001l7 7l-12 3c-20 9.33301 -30 25.333 -30 48c0 15.333 5.33301 28 16 38c10 10 22.333 15 37 15h3c17.333 -0.666992 30 -7.66699 38 -21s12 -27.333 12 -42
c0 -22.667 -5.16699 -43 -15.5 -61s-27.5 -38.333 -51.5 -61z" />
    <glyph glyph-name="bullet" unicode="&#x2022;" horiz-adv-x="474" 
d="M256 158c-49.333 0 -91.333 17.5 -126 52.5s-52 77.167 -52 126.5s17.333 91.333 52 126s76.667 52 126 52s91.5 -17.333 126.5 -52s52.5 -76.667 52.5 -126s-17.5 -91.5 -52.5 -126.5s-77.167 -52.5 -126.5 -52.5z" />
    <glyph glyph-name="ellipsis" unicode="&#x2026;" horiz-adv-x="504" 
d="M102 50c0 -13.333 -5 -25 -15 -35s-22 -15 -36 -15c-13.333 0 -25 5 -35 15s-15 21.667 -15 35c0 14 5 26 15 36s21.667 15 35 15c14 0 26 -5 36 -15s15 -22 15 -36zM283 50c0 -13.333 -5 -25 -15 -35s-22 -15 -36 -15c-13.333 0 -25 5 -35 15s-15 21.667 -15 35
c0 14 5 26 15 36s21.667 15 35 15c14 0 26 -5 36 -15s15 -22 15 -36zM463 50c0 -13.333 -5 -25 -15 -35s-22 -15 -36 -15c-13.333 0 -25 5 -35 15s-15 21.667 -15 35c0 14 5 26 15 36s21.667 15 35 15c14 0 26 -5 36 -15s15 -22 15 -36z" />
    <glyph glyph-name="perthousand" unicode="&#x2030;" horiz-adv-x="1050" 
d="M867 -11c-40 0 -74 14 -102 42s-42 62 -42 102s14 74 42 102s62 42 102 42s74 -14 102 -42s42 -62 42 -102s-14 -74 -42 -102s-62 -42 -102 -42zM899 133c0 8.66699 -3 16.167 -9 22.5s-13.667 9.5 -23 9.5s-17 -3.16699 -23 -9.5s-9 -13.833 -9 -22.5s3 -16.167 9 -22.5
s13.667 -9.5 23 -9.5s17 3.16699 23 9.5s9 13.833 9 22.5zM161 -1l-83 70l531 676l89 -66zM544 -11c-40 0 -74 14 -102 42s-42 62 -42 102s14 74 42 102s62 42 102 42s74 -14 102 -42s42 -62 42 -102s-14 -74 -42 -102s-62 -42 -102 -42zM578 133c0 9.33301 -3 17.333 -9 24
s-14.333 10 -25 10s-19 -3.33301 -25 -10s-9 -14.667 -9 -24s3 -17.333 9 -24s14.333 -10 25 -10s19 3.33301 25 10s9 14.667 9 24zM233 439c-40 0 -74 14 -102 42s-42 62 -42 102s14 74 42 102s62 42 102 42s74 -14 102 -42s42 -62 42 -102s-14 -74 -42 -102
s-62 -42 -102 -42zM268 583c0 8.66699 -3.33301 16.667 -10 24s-15 11 -25 11s-18.333 -3.66699 -25 -11s-10 -15.333 -10 -24c0 -9.33301 3.33301 -17.5 10 -24.5s15 -10.5 25 -10.5s18.333 3.5 25 10.5s10 15.167 10 24.5z" />
    <glyph glyph-name="guilsinglleft" unicode="&#x2039;" horiz-adv-x="303" 
d="M301 148l-72 -68l-187 187v1l187 187l73 -72l-120 -116z" />
    <glyph glyph-name="guilsinglright" unicode="&#x203a;" horiz-adv-x="299" 
d="M73 80l-72 68l119 119l-120 116l73 72l187 -187v-1z" />
    <glyph glyph-name="fraction" unicode="&#x2044;" horiz-adv-x="554" 
d="M196 -114h-118l324 931h113z" />
    <glyph glyph-name="Euro" unicode="&#x20ac;" horiz-adv-x="539" 
d="M483 121l17.002 -104c-32.667 -12.667 -65.334 -21.667 -98.001 -27c-21.333 -4 -42.666 -6 -63.999 -6c-10.667 0 -21.667 0.666992 -33 2c-32 2.66699 -60.167 10.5 -84.5 23.5s-44 33.667 -59 62s-22.5 63.5 -22.5 105.5v21h-61v105h61v48h-61v105h61v42
c0 50.667 7.16699 89 21.5 115s36.166 48 65.499 66c30 16.667 65.667 25 107 25h13c46.667 -2 89.667 -13 129 -33l-31 -100c-30.667 11.333 -64.334 17 -101.001 17c-28 0 -50.667 -7.66699 -68 -23s-26 -34.666 -26 -57.999v-51h149v-105h-149v-48h149v-105h-149v-19
c0 -12 1.33301 -22.833 4 -32.5s7 -17.5 13 -23.5s12 -11.333 18 -16s14.333 -7.66699 25 -9s19.667 -2.5 27 -3.5s17.5 -0.5 30.5 1.5s23.167 3.5 30.5 4.5s17.833 3.16699 31.5 6.5l28.5 7c5.33301 1.33301 14 3.66602 26 6.99902z" />
    <glyph glyph-name="trademark" unicode="&#x2122;" horiz-adv-x="565" 
d="M477 512h-46v120l-40 -120h-31l-40 120v-120h-48v142h-56v-142h-48v142h-63v46h231l39 -108l38 108h64v-188z" />
    <glyph glyph-name="Omega" unicode="&#x2126;" horiz-adv-x="631" 
d="M592 0l-228.002 -0.000976562v101c0.666992 0 4.16699 -0.166992 10.5 -0.5s11.5 -0.5 15.5 -0.5s9.66699 0.666992 17 2s13.5 3.16602 18.5 5.49902s10.5 5.83301 16.5 10.5s10.667 10.334 14 17.001s6.33301 15.167 9 25.5s4 22.166 4 35.499v273
c0 38 -8 67.667 -24 89s-39 32 -69 32h-77c-34.667 0 -59.834 -9 -75.501 -27s-23.5 -49.333 -23.5 -94v-274c0 -15.333 1.5 -28.666 4.5 -39.999s7.33301 -20.333 13 -27s11.334 -12.167 17.001 -16.5s12.834 -7.16602 21.501 -8.49902s15.167 -2.16602 19.5 -2.49902
s10.333 -0.333008 18 0s11.834 0.5 12.501 0.5v-101h-228l17 101h18c-14.667 23.333 -22 55 -22 95v307c0 61.333 15.667 110.666 47 147.999s78.333 56 141 56h112c62.667 0 109.667 -18.667 141 -56s47 -86.666 47 -147.999v-307c0 -18.667 -1.33301 -34.167 -4 -46.5
s-6.16699 -22.833 -10.5 -31.5s-6.83301 -14.334 -7.5 -17.001h18z" />
    <glyph glyph-name="Delta" unicode="&#x2206;" horiz-adv-x="622" 
d="M583 0h-505l191 700h110zM434 101l-105 381l-102 -381h207z" />
    <glyph glyph-name="f_f" unicode="&#xfb00;" horiz-adv-x="574" 
d="M425 0h-111.999v517c0 24 2 46 6 66c-10 8.66699 -25 13.334 -45 14.001h-4c-19.333 0 -37.333 -5 -54 -15c-17.333 -11.333 -26 -27.333 -26 -48v-33h87l-24 -103h-63v-398h-112v501c0 75.333 25.333 131.666 76 168.999c29.333 22 68.333 33 117 33
c34 0 73 -5.66699 117 -17c21.333 11.333 45.333 17 72 17c22.667 0 47.667 -4 75 -12l-28 -101c-10 2.66699 -21 4.66699 -33 6c-2 0.666992 -3.66699 1 -5 1c-10.667 0 -20.334 -4.66699 -29.001 -14c-10 -10.667 -15 -27 -15 -49v-33h87l-24 -103h-63v-398z" />
    <glyph glyph-name="f_i" unicode="&#xfb01;" horiz-adv-x="454" 
d="M415 0h-109v501h109v-501zM190 0h-111.999v517c0 54 15.167 98.833 45.5 134.5s68.833 55.167 115.5 58.5h14c42.667 0 89 -14 139 -42l-87 -78c-6 10.667 -18.333 17.334 -37 20.001c-4 0.666992 -7.66699 1 -11 1c-14.667 0 -28.334 -4 -41.001 -12
c-17.333 -10.667 -26 -27.334 -26 -50.001v-48h87l-24 -103h-63v-398z" />
    <glyph glyph-name="f_l" unicode="&#xfb02;" horiz-adv-x="454" 
d="M415 0h-112.001v593c-7.33301 10 -20 16 -38 18h-8c-15.333 0 -29.666 -4.33301 -42.999 -13c-16 -10.667 -24 -27 -24 -49v-48h87l-24 -103h-63v-398h-112v517c0 77.333 27.667 133 83 167c28 17.333 64 26 108 26c41.333 0 90 -8 146 -24v-686z" />
    <glyph glyph-name="f_f_l" unicode="&#xfb04;" horiz-adv-x="686" 
d="M647 0l-112.001 -0.00195312v591c-12 2.66699 -26.333 4.33398 -43 5.00098c-1.33301 0.666992 -2.66602 1 -3.99902 1c-14.667 0 -28.667 -5 -42 -15c-14 -11.333 -21 -27.333 -21 -48v-33h87l-12 -51.5l-12 -51.5h-63v-398h-112v517c0 24 2 46 6 66
c-10 8.66699 -25 13.334 -45 14.001h-4c-19.333 0 -37.333 -5 -54 -15c-17.333 -11.333 -26 -27.333 -26 -48v-33h87l-12 -51.5l-12 -51.5h-63v-398h-112v501c0 22 1.66699 40.667 5 56c12 58 43 99.667 93 125c26 14 58 21 96 21c34 0 72.667 -5.66699 116 -17
c26 13.333 60.5 20 103.5 20s94.833 -6.66699 155.5 -20v-686z" />
    <glyph glyph-name=".null" horiz-adv-x="0" 
 />
    <glyph glyph-name="nonmarkingreturn" horiz-adv-x="333" 
 />
    <glyph glyph-name="CR" horiz-adv-x="278" 
 />
    <glyph glyph-name="Upsilondieresis" horiz-adv-x="561" 
d="M372 -19l-35 84.001c22 2.66699 40 11 54 25s21 38.667 21 74v56c-33.333 -16.667 -68.333 -25 -105 -25c-68.667 0 -124 19.667 -166 59s-63 92.333 -63 159v287h110v-277c0 -80 39.667 -120 119 -120c8 0 15.5 0.333008 22.5 1s13.333 1.66699 19 3
s10.834 2.66602 15.501 3.99902s9.16699 3.16602 13.5 5.49902l10.5 5.5c2.66699 1.33301 5.5 3.33301 8.5 6s5.16699 4.66699 6.5 6s3 3.33301 5 6l4 3v357h110v-544c0 -52.667 -11.333 -93.667 -34 -123s-61.334 -46.666 -116.001 -51.999zM279 775.001
c0 -12 -4.33301 -22.333 -13 -31s-19.334 -13 -32.001 -13c-12 0 -22.333 4.33301 -31 13s-13 19 -13 31c0 12.667 4.33301 23.334 13 32.001s19 13 31 13c12.667 0 23.334 -4.33301 32.001 -13s13 -19.334 13 -32.001zM367 731.001c-12.667 0 -23.334 4.33301 -32.001 13
s-13 19.334 -13 32.001s4.33301 23.334 13 32.001s19.334 13 32.001 13s23.334 -4.33301 32.001 -13s13 -19.334 13 -32.001s-4.33301 -23.334 -13 -32.001s-19.334 -13 -32.001 -13z" />
    <glyph glyph-name="_196" horiz-adv-x="622" 
d="M583 0h-505l191 700h110zM434 101l-105 381l-102 -381h207z" />
    <glyph glyph-name="w_w_w" horiz-adv-x="1841" 
d="M1661 0h-105l-72 267l-36.5 -134l-36.5 -133h-107l-53.5 165.5l-53.5 166.5l-53.5 -166.5l-53.5 -165.5h-105l-72 267l-36.5 -134l-36.5 -133h-107l-50.5 157l-50.5 157l-51 -157.5l-51 -156.5h-105l-72 267l-36.5 -134l-36.5 -133h-107l-80.5 251l-80.5 250h120
c10 -34 25.167 -88.833 45.5 -164.5s35.5 -130.5 45.5 -164.5c9.33301 34 23 88.833 41 164.5l40 164.5h104c9.33301 -34 23.333 -88.833 42 -164.5s32.667 -130.5 42 -164.5l40.5 162.5l40.5 162.5c0 0.666992 -0.333008 2 -1 4h120c10 -34 25.167 -88.833 45.5 -164.5
s35.5 -130.5 45.5 -164.5l40 164.5c18 75.667 31.667 130.5 41 164.5h104c9.33301 -34 23.333 -88.833 42 -164.5s32.667 -130.5 42 -164.5l41 164.5l41 164.5h129c10 -34 25.167 -88.833 45.5 -164.5s35.5 -130.5 45.5 -164.5l40 164.5c18 75.667 31.667 130.5 41 164.5
h104l77 -319l89 319h118z" />
    <glyph glyph-name="f_t" horiz-adv-x="549" 
d="M488 75l-33.001 -87.999c-101.333 2 -152 50.333 -152 145v461c-7.33301 10 -20 16 -38 18h-8c-15.333 0 -29.666 -4.33301 -42.999 -13c-16 -10.667 -24 -27 -24 -49v-48h87l-24 -103h-63v-398h-112v517c0 77.333 27.667 133 83 167c28 17.333 64 26 108 26
c41.333 0 90 -8 146 -24v-185h95l-24 -103h-71v-266c0 -22.667 6.33301 -37.834 19 -45.501s30.667 -11.5 54 -11.5z" />
    <glyph glyph-name="t_t" horiz-adv-x="508" 
d="M278 132l-0.000976562 266.002h-122v-266c0 -22.667 6.33301 -37.834 19 -45.501s30.667 -11.5 54 -11.5l-17 -44.5l-16 -43.5c-101.333 2 -152 50.333 -152 145v568h112v-199h122v199h112v-199h95l-12 -51.5l-12 -51.5h-71v-266c0 -22.667 6.33301 -37.834 19 -45.501
s30.667 -11.5 54 -11.5l-17 -44c-7.33301 -19.333 -12.666 -34 -15.999 -44c-101.333 2 -152 50.333 -152 145z" />
    <glyph glyph-name="Y_alt" horiz-adv-x="510" 
d="M290 0h-111v315l-180 385h116l119 -267l120 267h117l-181 -385v-315z" />
    <glyph glyph-name="y_alt" horiz-adv-x="554" 
d="M237 -198h-122l83 198l-189 501h122l130 -352l135 352h119z" />
    <glyph glyph-name="Ydieresis_alt" horiz-adv-x="500" 
d="M280 0h-111v315l-180 385h116l119 -267l120 267h117l-181 -385v-315zM201 775c0 -12 -4.33301 -22.333 -13 -31s-19.334 -13 -32.001 -13c-12 0 -22.333 4.33301 -31 13s-13 19 -13 31c0 12.667 4.33301 23.334 13 32.001s19 13 31 13
c12.667 0 23.334 -4.33301 32.001 -13s13 -19.334 13 -32.001zM289 731c-12.667 0 -23.334 4.33301 -32.001 13s-13 19.334 -13 32.001s4.33301 23.334 13 32.001s19.334 13 32.001 13s23.334 -4.33301 32.001 -13s13 -19.334 13 -32.001s-4.33301 -23.334 -13 -32.001
s-19.334 -13 -32.001 -13z" />
    <glyph glyph-name="Yacute_alt" horiz-adv-x="511" 
d="M273 731l-72.999 0.00195312l46 108c6.66699 15.333 17.667 25.666 33 30.999c7.33301 2 13.666 3 18.999 3c6 0 11 -1.33301 15 -4c13.333 -6.66699 21.333 -16.334 24 -29.001c0.666992 -2.66699 1 -5 1 -7c0 -12 -5.33301 -25 -16 -39zM291.001 0.00195312h-111v315
l-180 385h116l119 -267l120 267h117l-181 -385v-315z" />
    </font>
</defs>
</svg>
