<?xml version="1.0" standalone="no"?>
<!DOCTYPE svg PUBLIC "-//W3C//DTD SVG 1.1//EN" "http://www.w3.org/Graphics/SVG/1.1/DTD/svg11.dtd" >
<svg>
<metadata>
Created by FontForge 20090914 at Tue Apr  9 08:47:21 2013
 By www-data
Copyright (c) 2008 Andreas Kalpakidis (hello@inderesting.com), with Reserved Font Name "Advent Pro"
</metadata>
<defs>
<font id="AdventPro-Regular" horiz-adv-x="484" >
  <font-face 
    font-family="Advent Pro"
    font-weight="400"
    font-stretch="normal"
    units-per-em="1000"
    panose-1="2 0 5 6 4 0 0 2 0 4"
    ascent="800"
    descent="-200"
    x-height="501"
    cap-height="700"
    bbox="-36 -219 1904 964"
    underline-thickness="50"
    underline-position="-50"
    unicode-range="U+0020-U+FB04"
  />
<missing-glyph horiz-adv-x="500" 
d="M500 0h-500v700h500v-700zM450 50v600h-400v-600h400zM425 133l-39 -32l-136 204l-137 -205l-40 29l147 221l-147 221l40 29l137 -205l136 204l39 -32l-145 -217z" />
    <glyph glyph-name=".notdef" horiz-adv-x="500" 
d="M500 0h-500v700h500v-700zM450 50v600h-400v-600h400zM425 133l-39 -32l-136 204l-137 -205l-40 29l147 221l-147 221l40 29l137 -205l136 204l39 -32l-145 -217z" />
    <glyph glyph-name="space" unicode=" " horiz-adv-x="278" 
 />
    <glyph glyph-name="exclam" unicode="!" horiz-adv-x="225" 
d="M136 120h-47l-10 553c0 24.667 11 37 33 37s33 -12 33 -36zM111 0c-8.66699 0 -16.334 3.33301 -23.001 10s-10 14.334 -10 23.001s3.33301 16.334 10 23.001s14.334 10 23.001 10s16.334 -3.33301 23.001 -10s10 -14.334 10 -23.001s-3.33301 -16.334 -10 -23.001
s-14.334 -10 -23.001 -10z" />
    <glyph glyph-name="quotedbl" unicode="&#x22;" horiz-adv-x="426" 
d="M159 512h-40l-14 188c0 14.667 5.66699 25 17 31c5.33301 3.33301 11 5 17 5l17 -5c11.333 -6 17 -16.333 17 -31zM304 512h-40l-14 188c0 14.667 5.66699 25 17 31c6 3.33301 11.667 5 17 5l17 -5c11.333 -6 17 -16.333 17 -31z" />
    <glyph glyph-name="numbersign" unicode="#" horiz-adv-x="613" 
d="M582 189h-199l-44 -189h-55l44 189h-119l-44 -189h-55l44 189h-120v56h133l40 168h-173v56h186l54 231h55l-54 -231h119l54 231h55l-54 -231h133v-56h-146l-40 -168h186v-56zM341 245l40 168h-119l-40 -168h119z" />
    <glyph glyph-name="dollar" unicode="$" horiz-adv-x="540" 
d="M299 -114l-55.998 -0.00195312v104c-64.667 5.33301 -115.334 26.5 -152.001 63.5s-55.667 78.5 -57 124.5h57c2.66699 -32 17.667 -61.167 45 -87.5s63 -41.833 107 -46.5v310c-54 18.667 -97.667 39.334 -131 62.001c-40 28.667 -60 69.334 -60 122.001
c0 42 16.333 79.5 49 112.5s80 52.167 142 57.5v109h56v-108c45.333 -1.33301 86.666 -11 123.999 -29c0 -1.33301 -5.66699 -19 -17 -53c-32 16.667 -67.667 26 -107 28v-261c84 -28.667 139.667 -58 167 -88c28.667 -32.667 43 -70.667 43 -114c0 -58 -17 -105 -51 -141
s-87 -56.333 -159 -61v-104zM299.002 333.998l0.000976562 -290c44 4.66699 80 18.5 108 41.5s42 55 42 96s-12.833 72.167 -38.5 93.5s-62.834 41 -111.501 59zM243.003 412.998v240.999c-41.333 -5.33301 -73.833 -18.166 -97.5 -38.499s-35.5 -46.333 -35.5 -78
s11.5 -56.5 34.5 -74.5s55.833 -34.667 98.5 -50z" />
    <glyph glyph-name="percent" unicode="%" horiz-adv-x="672" 
d="M69 1l-35 40l567 699l40 -41zM495 -11c-40 0 -74 14 -102 42s-42 62 -42 102s14 74 42 102s62 42 102 42s74 -14 102 -42s42 -62 42 -102s-14 -74 -42 -102s-62 -42 -102 -42zM589 133c0 24.667 -8.66699 46.5 -26 65.5s-40 28.5 -68 28.5s-50.667 -9.5 -68 -28.5
s-26 -40.833 -26 -65.5s8.66699 -46.5 26 -65.5s40 -28.5 68 -28.5s50.667 9.5 68 28.5s26 40.833 26 65.5zM184 439c-40 0 -74 14 -102 42s-42 62 -42 102s14 74 42 102s62 42 102 42s74 -14 102 -42s42 -62 42 -102s-14 -74 -42 -102s-62 -42 -102 -42zM278 583
c0 24.667 -8.66699 46.5 -26 65.5s-40 28.5 -68 28.5s-50.667 -9.5 -68 -28.5s-26 -40.833 -26 -65.5s8.66699 -46.5 26 -65.5s40 -28.5 68 -28.5s50.667 9.5 68 28.5s26 40.833 26 65.5z" />
    <glyph glyph-name="ampersand" unicode="&#x26;" horiz-adv-x="548" 
d="M498 32l-16 -42.9971c-25.333 7.33301 -46.833 19.5 -64.5 36.5s-28.834 37.5 -33.501 61.5c-38.667 -65.333 -95.667 -98 -171 -98c-60 0 -105.667 21 -137 63c-27.333 36.667 -41 79 -41 127c0 42 7.66699 78 23 108s34.5 54.167 57.5 72.5s43.667 32.666 62 42.999
s40.833 21.166 67.5 32.499c-22 3.33301 -41.667 15.666 -59 36.999c-20.667 24.667 -31 56 -31 94c0 50.667 21.333 90 64 118c28.667 18 56.834 27 84.501 27s53.5 -4 77.5 -12l-31 -46c-15.333 4.66699 -32 7 -50 7s-36 -6.66699 -54 -20
c-24 -19.333 -36 -43.333 -36 -72c0 -40.667 16.667 -70 50 -88c19.333 -10.667 36.5 -16 51.5 -16s27.167 1 36.5 3l27 5v137h57v-125l73 16l12 -53l-85 -19v-287c0 -58 22 -94.333 66 -109zM375 219.003v197.002c-97.333 -22 -168.333 -50.667 -213 -86
c-18 -14.667 -34 -33.334 -48 -56.001c-16 -27.333 -24 -59.333 -24 -96s10.667 -68.334 32 -95.001s54.333 -40 99 -40s81.5 17.833 110.5 53.5s43.5 76.5 43.5 122.5z" />
    <glyph glyph-name="quotesingle" unicode="'" horiz-adv-x="172" 
d="M100 589h-40l-14 111c0 14.667 5.66699 25 17 31c6 3.33301 11.667 5 17 5l17 -5c11.333 -6 17 -16.333 17 -31z" />
    <glyph glyph-name="parenleft" unicode="(" horiz-adv-x="281" 
d="M201 -82l-18 -37c-38 22 -65 46.167 -81 72.5s-24 65.5 -24 117.5v556c0 52 8 91.167 24 117.5s43 50.5 81 72.5l18 -37c-44.667 -33.333 -67 -81.333 -67 -144v-574c0 -62.667 22.333 -110.667 67 -144z" />
    <glyph glyph-name="parenright" unicode=")" horiz-adv-x="281" 
d="M96 -119l-18 37c44.667 33.333 67 81.333 67 144v574c0 62.667 -22.333 110.667 -67 144l18 37c38 -22 65 -46.167 81 -72.5s24 -65.5 24 -117.5v-556c0 -52 -8 -91.167 -24 -117.5s-43 -50.5 -81 -72.5z" />
    <glyph glyph-name="asterisk" unicode="*" horiz-adv-x="352" 
d="M285 450l-41 -31l-69 96l-65 -96l-45 31l65 91l-106 38l18 48l106 -40v113h53v-113l107 40l20 -48l-109 -38z" />
    <glyph glyph-name="plus" unicode="+" horiz-adv-x="385" 
d="M222 225h-55v133h-133v55h133v132h55v-132h132v-55h-132v-133z" />
    <glyph glyph-name="comma" unicode="," horiz-adv-x="159" 
d="M51 -84l-40 28.001c30 17.333 49.333 32.666 58 45.999l5 7l-10 3c-12 8.66699 -17.833 19 -17.5 31s3.66602 20.833 9.99902 26.5s11.833 8.5 16.5 8.5s9.33398 -0.166992 14.001 -0.5s10.5 -4.33301 17.5 -12s10.5 -16.5 10.5 -26.5
c0 -38.667 -21.333 -75.667 -64 -111z" />
    <glyph glyph-name="hyphen" unicode="-" horiz-adv-x="410" 
d="M365 358h-320v55h320v-55z" />
    <glyph glyph-name="period" unicode="." horiz-adv-x="120" 
d="M44 0c-9.33301 0 -17.166 3.33301 -23.499 10s-9.5 14.334 -9.5 23.001s3.16699 16.334 9.5 23.001s14.166 10 23.499 10s17.166 -3.33301 23.499 -10s9.5 -14.334 9.5 -23.001s-3.16699 -16.334 -9.5 -23.001s-14.166 -10 -23.499 -10z" />
    <glyph glyph-name="slash" unicode="/" horiz-adv-x="429" 
d="M85 -114h-61l324 931h57z" />
    <glyph glyph-name="zero" unicode="0" horiz-adv-x="549" 
d="M483 506v-321.001c0 -67.333 -20.5 -116.833 -61.5 -148.5s-90.167 -47.5 -147.5 -47.5s-106.833 15.833 -148.5 47.5s-62.5 81.167 -62.5 148.5v322c0 68.667 18.833 120.667 56.5 156s89.5 53 155.5 53s117.167 -18.667 153.5 -56s54.5 -88.666 54.5 -153.999z
M428 186.999v328.999c0 48.667 -14.167 85.334 -42.5 110.001s-65.833 37 -112.5 37s-84 -12.333 -112 -37s-42 -61.334 -42 -110.001v-330c0 -47.333 14.5 -83.166 43.5 -107.499s66 -36.5 111 -36.5s82 11.833 111 35.5s43.5 60.167 43.5 109.5z" />
    <glyph glyph-name="one" unicode="1" horiz-adv-x="209" 
d="M185 0l-56 0.000976562v634c-10.667 -10 -23.667 -18.833 -39 -26.5s-28 -12.834 -38 -15.501l-15 -4l-13 53c14.667 0 32.5 5.66699 53.5 17s38.167 25.333 51.5 42h56v-700z" />
    <glyph glyph-name="two" unicode="2" horiz-adv-x="399" 
d="M375 0l-351 0.000976562v53l254 385c24 38.667 36 73 36 103c0 37.333 -11.833 66 -35.5 86s-48.834 30 -75.501 30s-50 -8 -70 -24s-34.667 -37 -44 -63l-52 20c12.667 35.333 32.834 64.166 60.501 86.499s63.667 33.5 108 33.5s82.5 -14 114.5 -42
c35.333 -30.667 53 -68.5 53 -113.5s-14.667 -92.167 -44 -141.5l-240 -361h286v-52z" />
    <glyph glyph-name="three" unicode="3" horiz-adv-x="438" 
d="M24 83l46.999 29.999c30.667 -46 74 -69 130 -69c43.333 0 80.333 15.333 111 46s46 67.334 46 110.001s-14.667 79.167 -44 109.5s-65 46.5 -107 48.5h-110l193 287h-219v55h287v-49l-159 -238h2c59.333 0 109.666 -20.667 150.999 -62s62 -91.5 62 -150.5
s-20.667 -109.167 -62 -150.5s-91.666 -62 -150.999 -62c-36 0 -69.667 8.5 -101 25.5s-56.666 40.167 -75.999 69.5z" />
    <glyph glyph-name="four" unicode="4" horiz-adv-x="493" 
d="M396 0h-56v358h-316l194 342h58l-156 -287h220v287h56v-287h73l-19 -55h-54v-358z" />
    <glyph glyph-name="five" unicode="5" horiz-adv-x="438" 
d="M24 83l46.999 30c30.667 -46 74 -69 130 -69c43.333 0 80.333 15.333 111 46s46 67.667 46 111s-15.333 80.333 -46 111s-67.667 46 -111 46h-144l36 342h265v-55h-216l-24 -232h83c59.333 0 109.666 -20.667 150.999 -62s62 -91.5 62 -150.5
s-20.667 -109.167 -62 -150.5s-91.666 -62 -150.999 -62c-36 0 -69.667 8.5 -101 25.5s-56.666 40.167 -75.999 69.5z" />
    <glyph glyph-name="six" unicode="6" horiz-adv-x="473" 
d="M24 201l0.00195312 260.001c0 55.333 16.667 107 50 155c18 24.667 43.667 44.834 77 60.501s72.333 23.5 117 23.5h35v-55h-39c-50 0 -93.333 -16.167 -130 -48.5s-55 -79.833 -55 -142.5v-122c14 25.333 35.167 45.166 63.5 59.499s59.5 21.5 93.5 21.5
c59.333 0 109.666 -20.667 150.999 -62s62 -91.5 62 -150.5s-20.833 -109.167 -62.5 -150.5s-91.834 -62 -150.501 -62s-108.667 20.667 -150 62s-62 91.666 -62 150.999zM79.002 207.001l-0.00195312 -6c0 -44 15.167 -81.333 45.5 -112s67.5 -46 111.5 -46
s81.333 15.333 112 46s46 68 46 112s-15.333 81.167 -46 111.5s-67.667 45.5 -111 45.5s-80.166 -14.5 -110.499 -43.5s-46.166 -64.833 -47.499 -107.5z" />
    <glyph glyph-name="seven" unicode="7" horiz-adv-x="442" 
d="M99 0h-62l317 645h-330v55h394v-55z" />
    <glyph glyph-name="eight" unicode="8" horiz-adv-x="474" 
d="M230 358c-42 -2 -77.5 -18 -106.5 -48s-43.5 -66.5 -43.5 -109.5s15.333 -79.833 46 -110.5s67.667 -46 111 -46s80.333 15.333 111 46s46 67.5 46 110.5s-15.333 79.5 -46 109.5s-70 46 -118 48zM337 388c34 -18.667 61.3301 -44.5 81.9971 -77.5s31 -69.5 31 -109.5
c0 -59.333 -20.667 -109.666 -62 -150.999s-91.666 -62 -150.999 -62s-109.666 20.667 -150.999 62s-62 91.666 -62 150.999c0 40.667 10.333 77.667 31 111s48.334 59 83.001 77c-50 34 -75 82 -75 144c0 48.667 17 90.167 51 124.5s75.5 51.5 124.5 51.5
s90.5 -17.167 124.5 -51.5s51 -75.833 51 -124.5c0 -62.667 -25.667 -111 -77 -145zM232.997 413c36 0 66.167 11.667 90.5 35s36.5 51.833 36.5 85.5s-12 62.5 -36 86.5s-52.833 36 -86.5 36s-62.5 -12 -86.5 -36s-36 -52.667 -36 -86s11.333 -61.5 34 -84.5
s50.667 -35.167 84 -36.5z" />
    <glyph glyph-name="nine" unicode="9" horiz-adv-x="473" 
d="M205 0h-35.001v55h39c50 0 93.333 16.167 130 48.5s55 79.833 55 142.5v107c-42 -45.333 -93.5 -68 -154.5 -68s-112.167 20.667 -153.5 62s-62 91.5 -62 150.5s20.667 109.167 62 150.5s91.5 62 150.5 62s109.167 -20.667 150.5 -62s62 -91.666 62 -150.999v-258
c0 -55.333 -17 -107 -51 -155c-17.333 -24.667 -42.666 -44.834 -75.999 -60.501s-72.333 -23.5 -117 -23.5zM236.999 340c44 0 81.1689 15.167 111.502 45.5s45.5 68 45.5 113s-15.333 82.333 -46 112s-67.834 44.5 -111.501 44.5s-80.834 -15.333 -111.501 -46
s-46 -68 -46 -112s15.333 -81.167 46 -111.5s68 -45.5 112 -45.5z" />
    <glyph glyph-name="colon" unicode=":" horiz-adv-x="114" 
d="M57 352c-8.66699 0 -16.334 3.33301 -23.001 10s-10 14.334 -10 23.001s3.33301 16.334 10 23.001s14.334 10 23.001 10s16.334 -3.33301 23.001 -10s10 -14.334 10 -23.001s-3.33301 -16.334 -10 -23.001s-14.334 -10 -23.001 -10zM57 111
c-8.66699 0 -16.334 3.16699 -23.001 9.5s-10 14.166 -10 23.499s3.33301 17.166 10 23.499s14.334 9.5 23.001 9.5s16.334 -3.16699 23.001 -9.5s10 -14.166 10 -23.499s-3.33301 -17.166 -10 -23.499s-14.334 -9.5 -23.001 -9.5z" />
    <glyph glyph-name="semicolon" unicode=";" horiz-adv-x="153" 
d="M94 241c-9.33301 0 -17.166 3.16699 -23.499 9.5s-9.5 14.166 -9.5 23.499s3.16699 17.166 9.5 23.499s14.166 9.5 23.499 9.5s17.166 -3.16699 23.499 -9.5s9.5 -14.166 9.5 -23.499s-3.16699 -17.166 -9.5 -23.499s-14.166 -9.5 -23.499 -9.5zM64 -84l-40 28.001
c30 17.333 49.333 32.666 58 45.999l5 7l-10 3c-12 8.66699 -17.833 19 -17.5 31s3.66602 20.833 9.99902 26.5s11.833 8.5 16.5 8.5s9.33398 -0.166992 14.001 -0.5s10.5 -4.33301 17.5 -12s10.5 -16.5 10.5 -26.5c0 -38.667 -21.333 -75.667 -64 -111z" />
    <glyph glyph-name="less" unicode="&#x3c;" horiz-adv-x="365" 
d="M341 118l-39 -38l-278 278v1l278 278l39 -38l-241 -241z" />
    <glyph glyph-name="equal" unicode="=" horiz-adv-x="368" 
d="M344 358h-320v55h320v-55zM344 253h-320v55h320v-55z" />
    <glyph glyph-name="greater" unicode="&#x3e;" horiz-adv-x="365" 
d="M63 80l-39 38l241 240l-241 241l39 38l278 -278v-1z" />
    <glyph glyph-name="question" unicode="?" horiz-adv-x="403" 
d="M215 119l-50.998 0.000976562v93c0 30.667 4.5 58.167 13.5 82.5s18.833 43 29.5 56s24.5 28.333 41.5 46s29.5 32.167 37.5 43.5c22 34 33 65.667 33 95c0 35.333 -11.833 64.333 -35.5 87s-51.667 34 -84 34s-60.333 -10.5 -84 -31.5s-35.5 -51.833 -35.5 -92.5h-56
c0 50 15.5 92 46.5 126s74.833 51 131.5 51c34.667 0 66 -9 94 -27c54.667 -34 82 -82.333 82 -145c0 -41.333 -12.333 -80 -37 -116c-12.667 -18 -28 -36.167 -46 -54.5s-31.833 -32.833 -41.5 -43.5s-18.334 -27.834 -26.001 -51.501s-11.834 -53.5 -12.501 -89.5v-63z
M189.002 0.000976562c-8.66699 0 -16.334 3.33301 -23.001 10s-10 14.334 -10 23.001s3.33301 16.334 10 23.001s14.334 10 23.001 10s16.334 -3.33301 23.001 -10s10 -14.334 10 -23.001s-3.33301 -16.334 -10 -23.001s-14.334 -10 -23.001 -10z" />
    <glyph glyph-name="at" unicode="@" horiz-adv-x="707" 
d="M320 54c-108 0 -165.668 49.998 -173.001 149.998v101c0 74 29.333 122 88 144c22.667 8.66699 47.334 13 74.001 13c48.667 0 103.334 -14.667 164.001 -44c-4 38.667 -19.833 66.667 -47.5 84s-59.834 26 -96.501 26s-68.334 -2.83301 -95.001 -8.5
s-52 -15.167 -76 -28.5c-52 -28 -78 -77.667 -78 -149v-152c0 -47.333 11.833 -86.5 35.5 -117.5s53 -52.667 88 -65s74.833 -18.5 119.5 -18.5c77.333 0 142 15 194 45s78 72.667 78 128v183c0 48.667 3.33301 81 10 97c11.333 23.333 32.333 40 63 50l15 -38
c-22.667 -10 -34 -33.333 -34 -70l1 -213c0 -42 -10.167 -79 -30.5 -111s-47.166 -56.667 -80.499 -74c-66.667 -34.667 -140.667 -52 -222 -52s-150.5 20.667 -207.5 62s-85.5 103.666 -85.5 186.999v159c0 36.667 6 69.334 18 98.001s28 51.334 48 68.001
c36.667 30 74.334 49.333 113.001 58s75.5 13 110.5 13s69.5 -4.66699 103.5 -14s61.667 -28.166 83 -56.499s32 -64.833 32 -109.5l37 -16v-49l-37 16v-259c-90.667 -24.667 -161.334 -37 -212.001 -37zM475.999 366.998c-58 28.667 -115.668 43 -173.001 43
c-29.333 0 -53.5 -9 -72.5 -27s-28.5 -45 -28.5 -81v-98c0.666992 -50 25.334 -81.333 74.001 -94c15.333 -4 32.333 -6 51 -6c41.333 0 91 9.66699 149 29v234z" />
    <glyph glyph-name="A" unicode="A" horiz-adv-x="527" 
d="M517 0h-60l-80 245h-228l-78 -245h-59l224 700h53zM362 300l-100 313l-97 -313h197z" />
    <glyph glyph-name="B" unicode="B" horiz-adv-x="544" 
d="M308 0h-229.999v700h221c54.667 0 97.667 -14 129 -42s47 -71.5 47 -130.5s-22 -103.5 -66 -133.5c-0.666992 -0.666992 -1 -1.33398 -1 -2.00098v-1c29.333 -13.333 53.833 -35 73.5 -65s29.5 -69 29.5 -117c0 -53.333 -13.667 -99.666 -41 -138.999
c-14 -21.333 -34.833 -38.333 -62.5 -51s-60.834 -19 -99.501 -19zM134.001 413h163.001c37.333 0 66.666 10 87.999 30s32 49 32 87c0 78 -42 117 -126 117h-157v-234zM134.002 53h172c96.667 0 145 53.333 145 160c0 46.667 -12.667 82.5 -38 107.5s-55.333 37.5 -90 37.5
h-189v-305z" />
    <glyph glyph-name="C" unicode="C" horiz-adv-x="436" 
d="M427 23c-56.667 -22 -110.664 -33 -161.997 -33c-10.667 0 -26.834 1 -48.501 3s-44.667 9.5 -69 22.5s-44 33.667 -59 62s-22.5 63.5 -22.5 105.5v321c0 50.667 7.16699 89 21.5 115s36.166 48 65.499 66c30 16.667 65.667 25 107 25c51.333 0 98.666 -11 141.999 -33
l-16 -38c-38 14 -74 21 -108 21c-104 0 -156 -49 -156 -147v-328c0 -87.333 42.333 -135 127 -143c6.66699 -1.33301 13.667 -2 21 -2c40 0 88.333 10 145 30z" />
    <glyph glyph-name="D" unicode="D" horiz-adv-x="576" 
d="M286 0h-208v701h188c75.333 0 132.833 -20.667 172.5 -62s59.5 -96.333 59.5 -165v-274c0 -133.333 -70.667 -200 -212 -200zM442 190v294c0 56 -16.667 97.667 -50 125s-72 41 -116 41h-142v-600h136c114.667 0 172 46.667 172 140z" />
    <glyph glyph-name="E" unicode="E" horiz-adv-x="465" 
d="M410 0h-332v700h334v-52h-278v-235h191l-19 -55h-172v-308h276v-50z" />
    <glyph glyph-name="F" unicode="F" horiz-adv-x="445" 
d="M134 0h-56v700h334v-53h-278v-234h171l-23 -55h-148v-358z" />
    <glyph glyph-name="G" unicode="G" horiz-adv-x="537" 
d="M476 0l-40.999 0.000976562l-14 41c-34.667 -34 -82.167 -51 -142.5 -51s-111 16.667 -152 50s-61.5 83 -61.5 149v314c0 85.333 29 145.666 87 180.999c30 16.667 65.667 25 107 25c51.333 0 98.666 -11 141.999 -33l-16 -38c-38 14 -74 21 -108 21
c-104 0 -156 -49 -156 -147v-325c0 -44.667 14.5 -79.667 43.5 -105s66 -38 111 -38s80.833 13 107.5 39s40 60.333 40 103v59h-66l-19 55h138v-300z" />
    <glyph glyph-name="H" unicode="H" horiz-adv-x="588" 
d="M508 0h-56v358h-318v-358h-56v700h56v-287h318v287h56v-700z" />
    <glyph glyph-name="I" unicode="I" horiz-adv-x="264" 
d="M189 0h-56v649l-67 2v49h123v-700z" />
    <glyph glyph-name="J" unicode="J" horiz-adv-x="196" 
d="M27 -37l-13.001 37c22 0 41.167 9 57.5 27s24.5 47 24.5 87v535l-67 2v49h124v-582c0 -49.333 -11.167 -87.5 -33.5 -114.5s-53.166 -40.5 -92.499 -40.5z" />
    <glyph glyph-name="K" unicode="K" horiz-adv-x="475" 
d="M476 0h-67l-226 345l-48 -76v-269h-56v701h56v-334l224 334h65l-205 -303z" />
    <glyph glyph-name="L" unicode="L" horiz-adv-x="440" 
d="M439 0h-361v700h56v-650h305v-50z" />
    <glyph glyph-name="M" unicode="M" horiz-adv-x="694" 
d="M614 0h-56v535l-182 -535h-61l-181 535v-535h-56v700h56l211 -614l213 614h56v-700z" />
    <glyph glyph-name="N" unicode="N" horiz-adv-x="650" 
d="M570 0h-56l-380 597v-597h-56v700h56l380 -597v597h56v-700z" />
    <glyph glyph-name="O" unicode="O" horiz-adv-x="549" 
d="M483 506v-321.001c0 -67.333 -20.5 -116.833 -61.5 -148.5s-90.167 -47.5 -147.5 -47.5s-106.833 15.833 -148.5 47.5s-62.5 81.167 -62.5 148.5v322c0 68.667 18.833 120.667 56.5 156s89.5 53 155.5 53s117.167 -18.667 153.5 -56s54.5 -88.666 54.5 -153.999z
M428 186.999v328.999c0 48.667 -14.167 85.334 -42.5 110.001s-65.833 37 -112.5 37s-84 -12.333 -112 -37s-42 -61.334 -42 -110.001v-330c0 -47.333 14.5 -83.166 43.5 -107.499s66 -36.5 111 -36.5s82 11.833 111 35.5s43.5 60.167 43.5 109.5z" />
    <glyph glyph-name="P" unicode="P" horiz-adv-x="545" 
d="M134 300h198c24 0 44.333 4.83301 61 14.5s29 20.5 37 32.5s14 28.333 18 49c5.33301 23.333 8 53.333 8 90c0 54 -11.5 94.333 -34.5 121s-54.167 40 -93.5 40h-194v-347zM134 0h-56v700h246c63.333 0 110.5 -19.333 141.5 -58s46.5 -90.667 46.5 -156
c0 -23.333 -0.5 -43.166 -1.5 -59.499s-4.83301 -37 -11.5 -62s-16 -45.333 -28 -61s-30 -29.334 -54 -41.001s-52.667 -17.5 -86 -17.5h-197v-245z" />
    <glyph glyph-name="Q" unicode="Q" horiz-adv-x="549" 
d="M428 -40v-54.001c-80 0 -134 27.667 -162 83c-52 1.33301 -98 16.333 -138 45c-20 14.667 -35.833 35 -47.5 61s-17.5 56 -17.5 90v322c0 68.667 18.833 120.667 56.5 156s89.5 53 155.5 53s117.167 -18.667 153.5 -56s54.5 -88.666 54.5 -153.999v-321
c0 -58 -15.167 -102.5 -45.5 -133.5s-68.833 -50.5 -115.5 -58.5c18 -22 52 -33 102 -33h4zM428 186.999l-0.000976562 328.998c0 48.667 -14.167 85.334 -42.5 110.001s-65.833 37 -112.5 37s-84 -12.333 -112 -37s-42 -61.334 -42 -110.001v-330
c0 -42.667 11.833 -76.167 35.5 -100.5s54.834 -38.5 93.501 -42.5c-2.66699 16 -4 35.333 -4 58v73h56v-72c0 -27.333 1 -46.666 3 -57.999c38 4.66699 68.333 18.834 91 42.501s34 57.167 34 100.5z" />
    <glyph glyph-name="R" unicode="R" horiz-adv-x="564" 
d="M513 0h-57l-85 248c-12 -2 -25.333 -3 -40 -3h-197v-245h-56v700h246c63.333 0 110.5 -19.333 141.5 -58s46.5 -90.667 46.5 -156c0 -31.333 -1.16699 -58 -3.5 -80s-10.5 -47.5 -24.5 -76.5s-34 -50.5 -60 -64.5zM134 300h198c24 0 44.333 4.83301 61 14.5
s29 20.5 37 32.5s14 28.333 18 49c5.33301 23.333 8 53.333 8 90c0 54 -11.5 94.333 -34.5 121s-54.167 40 -93.5 40h-194v-347z" />
    <glyph glyph-name="S" unicode="S" horiz-adv-x="561" 
d="M37 178l56.999 -0.00195312c3.33301 -35.333 21.166 -66.666 53.499 -93.999s73.833 -41 124.5 -41s93.334 11.5 128.001 34.5s52 59.5 52 109.5c0 30.667 -9.83301 56.834 -29.5 78.501s-44.167 38.167 -73.5 49.5l-95.5 36.5c-34.333 13 -66.166 25.833 -95.499 38.5
s-53.833 31.667 -73.5 57s-29.5 55.666 -29.5 90.999c0 46.667 19.333 87 58 121s94.334 51 167.001 51c55.333 0 104 -10 146 -30c0 -1.33301 -5.66699 -19 -17 -53c-38 19.333 -81.5 29 -130.5 29s-88.833 -10.667 -119.5 -32s-46 -51 -46 -89
c0 -42.667 26.333 -76 79 -100c23.333 -10.667 49.166 -20.667 77.499 -30s56.833 -19.666 85.5 -30.999s54.667 -24.166 78 -38.499s42.333 -33.833 57 -58.5s22 -53 22 -85c0 -61.333 -19.5 -110.5 -58.5 -147.5s-97 -55.5 -174 -55.5s-136.333 19.167 -178 57.5
s-63.167 82.166 -64.5 131.499z" />
    <glyph glyph-name="T" unicode="T" horiz-adv-x="402" 
d="M226 0h-56v650h-170v50h402v-50h-176v-650z" />
    <glyph glyph-name="U" unicode="U" horiz-adv-x="566" 
d="M439 178l0.000976562 523h56v-515c0 -35.333 -6.16699 -66 -18.5 -92s-29 -46 -50 -60s-43.167 -24.333 -66.5 -31s-48.333 -10 -75 -10s-51.834 3.33301 -75.501 10s-46 17 -67 31s-37.667 34 -50 60s-18.5 56.667 -18.5 92v515h56v-523
c0 -40.667 14.833 -73.334 44.5 -98.001s66.167 -37 109.5 -37s80 12.333 110 37s45 57.334 45 98.001z" />
    <glyph glyph-name="V" unicode="V" horiz-adv-x="589" 
d="M356 0h-77l-201 700h60l179 -631l179 631h60z" />
    <glyph glyph-name="W" unicode="W" horiz-adv-x="807" 
d="M611 0h-85l-99 599l-99 -599h-85l-165 700h60l143 -631l107 631h78l107 -631l141 631h60z" />
    <glyph glyph-name="X" unicode="X" horiz-adv-x="628" 
d="M585 0h-69l-184 294l-185 -294h-69l221 352l-202 348h63l172 -294l174 294h63l-203 -348z" />
    <glyph glyph-name="Y" unicode="Y" horiz-adv-x="560" 
d="M399 -7l-12.999 37.002c40.667 15.333 61 56 61 122v142c-18 -16 -42 -28.167 -72 -36.5s-58.667 -12.5 -86 -12.5c-70.667 0 -126.5 17.5 -167.5 52.5s-61.5 86.833 -61.5 155.5v247h56v-257c0 -46.667 16 -82.167 48 -106.5s70.667 -36.5 116 -36.5
s82.666 8.33301 111.999 25s47.666 41.667 54.999 75v300h57v-544c0 -48.667 -9.16699 -86.834 -27.5 -114.501s-44.166 -43.834 -77.499 -48.501z" />
    <glyph glyph-name="Z" unicode="Z" horiz-adv-x="550" 
d="M518 0h-487v50l410 599h-397v51h468v-50l-410 -599h416v-51z" />
    <glyph glyph-name="bracketleft" unicode="[" horiz-adv-x="319" 
d="M239 -114h-161v931h161v-45l-105 -10v-821l105 -10v-45z" />
    <glyph glyph-name="backslash" unicode="\" horiz-adv-x="492" 
d="M451 -114h-61l-320 931h57z" />
    <glyph glyph-name="bracketright" unicode="]" horiz-adv-x="319" 
d="M239 -114h-161v45l105 10v821l-105 10v45h161v-931z" />
    <glyph glyph-name="asciicircum" unicode="^" horiz-adv-x="401" 
d="M330 719l-105 104l-109 -104l-38 39l148 141l142 -141z" />
    <glyph glyph-name="underscore" unicode="_" horiz-adv-x="353" 
d="M396 -55h-320v55h320v-55z" />
    <glyph glyph-name="grave" unicode="`" horiz-adv-x="222" 
d="M164 590h-44l-69 92c-3.33301 4 -5 8.33301 -5 13c0 18 7.33301 29.333 22 34c4.66699 1.33301 9 2 13 2c14 0 24.667 -7.66699 32 -23z" />
    <glyph glyph-name="a" unicode="a" horiz-adv-x="458" 
d="M256 -10c-146 0 -219.001 59.6641 -219.001 178.997v83c0 66 23 110.333 69 133c24 11.333 47.667 17 71 17c78.667 0 141.667 -18.667 189 -56c0 36.667 -10.667 65.834 -32 87.501s-62.333 32.5 -123 32.5l3 43c54 0 94 -6.33301 120 -19
c14 -7.33301 26.333 -14.666 37 -21.999s19 -17 25 -29s11 -22.5 15 -31.5s6.66699 -21.167 8 -36.5c2 -23.333 3 -47.666 3 -72.999v-298c-69.333 -6.66699 -124.666 -10 -165.999 -10zM365.999 45.9971v257c-55.333 26.667 -112 42.334 -170 47.001
c-4 0.666992 -8 1 -12 1c-25.333 0 -47 -7.83301 -65 -23.5s-27 -41.834 -27 -78.501v-87c0 -55.333 24 -91.333 72 -108c28 -10 59.667 -15 95 -15s71 2.33301 107 7z" />
    <glyph glyph-name="b" unicode="b" horiz-adv-x="480" 
d="M134 474c32.667 23.333 76.667 35 132 35c36.667 0 68.667 -6.33301 96 -19c56.667 -26 85 -74 85 -144v-189c0 -66 -26 -112.333 -78 -139c-39.333 -20 -83.333 -30 -132 -30s-101.667 4 -159 12v700h56v-226zM134 425v-377c37.333 -6 71 -9 101 -9
c104.667 0 157 39 157 117v187c0 34.667 -9.33301 61.667 -28 81c-22.667 23.333 -56.5 35 -101.5 35s-87.833 -11.333 -128.5 -34z" />
    <glyph glyph-name="c" unicode="c" horiz-adv-x="383" 
d="M246 38c30 0 63.334 4.33301 100.001 13l12 -45c-42.667 -11.333 -81.334 -17 -116.001 -17s-68.667 5.33301 -102 16c-69.333 22.667 -104 81 -104 175v128c0 47.333 9.33301 87 28 119c32 55.333 84.667 83 158 83c44 0 88.667 -10.667 134 -32l-16 -41
c-38 14.667 -70.833 22 -98.5 22s-52.167 -3.33301 -73.5 -10s-39.333 -21.667 -54 -45s-22 -53.333 -22 -90v-145c0 -87.333 51.333 -131 154 -131z" />
    <glyph glyph-name="d" unicode="d" horiz-adv-x="480" 
d="M259 509c55.333 0 99.333 -11.667 132 -35v226h56v-700c-57.333 -8 -110.333 -12 -159 -12s-92.667 10 -132 30c-52 26.667 -78 73 -78 139v189c0 70 28.333 118 85 144c27.333 12.667 59.333 19 96 19zM391 425c-40.667 22.667 -85 34 -133 34
c-42 0 -73.333 -10.667 -94 -32s-31 -49.333 -31 -84v-187c0 -78 52.333 -117 157 -117c30 0 63.667 3 101 9v377z" />
    <glyph glyph-name="e" unicode="e" horiz-adv-x="434" 
d="M202 37c46 0 94.667 13.668 146 41.001l22 -43c-51.333 -31.333 -105 -47 -161 -47c-116 0 -174 48.667 -174 146v205c0 54 16.833 96 50.5 126s78.167 45 133.5 45s98.5 -14.833 129.5 -44.5s46.5 -70.834 46.5 -123.501v-130l-304 -17v-61c0 -36 13 -62 39 -78
c20 -12.667 44 -19 72 -19zM339 262.001l0.000976562 87c0 28.667 -7.66699 52.167 -23 70.5s-31.333 30 -48 35s-33.334 7.5 -50.001 7.5c-36.667 0 -67 -10 -91 -30s-36 -51.333 -36 -94v-88z" />
    <glyph glyph-name="f" unicode="f" horiz-adv-x="294" 
d="M134 0h-55.999v549c0 33.333 5.66699 62 17 86s25.666 41 42.999 51c28.667 16.667 58 25 88 25c12 0 23.667 -1.33301 35 -4l-9 -49c-8.66699 1.33301 -17 2 -25 2c-62 0 -93 -37 -93 -111v-48h114l-24 -53h-90v-448z" />
    <glyph glyph-name="g" unicode="g" horiz-adv-x="448" 
d="M307 -210l-15 42.999c44 16.667 66 51.334 66 104.001v124c-28 -48.667 -72.167 -73 -132.5 -73s-106.833 16 -139.5 48s-49 78.667 -49 140v149c0 58.667 17.167 104.167 51.5 136.5s81.5 48.5 141.5 48.5s104 -22.333 132 -67l-4 58h56v-565
c0 -40 -8.33301 -71.333 -25 -94s-44 -40 -82 -52zM358 172.999l0.000976562 163.001c0 41.333 -13.333 72.166 -40 92.499s-58 30.5 -94 30.5s-66.833 -10.833 -92.5 -32.5s-38.5 -57.167 -38.5 -106.5v-153c0 -42 11.833 -73.667 35.5 -95s54.667 -32 93 -32
s70.666 11.5 96.999 34.5s39.5 55.833 39.5 98.5z" />
    <glyph glyph-name="h" unicode="h" horiz-adv-x="493" 
d="M120 474c33.333 24 78.333 36 135 36c36 0 67 -6.33301 93 -19c56.667 -26 85 -74.333 85 -145v-346h-55v343c0 34.667 -9.33301 61.667 -28 81c-22.667 23.333 -56.5 35 -101.5 35s-87.833 -11.333 -128.5 -34v-425h-56v700h56v-226z" />
    <glyph glyph-name="i" unicode="i" horiz-adv-x="225" 
d="M135 653c-6.66699 -6.66699 -14.499 -10.001 -23.499 -10.001s-16.833 3.5 -23.5 10.5s-10 14.833 -10 23.5s3.33301 16.334 10 23.001s14.667 10 24 10s17.166 -3.33301 23.499 -10s9.5 -14.5 9.5 -23.5s-3.33301 -16.833 -10 -23.5zM139.001 -0.000976562h-56v501h56
v-501z" />
    <glyph glyph-name="j" unicode="j" horiz-adv-x="193" 
d="M68 -56l-0.00195312 502.001l-45 3l-23 52h124v-576c-1.33301 -38.667 -13.333 -70.667 -36 -96s-52 -38 -88 -38l-7 43c4.66699 0 12.334 2.66699 23.001 8s19.334 11.666 26.001 18.999c17.333 19.333 26 47 26 83zM96.998 643.001
c-8.66699 0 -16.499 3.49902 -23.499 10.499s-10.5 14.833 -10.5 23.5s3.33301 16.334 10 23.001s14.5 10 23.5 10s16.833 -3.33301 23.5 -10s10 -14.5 10 -23.5s-3.33301 -16.833 -10 -23.5s-14.334 -10 -23.001 -10z" />
    <glyph glyph-name="k" unicode="k" horiz-adv-x="434" 
d="M434 0h-67l-192 317l-52 -45v-272h-56v700h56v-365l200 185l40 -39l-148 -129z" />
    <glyph glyph-name="l" unicode="l" horiz-adv-x="214" 
d="M134 0h-56v700h56v-700z" />
    <glyph glyph-name="m" unicode="m" horiz-adv-x="735" 
d="M385 461c56.667 32 110.334 47.999 161.001 47.999c48 0 86 -15.333 114 -46s42 -69.667 42 -117v-346h-55v343c0 30 -6.33301 54.333 -19 73s-28 30.334 -46 35.001s-32.5 7 -43.5 7s-23.333 -0.5 -37 -1.5s-31.834 -5.83301 -54.501 -14.5l-37 -18
c11.333 -22.667 17 -48.667 17 -78v-346h-55v343c0 34.667 -8.33301 61.667 -25 81c-20 22.667 -50.5 34 -91.5 34s-81.5 -11 -121.5 -33v-425h-56v501h56l-5 -32c46 26 92.5 39 139.5 39s85.833 -15.667 116.5 -47z" />
    <glyph glyph-name="n" unicode="n" horiz-adv-x="500" 
d="M116 467c34 28.667 81.666 43 142.999 43c34.667 0 64.334 -6.33301 89.001 -19c56.667 -26 85 -74.333 85 -145v-346h-55v343c0 34.667 -9.33301 61.667 -28 81c-22.667 23.333 -56.5 35 -101.5 35s-87.833 -11.333 -128.5 -34v-425h-56v501h56z" />
    <glyph glyph-name="o" unicode="o" 
d="M451 316l0.000976562 -132c0 -56 -15.333 -102.333 -46 -139s-77 -55 -139 -55s-108.833 18.5 -140.5 55.5s-47.5 83.167 -47.5 138.5v132c0 63.333 16.167 111.833 48.5 145.5s78.166 50.5 137.499 50.5s105.333 -17.5 138 -52.5s49 -82.833 49 -143.5zM395.001 174v142
c0 96.667 -43 145 -129 145c-88 0 -132 -48.333 -132 -145v-142c0 -40 11.833 -72.333 35.5 -97s56 -37 97 -37s72.667 12.167 95 36.5s33.5 56.833 33.5 97.5z" />
    <glyph glyph-name="p" unicode="p" horiz-adv-x="488" 
d="M134 -188l-55.999 -22v711h56l-5 -51c36.667 39.333 84 59 142 59s103.167 -18 135.5 -54s48.5 -82.667 48.5 -140v-139c0 -60.667 -17 -107.167 -51 -139.5s-79.833 -48.5 -137.5 -48.5s-101.834 18 -132.501 54v-230zM399.001 166v153c0 48.667 -12.833 84 -38.5 106
s-56.334 33 -92.001 33s-66.5 -10.833 -92.5 -32.5s-40 -55.5 -42 -101.5v-158c0 -43.333 12.333 -75.333 37 -96s56.334 -31 95.001 -31s70.5 10.833 95.5 32.5s37.5 53.167 37.5 94.5z" />
    <glyph glyph-name="q" unicode="q" horiz-adv-x="448" 
d="M414 -210l-55.999 22.001v230c-30.667 -36 -74.834 -54 -132.501 -54s-103.5 16.167 -137.5 48.5s-51 78.833 -51 139.5v138c0 57.333 16.167 104.166 48.5 140.499s77.333 54.5 135 54.5s105.167 -20.333 142.5 -61l-5 53h56v-711zM358.001 166.001v158
c-2 46 -16 79.833 -42 101.5s-56.833 32.5 -92.5 32.5s-66.334 -11.167 -92.001 -33.5s-38.5 -57.833 -38.5 -106.5v-152c0 -41.333 12.5 -72.833 37.5 -94.5s56.833 -32.5 95.5 -32.5s70.334 10.333 95.001 31s37 52.667 37 96z" />
    <glyph glyph-name="r" unicode="r" horiz-adv-x="333" 
d="M296 450c-25.333 6.66699 -50.999 10 -76.999 10s-49.5 -5.83301 -70.5 -17.5s-31.5 -28.5 -31.5 -50.5v-392h-56v501h56l-3 -35c31.333 28.667 72.666 43 123.999 43c22.667 0 47 -2.66699 73 -8z" />
    <glyph glyph-name="s" unicode="s" horiz-adv-x="431" 
d="M36 127l53 -0.00292969c4 -30 19 -52.5 45 -67.5s54.5 -22.5 85.5 -22.5s58.833 6.83301 83.5 20.5s37 34.334 37 62.001s-9.5 49.167 -28.5 64.5s-42.167 27.333 -69.5 36l-83 27.5c-28 9.66699 -52.667 24.167 -74 43.5c-25.333 22.667 -38 50.834 -38 84.501
s13.5 65 40.5 94s70.833 43.5 131.5 43.5c21.333 0 41.333 -2.5 60 -7.5s32 -9.83301 40 -14.5l12 -7l-19 -46c-24 17.333 -54 26 -90 26s-64.833 -7.66699 -86.5 -23s-32.5 -36 -32.5 -62c0 -25.333 11 -45.166 33 -59.499s47.167 -25.666 75.5 -33.999
s56.5 -17.833 84.5 -28.5s51.667 -27 71 -49s29 -51.333 29 -88s-14.833 -68.334 -44.5 -95.001s-73 -40 -130 -40s-101.833 13.667 -134.5 41s-49.667 61 -51 101z" />
    <glyph glyph-name="t" unicode="t" horiz-adv-x="243" 
d="M166 30l-16 -42.999c-37.333 10.667 -64.333 27.667 -81 51s-25 54.666 -25 93.999v568h56v-199h120l-24 -53h-96v-316c0 -53.333 22 -87.333 66 -102z" />
    <glyph glyph-name="u" unicode="u" horiz-adv-x="447" 
d="M409 0l-55.001 0.000976562l4 51c-16 -20 -36.167 -35.333 -60.5 -46s-48.833 -16 -73.5 -16c-125.333 0 -188 61 -188 183v329h56v-336c0 -42.667 11.833 -74.334 35.5 -95.001s55.834 -31 96.501 -31c86 0 129 42 129 126v336h56v-501z" />
    <glyph glyph-name="v" unicode="v" horiz-adv-x="424" 
d="M248 0h-77l-153 501h59l133 -443l134 443h59z" />
    <glyph glyph-name="w" unicode="w" horiz-adv-x="704" 
d="M528 0h-77l-101 405l-102 -405h-77l-153 501h59l133 -443l113 443h57l110 -443l134 443h59z" />
    <glyph glyph-name="x" unicode="x" horiz-adv-x="489" 
d="M456 0h-66l-123 197l-123 -197h-66l156 249l-156 252h63l126 -200l126 200h63l-157 -252z" />
    <glyph glyph-name="y" unicode="y" horiz-adv-x="480" 
d="M307 -210l-14.998 42.999c44.667 16.667 67 51.334 67 104.001v112c-24.667 -40.667 -68.667 -61 -132 -61c-126.667 0 -190 62.667 -190 188v325h54v-335c0 -42.667 11.667 -74.5 35 -95.5s55.166 -31.5 95.499 -31.5s73.166 10.333 98.499 31s38 52.667 38 96v197
c0 48.667 3.33301 81 10 97c11.333 23.333 32.333 40 63 50l15 -38c-22.667 -10 -34 -33.333 -34 -70v-463c0 -40.667 -8 -72.667 -24 -96s-43 -41 -81 -53z" />
    <glyph glyph-name="z" unicode="z" horiz-adv-x="478" 
d="M445 0h-367v50l275 400h-266v51h337v-50l-277 -400h298v-51z" />
    <glyph glyph-name="braceleft" unicode="{" horiz-adv-x="309" 
d="M276 -79l-18 -37c-44 25.333 -72.667 53.833 -86 85.5s-20 88.5 -20 170.5v107c0 12.667 -5.33301 27.167 -16 43.5s-19.5 27.833 -26.5 34.5l-31.5 29c16 12.667 32 29.334 48 50.001s24 40 24 58v105c0 56 3 99.167 9 129.5s16.167 54.5 30.5 72.5s36.5 35.667 66.5 53
l18 -37c-45.333 -34 -68 -82 -68 -144v-185c0 -28.667 -19.333 -62.334 -58 -101.001c40 -40 60 -74 60 -102v-188c0 -62 22.667 -110 68 -144z" />
    <glyph glyph-name="bar" unicode="|" horiz-adv-x="214" 
d="M134 -114h-56v931h56v-931z" />
    <glyph glyph-name="braceright" unicode="}" horiz-adv-x="309" 
d="M96 -116l-18 37c45.333 34 68 82 68 144v188c0 28 20 62 60 102c-38.667 38.667 -58 72.334 -58 101.001v185c0 62 -22.667 110 -68 144l18 37c30 -17.333 52.167 -35 66.5 -53s24.5 -42.167 30.5 -72.5s9 -73.5 9 -129.5v-105c0 -18 8 -37.333 24 -58
s32 -37.334 48 -50.001l-31.5 -29c-7 -6.66699 -15.833 -18.167 -26.5 -34.5s-16 -30.833 -16 -43.5v-107c0 -82 -6.66699 -138.833 -20 -170.5s-42 -60.167 -86 -85.5z" />
    <glyph glyph-name="asciitilde" unicode="~" horiz-adv-x="516" 
d="M371 342c36 0 64.333 12.333 85 37l27 -38c-29.333 -38 -67.333 -57 -114 -57c-18.667 0 -58 9.33301 -118 28c-18.667 5.33301 -37 8 -55 8c-38 0 -68.667 -13 -92 -39l-26 38c30.667 38 69.667 57 117 57c18 0 47.167 -5.66699 87.5 -17s69.833 -17 88.5 -17z" />
    <glyph glyph-name="exclamdown" unicode="&#xa1;" horiz-adv-x="225" 
d="M79 37l10 553h47l9 -554c0 -24 -11 -36 -33 -36s-33 12.333 -33 37zM111 644c-8.66699 0 -16.334 3.33301 -23.001 10s-10 14.334 -10 23.001s3.33301 16.334 10 23.001s14.334 10 23.001 10s16.334 -3.33301 23.001 -10s10 -14.334 10 -23.001
s-3.33301 -16.334 -10 -23.001s-14.334 -10 -23.001 -10z" />
    <glyph glyph-name="cent" unicode="&#xa2;" horiz-adv-x="433" 
d="M293 -114h-55v106c-12.667 1.33301 -28.667 4.66602 -48 9.99902c-39.333 13.333 -67.833 33.833 -85.5 61.5s-26.5 66.5 -26.5 116.5v128c0 60.667 14.667 107.834 44 141.501s68 53.167 116 58.5v115h55v-115c35.333 -4 70.333 -14 105 -30l-16 -41
c-32.667 12 -62.334 19.333 -89.001 22v-421c28.667 0 60.334 4.33301 95.001 13l12 -45c-38 -10 -73.667 -15.333 -107 -16v-104zM238 42v415c-32 -6 -57.333 -20.833 -76 -44.5s-28 -56.5 -28 -98.5v-145c0 -72 34.667 -114.333 104 -127z" />
    <glyph glyph-name="sterling" unicode="&#xa3;" horiz-adv-x="471" 
d="M438 0l-360 0.00390625v50c34 17.333 61.5 41.666 82.5 72.999s31.5 65.333 31.5 102c0 19.333 -4.66699 45.333 -14 78h-77v55h59c-23.333 71.333 -35 123.666 -35 156.999c0 58 18.167 104.833 54.5 140.5s80 53.5 131 53.5s89.833 -8.33301 116.5 -25l-18 -49
c-27.333 15.333 -59.333 23 -96 23s-68 -13.167 -94 -39.5s-39 -61.5 -39 -105.5c0 -22 13.333 -73.667 40 -155h201v-55h-184c8 -30.667 12 -59.834 12 -87.501s-7.83301 -57.334 -23.5 -89.001s-36.5 -55.5 -62.5 -71.5h275v-55z" />
    <glyph glyph-name="currency" unicode="&#xa4;" horiz-adv-x="462" 
d="M393 150l-33 33c-32 -23.333 -68.167 -35 -108.5 -35s-75.5 12 -105.5 36l-33 -35l-32 33l32 34c-23.333 32 -35 67.5 -35 106.5s11.333 74.167 34 105.5l-31 33l33 33l31 -32c32 24.667 68 37 108 37s75.333 -11.667 106 -35l32 31l34 -35l-31 -31
c23.333 -32 35 -67.667 35 -107s-12.333 -75 -37 -107l33 -33zM339 238c24 23.333 36 51.833 36 85.5s-12 62.5 -36 86.5s-52.833 36 -86.5 36s-62.5 -12 -86.5 -36s-36 -52.833 -36 -86.5s12 -62.167 36 -85.5s52.833 -35 86.5 -35s62.5 11.667 86.5 35z" />
    <glyph glyph-name="yen" unicode="&#xa5;" horiz-adv-x="583" 
d="M342 0h-56v253h-131v55h131v32l-11 18h-120v55h88l-165 287h63l168 -287h8l170 287h63l-167 -287h92v-55h-124l-9 -16v-34h133v-55h-133v-253z" />
    <glyph glyph-name="section" unicode="&#xa7;" horiz-adv-x="586" 
d="M78 -8l56.999 -0.00195312c3.33301 -35.333 21.166 -66.666 53.499 -93.999s73.833 -41 124.5 -41s93.334 11.5 128.001 34.5s52 59.5 52 109.5c0 30.667 -9.83301 56.834 -29.5 78.501s-44.167 38.167 -73.5 49.5l-95.5 36.5c-34.333 13 -66.166 25.833 -95.499 38.5
s-53.833 31.667 -73.5 57s-29.5 55.5 -29.5 90.5s10.667 66.167 32 93.5c-21.333 26.667 -32 58.334 -32 95.001c0 46.667 19.333 87 58 121s94.334 51 167.001 51c55.333 0 104 -10 146 -30c0 -1.33301 -5.66699 -19 -17 -53c-38 19.333 -81.5 29 -130.5 29
s-88.833 -10.667 -119.5 -32s-46 -51 -46 -89c0 -42.667 26.333 -76 79 -100c23.333 -10.667 49.166 -20.667 77.499 -30s56.833 -19.666 85.5 -30.999s54.667 -24.166 78 -38.499s42.333 -33.833 57 -58.5s22 -54.834 22 -90.501s-7.66699 -67.834 -23 -96.501
c15.333 -23.333 23 -52 23 -86c0 -61.333 -19.5 -110.5 -58.5 -147.5s-97 -55.5 -174 -55.5s-136.333 19.167 -178 57.5s-63.167 82.166 -64.5 131.499zM485.999 139.998c4.66699 17.333 7.00098 33.665 7.00098 48.998c0 32.667 -11.833 60.5 -35.5 83.5
s-50.834 39.5 -81.501 49.5c-104 36 -172.333 64.667 -205 86c-11.333 -17.333 -17 -38.666 -17 -63.999s12.333 -48.166 37 -68.499s53 -35.5 85 -45.5c100 -30 170 -60 210 -90z" />
    <glyph glyph-name="dieresis" unicode="&#xa8;" horiz-adv-x="222" 
d="M33 664c-8.66699 0 -16.334 3.33301 -23.001 10s-10 14.334 -10 23.001s3.33301 16.334 10 23.001s14.334 10 23.001 10s16.334 -3.33301 23.001 -10s10 -14.334 10 -23.001s-3.33301 -16.334 -10 -23.001s-14.334 -10 -23.001 -10zM189 664
c-8.66699 0 -16.334 3.33301 -23.001 10s-10 14.334 -10 23.001s3.33301 16.334 10 23.001s14.334 10 23.001 10s16.334 -3.33301 23.001 -10s10 -14.334 10 -23.001s-3.33301 -16.334 -10 -23.001s-14.334 -10 -23.001 -10z" />
    <glyph glyph-name="copyright" unicode="&#xa9;" horiz-adv-x="800" 
d="M665 -19c-72.667 -72 -160.833 -108 -264.5 -108s-192.167 36 -265.5 108s-110 161 -110 267s36.333 194.667 109 266s161.5 107 266.5 107s193.5 -35.667 265.5 -107s108 -160 108 -266s-36.333 -195 -109 -267zM175.501 18c61 -60 135.834 -90.001 224.501 -90.001
s163.5 30.167 224.5 90.5s91.5 135.833 91.5 226.5s-30.833 166.834 -92.5 228.501s-136.334 92.5 -224.001 92.5s-162.167 -29.833 -223.5 -89.5s-92 -136 -92 -229s30.5 -169.5 91.5 -229.5zM535.002 174.999l64.001 -0.000976562c-10.667 -48 -34 -86.5 -70 -115.5
s-77.333 -43.5 -124 -43.5c-66 0 -118.167 21.667 -156.5 65s-57.5 97.833 -57.5 163.5s19 121 57 166s89.667 67.5 155 67.5c48.667 0 91.334 -14.333 128.001 -43s59 -66 67 -112h-63c-5.33301 26.667 -20.333 49.334 -45 68.001s-53.334 28 -86.001 28
c-50.667 0 -88.5 -16.333 -113.5 -49s-37.5 -73.5 -37.5 -122.5s13 -90.167 39 -123.5s63.667 -50 113 -50c33.333 0 62.166 9.5 86.499 28.5s38.833 43.167 43.5 72.5z" />
    <glyph glyph-name="ordfeminine" unicode="&#xaa;" horiz-adv-x="380" 
d="M347 391c-46 -7.33301 -79.3359 -11 -100.003 -11s-41.167 1 -61.5 3s-38.166 7.66699 -53.499 17s-28.166 24 -38.499 44s-15.5 45 -15.5 75c0 54.667 20.667 89.667 62 105c12 4.66699 25 7 39 7c33.333 0 72 -13 116 -39c0 21.333 -9.16699 39 -27.5 53
s-48.166 21 -89.499 21l3 43c65.333 0 109.333 -12.5 132 -37.5s34 -63.833 34 -116.5v-164zM294.997 435v108c-48.667 27.333 -87 41 -115 41c-36.667 0 -55 -23.667 -55 -71c0 -40 16.333 -66.333 49 -79c16 -6.66699 34 -10 54 -10s42.333 3.66699 67 11z" />
    <glyph glyph-name="guillemotleft" unicode="&#xab;" horiz-adv-x="488" 
d="M264 114l-35 -34l-187 187v1l187 187l37 -38l-150 -150zM484 114l-35 -34l-187 187v1l187 187l37 -38l-150 -150z" />
    <glyph glyph-name="uni00AD" unicode="&#xad;" horiz-adv-x="410" 
d="M365 358h-320v55h320v-55z" />
    <glyph glyph-name="registered" unicode="&#xae;" horiz-adv-x="800" 
d="M587 39h-67l-119 190h-81v-190h-56v437h160c50 0 88 -11.333 114 -34s39 -52.167 39 -88.5s-10.5 -64.333 -31.5 -84s-48.833 -31.5 -83.5 -35.5zM320 282h73.999c62.667 0 101.334 10.667 116.001 32c6.66699 10 10 23.333 10 40c0 26 -10.667 44.333 -32 55
s-46.333 16 -75 16h-93v-143zM664.999 -19c-72.667 -72 -160.833 -108 -264.5 -108s-192.167 36 -265.5 108s-110 161 -110 267s36.333 194.667 109 266s161.5 107 266.5 107s193.5 -35.667 265.5 -107s108 -160 108 -266s-36.333 -195 -109 -267zM175.5 18
c61 -60 135.834 -90.001 224.501 -90.001s163.5 30.167 224.5 90.5s91.5 135.833 91.5 226.5s-30.833 166.834 -92.5 228.501s-136.334 92.5 -224.001 92.5s-162.167 -29.833 -223.5 -89.5s-92 -136 -92 -229s30.5 -169.5 91.5 -229.5z" />
    <glyph glyph-name="macron" unicode="&#xaf;" horiz-adv-x="332" 
d="M299 619h-221v58h221v-58z" />
    <glyph glyph-name="degree" unicode="&#xb0;" horiz-adv-x="399" 
d="M222 421c-40 0 -74 14 -102 42s-42 62 -42 102s14 74 42 102s62 42 102 42s74 -14 102 -42s42 -62 42 -102s-14 -74 -42 -102s-62 -42 -102 -42zM316 565c0 24.667 -8.66699 46.5 -26 65.5s-40 28.5 -68 28.5s-50.667 -9.5 -68 -28.5s-26 -40.833 -26 -65.5
s8.66699 -46.5 26 -65.5s40 -28.5 68 -28.5s50.667 9.5 68 28.5s26 40.833 26 65.5z" />
    <glyph glyph-name="plusminus" unicode="&#xb1;" horiz-adv-x="431" 
d="M398 237h-320v55h133v66h-133v55h133v132h55v-132h132v-55h-132v-66h132v-55z" />
    <glyph glyph-name="acute" unicode="&#xb4;" horiz-adv-x="222" 
d="M90 588h-44l51 118c7.33301 15.333 18 23 32 23c18 0 29 -7.66699 33 -23c1.33301 -4 2 -8.33301 2 -13s-1.66699 -9 -5 -13z" />
    <glyph glyph-name="mu" unicode="&#xb5;" horiz-adv-x="478" 
d="M444 27l-27.001 -33c-17.333 0 -32 10.333 -44 31c-24.667 -24.667 -62 -37 -112 -37c-50.667 0 -101 13.667 -151 41c-9.33301 5.33301 -14.666 8.33301 -15.999 9v-248l-57 9v702h57v-396c16 -16 38.667 -30.333 68 -43c33.333 -14.667 65 -22 95 -22
c68.667 0 103 37.667 103 113v345l57 12v-441c2 -18.667 11 -32.667 27 -42z" />
    <glyph glyph-name="paragraph" unicode="&#xb6;" horiz-adv-x="669" 
d="M636 -199h-56.002v897l-68 1v-897h-56v444h-201c-44.667 0 -78.667 8.66699 -102 26c-12 9.33301 -22.5 18.833 -31.5 28.5s-16 22.5 -21 38.5s-9.16699 30 -12.5 42s-5.66602 28 -6.99902 48c-2 30 -3 61.667 -3 95c0 66.667 15.333 121 46 163s77.334 63 140.001 63
h372v-949z" />
    <glyph glyph-name="cedilla" unicode="&#xb8;" horiz-adv-x="249" 
d="M76 -191l23.999 53c24.667 -16.667 48 -25 70 -25c46.667 0 70 14 70 42c0 14.667 -6.66699 25.334 -20 32.001c-6 2.66699 -13.667 4 -23 4s-20.666 -2.33301 -33.999 -7l-34 -14l-17 28l61 78h42l-40 -53c6 4 19.167 6 39.5 6s38.333 -6.5 54 -19.5
s23.5 -33.333 23.5 -61s-12.333 -48.334 -37 -62.001s-52 -20.5 -82 -20.5s-62.333 6.33301 -97 19z" />
    <glyph glyph-name="guillemotright" unicode="&#xbb;" horiz-adv-x="512" 
d="M260 80l-35 34l148 153l-150 150l37 38l187 -187v-1zM40 80l-35 34l148 153l-150 150l37 38l187 -187v-1z" />
    <glyph glyph-name="questiondown" unicode="&#xbf;" horiz-adv-x="466" 
d="M377 177l55.998 -0.00195312c0 -50 -15.5 -92 -46.5 -126s-74.833 -51 -131.5 -51c-34.667 0 -66 8.66699 -94 26c-54.667 34.667 -82 83.334 -82 146.001c0 41.333 12.333 80 37 116c12.667 18 28 36.167 46 54.5s31.833 32.833 41.5 43.5s18.334 27.834 26.001 51.501
s11.834 53.5 12.501 89.5v63h51v-93c0 -30.667 -4.5 -58.167 -13.5 -82.5s-18.833 -43 -29.5 -56s-24.5 -28.333 -41.5 -46s-29.5 -32.167 -37.5 -43.5c-22 -34 -33 -65.667 -33 -95c0 -35.333 11.833 -64.333 35.5 -87s51.667 -34 84 -34s60.333 10.5 84 31.5
s35.5 51.833 35.5 92.5zM267.998 642.998c-9.33301 0 -17.166 3.16699 -23.499 9.5s-9.5 14.166 -9.5 23.499s3.16699 17.166 9.5 23.499s14.166 9.5 23.499 9.5s17.166 -3.16699 23.499 -9.5s9.5 -14.166 9.5 -23.499s-3.16699 -17.166 -9.5 -23.499
s-14.166 -9.5 -23.499 -9.5z" />
    <glyph glyph-name="Agrave" unicode="&#xc0;" horiz-adv-x="527" 
d="M517 0h-60l-80 245h-228l-78 -245h-59l224 700h53zM362 300l-100 313l-97 -313h197zM274 733h-44l-69 92c-3.33301 4 -5 8.33301 -5 13c0 18 7.33301 29.333 22 34c4.66699 1.33301 9 2 13 2c14 0 24.667 -7.66699 32 -23z" />
    <glyph glyph-name="Aacute" unicode="&#xc1;" horiz-adv-x="527" 
d="M517 0h-60l-80 245h-228l-78 -245h-59l224 700h53zM362 300l-100 313l-97 -313h197zM286 731h-44l51 118c7.33301 15.333 18 23 32 23c18 0 29 -7.66699 33 -23c1.33301 -4 2 -8.33301 2 -13s-1.66699 -9 -5 -13z" />
    <glyph glyph-name="Acircumflex" unicode="&#xc2;" horiz-adv-x="527" 
d="M517 0h-60l-80 245h-228l-78 -245h-59l224 700h53zM362 300l-100 313l-97 -313h197zM370 733l-105 104l-109 -104l-38 39l148 141l142 -141z" />
    <glyph glyph-name="Atilde" unicode="&#xc3;" horiz-adv-x="527" 
d="M517 0h-60l-80 245h-228l-78 -245h-59l224 700h53zM362 300l-100 313l-97 -313h197zM335 785c26 0 49.335 11.667 70.002 35l25 -39c-30 -35.333 -62 -53 -96 -53c-12 0 -25.5 3.16699 -40.5 9.5l-47.5 21c-16.667 7.66699 -33.334 11.5 -50.001 11.5
c-27.333 0 -52.333 -12 -75 -36l-25 39c31.333 35.333 64.666 53 99.999 53c12 0 25.5 -3 40.5 -9s31 -12.833 48 -20.5s33.833 -11.5 50.5 -11.5z" />
    <glyph glyph-name="Adieresis" unicode="&#xc4;" horiz-adv-x="527" 
d="M517 0h-60l-80 245h-228l-78 -245h-59l224 700h53zM362 300l-100 313l-97 -313h197zM184 731c-9.33301 0 -17.166 3.16699 -23.499 9.5s-9.5 14.166 -9.5 23.499s3.16699 17.166 9.5 23.499s14.166 9.5 23.499 9.5s17.166 -3.16699 23.499 -9.5s9.5 -14.166 9.5 -23.499
s-3.16699 -17.166 -9.5 -23.499s-14.166 -9.5 -23.499 -9.5zM340 731c-9.33301 0 -17.166 3.16699 -23.499 9.5s-9.5 14.166 -9.5 23.499s3.16699 17.166 9.5 23.499s14.166 9.5 23.499 9.5s17.166 -3.16699 23.499 -9.5s9.5 -14.166 9.5 -23.499
s-3.16699 -17.166 -9.5 -23.499s-14.166 -9.5 -23.499 -9.5z" />
    <glyph glyph-name="Aring" unicode="&#xc5;" horiz-adv-x="527" 
d="M517 0l-60 0.000976562l-80 245h-228l-78 -245h-59l212 664c-22 8 -39.833 21.667 -53.5 41s-20.5 42.666 -20.5 69.999s11 52.166 33 74.499s48.667 33.5 80 33.5s58 -11.167 80 -33.5s33 -47.166 33 -74.499s-7 -50.833 -21 -70.5s-32 -33.167 -54 -40.5zM362 300.001
l-100 313l-97 -313h197zM331 770.001c0 18.667 -6.5 34.667 -19.5 48s-29.167 20 -48.5 20s-35.5 -6.66699 -48.5 -20s-19.5 -29.333 -19.5 -48s6.5 -34.667 19.5 -48s29.167 -20 48.5 -20s35.5 6.66699 48.5 20s19.5 29.333 19.5 48z" />
    <glyph glyph-name="AE" unicode="&#xc6;" horiz-adv-x="812" 
d="M777 0h-333l1 245h-180l-128 -245h-59l366 700h335v-52h-278v-235h191l-19 -55h-172v-308h276v-50zM445 300v290l-152 -290h152z" />
    <glyph glyph-name="Ccedilla" unicode="&#xc7;" horiz-adv-x="436" 
d="M415 70l12.001 -47.001c-54.667 -20.667 -108.334 -31.667 -161.001 -33l-32 -43c6 4 19.167 6 39.5 6s38.333 -6.5 54 -19.5s23.5 -33.333 23.5 -61s-12.333 -48.334 -37 -62.001s-52 -20.5 -82 -20.5s-62.333 6.33301 -97 19l24 53c24.667 -16.667 47.667 -25 69 -25
c47.333 0 71 14 71 42c0 14.667 -7 25.334 -21 32.001c-5.33301 2.66699 -12.666 4 -21.999 4s-20.666 -2.33301 -33.999 -7l-34 -14l-17 28l54 70c-48 5.33301 -86.5 23.333 -115.5 54s-43.5 76.334 -43.5 137.001v321c0 50.667 7.16699 89 21.5 115s36.166 48 65.499 66
c30 16.667 65.667 25 107 25c51.333 0 98.666 -11 141.999 -33l-16 -38c-38 14 -74 21 -108 21c-104 0 -156 -49 -156 -147v-328c0 -87.333 42.333 -135 127 -143c6.66699 -1.33301 13.667 -2 21 -2c40 0 88.333 10 145 30z" />
    <glyph glyph-name="Egrave" unicode="&#xc8;" horiz-adv-x="465" 
d="M410 0h-332v700h334v-52h-278v-235h191l-19 -55h-172v-308h276v-50zM268 732h-44l-69 92c-3.33301 4 -5 8.33301 -5 13c0 18 7.33301 29.333 22 34c4.66699 1.33301 9 2 13 2c14 0 24.667 -7.66699 32 -23z" />
    <glyph glyph-name="Eacute" unicode="&#xc9;" horiz-adv-x="465" 
d="M410 0h-332v700h334v-52h-278v-235h191l-19 -55h-172v-308h276v-50zM281 730h-44l51 118c7.33301 15.333 18 23 32 23c18 0 29.333 -7.66699 34 -23c0.666992 -4 1 -8.33301 1 -13s-1.66699 -9 -5 -13z" />
    <glyph glyph-name="Ecircumflex" unicode="&#xca;" horiz-adv-x="465" 
d="M410 0h-332v700h334v-52h-278v-235h191l-19 -55h-172v-308h276v-50zM353 733l-105 104l-109 -104l-38 39l148 141l142 -141z" />
    <glyph glyph-name="Edieresis" unicode="&#xcb;" horiz-adv-x="465" 
d="M410 0h-332v700h334v-52h-278v-235h191l-19 -55h-172v-308h276v-50zM164 731c-9.33301 0 -17.166 3.16699 -23.499 9.5s-9.5 14.166 -9.5 23.499s3.16699 17.166 9.5 23.499s14.166 9.5 23.499 9.5s17.166 -3.16699 23.499 -9.5s9.5 -14.166 9.5 -23.499
s-3.16699 -17.166 -9.5 -23.499s-14.166 -9.5 -23.499 -9.5zM320 731c-9.33301 0 -17.166 3.16699 -23.499 9.5s-9.5 14.166 -9.5 23.499s3.16699 17.166 9.5 23.499s14.166 9.5 23.499 9.5s17.166 -3.16699 23.499 -9.5s9.5 -14.166 9.5 -23.499
s-3.16699 -17.166 -9.5 -23.499s-14.166 -9.5 -23.499 -9.5z" />
    <glyph glyph-name="Igrave" unicode="&#xcc;" horiz-adv-x="290" 
d="M210 0h-56v649l-67 2v49h123v-700zM196 732h-44l-69 92c-3.33301 4 -5 8.33301 -5 13c0 18 7.33301 29.333 22 34c4.66699 1.33301 9 2 13 2c14 0 24.667 -7.66699 32 -23z" />
    <glyph glyph-name="Iacute" unicode="&#xcd;" horiz-adv-x="350" 
d="M201 0h-56v649l-67 2v49h123v-700zM196 730h-44l51 118c7.33301 15.333 18 23 32 23c18 0 29 -7.66699 33 -23c1.33301 -4 2 -8.33301 2 -13s-1.66699 -9 -5 -13z" />
    <glyph glyph-name="Icircumflex" unicode="&#xce;" horiz-adv-x="448" 
d="M263 0h-56v649l-67 2v49h123v-700zM330 733l-105 104l-109 -104l-38 39l148 141l142 -141z" />
    <glyph glyph-name="Idieresis" unicode="&#xcf;" horiz-adv-x="380" 
d="M226 0h-56v649l-67 2v49h123v-700zM111 729c-8.66699 0 -16.334 3.16699 -23.001 9.5s-10 14.166 -10 23.499s3.33301 17.166 10 23.499s14.334 9.5 23.001 9.5s16.334 -3.16699 23.001 -9.5s10 -14.166 10 -23.499s-3.33301 -17.166 -10 -23.499
s-14.334 -9.5 -23.001 -9.5zM267 729c-8.66699 0 -16.334 3.16699 -23.001 9.5s-10 14.166 -10 23.499s3.33301 17.166 10 23.499s14.334 9.5 23.001 9.5s16.334 -3.16699 23.001 -9.5s10 -14.166 10 -23.499s-3.33301 -17.166 -10 -23.499s-14.334 -9.5 -23.001 -9.5z" />
    <glyph glyph-name="Eth" unicode="&#xd0;" horiz-adv-x="638" 
d="M335 0h-207.999v483h-49v55h49v163h188c62 0 112.167 -14.667 150.5 -44s63.166 -69 74.499 -119h65v-55h-58v-283c0 -133.333 -70.667 -200 -212 -200zM491.001 190v293h-308v-433h136c114.667 0 172 46.667 172 140zM325.001 650h-142v-112h301
c-10.667 37.333 -31.167 65.333 -61.5 84s-62.833 28 -97.5 28z" />
    <glyph glyph-name="Ntilde" unicode="&#xd1;" horiz-adv-x="650" 
d="M570 0h-56l-380 597v-597h-56v700h56l380 -597v597h56v-700zM397 785c26 0 49.335 11.667 70.002 35l25 -39c-30 -35.333 -62 -53 -96 -53c-12 0 -25.5 3.16699 -40.5 9.5l-47.5 21c-16.667 7.66699 -33.334 11.5 -50.001 11.5c-27.333 0 -52.333 -12 -75 -36l-25 39
c31.333 35.333 64.666 53 99.999 53c12 0 25.5 -3 40.5 -9s31 -12.833 48 -20.5s33.833 -11.5 50.5 -11.5z" />
    <glyph glyph-name="Ograve" unicode="&#xd2;" horiz-adv-x="549" 
d="M483 506v-321.001c0 -67.333 -20.5 -116.833 -61.5 -148.5s-90.167 -47.5 -147.5 -47.5s-106.833 15.833 -148.5 47.5s-62.5 81.167 -62.5 148.5v322c0 68.667 18.833 120.667 56.5 156s89.5 53 155.5 53s117.167 -18.667 153.5 -56s54.5 -88.666 54.5 -153.999z
M428 186.999v328.999c0 48.667 -14.167 85.334 -42.5 110.001s-65.833 37 -112.5 37s-84 -12.333 -112 -37s-42 -61.334 -42 -110.001v-330c0 -47.333 14.5 -83.166 43.5 -107.499s66 -36.5 111 -36.5s82 11.833 111 35.5s43.5 60.167 43.5 109.5zM290 731.998h-44l-69 92
c-3.33301 4 -5 8.33301 -5 13c0 18 7.33301 29.333 22 34c4.66699 1.33301 9 2 13 2c14 0 24.667 -7.66699 32 -23z" />
    <glyph glyph-name="Oacute" unicode="&#xd3;" horiz-adv-x="549" 
d="M483 506v-321.001c0 -67.333 -20.5 -116.833 -61.5 -148.5s-90.167 -47.5 -147.5 -47.5s-106.833 15.833 -148.5 47.5s-62.5 81.167 -62.5 148.5v322c0 68.667 18.833 120.667 56.5 156s89.5 53 155.5 53s117.167 -18.667 153.5 -56s54.5 -88.666 54.5 -153.999z
M428 186.999v328.999c0 48.667 -14.167 85.334 -42.5 110.001s-65.833 37 -112.5 37s-84 -12.333 -112 -37s-42 -61.334 -42 -110.001v-330c0 -47.333 14.5 -83.166 43.5 -107.499s66 -36.5 111 -36.5s82 11.833 111 35.5s43.5 60.167 43.5 109.5zM301 729.998h-44l51 118
c7.33301 15.333 18 23 32 23c18 0 29.333 -7.66699 34 -23c0.666992 -4 1 -8.33301 1 -13s-1.66699 -9 -5 -13z" />
    <glyph glyph-name="Ocircumflex" unicode="&#xd4;" horiz-adv-x="549" 
d="M483 506v-321.001c0 -67.333 -20.5 -116.833 -61.5 -148.5s-90.167 -47.5 -147.5 -47.5s-106.833 15.833 -148.5 47.5s-62.5 81.167 -62.5 148.5v322c0 68.667 18.833 120.667 56.5 156s89.5 53 155.5 53s117.167 -18.667 153.5 -56s54.5 -88.666 54.5 -153.999z
M428 186.999v328.999c0 48.667 -14.167 85.334 -42.5 110.001s-65.833 37 -112.5 37s-84 -12.333 -112 -37s-42 -61.334 -42 -110.001v-330c0 -47.333 14.5 -83.166 43.5 -107.499s66 -36.5 111 -36.5s82 11.833 111 35.5s43.5 60.167 43.5 109.5zM384 732.998l-105 104
l-109 -104l-38 39l148 141l142 -141z" />
    <glyph glyph-name="Otilde" unicode="&#xd5;" horiz-adv-x="549" 
d="M483 506v-321.001c0 -67.333 -20.5 -116.833 -61.5 -148.5s-90.167 -47.5 -147.5 -47.5s-106.833 15.833 -148.5 47.5s-62.5 81.167 -62.5 148.5v322c0 68.667 18.833 120.667 56.5 156s89.5 53 155.5 53s117.167 -18.667 153.5 -56s54.5 -88.666 54.5 -153.999z
M428 186.999v328.999c0 48.667 -14.167 85.334 -42.5 110.001s-65.833 37 -112.5 37s-84 -12.333 -112 -37s-42 -61.334 -42 -110.001v-330c0 -47.333 14.5 -83.166 43.5 -107.499s66 -36.5 111 -36.5s82 11.833 111 35.5s43.5 60.167 43.5 109.5zM350 784.998
c26 0 49.335 11.667 70.002 35l25 -39c-30 -35.333 -62 -53 -96 -53c-12 0 -25.5 3.16699 -40.5 9.5l-47.5 21c-16.667 7.66699 -33.334 11.5 -50.001 11.5c-27.333 0 -52.333 -12 -75 -36l-25 39c31.333 35.333 64.666 53 99.999 53c12 0 25.5 -3 40.5 -9
s31 -12.833 48 -20.5s33.833 -11.5 50.5 -11.5z" />
    <glyph glyph-name="Odieresis" unicode="&#xd6;" horiz-adv-x="549" 
d="M483 506v-321.001c0 -67.333 -20.5 -116.833 -61.5 -148.5s-90.167 -47.5 -147.5 -47.5s-106.833 15.833 -148.5 47.5s-62.5 81.167 -62.5 148.5v322c0 68.667 18.833 120.667 56.5 156s89.5 53 155.5 53s117.167 -18.667 153.5 -56s54.5 -88.666 54.5 -153.999z
M428 186.999v328.999c0 48.667 -14.167 85.334 -42.5 110.001s-65.833 37 -112.5 37s-84 -12.333 -112 -37s-42 -61.334 -42 -110.001v-330c0 -47.333 14.5 -83.166 43.5 -107.499s66 -36.5 111 -36.5s82 11.833 111 35.5s43.5 60.167 43.5 109.5zM193 730.998
c-8.66699 0 -16.334 3.16699 -23.001 9.5s-10 14.166 -10 23.499s3.33301 17.166 10 23.499s14.334 9.5 23.001 9.5s16.334 -3.16699 23.001 -9.5s10 -14.166 10 -23.499s-3.33301 -17.166 -10 -23.499s-14.334 -9.5 -23.001 -9.5zM349 730.998
c-8.66699 0 -16.334 3.16699 -23.001 9.5s-10 14.166 -10 23.499s3.33301 17.166 10 23.499s14.334 9.5 23.001 9.5s16.334 -3.16699 23.001 -9.5s10 -14.166 10 -23.499s-3.33301 -17.166 -10 -23.499s-14.334 -9.5 -23.001 -9.5z" />
    <glyph glyph-name="multiply" unicode="&#xd7;" horiz-adv-x="395" 
d="M362 205l-42 -37l-100 122l-100 -122l-42 37l106 128l-106 129l41 35l101 -122l101 122l41 -35l-107 -129z" />
    <glyph glyph-name="Oslash" unicode="&#xd8;" horiz-adv-x="531" 
d="M161 -114h-61l50 143c-48 35.333 -72 87.333 -72 156v322c0 68.667 18.833 120.667 56.5 156s89.5 53 155.5 53c33.333 0 64.333 -5.33301 93 -16l41 117h57l-50 -146c44.667 -36.667 67 -91.667 67 -165v-321c0 -67.333 -20.5 -116.833 -61.5 -148.5
s-90.167 -47.5 -147.5 -47.5c-32.667 0 -62 4.66699 -88 14zM169 86l196 562.001c-22 10 -47.667 15 -77 15c-46.667 0 -84 -12.333 -112 -37s-42 -61.334 -42 -110.001v-330c0 -42 11.667 -75.333 35 -100zM443 187.001v328.999c0 40.667 -10.667 73.334 -32 98.001
l-193 -560c20.667 -8 44 -12 70 -12c45.333 0 82.5 11.833 111.5 35.5s43.5 60.167 43.5 109.5z" />
    <glyph glyph-name="Ugrave" unicode="&#xd9;" horiz-adv-x="566" 
d="M439 178l0.000976562 523h56v-515c0 -35.333 -6.16699 -66 -18.5 -92s-29 -46 -50 -60s-43.167 -24.333 -66.5 -31s-48.333 -10 -75 -10s-51.834 3.33301 -75.501 10s-46 17 -67 31s-37.667 34 -50 60s-18.5 56.667 -18.5 92v515h56v-523
c0 -40.667 14.833 -73.334 44.5 -98.001s66.167 -37 109.5 -37s80 12.333 110 37s45 57.334 45 98.001zM306.001 732h-44l-69 92c-3.33301 4 -5 8.33301 -5 13c0 18 7.33301 29.333 22 34c4.66699 1.33301 9 2 13 2c14 0 24.667 -7.66699 32 -23z" />
    <glyph glyph-name="Uacute" unicode="&#xda;" horiz-adv-x="566" 
d="M439 178l0.000976562 523h56v-515c0 -35.333 -6.16699 -66 -18.5 -92s-29 -46 -50 -60s-43.167 -24.333 -66.5 -31s-48.333 -10 -75 -10s-51.834 3.33301 -75.501 10s-46 17 -67 31s-37.667 34 -50 60s-18.5 56.667 -18.5 92v515h56v-523
c0 -40.667 14.833 -73.334 44.5 -98.001s66.167 -37 109.5 -37s80 12.333 110 37s45 57.334 45 98.001zM306.001 731h-44l51 118c7.33301 15.333 18 23 32 23c18 0 29 -7.66699 33 -23c1.33301 -4 2 -8.33301 2 -13s-1.66699 -9 -5 -13z" />
    <glyph glyph-name="Ucircumflex" unicode="&#xdb;" horiz-adv-x="566" 
d="M439 178l0.000976562 523h56v-515c0 -35.333 -6.16699 -66 -18.5 -92s-29 -46 -50 -60s-43.167 -24.333 -66.5 -31s-48.333 -10 -75 -10s-51.834 3.33301 -75.501 10s-46 17 -67 31s-37.667 34 -50 60s-18.5 56.667 -18.5 92v515h56v-523
c0 -40.667 14.833 -73.334 44.5 -98.001s66.167 -37 109.5 -37s80 12.333 110 37s45 57.334 45 98.001zM393.001 733l-105 104l-109 -104l-38 39l148 141l142 -141z" />
    <glyph glyph-name="Udieresis" unicode="&#xdc;" horiz-adv-x="566" 
d="M439 178l0.000976562 523h56v-515c0 -35.333 -6.16699 -66 -18.5 -92s-29 -46 -50 -60s-43.167 -24.333 -66.5 -31s-48.333 -10 -75 -10s-51.834 3.33301 -75.501 10s-46 17 -67 31s-37.667 34 -50 60s-18.5 56.667 -18.5 92v515h56v-523
c0 -40.667 14.833 -73.334 44.5 -98.001s66.167 -37 109.5 -37s80 12.333 110 37s45 57.334 45 98.001zM205.001 731c-8.66699 0 -16.334 3.16699 -23.001 9.5s-10 14.166 -10 23.499s3.33301 17.166 10 23.499s14.334 9.5 23.001 9.5s16.334 -3.16699 23.001 -9.5
s10 -14.166 10 -23.499s-3.33301 -17.166 -10 -23.499s-14.334 -9.5 -23.001 -9.5zM361.001 731c-8.66699 0 -16.334 3.16699 -23.001 9.5s-10 14.166 -10 23.499s3.33301 17.166 10 23.499s14.334 9.5 23.001 9.5s16.334 -3.16699 23.001 -9.5s10 -14.166 10 -23.499
s-3.33301 -17.166 -10 -23.499s-14.334 -9.5 -23.001 -9.5z" />
    <glyph glyph-name="Yacute" unicode="&#xdd;" horiz-adv-x="560" 
d="M399 -7l-12.999 37.002c40.667 15.333 61 56 61 122v142c-18 -16 -42 -28.167 -72 -36.5s-58.667 -12.5 -86 -12.5c-70.667 0 -126.5 17.5 -167.5 52.5s-61.5 86.833 -61.5 155.5v247h56v-257c0 -46.667 16 -82.167 48 -106.5s70.667 -36.5 116 -36.5
s82.666 8.33301 111.999 25s47.666 41.667 54.999 75v300h57v-544c0 -48.667 -9.16699 -86.834 -27.5 -114.501s-44.166 -43.834 -77.499 -48.501zM306.001 731.002h-44l51 118c7.33301 15.333 18 23 32 23c18 0 29 -7.66699 33 -23c1.33301 -4 2 -8.33301 2 -13
s-1.66699 -9 -5 -13z" />
    <glyph glyph-name="Thorn" unicode="&#xde;" horiz-adv-x="488" 
d="M134 0l-56.001 0.000976562v700h56v-245c35.333 36 81.5 54 138.5 54s101.667 -18 134 -54s48.5 -84 48.5 -144s-17.167 -107.5 -51.5 -142.5s-79.166 -52.5 -134.499 -52.5c-24.667 0 -50 6.16699 -76 18.5s-45.667 29.166 -59 50.499v-185zM133.999 324.001
c0 -51.333 12.335 -89.833 37.002 -115.5s56.667 -38.5 96 -38.5s71.166 12 95.499 36s36.5 61 36.5 111s-12.833 86 -38.5 108s-56.334 33 -92.001 33s-66.5 -10.833 -92.5 -32.5s-40 -55.5 -42 -101.5z" />
    <glyph glyph-name="germandbls" unicode="&#xdf;" horiz-adv-x="511" 
d="M112.5 657.5c23 29 56.167 43.502 99.5 43.502s76 -13.833 98 -41.5s33 -59.5 33 -95.5s-12.333 -65 -37 -87h-30c-11.333 -19.333 -12.333 -37.833 -3 -55.5s21.5 -33.334 36.5 -47.001l37.5 -33.5c28.667 -24.667 50.667 -45.334 66 -62.001
c42.667 -45.333 64 -91.333 64 -138c0 -22.667 -4.66699 -45.334 -14 -68.001c-14.667 -34 -40.667 -57.667 -78 -71c-24 -8.66699 -45.667 -13 -65 -13c-60.667 0 -110 16 -148 48l29 48c28 -27.333 63.333 -41 106 -41c50.667 0 84 16.667 100 50
c8 16.667 12 33.334 12 50.001c0 33.333 -16 66.333 -48 99c-24 24 -47.667 46 -71 66c-42.667 35.333 -70 67 -82 95c-4.66699 12.667 -7 28 -7 46s5.66699 37 17 57c27.333 0 45.333 11.667 54 35c4 9.33301 6 19.833 6 31.5s-4 24.5 -12 38.5
c-12.667 23.333 -32 35 -58 35c-55.333 0 -83 -35.333 -83 -106v-541h-57v537c0 51.333 11.5 91.5 34.5 120.5z" />
    <glyph glyph-name="agrave" unicode="&#xe0;" horiz-adv-x="496" 
d="M297 -10c-146 0 -219.001 59.6641 -219.001 178.997v83c0 66 23 110.333 69 133c24 11.333 47.667 17 71 17c78.667 0 141.667 -18.667 189 -56c0 36.667 -10.667 65.834 -32 87.501s-62.333 32.5 -123 32.5l3 43c54 0 94 -6.33301 120 -19
c14 -7.33301 26.333 -14.666 37 -21.999s19 -17 25 -29s11 -22.5 15 -31.5s6.66699 -21.167 8 -36.5c2 -23.333 3 -47.666 3 -72.999v-298c-69.333 -6.66699 -124.666 -10 -165.999 -10zM406.999 45.9971l-0.000976562 257c-55.333 26.667 -111.666 42.334 -168.999 47.001
c-4.66699 0.666992 -9 1 -13 1c-25.333 0 -47 -7.83301 -65 -23.5s-27 -41.834 -27 -78.501v-87c0 -55.333 24 -91.333 72 -108c28 -10 59.667 -15 95 -15s71 2.33301 107 7zM289.998 539.997h-44l-69 92c-3.33301 4 -5 8.33301 -5 13c0 18 7.33301 29.333 22 34
c4.66699 1.33301 9 2 13 2c14 0 24.667 -7.66699 32 -23z" />
    <glyph glyph-name="aacute" unicode="&#xe1;" horiz-adv-x="496" 
d="M297 -10c-146 0 -219.001 59.6641 -219.001 178.997v83c0 66 23 110.333 69 133c24 11.333 47.667 17 71 17c78.667 0 141.667 -18.667 189 -56c0 36.667 -10.667 65.834 -32 87.501s-62.333 32.5 -123 32.5l3 43c54 0 94 -6.33301 120 -19
c14 -7.33301 26.333 -14.666 37 -21.999s19 -17 25 -29s11 -22.5 15 -31.5s6.66699 -21.167 8 -36.5c2 -23.333 3 -47.666 3 -72.999v-298c-69.333 -6.66699 -124.666 -10 -165.999 -10zM406.999 45.9971l-0.000976562 257c-55.333 26.667 -111.666 42.334 -168.999 47.001
c-4.66699 0.666992 -9 1 -13 1c-25.333 0 -47 -7.83301 -65 -23.5s-27 -41.834 -27 -78.501v-87c0 -55.333 24 -91.333 72 -108c28 -10 59.667 -15 95 -15s71 2.33301 107 7zM301.998 537.997h-44l51 118c7.33301 15.333 18 23 32 23c18 0 29 -7.66699 33 -23
c1.33301 -4 2 -8.33301 2 -13s-1.66699 -9 -5 -13z" />
    <glyph glyph-name="acircumflex" unicode="&#xe2;" horiz-adv-x="496" 
d="M297 -10c-146 0 -219.001 59.6641 -219.001 178.997v83c0 66 23 110.333 69 133c24 11.333 47.667 17 71 17c78.667 0 141.667 -18.667 189 -56c0 36.667 -10.667 65.834 -32 87.501s-62.333 32.5 -123 32.5l3 43c54 0 94 -6.33301 120 -19
c14 -7.33301 26.333 -14.666 37 -21.999s19 -17 25 -29s11 -22.5 15 -31.5s6.66699 -21.167 8 -36.5c2 -23.333 3 -47.666 3 -72.999v-298c-69.333 -6.66699 -124.666 -10 -165.999 -10zM406.999 45.9971l-0.000976562 257c-55.333 26.667 -111.666 42.334 -168.999 47.001
c-4.66699 0.666992 -9 1 -13 1c-25.333 0 -47 -7.83301 -65 -23.5s-27 -41.834 -27 -78.501v-87c0 -55.333 24 -91.333 72 -108c28 -10 59.667 -15 95 -15s71 2.33301 107 7zM385.998 539.997l-105 104l-109 -104l-38 39l148 141l142 -141z" />
    <glyph glyph-name="atilde" unicode="&#xe3;" horiz-adv-x="496" 
d="M297 -10c-146 0 -219.001 59.6641 -219.001 178.997v83c0 66 23 110.333 69 133c24 11.333 47.667 17 71 17c78.667 0 141.667 -18.667 189 -56c0 36.667 -10.667 65.834 -32 87.501s-62.333 32.5 -123 32.5l3 43c54 0 94 -6.33301 120 -19
c14 -7.33301 26.333 -14.666 37 -21.999s19 -17 25 -29s11 -22.5 15 -31.5s6.66699 -21.167 8 -36.5c2 -23.333 3 -47.666 3 -72.999v-298c-69.333 -6.66699 -124.666 -10 -165.999 -10zM406.999 45.9971l-0.000976562 257c-55.333 26.667 -111.666 42.334 -168.999 47.001
c-4.66699 0.666992 -9 1 -13 1c-25.333 0 -47 -7.83301 -65 -23.5s-27 -41.834 -27 -78.501v-87c0 -55.333 24 -91.333 72 -108c28 -10 59.667 -15 95 -15s71 2.33301 107 7zM341.998 596.997c26 0 49.335 11.667 70.002 35l25 -39c-30 -35.333 -62 -53 -96 -53
c-12 0 -25.5 3.16699 -40.5 9.5l-47.5 21c-16.667 7.66699 -33.334 11.5 -50.001 11.5c-27.333 0 -52.333 -12 -75 -36l-25 39c31.333 35.333 64.666 53 99.999 53c12 0 25.5 -3 40.5 -9s31 -12.833 48 -20.5s33.833 -11.5 50.5 -11.5z" />
    <glyph glyph-name="adieresis" unicode="&#xe4;" horiz-adv-x="496" 
d="M297 -10c-146 0 -219.001 59.6641 -219.001 178.997v83c0 66 23 110.333 69 133c24 11.333 47.667 17 71 17c78.667 0 141.667 -18.667 189 -56c0 36.667 -10.667 65.834 -32 87.501s-62.333 32.5 -123 32.5l3 43c54 0 94 -6.33301 120 -19
c14 -7.33301 26.333 -14.666 37 -21.999s19 -17 25 -29s11 -22.5 15 -31.5s6.66699 -21.167 8 -36.5c2 -23.333 3 -47.666 3 -72.999v-298c-69.333 -6.66699 -124.666 -10 -165.999 -10zM406.999 45.9971l-0.000976562 257c-55.333 26.667 -111.666 42.334 -168.999 47.001
c-4.66699 0.666992 -9 1 -13 1c-25.333 0 -47 -7.83301 -65 -23.5s-27 -41.834 -27 -78.501v-87c0 -55.333 24 -91.333 72 -108c28 -10 59.667 -15 95 -15s71 2.33301 107 7zM202.998 538.997c-8.66699 0 -16.334 3.16699 -23.001 9.5s-10 14.166 -10 23.499
s3.33301 17.166 10 23.499s14.334 9.5 23.001 9.5s16.334 -3.16699 23.001 -9.5s10 -14.166 10 -23.499s-3.33301 -17.166 -10 -23.499s-14.334 -9.5 -23.001 -9.5zM358.998 538.997c-8.66699 0 -16.334 3.16699 -23.001 9.5s-10 14.166 -10 23.499
s3.33301 17.166 10 23.499s14.334 9.5 23.001 9.5s16.334 -3.16699 23.001 -9.5s10 -14.166 10 -23.499s-3.33301 -17.166 -10 -23.499s-14.334 -9.5 -23.001 -9.5z" />
    <glyph glyph-name="aring" unicode="&#xe5;" horiz-adv-x="496" 
d="M261 466l-9.00098 -0.000976562c-29.333 2.66699 -54 14.834 -74 36.501s-30 47.667 -30 78s11 56.5 33 78.5s48.667 33 80 33s58 -11 80 -33s33 -48.5 33 -79.5s-11 -57.5 -33 -79.5c41.333 -10 70 -26 86 -48c8.66699 -12 15.667 -23 21 -33s9 -23.333 11 -40
c2.66699 -22 4 -49 4 -81v-298c-69.333 -6.66699 -124.666 -10 -165.999 -10c-146 0 -219 59.667 -219 179v83c0 66 23 110.333 69 133c24 11.333 47.667 17 71 17c78.667 0 141.667 -18.667 189 -56c0 35.333 -10 63.833 -30 85.5s-58.667 33.167 -116 34.5z
M406.999 45.999l-0.000976562 257c-55.333 26.667 -111.666 42.334 -168.999 47.001c-4.66699 0.666992 -9 1 -13 1c-25.333 0 -47 -7.83301 -65 -23.5s-27 -41.834 -27 -78.501v-87c0 -55.333 24 -91.333 72 -108c28 -10 59.667 -15 95 -15s71 2.33301 107 7z
M328.998 578.999c0 19.333 -6.5 35.5 -19.5 48.5s-29.167 19.5 -48.5 19.5s-35.5 -6.5 -48.5 -19.5s-19.5 -29.167 -19.5 -48.5s6.5 -35.5 19.5 -48.5s29.167 -19.5 48.5 -19.5s35.5 6.5 48.5 19.5s19.5 29.167 19.5 48.5z" />
    <glyph glyph-name="ae" unicode="&#xe6;" horiz-adv-x="801" 
d="M575 37c46 0 94.665 13.667 145.998 41l22 -43c-52 -31.333 -110 -47 -174 -47c-43.333 0 -78.666 9 -105.999 27v-15c-69.333 -6.66699 -124.666 -10 -165.999 -10c-146 0 -219 59.667 -219 179v83c0 66 23 110.333 69 133c24 11.333 47.667 17 71 17
c78.667 0 141.667 -18.667 189 -56c0 36.667 -10.667 65.834 -32 87.501s-62.333 32.5 -123 32.5l3 43c90.667 0 151 -23 181 -69c33.333 46.667 85.333 70 156 70c55.333 0 98.5 -14.833 129.5 -44.5s46.5 -70.834 46.5 -123.501v-130l-304 -17v-61c0 -36 13 -62 39 -78
c20 -12.667 44 -19 72 -19zM406.998 46l-0.000976562 257c-55.333 26.667 -111.666 42.334 -168.999 47.001c-4.66699 0.666992 -9 1 -13 1c-25.333 0 -47 -7.83301 -65 -23.5s-27 -41.834 -27 -78.501v-87c0 -55.333 24 -91.333 72 -108c28 -10 59.667 -15 95 -15
s71 2.33301 107 7zM711.997 262l0.000976562 87c0 28.667 -7.66699 52.167 -23 70.5s-31.333 30 -48 35s-33.334 7.5 -50.001 7.5c-36.667 0 -67 -10 -91 -30s-36 -51.333 -36 -94v-88z" />
    <glyph glyph-name="ccedilla" unicode="&#xe7;" horiz-adv-x="383" 
d="M246 38c30 0 63.3301 4.33301 99.9971 13l12 -45c-44 -11.333 -84.333 -17 -121 -17c-7.33301 0 -14.666 0.333008 -21.999 1l-33 -43c6 4 19.167 6 39.5 6s38.333 -6.5 54 -19.5s23.5 -33.333 23.5 -61s-12.333 -48.334 -37 -62.001s-52 -20.5 -82 -20.5
s-62.333 6.33301 -97 19l24 53c24.667 -16.667 47.667 -25 69 -25c47.333 0 71 14 71 42c0 14.667 -7 25.334 -21 32.001c-5.33301 2.66699 -12.666 4 -21.999 4s-20.666 -2.33301 -33.999 -7l-34 -14l-17 28l57 73c-12 2 -21.333 4.33301 -28 7
c-39.333 13.333 -67.833 33.833 -85.5 61.5s-26.5 66.5 -26.5 116.5v128c0 47.333 9.33301 87 28 119c32 55.333 84.667 83 158 83c44 0 88.667 -10.667 134 -32l-16 -41c-38 14.667 -70.833 22 -98.5 22s-52.167 -3.33301 -73.5 -10s-39.333 -21.667 -54 -45
s-22 -53.333 -22 -90v-145c0 -87.333 51.333 -131 154 -131z" />
    <glyph glyph-name="egrave" unicode="&#xe8;" horiz-adv-x="471" 
d="M245 37c46 0 94.667 13.668 146 41.001l22 -43c-51.333 -31.333 -105 -47 -161 -47c-116 0 -174 48.667 -174 146v205c0 54 16.833 96 50.5 126s78.167 45 133.5 45s98.5 -14.833 129.5 -44.5s46.5 -70.834 46.5 -123.501v-130l-304 -17v-61c0 -36 13 -62 39 -78
c20 -12.667 44 -19 72 -19zM382 262.001l0.000976562 87c0 28.667 -7.66699 52.167 -23 70.5s-31.333 30 -48 35s-33.334 7.5 -50.001 7.5c-36.667 0 -67 -10 -91 -30s-36 -51.333 -36 -94v-88zM282.001 540.001h-44l-69 92c-3.33301 4 -5 8.33301 -5 13
c0 18 7.33301 29.333 22 34c4.66699 1.33301 9 2 13 2c14 0 24.667 -7.66699 32 -23z" />
    <glyph glyph-name="eacute" unicode="&#xe9;" horiz-adv-x="471" 
d="M245 37c46 0 94.667 13.668 146 41.001l22 -43c-51.333 -31.333 -105 -47 -161 -47c-116 0 -174 48.667 -174 146v205c0 54 16.833 96 50.5 126s78.167 45 133.5 45s98.5 -14.833 129.5 -44.5s46.5 -70.834 46.5 -123.501v-130l-304 -17v-61c0 -36 13 -62 39 -78
c20 -12.667 44 -19 72 -19zM382 262.001l0.000976562 87c0 28.667 -7.66699 52.167 -23 70.5s-31.333 30 -48 35s-33.334 7.5 -50.001 7.5c-36.667 0 -67 -10 -91 -30s-36 -51.333 -36 -94v-88zM284.001 538.001h-44l51 118c7.33301 15.333 18 23 32 23
c18 0 29 -7.66699 33 -23c1.33301 -4 2 -8.33301 2 -13s-1.66699 -9 -5 -13z" />
    <glyph glyph-name="ecircumflex" unicode="&#xea;" horiz-adv-x="471" 
d="M245 37c46 0 94.667 13.668 146 41.001l22 -43c-51.333 -31.333 -105 -47 -161 -47c-116 0 -174 48.667 -174 146v205c0 54 16.833 96 50.5 126s78.167 45 133.5 45s98.5 -14.833 129.5 -44.5s46.5 -70.834 46.5 -123.501v-130l-304 -17v-61c0 -36 13 -62 39 -78
c20 -12.667 44 -19 72 -19zM382 262.001l0.000976562 87c0 28.667 -7.66699 52.167 -23 70.5s-31.333 30 -48 35s-33.334 7.5 -50.001 7.5c-36.667 0 -67 -10 -91 -30s-36 -51.333 -36 -94v-88zM381.001 540.001l-105 104l-109 -104l-38 39l148 141l142 -141z" />
    <glyph glyph-name="edieresis" unicode="&#xeb;" horiz-adv-x="537" 
d="M202 37c46 0 94.667 13.668 146 41.001l22 -43c-51.333 -31.333 -105 -47 -161 -47c-116 0 -174 48.667 -174 146v205c0 54 16.833 96 50.5 126s78.167 45 133.5 45s98.5 -14.833 129.5 -44.5s46.5 -70.834 46.5 -123.501v-130l-304 -17v-61c0 -36 13 -62 39 -78
c20 -12.667 44 -19 72 -19zM339 262.001l0.000976562 87c0 28.667 -7.66699 52.167 -23 70.5s-31.333 30 -48 35s-33.334 7.5 -50.001 7.5c-36.667 0 -67 -10 -91 -30s-36 -51.333 -36 -94v-88zM138.001 539.001c-9.33301 0 -17.166 3.16699 -23.499 9.5
s-9.5 14.166 -9.5 23.499s3.16699 17.166 9.5 23.499s14.166 9.5 23.499 9.5s17.166 -3.16699 23.499 -9.5s9.5 -14.166 9.5 -23.499s-3.16699 -17.166 -9.5 -23.499s-14.166 -9.5 -23.499 -9.5zM294.001 539.001c-9.33301 0 -17.166 3.16699 -23.499 9.5
s-9.5 14.166 -9.5 23.499s3.16699 17.166 9.5 23.499s14.166 9.5 23.499 9.5s17.166 -3.16699 23.499 -9.5s9.5 -14.166 9.5 -23.499s-3.16699 -17.166 -9.5 -23.499s-14.166 -9.5 -23.499 -9.5z" />
    <glyph glyph-name="igrave" unicode="&#xec;" horiz-adv-x="245" 
d="M196 540h-44l-69 92c-3.33301 4 -5 8.33301 -5 13c0 18 7.33301 29.333 22 34c4.66699 1.33301 9 2 13 2c14 0 24.667 -7.66699 32 -23zM212 0h-56v501h56v-501z" />
    <glyph glyph-name="iacute" unicode="&#xed;" horiz-adv-x="237" 
d="M130 538h-44l51 118c7.33301 15.333 18 23 32 23c18 0 29 -7.66699 33 -23c1.33301 -4 2 -8.33301 2 -13s-1.66699 -9 -5 -13zM134 0h-56v501h56v-501z" />
    <glyph glyph-name="icircumflex" unicode="&#xee;" horiz-adv-x="223" 
d="M216 540l-105 104l-109 -104l-38 39l148 141l142 -141zM139 0h-56v501h56v-501z" />
    <glyph glyph-name="idieresis" unicode="&#xef;" horiz-adv-x="333" 
d="M111 539c-8.66699 0 -16.334 3.16699 -23.001 9.5s-10 14.166 -10 23.499s3.33301 17.166 10 23.499s14.334 9.5 23.001 9.5s16.334 -3.16699 23.001 -9.5s10 -14.166 10 -23.499s-3.33301 -17.166 -10 -23.499s-14.334 -9.5 -23.001 -9.5zM267 539
c-8.66699 0 -16.334 3.16699 -23.001 9.5s-10 14.166 -10 23.499s3.33301 17.166 10 23.499s14.334 9.5 23.001 9.5s16.334 -3.16699 23.001 -9.5s10 -14.166 10 -23.499s-3.33301 -17.166 -10 -23.499s-14.334 -9.5 -23.001 -9.5zM218 0h-56v501h56v-501z" />
    <glyph glyph-name="ntilde" unicode="&#xf1;" horiz-adv-x="480" 
d="M130 467c34 28.667 81.666 43 142.999 43c34.667 0 64.334 -6.33301 89.001 -19c56.667 -26 85 -74.333 85 -145v-346h-55v343c0 34.667 -9.33301 61.667 -28 81c-22.667 23.333 -56.5 35 -101.5 35s-87.833 -11.333 -128.5 -34v-425h-56v501h56zM330.999 597
c26 0 49.335 11.667 70.002 35l25 -39c-30 -35.333 -62 -53 -96 -53c-12 0 -25.5 3.16699 -40.5 9.5l-47.5 21c-16.667 7.66699 -33.334 11.5 -50.001 11.5c-27.333 0 -52.333 -12 -75 -36l-25 39c31.333 35.333 64.666 53 99.999 53c12 0 25.5 -3 40.5 -9
s31 -12.833 48 -20.5s33.833 -11.5 50.5 -11.5z" />
    <glyph glyph-name="ograve" unicode="&#xf2;" 
d="M451 316l0.000976562 -132c0 -56 -15.333 -102.333 -46 -139s-77 -55 -139 -55s-108.833 18.5 -140.5 55.5s-47.5 83.167 -47.5 138.5v132c0 63.333 16.167 111.833 48.5 145.5s78.166 50.5 137.499 50.5s105.333 -17.5 138 -52.5s49 -82.833 49 -143.5zM395.001 174v142
c0 96.667 -43 145 -129 145c-88 0 -132 -48.333 -132 -145v-142c0 -40 11.833 -72.333 35.5 -97s56 -37 97 -37s72.667 12.167 95 36.5s33.5 56.833 33.5 97.5zM281.001 540h-44l-69 92c-3.33301 4 -5 8.33301 -5 13c0 18 7.33301 29.333 22 34c4.66699 1.33301 9 2 13 2
c14 0 24.667 -7.66699 32 -23z" />
    <glyph glyph-name="oacute" unicode="&#xf3;" 
d="M451 316l0.000976562 -132c0 -56 -15.333 -102.333 -46 -139s-77 -55 -139 -55s-108.833 18.5 -140.5 55.5s-47.5 83.167 -47.5 138.5v132c0 63.333 16.167 111.833 48.5 145.5s78.166 50.5 137.499 50.5s105.333 -17.5 138 -52.5s49 -82.833 49 -143.5zM395.001 174v142
c0 96.667 -43 145 -129 145c-88 0 -132 -48.333 -132 -145v-142c0 -40 11.833 -72.333 35.5 -97s56 -37 97 -37s72.667 12.167 95 36.5s33.5 56.833 33.5 97.5zM283.001 538h-44l51 118c7.33301 15.333 18 23 32 23c18 0 29.333 -7.66699 34 -23
c0.666992 -4 1 -8.33301 1 -13s-1.66699 -9 -5 -13z" />
    <glyph glyph-name="ocircumflex" unicode="&#xf4;" 
d="M451 316l0.000976562 -132c0 -56 -15.333 -102.333 -46 -139s-77 -55 -139 -55s-108.833 18.5 -140.5 55.5s-47.5 83.167 -47.5 138.5v132c0 63.333 16.167 111.833 48.5 145.5s78.166 50.5 137.499 50.5s105.333 -17.5 138 -52.5s49 -82.833 49 -143.5zM395.001 174v142
c0 96.667 -43 145 -129 145c-88 0 -132 -48.333 -132 -145v-142c0 -40 11.833 -72.333 35.5 -97s56 -37 97 -37s72.667 12.167 95 36.5s33.5 56.833 33.5 97.5zM375.001 540l-105 104l-109 -104l-38 39l148 141l142 -141z" />
    <glyph glyph-name="otilde" unicode="&#xf5;" 
d="M451 316l0.000976562 -132c0 -56 -15.333 -102.333 -46 -139s-77 -55 -139 -55s-108.833 18.5 -140.5 55.5s-47.5 83.167 -47.5 138.5v132c0 63.333 16.167 111.833 48.5 145.5s78.166 50.5 137.499 50.5s105.333 -17.5 138 -52.5s49 -82.833 49 -143.5zM395.001 174v142
c0 96.667 -43 145 -129 145c-88 0 -132 -48.333 -132 -145v-142c0 -40 11.833 -72.333 35.5 -97s56 -37 97 -37s72.667 12.167 95 36.5s33.5 56.833 33.5 97.5zM340.001 597c26 0 49.335 11.667 70.002 35l25 -39c-30 -35.333 -62 -53 -96 -53
c-12 0 -25.5 3.16699 -40.5 9.5l-47.5 21c-16.667 7.66699 -33.334 11.5 -50.001 11.5c-27.333 0 -52.333 -12 -75 -36l-25 39c31.333 35.333 64.666 53 99.999 53c12 0 25.5 -3 40.5 -9s31 -12.833 48 -20.5s33.833 -11.5 50.5 -11.5z" />
    <glyph glyph-name="odieresis" unicode="&#xf6;" 
d="M451 316l0.000976562 -132c0 -56 -15.333 -102.333 -46 -139s-77 -55 -139 -55s-108.833 18.5 -140.5 55.5s-47.5 83.167 -47.5 138.5v132c0 63.333 16.167 111.833 48.5 145.5s78.166 50.5 137.499 50.5s105.333 -17.5 138 -52.5s49 -82.833 49 -143.5zM395.001 174v142
c0 96.667 -43 145 -129 145c-88 0 -132 -48.333 -132 -145v-142c0 -40 11.833 -72.333 35.5 -97s56 -37 97 -37s72.667 12.167 95 36.5s33.5 56.833 33.5 97.5zM192.001 539c-9.33301 0 -17.166 3.16699 -23.499 9.5s-9.5 14.166 -9.5 23.499s3.16699 17.166 9.5 23.499
s14.166 9.5 23.499 9.5s17.166 -3.16699 23.499 -9.5s9.5 -14.166 9.5 -23.499s-3.16699 -17.166 -9.5 -23.499s-14.166 -9.5 -23.499 -9.5zM348.001 539c-9.33301 0 -17.166 3.16699 -23.499 9.5s-9.5 14.166 -9.5 23.499s3.16699 17.166 9.5 23.499s14.166 9.5 23.499 9.5
s17.166 -3.16699 23.499 -9.5s9.5 -14.166 9.5 -23.499s-3.16699 -17.166 -9.5 -23.499s-14.166 -9.5 -23.499 -9.5z" />
    <glyph glyph-name="divide" unicode="&#xf7;" horiz-adv-x="431" 
d="M398 358h-320v55h320v-55zM240 479c-9.33301 0 -17.166 3.16699 -23.499 9.5s-9.5 14.166 -9.5 23.499s3.16699 17.166 9.5 23.499s14.166 9.5 23.499 9.5s17.166 -3.16699 23.499 -9.5s9.5 -14.166 9.5 -23.499s-3.16699 -17.166 -9.5 -23.499
s-14.166 -9.5 -23.499 -9.5zM240 222c-9.33301 0 -17.166 3.33301 -23.499 10s-9.5 14.334 -9.5 23.001s3.16699 16.334 9.5 23.001s14.166 10 23.499 10s17.166 -3.33301 23.499 -10s9.5 -14.334 9.5 -23.001s-3.16699 -16.334 -9.5 -23.001s-14.166 -10 -23.499 -10z" />
    <glyph glyph-name="oslash" unicode="&#xf8;" 
d="M155 -67h-57l42 98c-41.333 35.333 -62 86.333 -62 153v132c0 63.333 16.167 111.833 48.5 145.5s78.833 50.5 139.5 50.5c26 0 51 -4.33301 75 -13l38 89h59l-50 -116c42 -36 63 -88 63 -156v-132c0 -56 -15.333 -102.333 -46 -139s-77 -55 -139 -55
c-29.333 0 -56 4.66699 -80 14zM395 174l0.000976562 142c0 45.333 -10 80 -30 104l-159 -369c18 -7.33301 38 -11 60 -11c41.333 0 73.166 12.167 95.499 36.5s33.5 56.833 33.5 97.5zM163.001 84l157 368c-16 6 -34 9 -54 9c-88 0 -132 -48.333 -132 -145v-142
c0 -36.667 9.66699 -66.667 29 -90z" />
    <glyph glyph-name="ugrave" unicode="&#xf9;" 
d="M451 0l-55.001 0.000976562l4 51c-16 -20 -36.167 -35.333 -60.5 -46s-48.833 -16 -73.5 -16c-125.333 0 -188 61 -188 183v329h56v-336c0 -42.667 11.833 -74.334 35.5 -95.001s55.834 -31 96.501 -31c86 0 129 42 129 126v336h56v-501zM287.999 540.001h-44l-69 92
c-3.33301 4 -5 8.33301 -5 13c0 18 7.33301 29.333 22 34c4.66699 1.33301 9 2 13 2c14 0 24.667 -7.66699 32 -23z" />
    <glyph glyph-name="uacute" unicode="&#xfa;" 
d="M451 0l-55.001 0.000976562l4 51c-16 -20 -36.167 -35.333 -60.5 -46s-48.833 -16 -73.5 -16c-125.333 0 -188 61 -188 183v329h56v-336c0 -42.667 11.833 -74.334 35.5 -95.001s55.834 -31 96.501 -31c86 0 129 42 129 126v336h56v-501zM282.999 538.001h-44l51 118
c7.33301 15.333 18 23 32 23c18 0 29.333 -7.66699 34 -23c0.666992 -4 1 -8.33301 1 -13s-1.66699 -9 -5 -13z" />
    <glyph glyph-name="ucircumflex" unicode="&#xfb;" 
d="M451 0l-55.001 0.000976562l4 51c-16 -20 -36.167 -35.333 -60.5 -46s-48.833 -16 -73.5 -16c-125.333 0 -188 61 -188 183v329h56v-336c0 -42.667 11.833 -74.334 35.5 -95.001s55.834 -31 96.501 -31c86 0 129 42 129 126v336h56v-501zM372.999 540.001l-105 104
l-109 -104l-38 39l148 141l142 -141z" />
    <glyph glyph-name="udieresis" unicode="&#xfc;" 
d="M451 0l-55.001 0.000976562l4 51c-16 -20 -36.167 -35.333 -60.5 -46s-48.833 -16 -73.5 -16c-125.333 0 -188 61 -188 183v329h56v-336c0 -42.667 11.833 -74.334 35.5 -95.001s55.834 -31 96.501 -31c86 0 129 42 129 126v336h56v-501zM186.999 539.001
c-8.66699 0 -16.334 3.16699 -23.001 9.5s-10 14.166 -10 23.499s3.33301 17.166 10 23.499s14.334 9.5 23.001 9.5s16.334 -3.16699 23.001 -9.5s10 -14.166 10 -23.499s-3.33301 -17.166 -10 -23.499s-14.334 -9.5 -23.001 -9.5zM342.999 539.001
c-8.66699 0 -16.334 3.16699 -23.001 9.5s-10 14.166 -10 23.499s3.33301 17.166 10 23.499s14.334 9.5 23.001 9.5s16.334 -3.16699 23.001 -9.5s10 -14.166 10 -23.499s-3.33301 -17.166 -10 -23.499s-14.334 -9.5 -23.001 -9.5z" />
    <glyph glyph-name="yacute" unicode="&#xfd;" horiz-adv-x="520" 
d="M348 -210l-14.998 42.999c44.667 16.667 67 51.334 67 104.001v112c-24.667 -40.667 -68.667 -61 -132 -61c-126.667 0 -190 62.667 -190 188v325h54v-335c0 -42.667 11.667 -74.5 35 -95.5s55.166 -31.5 95.499 -31.5s73.166 10.333 98.499 31s38 52.667 38 96v197
c0 48.667 3.33301 81 10 97c11.333 23.333 32.333 40 63 50l15 -38c-22.667 -10 -34 -33.333 -34 -70v-463c0 -40.667 -8 -72.667 -24 -96s-43 -41 -81 -53zM280.002 537.999h-44l51 118c7.33301 15.333 18 23 32 23c18 0 29 -7.66699 33 -23c1.33301 -4 2 -8.33301 2 -13
s-1.66699 -9 -5 -13z" />
    <glyph glyph-name="thorn" unicode="&#xfe;" horiz-adv-x="488" 
d="M134 0l-56.001 0.000976562v588h56v-133c35.333 36 81.5 54 138.5 54s101.667 -18 134 -54s48.5 -84 48.5 -144s-17.167 -107.5 -51.5 -142.5s-79.166 -52.5 -134.499 -52.5c-24.667 0 -50 6.16699 -76 18.5s-45.667 29.166 -59 50.499v-185zM133.999 324.001
c0 -51.333 12.335 -89.833 37.002 -115.5s56.667 -38.5 96 -38.5s71.166 12 95.499 36s36.5 61 36.5 111s-12.833 86 -38.5 108s-56.334 33 -92.001 33s-66.5 -10.833 -92.5 -32.5s-40 -55.5 -42 -101.5z" />
    <glyph glyph-name="ydieresis" unicode="&#xff;" horiz-adv-x="520" 
d="M348 -210l-14.998 42.999c44.667 16.667 67 51.334 67 104.001v112c-24.667 -40.667 -68.667 -61 -132 -61c-126.667 0 -190 62.667 -190 188v325h54v-335c0 -42.667 11.667 -74.5 35 -95.5s55.166 -31.5 95.499 -31.5s73.166 10.333 98.499 31s38 52.667 38 96v197
c0 48.667 3.33301 81 10 97c11.333 23.333 32.333 40 63 50l15 -38c-22.667 -10 -34 -33.333 -34 -70v-463c0 -40.667 -8 -72.667 -24 -96s-43 -41 -81 -53zM193.002 538.999c-8.66699 0 -16.334 3.16699 -23.001 9.5s-10 14.166 -10 23.499s3.33301 17.166 10 23.499
s14.334 9.5 23.001 9.5s16.334 -3.16699 23.001 -9.5s10 -14.166 10 -23.499s-3.33301 -17.166 -10 -23.499s-14.334 -9.5 -23.001 -9.5zM349.002 538.999c-8.66699 0 -16.334 3.16699 -23.001 9.5s-10 14.166 -10 23.499s3.33301 17.166 10 23.499s14.334 9.5 23.001 9.5
s16.334 -3.16699 23.001 -9.5s10 -14.166 10 -23.499s-3.33301 -17.166 -10 -23.499s-14.334 -9.5 -23.001 -9.5z" />
    <glyph glyph-name="Amacron" unicode="&#x100;" horiz-adv-x="527" 
d="M517 0h-60l-80 245h-228l-78 -245h-59l224 700h53zM362 300l-100 313l-97 -313h197zM368 730h-217v58h217v-58z" />
    <glyph glyph-name="amacron" unicode="&#x101;" horiz-adv-x="496" 
d="M297 -10c-146 0 -219.001 59.6641 -219.001 178.997v83c0 66 23 110.333 69 133c24 11.333 47.667 17 71 17c78.667 0 141.667 -18.667 189 -56c0 36.667 -10.667 65.834 -32 87.501s-62.333 32.5 -123 32.5l3 43c54 0 94 -6.33301 120 -19
c14 -7.33301 26.333 -14.666 37 -21.999s19 -17 25 -29s11 -22.5 15 -31.5s6.66699 -21.167 8 -36.5c2 -23.333 3 -47.666 3 -72.999v-298c-69.333 -6.66699 -124.666 -10 -165.999 -10zM406.999 45.9971l-0.000976562 257c-55.333 26.667 -111.666 42.334 -168.999 47.001
c-4.66699 0.666992 -9 1 -13 1c-25.333 0 -47 -7.83301 -65 -23.5s-27 -41.834 -27 -78.501v-87c0 -55.333 24 -91.333 72 -108c28 -10 59.667 -15 95 -15s71 2.33301 107 7zM385.998 537.997h-217v58h217v-58z" />
    <glyph glyph-name="Abreve" unicode="&#x102;" horiz-adv-x="527" 
d="M517 0h-60l-80 245h-228l-78 -245h-59l224 700h53zM362 300l-100 313l-97 -313h197zM378 848v-5c0 -31.333 -11 -58 -33 -80s-48.667 -33 -80 -33s-58 11 -80 33s-33 48.667 -33 80v5h45v-5c0 -19.333 6.5 -35.5 19.5 -48.5s29.167 -19.5 48.5 -19.5s35.5 6.5 48.5 19.5
s19.5 29.167 19.5 48.5v5h45z" />
    <glyph glyph-name="abreve" unicode="&#x103;" horiz-adv-x="496" 
d="M297 -10c-146 0 -219.001 59.6641 -219.001 178.997v83c0 66 23 110.333 69 133c24 11.333 47.667 17 71 17c78.667 0 141.667 -18.667 189 -56c0 36.667 -10.667 65.834 -32 87.501s-62.333 32.5 -123 32.5l3 43c54 0 94 -6.33301 120 -19
c14 -7.33301 26.333 -14.666 37 -21.999s19 -17 25 -29s11 -22.5 15 -31.5s6.66699 -21.167 8 -36.5c2 -23.333 3 -47.666 3 -72.999v-298c-69.333 -6.66699 -124.666 -10 -165.999 -10zM406.999 45.9971l-0.000976562 257c-55.333 26.667 -111.666 42.334 -168.999 47.001
c-4.66699 0.666992 -9 1 -13 1c-25.333 0 -47 -7.83301 -65 -23.5s-27 -41.834 -27 -78.501v-87c0 -55.333 24 -91.333 72 -108c28 -10 59.667 -15 95 -15s71 2.33301 107 7zM421.998 655.997v-5c0 -31.333 -11 -58 -33 -80s-48.667 -33 -80 -33s-58 11 -80 33
s-33 48.667 -33 80v5h45v-5c0 -19.333 6.5 -35.5 19.5 -48.5s29.167 -19.5 48.5 -19.5s35.5 6.5 48.5 19.5s19.5 29.167 19.5 48.5v5h45z" />
    <glyph glyph-name="Aogonek" unicode="&#x104;" horiz-adv-x="650" 
d="M582 0c-69.333 -58 -104.001 -100.333 -104.001 -127c0 -10 3.16699 -19 9.5 -27s16.5 -12 30.5 -12s25.5 3.16699 34.5 9.5s18.167 16.833 27.5 31.5l37 -38c-21.333 -33.333 -53.666 -50 -96.999 -50c-11.333 0 -23 1.5 -35 4.5s-24.5 11.167 -37.5 24.5
s-19.5 31 -19.5 53c0 45.333 32 89 96 131h-1l-80 245h-228l-78 -245h-59l224 700h53l228 -700h-1zM427.999 300l-100 313l-97 -313h197z" />
    <glyph glyph-name="aogonek" unicode="&#x105;" horiz-adv-x="492" 
d="M421 0c-69.333 -58 -104.002 -100.338 -104.002 -127.005c0 -10 3.16699 -19 9.5 -27s16.5 -12 30.5 -12s25.5 3.16699 34.5 9.5s18.167 16.833 27.5 31.5l37 -38c-21.333 -33.333 -53.666 -50 -96.999 -50c-11.333 0 -23 1.5 -35 4.5s-24.5 11.167 -37.5 24.5
s-19.5 31 -19.5 53c0 43.333 28.667 85 86 125c-65.333 -2.66699 -105.166 -4 -119.499 -4s-34 2.83301 -59 8.5s-48 14.334 -69 26.001s-37.667 29.834 -50 54.501s-18.5 54.667 -18.5 90v83c0 66 23 110.333 69 133c24 11.333 47.667 17 71 17
c78.667 0 141.667 -18.667 189 -56c0 36.667 -10.667 65.834 -32 87.501s-62.333 32.5 -123 32.5l3 43c54 0 94 -6.33301 120 -19c14 -7.33301 26.333 -14.666 37 -21.999s19 -17 25 -29s11 -22.5 15 -31.5s6.66699 -21.167 8 -36.5c2 -23.333 3 -47.666 3 -72.999v-298h-1z
M365.998 45.9951v257c-55.333 26.667 -112 42.334 -170 47.001c-4 0.666992 -8 1 -12 1c-25.333 0 -47 -7.83301 -65 -23.5s-27 -41.834 -27 -78.501v-87c0 -55.333 24 -91.333 72 -108c28 -10 59.667 -15 95 -15s71 2.33301 107 7z" />
    <glyph glyph-name="Cacute" unicode="&#x106;" horiz-adv-x="436" 
d="M427 23c-56.667 -22 -110.664 -33 -161.997 -33c-10.667 0 -26.834 1 -48.501 3s-44.667 9.5 -69 22.5s-44 33.667 -59 62s-22.5 63.5 -22.5 105.5v321c0 50.667 7.16699 89 21.5 115s36.166 48 65.499 66c30 16.667 65.667 25 107 25c51.333 0 98.666 -11 141.999 -33
l-16 -38c-38 14 -74 21 -108 21c-104 0 -156 -49 -156 -147v-328c0 -87.333 42.333 -135 127 -143c6.66699 -1.33301 13.667 -2 21 -2c40 0 88.333 10 145 30zM278.003 734h-44l51 118c7.33301 15.333 18 23 32 23c18 0 29 -7.66699 33 -23c1.33301 -4 2 -8.33301 2 -13
s-1.66699 -9 -5 -13z" />
    <glyph glyph-name="cacute" unicode="&#x107;" horiz-adv-x="433" 
d="M288 38c30 0 63.334 4.33301 100.001 13l12 -45c-42.667 -11.333 -81.334 -17 -116.001 -17s-68.667 5.33301 -102 16c-69.333 22.667 -104 81 -104 175v128c0 47.333 9.33301 87 28 119c32 55.333 84.667 83 158 83c44 0 88.667 -10.667 134 -32l-16 -41
c-38 14.667 -70.833 22 -98.5 22s-52.167 -3.33301 -73.5 -10s-39.333 -21.667 -54 -45s-22 -53.333 -22 -90v-145c0 -87.333 51.333 -131 154 -131zM253.001 538h-44l51 118c7.33301 15.333 18 23 32 23c18 0 29.333 -7.66699 34 -23c0.666992 -4 1 -8.33301 1 -13
s-1.66699 -9 -5 -13z" />
    <glyph glyph-name="Ccircumflex" unicode="&#x108;" horiz-adv-x="436" 
d="M383 733l-105 104l-109 -104l-38 39l148 141l142 -141zM427 23c-56.667 -22 -110.664 -33 -161.997 -33c-10.667 0 -26.834 1 -48.501 3s-44.667 9.5 -69 22.5s-44 33.667 -59 62s-22.5 63.5 -22.5 105.5v321c0 50.667 7.16699 89 21.5 115s36.166 48 65.499 66
c30 16.667 65.667 25 107 25c51.333 0 98.666 -11 141.999 -33l-16 -38c-38 14 -74 21 -108 21c-104 0 -156 -49 -156 -147v-328c0 -87.333 42.333 -135 127 -143c6.66699 -1.33301 13.667 -2 21 -2c40 0 88.333 10 145 30z" />
    <glyph glyph-name="ccircumflex" unicode="&#x109;" horiz-adv-x="434" 
d="M288 38c30 0 63.334 4.33301 100.001 13l12 -45c-42.667 -11.333 -81.334 -17 -116.001 -17s-68.667 5.33301 -102 16c-69.333 22.667 -104 81 -104 175v128c0 47.333 9.33301 87 28 119c32 55.333 84.667 83 158 83c44 0 88.667 -10.667 134 -32l-16 -41
c-38 14.667 -70.833 22 -98.5 22s-52.167 -3.33301 -73.5 -10s-39.333 -21.667 -54 -45s-22 -53.333 -22 -90v-145c0 -87.333 51.333 -131 154 -131zM363.001 541l-105 104l-109 -104l-38 39l148 141l142 -141z" />
    <glyph glyph-name="Cdotaccent" unicode="&#x10a;" horiz-adv-x="436" 
d="M427 23c-56.667 -22 -110.664 -33 -161.997 -33c-10.667 0 -26.834 1 -48.501 3s-44.667 9.5 -69 22.5s-44 33.667 -59 62s-22.5 63.5 -22.5 105.5v321c0 50.667 7.16699 89 21.5 115s36.166 48 65.499 66c30 16.667 65.667 25 107 25c51.333 0 98.666 -11 141.999 -33
l-16 -38c-38 14 -74 21 -108 21c-104 0 -156 -49 -156 -147v-328c0 -87.333 42.333 -135 127 -143c6.66699 -1.33301 13.667 -2 21 -2c40 0 88.333 10 145 30zM289.003 740c-6.66699 -6.66699 -14.499 -10.001 -23.499 -10.001s-16.833 3.33301 -23.5 10s-10 14.5 -10 23.5
s3.33301 16.833 10 23.5s14.667 10 24 10s17.166 -3.16699 23.499 -9.5s9.5 -14.166 9.5 -23.499s-3.33301 -17.333 -10 -24z" />
    <glyph glyph-name="cdotaccent" unicode="&#x10b;" horiz-adv-x="433" 
d="M288 38c30 0 63.334 4.33301 100.001 13l12 -45c-42.667 -11.333 -81.334 -17 -116.001 -17s-68.667 5.33301 -102 16c-69.333 22.667 -104 81 -104 175v128c0 47.333 9.33301 87 28 119c32 55.333 84.667 83 158 83c44 0 88.667 -10.667 134 -32l-16 -41
c-38 14.667 -70.833 22 -98.5 22s-52.167 -3.33301 -73.5 -10s-39.333 -21.667 -54 -45s-22 -53.333 -22 -90v-145c0 -87.333 51.333 -131 154 -131zM265.001 538c-8.66699 0 -16.499 3.33203 -23.499 9.99902s-10.5 14.5 -10.5 23.5s3.33301 16.833 10 23.5
s14.5 10 23.5 10s16.833 -3.16699 23.5 -9.5s10 -14.166 10 -23.499s-3.33301 -17.333 -10 -24s-14.334 -10 -23.001 -10z" />
    <glyph glyph-name="Ccaron" unicode="&#x10c;" horiz-adv-x="436" 
d="M427 23c-56.667 -22 -110.664 -33 -161.997 -33c-10.667 0 -26.834 1 -48.501 3s-44.667 9.5 -69 22.5s-44 33.667 -59 62s-22.5 63.5 -22.5 105.5v321c0 50.667 7.16699 89 21.5 115s36.166 48 65.499 66c30 16.667 65.667 25 107 25c51.333 0 98.666 -11 141.999 -33
l-16 -38c-38 14 -74 21 -108 21c-104 0 -156 -49 -156 -147v-328c0 -87.333 42.333 -135 127 -143c6.66699 -1.33301 13.667 -2 21 -2c40 0 88.333 10 145 30zM398.003 874l-142 -141l-148 141l38 39l109 -104l105 104z" />
    <glyph glyph-name="ccaron" unicode="&#x10d;" horiz-adv-x="434" 
d="M288 38c30 0 63.334 4.33301 100.001 13l12 -45c-42.667 -11.333 -81.334 -17 -116.001 -17s-68.667 5.33301 -102 16c-69.333 22.667 -104 81 -104 175v128c0 47.333 9.33301 87 28 119c32 55.333 84.667 83 158 83c44 0 88.667 -10.667 134 -32l-16 -41
c-38 14.667 -70.833 22 -98.5 22s-52.167 -3.33301 -73.5 -10s-39.333 -21.667 -54 -45s-22 -53.333 -22 -90v-145c0 -87.333 51.333 -131 154 -131zM401.001 684l-142 -141l-148 141l38 39l109 -104l105 104z" />
    <glyph glyph-name="Dcaron" unicode="&#x10e;" horiz-adv-x="576" 
d="M286 0h-208v701h188c75.333 0 132.833 -20.667 172.5 -62s59.5 -96.333 59.5 -165v-274c0 -133.333 -70.667 -200 -212 -200zM442 190v294c0 56 -16.667 97.667 -50 125s-72 41 -116 41h-142v-600h136c114.667 0 172 46.667 172 140zM416 875l-142 -141l-148 141l38 39
l109 -104l105 104z" />
    <glyph glyph-name="dcaron" unicode="&#x10f;" horiz-adv-x="610" 
d="M259 509c55.333 0 99.333 -11.667 132 -35v226h56v-700c-57.333 -8 -110.333 -12 -159 -12s-92.667 10 -132 30c-52 26.667 -78 73 -78 139v189c0 70 28.333 118 85 144c27.333 12.667 59.333 19 96 19zM391 425c-40.667 22.667 -85 34 -133 34
c-42 0 -73.333 -10.667 -94 -32s-31 -49.333 -31 -84v-187c0 -78 52.333 -117 157 -117c30 0 63.667 3 101 9v377zM512 560l-40 28.001c30 17.333 49.333 32.666 58 45.999l5 7l-10 3c-12 8.66699 -17.833 19 -17.5 31s3.66602 20.833 9.99902 26.5s11.833 8.5 16.5 8.5
s9.33398 -0.166992 14.001 -0.5s10.5 -4.33301 17.5 -12s10.5 -16.5 10.5 -26.5c0 -38.667 -21.333 -75.667 -64 -111z" />
    <glyph glyph-name="Dcroat" unicode="&#x110;" horiz-adv-x="576" 
d="M286 0h-208v701h188c75.333 0 132.833 -20.667 172.5 -62s59.5 -96.333 59.5 -165v-274c0 -133.333 -70.667 -200 -212 -200zM442 190v294c0 56 -16.667 97.667 -50 125s-72 41 -116 41h-142v-600h136c114.667 0 172 46.667 172 140zM392 730h-217v58h217v-58z" />
    <glyph glyph-name="dcroat" unicode="&#x111;" horiz-adv-x="542" 
d="M259 509c55.333 0 99.333 -11.667 132 -35v88h-116v55h116v83h56v-83h62v-55h-62v-562c-57.333 -8 -110.333 -12 -159 -12s-92.667 10 -132 30c-52 26.667 -78 73 -78 139v189c0 70 28.333 118 85 144c27.333 12.667 59.333 19 96 19zM391 425
c-40.667 22.667 -85 34 -133 34c-42 0 -73.333 -10.667 -94 -32s-31 -49.333 -31 -84v-187c0 -78 52.333 -117 157 -117c30 0 63.667 3 101 9v377z" />
    <glyph glyph-name="Emacron" unicode="&#x112;" horiz-adv-x="465" 
d="M410 0h-332v700h334v-52h-278v-235h191l-19 -55h-172v-308h276v-50zM352 730h-217v58h217v-58z" />
    <glyph glyph-name="emacron" unicode="&#x113;" horiz-adv-x="537" 
d="M202 37c46 0 94.667 13.668 146 41.001l22 -43c-51.333 -31.333 -105 -47 -161 -47c-116 0 -174 48.667 -174 146v205c0 54 16.833 96 50.5 126s78.167 45 133.5 45s98.5 -14.833 129.5 -44.5s46.5 -70.834 46.5 -123.501v-130l-304 -17v-61c0 -36 13 -62 39 -78
c20 -12.667 44 -19 72 -19zM339 262.001l0.000976562 87c0 28.667 -7.66699 52.167 -23 70.5s-31.333 30 -48 35s-33.334 7.5 -50.001 7.5c-36.667 0 -67 -10 -91 -30s-36 -51.333 -36 -94v-88zM326.001 538.001h-217v58h217v-58z" />
    <glyph glyph-name="Edotaccent" unicode="&#x116;" horiz-adv-x="465" 
d="M410 0h-332v700h334v-52h-278v-235h191l-19 -55h-172v-308h276v-50zM279 740c-6.66699 -6.66699 -14.499 -10.001 -23.499 -10.001s-16.833 3.33301 -23.5 10s-10 14.5 -10 23.5s3.33301 16.833 10 23.5s14.667 10 24 10s17.166 -3.16699 23.499 -9.5
s9.5 -14.166 9.5 -23.499s-3.33301 -17.333 -10 -24z" />
    <glyph glyph-name="edotaccent" unicode="&#x117;" horiz-adv-x="471" 
d="M245 37c46 0 94.667 13.668 146 41.001l22 -43c-51.333 -31.333 -105 -47 -161 -47c-116 0 -174 48.667 -174 146v205c0 54 16.833 96 50.5 126s78.167 45 133.5 45s98.5 -14.833 129.5 -44.5s46.5 -70.834 46.5 -123.501v-130l-304 -17v-61c0 -36 13 -62 39 -78
c20 -12.667 44 -19 72 -19zM382 262.001l0.000976562 87c0 28.667 -7.66699 52.167 -23 70.5s-31.333 30 -48 35s-33.334 7.5 -50.001 7.5c-36.667 0 -67 -10 -91 -30s-36 -51.333 -36 -94v-88zM293.001 548.001c-6.66699 -6.66699 -14.499 -10.001 -23.499 -10.001
s-16.833 3.33301 -23.5 10s-10 14.5 -10 23.5s3.33301 16.833 10 23.5s14.667 10 24 10s17.166 -3.16699 23.499 -9.5s9.5 -14.166 9.5 -23.499s-3.33301 -17.333 -10 -24z" />
    <glyph glyph-name="Eogonek" unicode="&#x118;" horiz-adv-x="497" 
d="M409 0c-69.333 -58 -104.001 -100.333 -104.001 -127c0 -10 3.16699 -19 9.5 -27s16.5 -12 30.5 -12s25.5 3.16699 34.5 9.5s18.167 16.833 27.5 31.5l37 -38c-21.333 -33.333 -53.666 -50 -96.999 -50c-11.333 0 -23 1.5 -35 4.5s-24.5 11.167 -37.5 24.5
s-19.5 31 -19.5 53c0 45.333 32 89 96 131h-273v700h334v-52h-278v-235h191l-19 -55h-172v-308h276v-50h-1z" />
    <glyph glyph-name="eogonek" unicode="&#x119;" horiz-adv-x="434" 
d="M202 37c46 0 94.666 13.668 145.999 41.001l22 -43c-32 -20 -67 -33.333 -105 -40c-64.667 -55.333 -97 -96 -97 -122c0 -10 3.16699 -19 9.5 -27s16.5 -12 30.5 -12s25.5 3.16699 34.5 9.5s18.167 16.833 27.5 31.5l37 -38c-21.333 -33.333 -53.666 -50 -96.999 -50
c-11.333 0 -23 1.5 -35 4.5s-24.5 11.167 -37.5 24.5s-19.5 31 -19.5 53c0 41.333 26 81 78 119c-49.333 0 -88.5 12.167 -117.5 36.5s-43.5 60.833 -43.5 109.5v205c0 54 16.833 96 50.5 126s78.167 45 133.5 45s98.5 -14.833 129.5 -44.5s46.5 -70.834 46.5 -123.501v-130
l-304 -17v-61c0 -36 13 -62 39 -78c20 -12.667 44 -19 72 -19zM338.999 262.001l0.000976562 87c0 28.667 -7.66699 52.167 -23 70.5s-31.333 30 -48 35s-33.334 7.5 -50.001 7.5c-36.667 0 -67 -10 -91 -30s-36 -51.333 -36 -94v-88z" />
    <glyph glyph-name="Ecaron" unicode="&#x11a;" horiz-adv-x="465" 
d="M410 0h-332v700h334v-52h-278v-235h191l-19 -55h-172v-308h276v-50zM391 875l-142 -141l-148 141l38 39l109 -104l105 104z" />
    <glyph glyph-name="ecaron" unicode="&#x11b;" horiz-adv-x="471" 
d="M245 37c46 0 94.667 13.668 146 41.001l22 -43c-51.333 -31.333 -105 -47 -161 -47c-116 0 -174 48.667 -174 146v205c0 54 16.833 96 50.5 126s78.167 45 133.5 45s98.5 -14.833 129.5 -44.5s46.5 -70.834 46.5 -123.501v-130l-304 -17v-61c0 -36 13 -62 39 -78
c20 -12.667 44 -19 72 -19zM382 262.001l0.000976562 87c0 28.667 -7.66699 52.167 -23 70.5s-31.333 30 -48 35s-33.334 7.5 -50.001 7.5c-36.667 0 -67 -10 -91 -30s-36 -51.333 -36 -94v-88zM407.001 683.001l-142 -141l-148 141l38 39l109 -104l105 104z" />
    <glyph glyph-name="Gcircumflex" unicode="&#x11c;" horiz-adv-x="537" 
d="M476 0l-40.999 0.000976562l-14 41c-34.667 -34 -82.167 -51 -142.5 -51s-111 16.667 -152 50s-61.5 83 -61.5 149v314c0 85.333 29 145.666 87 180.999c30 16.667 65.667 25 107 25c51.333 0 98.666 -11 141.999 -33l-16 -38c-38 14 -74 21 -108 21
c-104 0 -156 -49 -156 -147v-325c0 -44.667 14.5 -79.667 43.5 -105s66 -38 111 -38s80.833 13 107.5 39s40 60.333 40 103v59h-66l-19 55h138v-300zM388.001 733.001l-105 104l-109 -104l-38 39l148 141l142 -141z" />
    <glyph glyph-name="gcircumflex" unicode="&#x11d;" horiz-adv-x="489" 
d="M418 541l-105 104l-109 -104l-38 39l148 141l142 -141zM348 -210l-15 42.999c44 16.667 66 51.334 66 104.001v124c-28 -48.667 -72.167 -73 -132.5 -73s-106.833 16 -139.5 48s-49 78.667 -49 140v149c0 58.667 17.167 104.167 51.5 136.5s81.5 48.5 141.5 48.5
s104 -22.333 132 -67l-4 58h56v-565c0 -40 -8.33301 -71.333 -25 -94s-44 -40 -82 -52zM399 172.999l0.000976562 163.001c0 41.333 -13.333 72.166 -40 92.499s-58 30.5 -94 30.5s-66.833 -10.833 -92.5 -32.5s-38.5 -57.167 -38.5 -106.5v-153
c0 -42 11.833 -73.667 35.5 -95s54.667 -32 93 -32s70.666 11.5 96.999 34.5s39.5 55.833 39.5 98.5z" />
    <glyph glyph-name="Gbreve" unicode="&#x11e;" horiz-adv-x="537" 
d="M476 0l-40.999 0.000976562l-14 41c-34.667 -34 -82.167 -51 -142.5 -51s-111 16.667 -152 50s-61.5 83 -61.5 149v314c0 85.333 29 145.666 87 180.999c30 16.667 65.667 25 107 25c51.333 0 98.666 -11 141.999 -33l-16 -38c-38 14 -74 21 -108 21
c-104 0 -156 -49 -156 -147v-325c0 -44.667 14.5 -79.667 43.5 -105s66 -38 111 -38s80.833 13 107.5 39s40 60.333 40 103v59h-66l-19 55h138v-300zM389.001 846.001v-5c0 -31.333 -11.167 -58 -33.5 -80s-48.833 -33 -79.5 -33s-57.167 11 -79.5 33s-33.5 48.667 -33.5 80
v5h45v-5c0 -19.333 6.66699 -35.5 20 -48.5s29.333 -19.5 48 -19.5s34.667 6.5 48 19.5s20 29.167 20 48.5v5h45z" />
    <glyph glyph-name="gbreve" unicode="&#x11f;" horiz-adv-x="488" 
d="M395 650v-5c0 -31.333 -11.167 -58 -33.5 -80s-48.833 -33 -79.5 -33s-57.167 11 -79.5 33s-33.5 48.667 -33.5 80v5h45v-5c0 -19.333 6.66699 -35.5 20 -48.5s29.333 -19.5 48 -19.5s34.667 6.5 48 19.5s20 29.167 20 48.5v5h45zM348 -210l-15 42.999
c44 16.667 66 51.334 66 104.001v124c-28 -48.667 -72.167 -73 -132.5 -73s-106.833 16 -139.5 48s-49 78.667 -49 140v149c0 58.667 17.167 104.167 51.5 136.5s81.5 48.5 141.5 48.5s104 -22.333 132 -67l-4 58h56v-565c0 -40 -8.33301 -71.333 -25 -94s-44 -40 -82 -52z
M399 172.999l0.000976562 163.001c0 41.333 -13.333 72.166 -40 92.499s-58 30.5 -94 30.5s-66.833 -10.833 -92.5 -32.5s-38.5 -57.167 -38.5 -106.5v-153c0 -42 11.833 -73.667 35.5 -95s54.667 -32 93 -32s70.666 11.5 96.999 34.5s39.5 55.833 39.5 98.5z" />
    <glyph glyph-name="Gdotaccent" unicode="&#x120;" horiz-adv-x="566" 
d="M273 729c-8.66699 0 -16.499 3.49902 -23.499 10.499s-10.5 14.833 -10.5 23.5s3.33301 16.334 10 23.001s14.5 10 23.5 10s16.833 -3.33301 23.5 -10s10 -14.5 10 -23.5s-3.33301 -16.833 -10 -23.5s-14.334 -10 -23.001 -10zM476.001 -0.000976562l-40.999 0.000976562
l-14 41c-34.667 -34 -82.167 -51 -142.5 -51s-111 16.667 -152 50s-61.5 83 -61.5 149v314c0 85.333 29 145.666 87 180.999c30 16.667 65.667 25 107 25c51.333 0 98.666 -11 141.999 -33l-16 -38c-38 14 -74 21 -108 21c-104 0 -156 -49 -156 -147v-325
c0 -44.667 14.5 -79.667 43.5 -105s66 -38 111 -38s80.833 13 107.5 39s40 60.333 40 103v59h-66l-19 55h138v-300z" />
    <glyph glyph-name="gdotaccent" unicode="&#x121;" horiz-adv-x="488" 
d="M303 547c-6.66699 -6.66699 -14.499 -10.001 -23.499 -10.001s-16.833 3.5 -23.5 10.5s-10 14.833 -10 23.5s3.33301 16.334 10 23.001s14.667 10 24 10s17.166 -3.33301 23.499 -10s9.5 -14.5 9.5 -23.5s-3.33301 -16.833 -10 -23.5zM348.001 -210.001l-15 42.999
c44 16.667 66 51.334 66 104.001v124c-28 -48.667 -72.167 -73 -132.5 -73s-106.833 16 -139.5 48s-49 78.667 -49 140v149c0 58.667 17.167 104.167 51.5 136.5s81.5 48.5 141.5 48.5s104 -22.333 132 -67l-4 58h56v-565c0 -40 -8.33301 -71.333 -25 -94s-44 -40 -82 -52z
M399.001 172.998l0.000976562 163.001c0 41.333 -13.333 72.166 -40 92.499s-58 30.5 -94 30.5s-66.833 -10.833 -92.5 -32.5s-38.5 -57.167 -38.5 -106.5v-153c0 -42 11.833 -73.667 35.5 -95s54.667 -32 93 -32s70.666 11.5 96.999 34.5s39.5 55.833 39.5 98.5z" />
    <glyph glyph-name="Gcommaaccent" unicode="&#x122;" horiz-adv-x="537" 
d="M476 0l-40.999 0.000976562l-14 41c-34.667 -34 -82.167 -51 -142.5 -51s-111 16.667 -152 50s-61.5 83 -61.5 149v314c0 85.333 29 145.666 87 180.999c30 16.667 65.667 25 107 25c51.333 0 98.666 -11 141.999 -33l-16 -38c-38 14 -74 21 -108 21
c-104 0 -156 -49 -156 -147v-325c0 -44.667 14.5 -79.667 43.5 -105s66 -38 111 -38s80.833 13 107.5 39s40 60.333 40 103v59h-66l-19 55h138v-300zM241.001 -183.999l-40 28.001c30 17.333 49.333 32.666 58 45.999l5 7l-10 3c-12 8.66699 -17.833 19 -17.5 31
s3.66602 20.833 9.99902 26.5s11.833 8.5 16.5 8.5s9.33398 -0.166992 14.001 -0.5s10.5 -4.33301 17.5 -12s10.5 -16.5 10.5 -26.5c0 -38.667 -21.333 -75.667 -64 -111z" />
    <glyph glyph-name="gcommaaccent" unicode="&#x123;" horiz-adv-x="488" 
d="M348 -210l-15 42.999c44 16.667 66 51.334 66 104.001v124c-28 -48.667 -72.167 -73 -132.5 -73s-106.833 16 -139.5 48s-49 78.667 -49 140v149c0 58.667 17.167 104.167 51.5 136.5s81.5 48.5 141.5 48.5s104 -22.333 132 -67l-4 58h56v-565
c0 -40 -8.33301 -71.333 -25 -94s-44 -40 -82 -52zM399 172.999l0.000976562 163.001c0 41.333 -13.333 72.166 -40 92.499s-58 30.5 -94 30.5s-66.833 -10.833 -92.5 -32.5s-38.5 -57.167 -38.5 -106.5v-153c0 -42 11.833 -73.667 35.5 -95s54.667 -32 93 -32
s70.666 11.5 96.999 34.5s39.5 55.833 39.5 98.5zM270.001 610l10 -3c12 -8.66699 17.833 -19 17.5 -31s-3.66602 -20.833 -9.99902 -26.5s-11.833 -8.5 -16.5 -8.5s-9.33398 0.166992 -14.001 0.5s-10.5 4.33301 -17.5 12s-10.5 16.5 -10.5 26.5
c0 38.667 21.333 75.667 64 111l40 -28c-28 -16 -47.333 -31.333 -58 -46z" />
    <glyph glyph-name="Hcircumflex" unicode="&#x124;" horiz-adv-x="588" 
d="M508 0h-56v358h-318v-358h-56v700h56v-287h318v287h56v-700zM431 733l-105 104l-109 -104l-38 39l148 141l142 -141z" />
    <glyph glyph-name="hcircumflex" unicode="&#x125;" horiz-adv-x="610" 
d="M316 733l-105 104l-109 -104l-38 39l148 141l142 -141zM237 474c33.333 24 78.333 36 135 36c36 0 67 -6.33301 93 -19c56.667 -26 85 -74.333 85 -145v-346h-55v343c0 34.667 -9.33301 61.667 -28 81c-22.667 23.333 -56.5 35 -101.5 35s-87.833 -11.333 -128.5 -34
v-425h-56v700h56v-226z" />
    <glyph glyph-name="Hbar" unicode="&#x126;" horiz-adv-x="685" 
d="M557 0h-56v358h-318v-358h-56v483h-49v55h49v162h56v-162h318v162h56v-162h48v-55h-48v-483zM501 413v70h-318v-70h318z" />
    <glyph glyph-name="hbar" unicode="&#x127;" horiz-adv-x="542" 
d="M196 474c33.333 24 78.333 36 135 36c36 0 67 -6.33301 93 -19c56.667 -26 85 -74.333 85 -145v-346h-55v343c0 34.667 -9.33301 61.667 -28 81c-22.667 23.333 -56.5 35 -101.5 35s-87.833 -11.333 -128.5 -34v-425h-56v562h-62v55h62v83h56v-83h116v-55h-116v-88z" />
    <glyph glyph-name="Itilde" unicode="&#x128;" horiz-adv-x="492" 
d="M286 0h-56v649l-67 2v49h123v-700zM317 786c26 0 49.335 11.667 70.002 35l25 -39c-30 -35.333 -62 -53 -96 -53c-12 0 -25.5 3.16699 -40.5 9.5l-47.5 21c-16.667 7.66699 -33.334 11.5 -50.001 11.5c-27.333 0 -52.333 -12 -75 -36l-25 39
c31.333 35.333 64.666 53 99.999 53c12 0 25.5 -3 40.5 -9s31 -12.833 48 -20.5s33.833 -11.5 50.5 -11.5z" />
    <glyph glyph-name="itilde" unicode="&#x129;" horiz-adv-x="445" 
d="M317 587c26 0 49.335 11.667 70.002 35l25 -39c-30 -35.333 -62 -53 -96 -53c-12 0 -25.5 3.16699 -40.5 9.5l-47.5 21c-16.667 7.66699 -33.334 11.5 -50.001 11.5c-27.333 0 -52.333 -12 -75 -36l-25 39c31.333 35.333 64.666 53 99.999 53c12 0 25.5 -3 40.5 -9
s31 -12.833 48 -20.5s33.833 -11.5 50.5 -11.5zM267.002 0h-56v501h56v-501z" />
    <glyph glyph-name="Imacron" unicode="&#x12a;" horiz-adv-x="374" 
d="M245 0h-56v649l-67 2v49h123v-700zM294 730h-216v58h216v-58z" />
    <glyph glyph-name="imacron" unicode="&#x12b;" horiz-adv-x="328" 
d="M295 538h-217v58h217v-58zM218 0h-56v501h56v-501z" />
    <glyph glyph-name="Iogonek" unicode="&#x12e;" horiz-adv-x="347" 
d="M232 0c-69.333 -58 -104.001 -100.333 -104.001 -127c0 -10 3.16699 -19 9.5 -27s16.5 -12 30.5 -12s25.5 3.16699 34.5 9.5s18.167 16.833 27.5 31.5l37 -38c-21.333 -33.333 -53.666 -50 -96.999 -50c-11.333 0 -23 1.5 -35 4.5s-24.5 11.167 -37.5 24.5
s-19.5 31 -19.5 53c0 45.333 32 89 96 131h2v649l-67 2v49h123v-700z" />
    <glyph glyph-name="iogonek" unicode="&#x12f;" horiz-adv-x="245" 
d="M147 0c-69.333 -58 -104.001 -100.333 -104.001 -127c0 -10 3.16699 -19 9.5 -27s16.5 -12 30.5 -12s25.5 3.16699 34.5 9.5s18.167 16.833 27.5 31.5l37 -38c-21.333 -33.333 -53.666 -50 -96.999 -50c-11.333 0 -23 1.5 -35 4.5s-24.5 11.167 -37.5 24.5
s-19.5 31 -19.5 53c0 45.333 32 89 96 131h3v501h56v-501h-1zM120.999 643c-8.66699 0 -16.499 3.49902 -23.499 10.499s-10.5 14.833 -10.5 23.5s3.33301 16.334 10 23.001s14.5 10 23.5 10s16.833 -3.33301 23.5 -10s10 -14.5 10 -23.5s-3.33301 -16.833 -10 -23.5
s-14.334 -10 -23.001 -10z" />
    <glyph glyph-name="Idotaccent" unicode="&#x130;" horiz-adv-x="287" 
d="M201 0h-56v649l-67 2v49h123v-700zM197 740c-6.66699 -6.66699 -14.499 -10.001 -23.499 -10.001s-16.833 3.33301 -23.5 10s-10 14.5 -10 23.5s3.33301 16.833 10 23.5s14.667 10 24 10s17.166 -3.16699 23.499 -9.5s9.5 -14.166 9.5 -23.499s-3.33301 -17.333 -10 -24z
" />
    <glyph glyph-name="dotlessi" unicode="&#x131;" horiz-adv-x="130" 
d="M92 0h-56v501h56v-501z" />
    <glyph glyph-name="Jcircumflex" unicode="&#x134;" horiz-adv-x="265" 
d="M17 -37l-13.001 37c22 0 41.167 9 57.5 27s24.5 47 24.5 87v535l-67 2v49h124v-582c0 -49.333 -11.167 -87.5 -33.5 -114.5s-53.166 -40.5 -92.499 -40.5zM221.999 846v-5c0 -31.333 -11 -58 -33 -80s-48.667 -33 -80 -33s-58 11 -80 33s-33 48.667 -33 80v5h45v-5
c0 -19.333 6.5 -35.5 19.5 -48.5s29.167 -19.5 48.5 -19.5s35.5 6.5 48.5 19.5s19.5 29.167 19.5 48.5v5h45z" />
    <glyph glyph-name="jcircumflex" unicode="&#x135;" horiz-adv-x="401" 
d="M330 541l-105 104l-109 -104l-38 39l148 141l142 -141zM194 -56l-0.00195312 502.001l-45 3l-23 52h124v-576c-1.33301 -38.667 -13.333 -70.667 -36 -96s-52 -38 -88 -38l-7 43c4.66699 0 12.334 2.66699 23.001 8s19.334 11.666 26.001 18.999
c17.333 19.333 26 47 26 83z" />
    <glyph glyph-name="Kcommaaccent" unicode="&#x136;" horiz-adv-x="475" 
d="M476 0h-67l-226 345l-48 -76v-269h-56v701h56v-334l224 334h65l-205 -303zM230 -184l-40 28.001c30 17.333 49.333 32.666 58 45.999l5 7l-10 3c-12 8.66699 -17.833 19 -17.5 31s3.66602 20.833 9.99902 26.5s11.833 8.5 16.5 8.5s9.33398 -0.166992 14.001 -0.5
s10.5 -4.33301 17.5 -12s10.5 -16.5 10.5 -26.5c0 -38.667 -21.333 -75.667 -64 -111z" />
    <glyph glyph-name="kcommaaccent" unicode="&#x137;" horiz-adv-x="434" 
d="M434 0h-67l-192 317l-52 -45v-272h-56v700h56v-365l200 185l40 -39l-148 -129zM206 -184l-40 28.001c30 17.333 49.333 32.666 58 45.999l5 7l-10 3c-12 8.66699 -17.833 19 -17.5 31s3.66602 20.833 9.99902 26.5s11.833 8.5 16.5 8.5s9.33398 -0.166992 14.001 -0.5
s10.5 -4.33301 17.5 -12s10.5 -16.5 10.5 -26.5c0 -38.667 -21.333 -75.667 -64 -111z" />
    <glyph glyph-name="kgreenlandic" unicode="&#x138;" horiz-adv-x="481" 
d="M446 47l2 -48.001c-23.333 0 -45 6.16699 -65 18.5s-35.167 24.5 -45.5 36.5s-24.833 30.667 -43.5 56l-105 144l-55 -56v-198h-56v512l56 -13v-225l208 227h74l-188 -205l127 -179c34 -45.333 64.333 -68.666 91 -69.999z" />
    <glyph glyph-name="Lacute" unicode="&#x139;" horiz-adv-x="440" 
d="M439 0h-361v700h56v-650h305v-50zM185 730h-44l51 118c7.33301 15.333 18 23 32 23c18 0 29.333 -7.66699 34 -23c0.666992 -4 1 -8.33301 1 -13s-1.66699 -9 -5 -13z" />
    <glyph glyph-name="lacute" unicode="&#x13a;" horiz-adv-x="286" 
d="M134 0h-56v700h56v-700zM132 734h-44l51 118c7.33301 15.333 18 23 32 23c18 0 29 -7.66699 33 -23c1.33301 -4 2 -8.33301 2 -13s-1.66699 -9 -5 -13z" />
    <glyph glyph-name="Lcommaaccent" unicode="&#x13b;" horiz-adv-x="440" 
d="M439 0h-361v700h56v-650h305v-50zM241 -184l-40 28.001c30 17.333 49.333 32.666 58 45.999l5 7l-10 3c-12 8.66699 -17.833 19 -17.5 31s3.66602 20.833 9.99902 26.5s11.833 8.5 16.5 8.5s9.33398 -0.166992 14.001 -0.5s10.5 -4.33301 17.5 -12s10.5 -16.5 10.5 -26.5
c0 -38.667 -21.333 -75.667 -64 -111z" />
    <glyph glyph-name="lcommaaccent" unicode="&#x13c;" horiz-adv-x="263" 
d="M175 0h-56v700h56v-700zM118 -184l-40 28.001c30 17.333 49.333 32.666 58 45.999l5 7l-10 3c-12 8.66699 -17.833 19 -17.5 31s3.66602 20.833 9.99902 26.5s11.833 8.5 16.5 8.5s9.33398 -0.166992 14.001 -0.5s10.5 -4.33301 17.5 -12s10.5 -16.5 10.5 -26.5
c0 -38.667 -21.333 -75.667 -64 -111z" />
    <glyph glyph-name="Lcaron" unicode="&#x13d;" horiz-adv-x="555" 
d="M554 0h-361v700h56v-650h305v-50zM368 875l-142 -141l-148 141l38 39l109 -104l105 104z" />
    <glyph glyph-name="lcaron" unicode="&#x13e;" horiz-adv-x="448" 
d="M250 0h-56v700h56v-700zM368 875l-142 -141l-148 141l38 39l109 -104l105 104z" />
    <glyph glyph-name="Lslash" unicode="&#x141;" horiz-adv-x="595" 
d="M562 0h-361v353l-101 -45l-22 50l123 55v287h56v-262l112 51l23 -50l-135 -61v-328h305v-50z" />
    <glyph glyph-name="lslash" unicode="&#x142;" horiz-adv-x="425" 
d="M270 0h-56v359l-114 -51l-22 50l136 61v230l-67 2v49h123v-256l99 45l23 -50l-122 -55v-384z" />
    <glyph glyph-name="Nacute" unicode="&#x143;" horiz-adv-x="650" 
d="M570 0h-56l-380 597v-597h-56v700h56l380 -597v597h56v-700zM322 730h-44l51 118c7.33301 15.333 18 23 32 23c18 0 29 -7.66699 33 -23c1.33301 -4 2 -8.33301 2 -13s-1.66699 -9 -5 -13z" />
    <glyph glyph-name="nacute" unicode="&#x144;" horiz-adv-x="480" 
d="M130 467c34 28.667 81.666 43 142.999 43c34.667 0 64.334 -6.33301 89.001 -19c56.667 -26 85 -74.333 85 -145v-346h-55v343c0 34.667 -9.33301 61.667 -28 81c-22.667 23.333 -56.5 35 -101.5 35s-87.833 -11.333 -128.5 -34v-425h-56v501h56zM274.999 538h-44l51 118
c7.33301 15.333 18 23 32 23c18 0 29.333 -7.66699 34 -23c0.666992 -4 1 -8.33301 1 -13s-1.66699 -9 -5 -13z" />
    <glyph glyph-name="Ncommaaccent" unicode="&#x145;" horiz-adv-x="650" 
d="M570 0h-56l-380 597v-597h-56v700h56l380 -597v597h56v-700zM314 -184l-40 28.001c30 17.333 49.333 32.666 58 45.999l5 7l-10 3c-12 8.66699 -17.833 19 -17.5 31s3.66602 20.833 9.99902 26.5s11.833 8.5 16.5 8.5s9.33398 -0.166992 14.001 -0.5
s10.5 -4.33301 17.5 -12s10.5 -16.5 10.5 -26.5c0 -38.667 -21.333 -75.667 -64 -111z" />
    <glyph glyph-name="ncommaaccent" unicode="&#x146;" horiz-adv-x="500" 
d="M116 467c34 28.667 81.666 43 142.999 43c34.667 0 64.334 -6.33301 89.001 -19c56.667 -26 85 -74.333 85 -145v-346h-55v343c0 34.667 -9.33301 61.667 -28 81c-22.667 23.333 -56.5 35 -101.5 35s-87.833 -11.333 -128.5 -34v-425h-56v501h56zM217.999 -184
l-40 28.001c30 17.333 49.333 32.666 58 45.999l5 7l-10 3c-12 8.66699 -17.833 19 -17.5 31s3.66602 20.833 9.99902 26.5s11.833 8.5 16.5 8.5s9.33398 -0.166992 14.001 -0.5s10.5 -4.33301 17.5 -12s10.5 -16.5 10.5 -26.5c0 -38.667 -21.333 -75.667 -64 -111z" />
    <glyph glyph-name="Ncaron" unicode="&#x147;" horiz-adv-x="650" 
d="M570 0h-56l-380 597v-597h-56v700h56l380 -597v597h56v-700zM474 875l-142 -141l-148 141l38 39l109 -104l105 104z" />
    <glyph glyph-name="ncaron" unicode="&#x148;" horiz-adv-x="480" 
d="M130 467c34 28.667 81.666 43 142.999 43c34.667 0 64.334 -6.33301 89.001 -19c56.667 -26 85 -74.333 85 -145v-346h-55v343c0 34.667 -9.33301 61.667 -28 81c-22.667 23.333 -56.5 35 -101.5 35s-87.833 -11.333 -128.5 -34v-425h-56v501h56zM420.999 733l-142 -141
l-148 141l38 39l109 -104l105 104z" />
    <glyph glyph-name="Eng" unicode="&#x14a;" horiz-adv-x="651" 
d="M513 105l-0.000976562 543.999l-67 2v49h125v-582c0 -49.333 -11.167 -87.5 -33.5 -114.5s-53.166 -40.5 -92.499 -40.5c-1.33301 4 -3.5 10.167 -6.5 18.5s-5.16699 14.5 -6.5 18.5c26.667 0 47 11 61 33l-179.5 282l-179.5 282v-597h-56v700h56
c238 -367.333 364.333 -565.666 379 -594.999z" />
    <glyph glyph-name="eng" unicode="&#x14b;" horiz-adv-x="500" 
d="M116 467c34 28.667 81.666 43.001 142.999 43.001c34.667 0 64.334 -6.33301 89.001 -19c56.667 -26 85 -74.333 85 -145v-421c-1.33301 -38.667 -13.333 -70.667 -36 -96s-52 -38 -88 -38l-7 43c4.66699 0 12.5 2.66699 23.5 8s19.833 11.666 26.5 18.999
c17.333 19.333 26 47 26 83v399c0 34.667 -9.33301 61.667 -28 81c-22.667 23.333 -56.5 35 -101.5 35s-87.833 -11.333 -128.5 -34v-425h-56v501h56z" />
    <glyph glyph-name="Omacron" unicode="&#x14c;" horiz-adv-x="549" 
d="M483 506v-321.001c0 -67.333 -20.5 -116.833 -61.5 -148.5s-90.167 -47.5 -147.5 -47.5s-106.833 15.833 -148.5 47.5s-62.5 81.167 -62.5 148.5v322c0 68.667 18.833 120.667 56.5 156s89.5 53 155.5 53s117.167 -18.667 153.5 -56s54.5 -88.666 54.5 -153.999z
M428 186.999v328.999c0 48.667 -14.167 85.334 -42.5 110.001s-65.833 37 -112.5 37s-84 -12.333 -112 -37s-42 -61.334 -42 -110.001v-330c0 -47.333 14.5 -83.166 43.5 -107.499s66 -36.5 111 -36.5s82 11.833 111 35.5s43.5 60.167 43.5 109.5zM377 729.998h-217v58h217
v-58z" />
    <glyph glyph-name="omacron" unicode="&#x14d;" 
d="M451 316l0.000976562 -132c0 -56 -15.333 -102.333 -46 -139s-77 -55 -139 -55s-108.833 18.5 -140.5 55.5s-47.5 83.167 -47.5 138.5v132c0 63.333 16.167 111.833 48.5 145.5s78.166 50.5 137.499 50.5s105.333 -17.5 138 -52.5s49 -82.833 49 -143.5zM395.001 174v142
c0 96.667 -43 145 -129 145c-88 0 -132 -48.333 -132 -145v-142c0 -40 11.833 -72.333 35.5 -97s56 -37 97 -37s72.667 12.167 95 36.5s33.5 56.833 33.5 97.5zM372.001 538h-216v58h216v-58z" />
    <glyph glyph-name="Ohungarumlaut" unicode="&#x150;" horiz-adv-x="549" 
d="M483 506v-321.001c0 -67.333 -20.5 -116.833 -61.5 -148.5s-90.167 -47.5 -147.5 -47.5s-106.833 15.833 -148.5 47.5s-62.5 81.167 -62.5 148.5v322c0 68.667 18.833 120.667 56.5 156s89.5 53 155.5 53s117.167 -18.667 153.5 -56s54.5 -88.666 54.5 -153.999z
M428 186.999v328.999c0 48.667 -14.167 85.334 -42.5 110.001s-65.833 37 -112.5 37s-84 -12.333 -112 -37s-42 -61.334 -42 -110.001v-330c0 -47.333 14.5 -83.166 43.5 -107.499s66 -36.5 111 -36.5s82 11.833 111 35.5s43.5 60.167 43.5 109.5zM345 730.998h-44l51 118
c7.33301 15.333 18 23 32 23c18 0 29.333 -7.66699 34 -23c0.666992 -4 1 -8.33301 1 -13s-1.66699 -9 -5 -13zM233 730.998h-44l51 118c7.33301 15.333 18 23 32 23c18 0 29.333 -7.66699 34 -23c0.666992 -4 1 -8.33301 1 -13s-1.66699 -9 -5 -13z" />
    <glyph glyph-name="ohungarumlaut" unicode="&#x151;" 
d="M451 316l0.000976562 -132c0 -56 -15.333 -102.333 -46 -139s-77 -55 -139 -55s-108.833 18.5 -140.5 55.5s-47.5 83.167 -47.5 138.5v132c0 63.333 16.167 111.833 48.5 145.5s78.166 50.5 137.499 50.5s105.333 -17.5 138 -52.5s49 -82.833 49 -143.5zM395.001 174v142
c0 96.667 -43 145 -129 145c-88 0 -132 -48.333 -132 -145v-142c0 -40 11.833 -72.333 35.5 -97s56 -37 97 -37s72.667 12.167 95 36.5s33.5 56.833 33.5 97.5zM332.001 543h-44l51 118c7.33301 15.333 18 23 32 23c18 0 29 -7.66699 33 -23c1.33301 -4 2 -8.33301 2 -13
s-1.66699 -9 -5 -13zM220.001 543h-44l51 118c7.33301 15.333 18 23 32 23c18 0 29 -7.66699 33 -23c1.33301 -4 2 -8.33301 2 -13s-1.66699 -9 -5 -13z" />
    <glyph glyph-name="OE" unicode="&#x152;" horiz-adv-x="808" 
d="M498 185l-1 -22v-113h276v-50h-332v40c-38 -34 -87.167 -51 -147.5 -51s-111.333 15.833 -153 47.5s-62.5 81.167 -62.5 148.5v322c0 68.667 18.833 120.667 56.5 156s89.167 53 154.5 53s116 -18 152 -54v38h334v-52h-278v-114c0.666992 -6 1 -15.333 1 -28v-93h190
l-19 -55h-171v-173zM441 157v387c-6 39.333 -22.5 69 -49.5 89s-62.667 30 -107 30s-80.5 -12.333 -108.5 -37s-42 -61.334 -42 -110.001v-330c0 -47.333 14.5 -83.166 43.5 -107.499s64.667 -36.5 107 -36.5s77.5 9.5 105.5 28.5s45 47.833 51 86.5z" />
    <glyph glyph-name="oe" unicode="&#x153;" horiz-adv-x="789" 
d="M563 37c46 0 94.667 13.668 146 41.001l22 -43c-51.333 -31.333 -110.5 -47 -177.5 -47s-113.5 24 -139.5 72c-34.667 -46.667 -83.5 -70 -146.5 -70s-110.333 18.5 -142 55.5s-47.5 83.167 -47.5 138.5v132c0 63.333 16.167 111.833 48.5 145.5s78.833 50.5 139.5 50.5
c70 0 121.667 -27 155 -81c32 52.667 85 79 159 79c55.333 0 98.5 -14.833 129.5 -44.5s46.5 -70.834 46.5 -123.501v-130l-304 -17v-61c0 -36 13 -62 39 -78c20 -12.667 44 -19 72 -19zM395 174.001v142c0 96.667 -43 145 -129 145c-88 0 -132 -48.333 -132 -145v-142
c0 -40 11.833 -72.333 35.5 -97s56 -37 97 -37s72.667 12.167 95 36.5s33.5 56.833 33.5 97.5zM700 262.001l0.000976562 87c0 28.667 -7.66699 52.167 -23 70.5s-31.333 30 -48 35s-33.334 7.5 -50.001 7.5c-36.667 0 -67 -10 -91 -30s-36 -51.333 -36 -94v-88z" />
    <glyph glyph-name="Racute" unicode="&#x154;" horiz-adv-x="564" 
d="M513 0h-57l-85 248c-12 -2 -25.333 -3 -40 -3h-197v-245h-56v700h246c63.333 0 110.5 -19.333 141.5 -58s46.5 -90.667 46.5 -156c0 -31.333 -1.16699 -58 -3.5 -80s-10.5 -47.5 -24.5 -76.5s-34 -50.5 -60 -64.5zM134 300h198c24 0 44.333 4.83301 61 14.5
s29 20.5 37 32.5s14 28.333 18 49c5.33301 23.333 8 53.333 8 90c0 54 -11.5 94.333 -34.5 121s-54.167 40 -93.5 40h-194v-347zM271 730h-44l51 118c7.33301 15.333 18 23 32 23c18 0 29.333 -7.66699 34 -23c0.666992 -4 1 -8.33301 1 -13s-1.66699 -9 -5 -13z" />
    <glyph glyph-name="racute" unicode="&#x155;" horiz-adv-x="361" 
d="M313 450c-25.333 6.66699 -50.999 10 -76.999 10s-49.5 -5.83301 -70.5 -17.5s-31.5 -28.5 -31.5 -50.5v-392h-56v501h56l-3 -35c31.333 28.667 72.666 43 123.999 43c22.667 0 47 -2.66699 73 -8zM182.001 538h-44l51 118c7.33301 15.333 18 23 32 23
c18 0 29 -7.66699 33 -23c1.33301 -4 2 -8.33301 2 -13s-1.66699 -9 -5 -13z" />
    <glyph glyph-name="Rcommaaccent" unicode="&#x156;" horiz-adv-x="564" 
d="M513 0h-57l-85 248c-12 -2 -25.333 -3 -40 -3h-197v-245h-56v700h246c63.333 0 110.5 -19.333 141.5 -58s46.5 -90.667 46.5 -156c0 -31.333 -1.16699 -58 -3.5 -80s-10.5 -47.5 -24.5 -76.5s-34 -50.5 -60 -64.5zM134 300h198c24 0 44.333 4.83301 61 14.5
s29 20.5 37 32.5s14 28.333 18 49c5.33301 23.333 8 53.333 8 90c0 54 -11.5 94.333 -34.5 121s-54.167 40 -93.5 40h-194v-347zM251 -184l-40 28.001c30 17.333 49.333 32.666 58 45.999l5 7l-10 3c-12 8.66699 -17.833 19 -17.5 31s3.66602 20.833 9.99902 26.5
s11.833 8.5 16.5 8.5s9.33398 -0.166992 14.001 -0.5s10.5 -4.33301 17.5 -12s10.5 -16.5 10.5 -26.5c0 -38.667 -21.333 -75.667 -64 -111z" />
    <glyph glyph-name="rcommaaccent" unicode="&#x157;" horiz-adv-x="333" 
d="M296 450c-25.333 6.66699 -50.999 10 -76.999 10s-49.5 -5.83301 -70.5 -17.5s-31.5 -28.5 -31.5 -50.5v-392h-56v501h56l-3 -35c31.333 28.667 72.666 43 123.999 43c22.667 0 47 -2.66699 73 -8zM111.001 -184l-40 28.001c30 17.333 49.333 32.666 58 45.999l5 7l-10 3
c-12 8.66699 -17.833 19 -17.5 31s3.66602 20.833 9.99902 26.5s11.833 8.5 16.5 8.5s9.33398 -0.166992 14.001 -0.5s10.5 -4.33301 17.5 -12s10.5 -16.5 10.5 -26.5c0 -38.667 -21.333 -75.667 -64 -111z" />
    <glyph glyph-name="Rcaron" unicode="&#x158;" horiz-adv-x="564" 
d="M513 0h-57l-85 248c-12 -2 -25.333 -3 -40 -3h-197v-245h-56v700h246c63.333 0 110.5 -19.333 141.5 -58s46.5 -90.667 46.5 -156c0 -31.333 -1.16699 -58 -3.5 -80s-10.5 -47.5 -24.5 -76.5s-34 -50.5 -60 -64.5zM134 300h198c24 0 44.333 4.83301 61 14.5
s29 20.5 37 32.5s14 28.333 18 49c5.33301 23.333 8 53.333 8 90c0 54 -11.5 94.333 -34.5 121s-54.167 40 -93.5 40h-194v-347zM427 875l-142 -141l-148 141l38 39l109 -104l105 104z" />
    <glyph glyph-name="rcaron" unicode="&#x159;" horiz-adv-x="401" 
d="M314 450c-25.333 6.66699 -50.999 10 -76.999 10s-49.5 -5.83301 -70.5 -17.5s-31.5 -28.5 -31.5 -50.5v-392h-56v501h56l-3 -35c31.333 28.667 72.666 43 123.999 43c22.667 0 47 -2.66699 73 -8zM368.001 733l-142 -141l-148 141l38 39l109 -104l105 104z" />
    <glyph glyph-name="Sacute" unicode="&#x15a;" horiz-adv-x="561" 
d="M37 178l56.999 -0.00195312c3.33301 -35.333 21.166 -66.666 53.499 -93.999s73.833 -41 124.5 -41s93.334 11.5 128.001 34.5s52 59.5 52 109.5c0 30.667 -9.83301 56.834 -29.5 78.501s-44.167 38.167 -73.5 49.5l-95.5 36.5c-34.333 13 -66.166 25.833 -95.499 38.5
s-53.833 31.667 -73.5 57s-29.5 55.666 -29.5 90.999c0 46.667 19.333 87 58 121s94.334 51 167.001 51c55.333 0 104 -10 146 -30c0 -1.33301 -5.66699 -19 -17 -53c-38 19.333 -81.5 29 -130.5 29s-88.833 -10.667 -119.5 -32s-46 -51 -46 -89
c0 -42.667 26.333 -76 79 -100c23.333 -10.667 49.166 -20.667 77.499 -30s56.833 -19.666 85.5 -30.999s54.667 -24.166 78 -38.499s42.333 -33.833 57 -58.5s22 -53 22 -85c0 -61.333 -19.5 -110.5 -58.5 -147.5s-97 -55.5 -174 -55.5s-136.333 19.167 -178 57.5
s-63.167 82.166 -64.5 131.499zM283.999 734.998h-44l51 118c7.33301 15.333 18 23 32 23c18 0 29 -7.66699 33 -23c1.33301 -4 2 -8.33301 2 -13s-1.66699 -9 -5 -13z" />
    <glyph glyph-name="sacute" unicode="&#x15b;" horiz-adv-x="471" 
d="M78 127l53 -0.00292969c4 -30 19 -52.5 45 -67.5s54.5 -22.5 85.5 -22.5s58.833 6.83301 83.5 20.5s37 34.334 37 62.001s-9.5 49.167 -28.5 64.5s-42.167 27.333 -69.5 36l-83 27.5c-28 9.66699 -52.667 24.167 -74 43.5c-25.333 22.667 -38 50.834 -38 84.501
s13.5 65 40.5 94s70.833 43.5 131.5 43.5c21.333 0 41.333 -2.5 60 -7.5s32 -9.83301 40 -14.5l12 -7l-19 -46c-24 17.333 -54 26 -90 26s-64.833 -7.66699 -86.5 -23s-32.5 -36 -32.5 -62c0 -25.333 11 -45.166 33 -59.499s47.167 -25.666 75.5 -33.999
s56.5 -17.833 84.5 -28.5s51.667 -27 71 -49s29 -51.333 29 -88s-14.833 -68.334 -44.5 -95.001s-73 -40 -130 -40s-101.833 13.667 -134.5 41s-49.667 61 -51 101zM268 537.997h-44l51 118c7.33301 15.333 18 23 32 23c18 0 29 -7.66699 33 -23
c1.33301 -4 2 -8.33301 2 -13s-1.66699 -9 -5 -13z" />
    <glyph glyph-name="Scircumflex" unicode="&#x15c;" horiz-adv-x="561" 
d="M37 178l56.999 -0.00195312c3.33301 -35.333 21.166 -66.666 53.499 -93.999s73.833 -41 124.5 -41s93.334 11.5 128.001 34.5s52 59.5 52 109.5c0 30.667 -9.83301 56.834 -29.5 78.501s-44.167 38.167 -73.5 49.5l-95.5 36.5c-34.333 13 -66.166 25.833 -95.499 38.5
s-53.833 31.667 -73.5 57s-29.5 55.666 -29.5 90.999c0 46.667 19.333 87 58 121s94.334 51 167.001 51c55.333 0 104 -10 146 -30c0 -1.33301 -5.66699 -19 -17 -53c-38 19.333 -81.5 29 -130.5 29s-88.833 -10.667 -119.5 -32s-46 -51 -46 -89
c0 -42.667 26.333 -76 79 -100c23.333 -10.667 49.166 -20.667 77.499 -30s56.833 -19.666 85.5 -30.999s54.667 -24.166 78 -38.499s42.333 -33.833 57 -58.5s22 -53 22 -85c0 -61.333 -19.5 -110.5 -58.5 -147.5s-97 -55.5 -174 -55.5s-136.333 19.167 -178 57.5
s-63.167 82.166 -64.5 131.499zM376.999 732.998l-105 104l-109 -104l-38 39l148 141l142 -141z" />
    <glyph glyph-name="scircumflex" unicode="&#x15d;" horiz-adv-x="471" 
d="M371 541l-105 104l-109 -104l-38 39l148 141l142 -141zM78 127l53 -0.00292969c4 -30 19 -52.5 45 -67.5s54.5 -22.5 85.5 -22.5s58.833 6.83301 83.5 20.5s37 34.334 37 62.001s-9.5 49.167 -28.5 64.5s-42.167 27.333 -69.5 36l-83 27.5
c-28 9.66699 -52.667 24.167 -74 43.5c-25.333 22.667 -38 50.834 -38 84.501s13.5 65 40.5 94s70.833 43.5 131.5 43.5c21.333 0 41.333 -2.5 60 -7.5s32 -9.83301 40 -14.5l12 -7l-19 -46c-24 17.333 -54 26 -90 26s-64.833 -7.66699 -86.5 -23s-32.5 -36 -32.5 -62
c0 -25.333 11 -45.166 33 -59.499s47.167 -25.666 75.5 -33.999s56.5 -17.833 84.5 -28.5s51.667 -27 71 -49s29 -51.333 29 -88s-14.833 -68.334 -44.5 -95.001s-73 -40 -130 -40s-101.833 13.667 -134.5 41s-49.667 61 -51 101z" />
    <glyph glyph-name="scedilla" unicode="&#x15f;" horiz-adv-x="431" 
d="M110 -191l23.999 52.9951c24.667 -16.667 48 -25 70 -25c46.667 0 70 14 70 42c0 14.667 -6.66699 25.334 -20 32.001c-6 2.66699 -13.667 4 -23 4s-20.666 -2.33301 -33.999 -7l-34 -14l-17 28l50 64c-49.333 4 -88 19.333 -116 46s-42.667 58.334 -44 95.001h53
c4 -30 19 -52.5 45 -67.5s54.5 -22.5 85.5 -22.5s58.833 6.83301 83.5 20.5s37 34.334 37 62.001s-9.5 49.167 -28.5 64.5s-42.167 27.333 -69.5 36l-83 27.5c-28 9.66699 -52.667 24.167 -74 43.5c-25.333 22.667 -38 50.834 -38 84.501s13.5 65 40.5 94
s70.833 43.5 131.5 43.5c21.333 0 41.333 -2.5 60 -7.5s32 -9.83301 40 -14.5l12 -7l-19 -46c-24 17.333 -54 26 -90 26s-64.833 -7.66699 -86.5 -23s-32.5 -36 -32.5 -62c0 -25.333 11 -45.166 33 -59.499s47.167 -25.666 75.5 -33.999s56.5 -17.833 84.5 -28.5
s51.667 -27 71 -49s29 -50.833 29 -86.5s-13.333 -66.5 -40 -92.5s-66 -40.333 -118 -43l-29 -39c6 4 19.167 6 39.5 6s38.333 -6.5 54 -19.5s23.5 -33.333 23.5 -61s-12.333 -48.334 -37 -62.001s-52 -20.5 -82 -20.5s-62.333 6.33301 -97 19z" />
    <glyph glyph-name="Scaron" unicode="&#x160;" horiz-adv-x="561" 
d="M37 178l56.999 -0.00195312c3.33301 -35.333 21.166 -66.666 53.499 -93.999s73.833 -41 124.5 -41s93.334 11.5 128.001 34.5s52 59.5 52 109.5c0 30.667 -9.83301 56.834 -29.5 78.501s-44.167 38.167 -73.5 49.5l-95.5 36.5c-34.333 13 -66.166 25.833 -95.499 38.5
s-53.833 31.667 -73.5 57s-29.5 55.666 -29.5 90.999c0 46.667 19.333 87 58 121s94.334 51 167.001 51c55.333 0 104 -10 146 -30c0 -1.33301 -5.66699 -19 -17 -53c-38 19.333 -81.5 29 -130.5 29s-88.833 -10.667 -119.5 -32s-46 -51 -46 -89
c0 -42.667 26.333 -76 79 -100c23.333 -10.667 49.166 -20.667 77.499 -30s56.833 -19.666 85.5 -30.999s54.667 -24.166 78 -38.499s42.333 -33.833 57 -58.5s22 -53 22 -85c0 -61.333 -19.5 -110.5 -58.5 -147.5s-97 -55.5 -174 -55.5s-136.333 19.167 -178 57.5
s-63.167 82.166 -64.5 131.499zM443.999 924.998l-142 -141l-148 141l38 39l109 -104l105 104z" />
    <glyph glyph-name="scaron" unicode="&#x161;" horiz-adv-x="471" 
d="M78 127l53 -0.00292969c4 -30 19 -52.5 45 -67.5s54.5 -22.5 85.5 -22.5s58.833 6.83301 83.5 20.5s37 34.334 37 62.001s-9.5 49.167 -28.5 64.5s-42.167 27.333 -69.5 36l-83 27.5c-28 9.66699 -52.667 24.167 -74 43.5c-25.333 22.667 -38 50.834 -38 84.501
s13.5 65 40.5 94s70.833 43.5 131.5 43.5c21.333 0 41.333 -2.5 60 -7.5s32 -9.83301 40 -14.5l12 -7l-19 -46c-24 17.333 -54 26 -90 26s-64.833 -7.66699 -86.5 -23s-32.5 -36 -32.5 -62c0 -25.333 11 -45.166 33 -59.499s47.167 -25.666 75.5 -33.999
s56.5 -17.833 84.5 -28.5s51.667 -27 71 -49s29 -51.333 29 -88s-14.833 -68.334 -44.5 -95.001s-73 -40 -130 -40s-101.833 13.667 -134.5 41s-49.667 61 -51 101zM405 731.997l-142 -141l-148 141l38 39l109 -104l105 104z" />
    <glyph glyph-name="Tcommaaccent" unicode="&#x162;" horiz-adv-x="402" 
d="M226 0h-56v650h-170v50h402v-50h-176v-650zM171 -184l-40 28.001c30 17.333 49.333 32.666 58 45.999l5 7l-10 3c-12 8.66699 -17.833 19 -17.5 31s3.66602 20.833 9.99902 26.5s11.833 8.5 16.5 8.5s9.33398 -0.166992 14.001 -0.5s10.5 -4.33301 17.5 -12
s10.5 -16.5 10.5 -26.5c0 -38.667 -21.333 -75.667 -64 -111z" />
    <glyph glyph-name="tcommaaccent" unicode="&#x163;" horiz-adv-x="263" 
d="M186 30l-16 -42.999c-37.333 10.667 -64.333 27.667 -81 51s-25 54.666 -25 93.999v568h56v-199h120l-24 -53h-96v-316c0 -53.333 22 -87.333 66 -102zM84 -183.999l-40 28.001c30 17.333 49.333 32.666 58 45.999l5 7l-10 3c-12 8.66699 -17.833 19 -17.5 31
s3.66602 20.833 9.99902 26.5s11.833 8.5 16.5 8.5s9.33398 -0.166992 14.001 -0.5s10.5 -4.33301 17.5 -12s10.5 -16.5 10.5 -26.5c0 -38.667 -21.333 -75.667 -64 -111z" />
    <glyph glyph-name="Tcaron" unicode="&#x164;" horiz-adv-x="402" 
d="M226 0h-56v650h-170v50h402v-50h-176v-650zM344 875l-142 -141l-148 141l38 39l109 -104l105 104z" />
    <glyph glyph-name="tcaron" unicode="&#x165;" horiz-adv-x="357" 
d="M226 30l-16 -42.999c-37.333 10.667 -64.333 27.667 -81 51s-25 54.666 -25 93.999v568h56v-199h120l-24 -53h-96v-316c0 -53.333 22 -87.333 66 -102zM334 875.001l-142 -141l-148 141l38 39l109 -104l105 104z" />
    <glyph glyph-name="Tbar" unicode="&#x166;" horiz-adv-x="402" 
d="M226 0h-56v650h-170v50h402v-50h-176v-650zM307 730h-217v58h217v-58z" />
    <glyph glyph-name="tbar" unicode="&#x167;" horiz-adv-x="357" 
d="M270 30l-16 -42.999c-37.333 10.667 -64.333 27.667 -81 51s-25 54.666 -25 93.999v171h-70v55h70v342h56v-199h120l-24 -53h-96v-90h108v-55h-108v-171c0 -53.333 22 -87.333 66 -102z" />
    <glyph glyph-name="Utilde" unicode="&#x168;" horiz-adv-x="566" 
d="M439 178l0.000976562 523h56v-515c0 -35.333 -6.16699 -66 -18.5 -92s-29 -46 -50 -60s-43.167 -24.333 -66.5 -31s-48.333 -10 -75 -10s-51.834 3.33301 -75.501 10s-46 17 -67 31s-37.667 34 -50 60s-18.5 56.667 -18.5 92v515h56v-523
c0 -40.667 14.833 -73.334 44.5 -98.001s66.167 -37 109.5 -37s80 12.333 110 37s45 57.334 45 98.001zM359.001 786c26 0 49.335 11.667 70.002 35l25 -39c-30 -35.333 -62 -53 -96 -53c-12 0 -25.5 3.16699 -40.5 9.5l-47.5 21c-16.667 7.66699 -33.334 11.5 -50.001 11.5
c-27.333 0 -52.333 -12 -75 -36l-25 39c31.333 35.333 64.666 53 99.999 53c12 0 25.5 -3 40.5 -9s31 -12.833 48 -20.5s33.833 -11.5 50.5 -11.5z" />
    <glyph glyph-name="utilde" unicode="&#x169;" 
d="M451 0l-55.001 0.000976562l4 51c-16 -20 -36.167 -35.333 -60.5 -46s-48.833 -16 -73.5 -16c-125.333 0 -188 61 -188 183v329h56v-336c0 -42.667 11.833 -74.334 35.5 -95.001s55.834 -31 96.501 -31c86 0 129 42 129 126v336h56v-501zM335.999 597.001
c26 0 49.335 11.667 70.002 35l25 -39c-30 -35.333 -62 -53 -96 -53c-12 0 -25.5 3.16699 -40.5 9.5l-47.5 21c-16.667 7.66699 -33.334 11.5 -50.001 11.5c-27.333 0 -52.333 -12 -75 -36l-25 39c31.333 35.333 64.666 53 99.999 53c12 0 25.5 -3 40.5 -9
s31 -12.833 48 -20.5s33.833 -11.5 50.5 -11.5z" />
    <glyph glyph-name="Umacron" unicode="&#x16a;" horiz-adv-x="566" 
d="M439 178l0.000976562 523h56v-515c0 -35.333 -6.16699 -66 -18.5 -92s-29 -46 -50 -60s-43.167 -24.333 -66.5 -31s-48.333 -10 -75 -10s-51.834 3.33301 -75.501 10s-46 17 -67 31s-37.667 34 -50 60s-18.5 56.667 -18.5 92v515h56v-523
c0 -40.667 14.833 -73.334 44.5 -98.001s66.167 -37 109.5 -37s80 12.333 110 37s45 57.334 45 98.001zM391.001 730h-217v58h217v-58z" />
    <glyph glyph-name="umacron" unicode="&#x16b;" 
d="M451 0l-55.001 0.000976562l4 51c-16 -20 -36.167 -35.333 -60.5 -46s-48.833 -16 -73.5 -16c-125.333 0 -188 61 -188 183v329h56v-336c0 -42.667 11.833 -74.334 35.5 -95.001s55.834 -31 96.501 -31c86 0 129 42 129 126v336h56v-501zM367.999 538.001h-217v58h217
v-58z" />
    <glyph glyph-name="Ubreve" unicode="&#x16c;" horiz-adv-x="566" 
d="M439 178l0.000976562 523h56v-515c0 -35.333 -6.16699 -66 -18.5 -92s-29 -46 -50 -60s-43.167 -24.333 -66.5 -31s-48.333 -10 -75 -10s-51.834 3.33301 -75.501 10s-46 17 -67 31s-37.667 34 -50 60s-18.5 56.667 -18.5 92v515h56v-523
c0 -40.667 14.833 -73.334 44.5 -98.001s66.167 -37 109.5 -37s80 12.333 110 37s45 57.334 45 98.001zM397.001 842v-5c0 -31.333 -11.167 -58 -33.5 -80s-48.833 -33 -79.5 -33s-57.167 11 -79.5 33s-33.5 48.667 -33.5 80v5h45v-5c0 -19.333 6.66699 -35.5 20 -48.5
s29.333 -19.5 48 -19.5s34.667 6.5 48 19.5s20 29.167 20 48.5v5h45z" />
    <glyph glyph-name="ubreve" unicode="&#x16d;" 
d="M383 653v-5c0 -30.667 -11.167 -57.167 -33.5 -79.5s-48.833 -33.5 -79.5 -33.5s-57.167 11.167 -79.5 33.5s-33.5 48.833 -33.5 79.5v5h45v-5c0 -18.667 6.66699 -34.667 20 -48s29.333 -20 48 -20s34.667 6.66699 48 20s20 29.333 20 48v5h45zM451 0
l-55.001 0.000976562l4 51c-16 -20 -36.167 -35.333 -60.5 -46s-48.833 -16 -73.5 -16c-125.333 0 -188 61 -188 183v329h56v-336c0 -42.667 11.833 -74.334 35.5 -95.001s55.834 -31 96.501 -31c86 0 129 42 129 126v336h56v-501z" />
    <glyph glyph-name="Uring" unicode="&#x16e;" horiz-adv-x="566" 
d="M439 178l0.000976562 523h56v-515c0 -35.333 -6.16699 -66 -18.5 -92s-29 -46 -50 -60s-43.167 -24.333 -66.5 -31s-48.333 -10 -75 -10s-51.834 3.33301 -75.501 10s-46 17 -67 31s-37.667 34 -50 60s-18.5 56.667 -18.5 92v515h56v-523
c0 -40.667 14.833 -73.334 44.5 -98.001s66.167 -37 109.5 -37s80 12.333 110 37s45 57.334 45 98.001zM352.001 770c0 18.667 -6.66699 34.667 -20 48s-29.333 20 -48 20s-34.667 -6.66699 -48 -20s-20 -29.333 -20 -48s6.66699 -34.667 20 -48s29.333 -20 48 -20
s34.667 6.66699 48 20s20 29.333 20 48zM284.001 657c-30.667 0 -57.167 11.167 -79.5 33.5s-33.5 48.833 -33.5 79.5s11.167 57.167 33.5 79.5s48.833 33.5 79.5 33.5s57.167 -11.167 79.5 -33.5s33.5 -48.833 33.5 -79.5s-11.167 -57.167 -33.5 -79.5
s-48.833 -33.5 -79.5 -33.5z" />
    <glyph glyph-name="uring" unicode="&#x16f;" 
d="M451 0l-55.001 0.000976562l4 51c-16 -20 -36.167 -35.333 -60.5 -46s-48.833 -16 -73.5 -16c-125.333 0 -188 61 -188 183v329h56v-336c0 -42.667 11.833 -74.334 35.5 -95.001s55.834 -31 96.501 -31c86 0 129 42 129 126v336h56v-501zM337.999 588.001
c0 18.667 -6.66699 34.667 -20 48s-29.333 20 -48 20s-34.667 -6.66699 -48 -20s-20 -29.333 -20 -48s6.66699 -34.667 20 -48s29.333 -20 48 -20s34.667 6.66699 48 20s20 29.333 20 48zM269.999 475.001c-30.667 0 -57.167 11.167 -79.5 33.5s-33.5 48.833 -33.5 79.5
s11.167 57.167 33.5 79.5s48.833 33.5 79.5 33.5s57.167 -11.167 79.5 -33.5s33.5 -48.833 33.5 -79.5s-11.167 -57.167 -33.5 -79.5s-48.833 -33.5 -79.5 -33.5z" />
    <glyph glyph-name="Uhungarumlaut" unicode="&#x170;" horiz-adv-x="566" 
d="M439 178l0.000976562 523h56v-515c0 -35.333 -6.16699 -66 -18.5 -92s-29 -46 -50 -60s-43.167 -24.333 -66.5 -31s-48.333 -10 -75 -10s-51.834 3.33301 -75.501 10s-46 17 -67 31s-37.667 34 -50 60s-18.5 56.667 -18.5 92v515h56v-523
c0 -40.667 14.833 -73.334 44.5 -98.001s66.167 -37 109.5 -37s80 12.333 110 37s45 57.334 45 98.001zM357.001 731h-44l51 118c7.33301 15.333 18 23 32 23c18 0 29.333 -7.66699 34 -23c0.666992 -4 1 -8.33301 1 -13s-1.66699 -9 -5 -13zM245.001 731h-44l51 118
c7.33301 15.333 18 23 32 23c18 0 29.333 -7.66699 34 -23c0.666992 -4 1 -8.33301 1 -13s-1.66699 -9 -5 -13z" />
    <glyph glyph-name="uhungarumlaut" unicode="&#x171;" 
d="M451 0l-55.001 0.000976562l4 51c-16 -20 -36.167 -35.333 -60.5 -46s-48.833 -16 -73.5 -16c-125.333 0 -188 61 -188 183v329h56v-336c0 -42.667 11.833 -74.334 35.5 -95.001s55.834 -31 96.501 -31c86 0 129 42 129 126v336h56v-501zM331.999 543.001h-44l51 118
c7.33301 15.333 18 23 32 23c18 0 29 -7.66699 33 -23c1.33301 -4 2 -8.33301 2 -13s-1.66699 -9 -5 -13zM219.999 543.001h-44l51 118c7.33301 15.333 18 23 32 23c18 0 29 -7.66699 33 -23c1.33301 -4 2 -8.33301 2 -13s-1.66699 -9 -5 -13z" />
    <glyph glyph-name="Uogonek" unicode="&#x172;" horiz-adv-x="566" 
d="M327 -125l36.999 -38.001c-21.333 -33.333 -53.666 -50 -96.999 -50c-11.333 0 -23 1.5 -35 4.5s-24.5 11.167 -37.5 24.5s-19.5 31 -19.5 53c0 43.333 29 85 87 125c-53.333 4 -98 21.333 -134 52s-54 77.334 -54 140.001v515h56v-523
c0 -40.667 14.833 -73.334 44.5 -98.001s66.167 -37 109.5 -37s80 12.333 110 37s45 57.334 45 98.001v523h56v-515c0 -59.333 -16.333 -104.5 -49 -135.5s-73.667 -49.167 -123 -54.5c-65.333 -54.667 -98 -95.667 -98 -123c0 -10 3.16699 -19 9.5 -27s16.5 -12 30.5 -12
s25.5 3.16699 34.5 9.5s18.167 16.833 27.5 31.5z" />
    <glyph glyph-name="uogonek" unicode="&#x173;" horiz-adv-x="481" 
d="M408 0c-69.333 -58 -104.002 -100.332 -104.002 -126.999c0 -10 3.16699 -19 9.5 -27s16.5 -12 30.5 -12s25.5 3.16699 34.5 9.5s18.167 16.833 27.5 31.5l37 -38c-21.333 -33.333 -53.666 -50 -96.999 -50c-11.333 0 -23 1.5 -35 4.5s-24.5 11.167 -37.5 24.5
s-19.5 31 -19.5 53c0 45.333 32 89 96 131h4l4 51c-16 -20 -36.167 -35.333 -60.5 -46s-48.833 -16 -73.5 -16c-125.333 0 -188 61 -188 183v329h56v-336c0 -42.667 11.833 -74.334 35.5 -95.001s55.834 -31 96.501 -31c86 0 129 42 129 126v336h56v-501h-1z" />
    <glyph glyph-name="Ydieresis" unicode="&#x178;" horiz-adv-x="560" 
d="M399 -7l-12.999 37.002c40.667 15.333 61 56 61 122v142c-18 -16 -42 -28.167 -72 -36.5s-58.667 -12.5 -86 -12.5c-70.667 0 -126.5 17.5 -167.5 52.5s-61.5 86.833 -61.5 155.5v247h56v-257c0 -46.667 16 -82.167 48 -106.5s70.667 -36.5 116 -36.5
s82.666 8.33301 111.999 25s47.666 41.667 54.999 75v300h57v-544c0 -48.667 -9.16699 -86.834 -27.5 -114.501s-44.166 -43.834 -77.499 -48.501zM204.001 731.002c-9.33301 0 -17.166 3.16699 -23.499 9.5s-9.5 14.166 -9.5 23.499s3.16699 17.166 9.5 23.499
s14.166 9.5 23.499 9.5s17.166 -3.16699 23.499 -9.5s9.5 -14.166 9.5 -23.499s-3.16699 -17.166 -9.5 -23.499s-14.166 -9.5 -23.499 -9.5zM360.001 731.002c-9.33301 0 -17.166 3.16699 -23.499 9.5s-9.5 14.166 -9.5 23.499s3.16699 17.166 9.5 23.499
s14.166 9.5 23.499 9.5s17.166 -3.16699 23.499 -9.5s9.5 -14.166 9.5 -23.499s-3.16699 -17.166 -9.5 -23.499s-14.166 -9.5 -23.499 -9.5z" />
    <glyph glyph-name="Zacute" unicode="&#x179;" horiz-adv-x="550" 
d="M518 0h-487v50l410 599h-397v51h468v-50l-410 -599h416v-51zM248 785h-44l51 118c7.33301 15.333 18 23 32 23c18 0 29 -7.66699 33 -23c1.33301 -4 2 -8.33301 2 -13s-1.66699 -9 -5 -13z" />
    <glyph glyph-name="zacute" unicode="&#x17a;" horiz-adv-x="478" 
d="M445 0h-367v50l275 400h-266v51h337v-50l-277 -400h298v-51zM268 538h-44l51 118c7.33301 15.333 18 23 32 23c18 0 29 -7.66699 33 -23c1.33301 -4 2 -8.33301 2 -13s-1.66699 -9 -5 -13z" />
    <glyph glyph-name="Zdotaccent" unicode="&#x17b;" horiz-adv-x="550" 
d="M518 0h-487v50l410 599h-397v51h468v-50l-410 -599h416v-51zM311 736c-6.66699 -6.66699 -14.499 -10.001 -23.499 -10.001s-16.833 3.33301 -23.5 10s-10 14.5 -10 23.5s3.33301 16.833 10 23.5s14.667 10 24 10s17.166 -3.16699 23.499 -9.5s9.5 -14.166 9.5 -23.499
s-3.33301 -17.333 -10 -24z" />
    <glyph glyph-name="zdotaccent" unicode="&#x17c;" horiz-adv-x="478" 
d="M445 0h-367v50l275 400h-266v51h337v-50l-277 -400h298v-51zM261 535c-8.66699 0 -16.499 3.49902 -23.499 10.499s-10.5 14.833 -10.5 23.5s3.33301 16.334 10 23.001s14.5 10 23.5 10s16.833 -3.33301 23.5 -10s10 -14.5 10 -23.5s-3.33301 -16.833 -10 -23.5
s-14.334 -10 -23.001 -10z" />
    <glyph glyph-name="Zcaron" unicode="&#x17d;" horiz-adv-x="550" 
d="M518 0h-487v50l410 599h-397v51h468v-50l-410 -599h416v-51zM444 925l-142 -141l-148 141l38 39l109 -104l105 104z" />
    <glyph glyph-name="zcaron" unicode="&#x17e;" horiz-adv-x="478" 
d="M445 0h-367v50l275 400h-266v51h337v-50l-277 -400h298v-51zM432 732l-142 -141l-148 141l38 39l109 -104l105 104z" />
    <glyph glyph-name="Scommaaccent" unicode="&#x218;" horiz-adv-x="561" 
d="M37 178l56.999 -0.00195312c3.33301 -35.333 21.166 -66.666 53.499 -93.999s73.833 -41 124.5 -41s93.334 11.5 128.001 34.5s52 59.5 52 109.5c0 30.667 -9.83301 56.834 -29.5 78.501s-44.167 38.167 -73.5 49.5l-95.5 36.5c-34.333 13 -66.166 25.833 -95.499 38.5
s-53.833 31.667 -73.5 57s-29.5 55.666 -29.5 90.999c0 46.667 19.333 87 58 121s94.334 51 167.001 51c55.333 0 104 -10 146 -30c0 -1.33301 -5.66699 -19 -17 -53c-38 19.333 -81.5 29 -130.5 29s-88.833 -10.667 -119.5 -32s-46 -51 -46 -89
c0 -42.667 26.333 -76 79 -100c23.333 -10.667 49.166 -20.667 77.499 -30s56.833 -19.666 85.5 -30.999s54.667 -24.166 78 -38.499s42.333 -33.833 57 -58.5s22 -53 22 -85c0 -61.333 -19.5 -110.5 -58.5 -147.5s-97 -55.5 -174 -55.5s-136.333 19.167 -178 57.5
s-63.167 82.166 -64.5 131.499zM244.999 -184.002l-40 28.001c30 17.333 49.333 32.666 58 45.999l5 7l-10 3c-12 8.66699 -17.833 19 -17.5 31s3.66602 20.833 9.99902 26.5s11.833 8.5 16.5 8.5s9.33398 -0.166992 14.001 -0.5s10.5 -4.33301 17.5 -12
s10.5 -16.5 10.5 -26.5c0 -38.667 -21.333 -75.667 -64 -111z" />
    <glyph glyph-name="scommaaccent" unicode="&#x219;" horiz-adv-x="431" 
d="M36 127l53 -0.00292969c4 -30 19 -52.5 45 -67.5s54.5 -22.5 85.5 -22.5s58.833 6.83301 83.5 20.5s37 34.334 37 62.001s-9.5 49.167 -28.5 64.5s-42.167 27.333 -69.5 36l-83 27.5c-28 9.66699 -52.667 24.167 -74 43.5c-25.333 22.667 -38 50.834 -38 84.501
s13.5 65 40.5 94s70.833 43.5 131.5 43.5c21.333 0 41.333 -2.5 60 -7.5s32 -9.83301 40 -14.5l12 -7l-19 -46c-24 17.333 -54 26 -90 26s-64.833 -7.66699 -86.5 -23s-32.5 -36 -32.5 -62c0 -25.333 11 -45.166 33 -59.499s47.167 -25.666 75.5 -33.999
s56.5 -17.833 84.5 -28.5s51.667 -27 71 -49s29 -51.333 29 -88s-14.833 -68.334 -44.5 -95.001s-73 -40 -130 -40s-101.833 13.667 -134.5 41s-49.667 61 -51 101zM186 -184.003l-40 28.001c30 17.333 49.333 32.666 58 45.999l5 7l-10 3c-12 8.66699 -17.833 19 -17.5 31
s3.66602 20.833 9.99902 26.5s11.833 8.5 16.5 8.5s9.33398 -0.166992 14.001 -0.5s10.5 -4.33301 17.5 -12s10.5 -16.5 10.5 -26.5c0 -38.667 -21.333 -75.667 -64 -111z" />
    <glyph glyph-name="circumflex" unicode="&#x2c6;" horiz-adv-x="394" 
d="M298 591l-105 104l-109 -104l-38 39l148 141l142 -141z" />
    <glyph glyph-name="caron" unicode="&#x2c7;" horiz-adv-x="394" 
d="M336 732l-142 -141l-148 141l38 39l109 -104l105 104z" />
    <glyph glyph-name="breve" unicode="&#x2d8;" horiz-adv-x="330" 
d="M272 700v-5c0 -31.333 -11 -58 -33 -80s-48.667 -33 -80 -33s-58 11 -80 33s-33 48.667 -33 80v5h45v-5c0 -19.333 6.5 -35.5 19.5 -48.5s29.167 -19.5 48.5 -19.5s35.5 6.5 48.5 19.5s19.5 29.167 19.5 48.5v5h45z" />
    <glyph glyph-name="dotaccent" unicode="&#x2d9;" horiz-adv-x="67" 
d="M57 653c-6.66699 -6.66699 -14.499 -10.001 -23.499 -10.001s-16.833 3.5 -23.5 10.5s-10 14.833 -10 23.5s3.33301 16.334 10 23.001s14.667 10 24 10s17.166 -3.33301 23.499 -10s9.5 -14.5 9.5 -23.5s-3.33301 -16.833 -10 -23.5z" />
    <glyph glyph-name="ring" unicode="&#x2da;" horiz-adv-x="222" 
d="M179 662c0 18.667 -6.5 34.667 -19.5 48s-29.167 20 -48.5 20s-35.5 -6.66699 -48.5 -20s-19.5 -29.333 -19.5 -48s6.5 -34.667 19.5 -48s29.167 -20 48.5 -20s35.5 6.66699 48.5 20s19.5 29.333 19.5 48zM111 549c-31.333 0 -58 11.167 -80 33.5s-33 48.833 -33 79.5
s11 57.167 33 79.5s48.667 33.5 80 33.5s58 -11.167 80 -33.5s33 -48.833 33 -79.5s-11 -57.167 -33 -79.5s-48.667 -33.5 -80 -33.5z" />
    <glyph glyph-name="ogonek" unicode="&#x2db;" horiz-adv-x="222" 
d="M230 3c-69.333 -58 -104.001 -100.333 -104.001 -127c0 -10 3.16699 -19 9.5 -27s16.5 -12 30.5 -12s25.5 3.16699 34.5 9.5s18.167 16.833 27.5 31.5l37 -38c-21.333 -33.333 -53.666 -50 -96.999 -50c-11.333 0 -23 1.5 -35 4.5s-24.5 11.167 -37.5 24.5
s-19.5 31 -19.5 53c0 45.333 32 89 96 131h58z" />
    <glyph glyph-name="tilde" unicode="&#x2dc;" horiz-adv-x="445" 
d="M317 662c26 0 49.335 11.667 70.002 35l25 -39c-30 -35.333 -62 -53 -96 -53c-12 0 -25.5 3.16699 -40.5 9.5l-47.5 21c-16.667 7.66699 -33.334 11.5 -50.001 11.5c-27.333 0 -52.333 -12 -75 -36l-25 39c31.333 35.333 64.666 53 99.999 53c12 0 25.5 -3 40.5 -9
s31 -12.833 48 -20.5s33.833 -11.5 50.5 -11.5z" />
    <glyph glyph-name="hungarumlaut" unicode="&#x2dd;" horiz-adv-x="226" 
d="M154 568h-44l51 118c7.33301 15.333 18 23 32 23c18 0 29 -7.66699 33 -23c1.33301 -4 2 -8.33301 2 -13s-1.66699 -9 -5 -13zM42 568h-44l51 118c7.33301 15.333 18 23 32 23c18 0 29 -7.66699 33 -23c1.33301 -4 2 -8.33301 2 -13s-1.66699 -9 -5 -13z" />
    <glyph glyph-name="dieresistonos" unicode="&#x385;" horiz-adv-x="333" 
d="M111 664c-8.66699 0 -16.334 3.33301 -23.001 10s-10 14.334 -10 23.001s3.33301 16.334 10 23.001s14.334 10 23.001 10s16.334 -3.33301 23.001 -10s10 -14.334 10 -23.001s-3.33301 -16.334 -10 -23.001s-14.334 -10 -23.001 -10zM267 664
c-8.66699 0 -16.334 3.33301 -23.001 10s-10 14.334 -10 23.001s3.33301 16.334 10 23.001s14.334 10 23.001 10s16.334 -3.33301 23.001 -10s10 -14.334 10 -23.001s-3.33301 -16.334 -10 -23.001s-14.334 -10 -23.001 -10zM210 731h-44l51 118c7.33301 15.333 18 23 32 23
c18 0 29 -7.66699 33 -23c1.33301 -4 2 -8.33301 2 -13s-1.66699 -9 -5 -13z" />
    <glyph glyph-name="Alphatonos" unicode="&#x386;" horiz-adv-x="616" 
d="M583 0h-60l-80 245h-228l-78 -245h-59l224 700h53zM428 300l-100 313l-97 -313h197zM128 568h-44l51 118c7.33301 15.333 18 23 32 23c18 0 29 -7.66699 33 -23c1.33301 -4 2 -8.33301 2 -13s-1.66699 -9 -5 -13z" />
    <glyph glyph-name="Epsilontonos" unicode="&#x388;" horiz-adv-x="612" 
d="M122 568l-44 0.000976562l51 118c7.33301 15.333 18 23 32 23c18 0 29 -7.66699 33 -23c3.33301 -10.667 2.33301 -19.334 -3 -26.001zM577 0.000976562h-332v700h334v-52h-278v-235h191l-19 -55h-172v-308h276v-50z" />
    <glyph glyph-name="Etatonos" unicode="&#x389;" horiz-adv-x="710" 
d="M122 568l-44 0.000976562l51 118c7.33301 15.333 18 23 32 23c18 0 29 -7.66699 33 -23c3.33301 -10.667 2.33301 -19.334 -3 -26.001zM677 0.000976562h-56v358h-318v-358h-56v700h56v-287h318v287h56v-700z" />
    <glyph glyph-name="Iotatonos" unicode="&#x38a;" horiz-adv-x="390" 
d="M357 0h-56v649l-67 2v49h123v-700zM122 568h-44l51 118c7.33301 15.333 18 23 32 23c18 0 29 -7.66699 33 -23c1.33301 -4 2 -8.33301 2 -13s-1.66699 -9 -5 -13z" />
    <glyph glyph-name="Omicrontonos" unicode="&#x38c;" horiz-adv-x="648" 
d="M615 506v-321.001c0 -67.333 -20.5 -116.833 -61.5 -148.5s-90.167 -47.5 -147.5 -47.5s-106.833 15.833 -148.5 47.5s-62.5 81.167 -62.5 148.5v322c0 68.667 18.833 120.667 56.5 156s89.5 53 155.5 53s117.167 -18.667 153.5 -56s54.5 -88.666 54.5 -153.999z
M560 186.999v328.999c0 48.667 -14.167 85.334 -42.5 110.001s-65.833 37 -112.5 37s-84 -12.333 -112 -37s-42 -61.334 -42 -110.001v-330c0 -47.333 14.5 -83.166 43.5 -107.499s66 -36.5 111 -36.5s82 11.833 111 35.5s43.5 60.167 43.5 109.5zM122 567.998h-44l51 118
c7.33301 15.333 18 23 32 23c18 0 29 -7.66699 33 -23c1.33301 -4 2 -8.33301 2 -13s-1.66699 -9 -5 -13z" />
    <glyph glyph-name="Upsilontonos" unicode="&#x38e;" horiz-adv-x="714" 
d="M122 568l-44 0.000976562l51 118c7.33301 15.333 18 23 32 23c18 0 29 -7.66699 33 -23c3.33301 -10.667 2.33301 -19.334 -3 -26.001zM576 -6.99902l-12.999 37.002c40.667 15.333 61 56 61 122v142c-18 -16 -42 -28.167 -72 -36.5s-58.667 -12.5 -86 -12.5
c-70.667 0 -126.5 17.5 -167.5 52.5s-61.5 86.833 -61.5 155.5v247h56v-257c0 -46.667 16 -82.167 48 -106.5s70.667 -36.5 116 -36.5s82.666 8.33301 111.999 25s47.666 41.667 54.999 75v300h57v-544c0 -48.667 -9.16699 -86.834 -27.5 -114.501
s-44.166 -43.834 -77.499 -48.501z" />
    <glyph glyph-name="Omegatonos" unicode="&#x38f;" horiz-adv-x="719" 
d="M686 0l-228.002 0.00195312v51c50.667 10 85 20.333 103 31c37.333 22 56 60 56 114v317c0 44.667 -12.167 79.667 -36.5 105s-56.166 38 -95.499 38h-112c-39.333 0 -71.166 -12.667 -95.499 -38s-36.5 -60.333 -36.5 -105v-317c0 -40 10.667 -72 32 -96
c18 -20.667 57 -36.334 117 -47.001c4.66699 -0.666992 8 -1.33398 10 -2.00098v-51h-228l17 51h65c-46 28.667 -69 77 -69 145v307c0 61.333 15.667 110.666 47 147.999s78.333 56 141 56h112c62.667 0 109.667 -18.667 141 -56s47 -86.666 47 -147.999v-307
c0 -66.667 -24.333 -115 -73 -145h69zM121.998 568.002h-44l51 118c7.33301 15.333 18 23 32 23c18 0 29 -7.66699 33 -23c1.33301 -4 2 -8.33301 2 -13s-1.66699 -9 -5 -13z" />
    <glyph glyph-name="iotadieresistonos" unicode="&#x390;" horiz-adv-x="333" 
d="M218 0h-56v501h56v-501zM213 579l-44.001 0.000976562l51 118c7.33301 15.333 18 23 32 23c18 0 29.333 -7.66699 34 -23c2.66699 -10.667 1.33398 -19.334 -3.99902 -26.001zM110.999 541.001c-8.66699 0 -16.334 3.16699 -23.001 9.5s-10 14.166 -10 23.499
s3.33301 17.166 10 23.499s14.334 9.5 23.001 9.5s16.334 -3.16699 23.001 -9.5s10 -14.166 10 -23.499s-3.33301 -17.166 -10 -23.499s-14.334 -9.5 -23.001 -9.5zM266.999 541.001c-8.66699 0 -16.334 3.16699 -23.001 9.5s-10 14.166 -10 23.499
s3.33301 17.166 10 23.499s14.334 9.5 23.001 9.5s16.334 -3.16699 23.001 -9.5s10 -14.166 10 -23.499s-3.33301 -17.166 -10 -23.499s-14.334 -9.5 -23.001 -9.5z" />
    <glyph glyph-name="Alpha" unicode="&#x391;" horiz-adv-x="523" 
d="M517 0h-60l-80 245h-228l-78 -245h-59l224 700h53zM362 300l-100 313l-97 -313h197z" />
    <glyph glyph-name="Beta" unicode="&#x392;" horiz-adv-x="544" 
d="M308 0h-229.999v700h221c54.667 0 97.667 -14 129 -42s47 -71.5 47 -130.5s-22 -103.5 -66 -133.5c-0.666992 -0.666992 -1 -1.33398 -1 -2.00098v-1c29.333 -13.333 53.833 -35 73.5 -65s29.5 -69 29.5 -117c0 -53.333 -13.667 -99.666 -41 -138.999
c-14 -21.333 -34.833 -38.333 -62.5 -51s-60.834 -19 -99.501 -19zM134.001 413h163.001c37.333 0 66.666 10 87.999 30s32 49 32 87c0 78 -42 117 -126 117h-157v-234zM134.002 53h172c96.667 0 145 53.333 145 160c0 46.667 -12.667 82.5 -38 107.5s-55.333 37.5 -90 37.5
h-189v-305z" />
    <glyph glyph-name="Gamma" unicode="&#x393;" horiz-adv-x="445" 
d="M134 0h-56v700h334v-53h-278v-647z" />
    <glyph glyph-name="uni0394" unicode="&#x394;" horiz-adv-x="523" 
d="M517 0h-505l224 700h53zM441 50l-179 563l-176 -563h355z" />
    <glyph glyph-name="Epsilon" unicode="&#x395;" horiz-adv-x="445" 
d="M410 0h-332v700h334v-52h-278v-235h191l-19 -55h-172v-308h276v-50z" />
    <glyph glyph-name="Zeta" unicode="&#x396;" horiz-adv-x="598" 
d="M565 0h-487v50l410 599h-397v51h468v-50l-410 -599h416v-51z" />
    <glyph glyph-name="Eta" unicode="&#x397;" horiz-adv-x="581" 
d="M510 0h-56v358h-318v-358h-56v700h56v-287h318v287h56v-700z" />
    <glyph glyph-name="Theta" unicode="&#x398;" horiz-adv-x="595" 
d="M562 506v-321.001c0 -67.333 -20.5 -116.833 -61.5 -148.5s-90.167 -47.5 -147.5 -47.5s-106.833 15.833 -148.5 47.5s-62.5 81.167 -62.5 148.5v322c0 68.667 18.833 120.667 56.5 156s89.5 53 155.5 53s117.167 -18.667 153.5 -56s54.5 -88.666 54.5 -153.999z
M198 515.999v-158h309v158c0 48.667 -14.167 85.334 -42.5 110.001s-65.833 37 -112.5 37s-84 -12.333 -112 -37s-42 -61.334 -42 -110.001zM507 186.999v115.999h-309v-117c0 -47.333 14.5 -83.166 43.5 -107.499s66 -36.5 111 -36.5s82 11.833 111 35.5
s43.5 60.167 43.5 109.5z" />
    <glyph glyph-name="Iota" unicode="&#x399;" horiz-adv-x="274" 
d="M203 0h-56v649l-67 2v49h123v-700z" />
    <glyph glyph-name="Kappa" unicode="&#x39a;" horiz-adv-x="508" 
d="M475 0h-67l-226 345l-48 -76v-269h-56v701h56v-334l224 334h65l-205 -303z" />
    <glyph glyph-name="Lambda" unicode="&#x39b;" horiz-adv-x="523" 
d="M517 0h-60l-195 613l-191 -613h-59l224 700h53z" />
    <glyph glyph-name="Mu" unicode="&#x39c;" horiz-adv-x="687" 
d="M616 0h-56v535l-182 -535h-61l-181 535v-535h-56v700h56l211 -614l213 614h56v-700z" />
    <glyph glyph-name="Nu" unicode="&#x39d;" horiz-adv-x="643" 
d="M572 0h-56l-380 597v-597h-56v700h56l380 -597v597h56v-700z" />
    <glyph glyph-name="Xi" unicode="&#x39e;" horiz-adv-x="620" 
d="M469 358h-264v55h264v-55zM527 649h-303.999c-52 0 -86 -23.333 -102 -70l-43 16c10.667 37.333 27.667 64.333 51 81s54.666 25 93.999 25h325zM442.001 0h-325.001l21 52h304c52 0 86 23.333 102 70l43 -16c-10.667 -37.333 -27.667 -64.333 -51 -81
s-54.666 -25 -93.999 -25z" />
    <glyph glyph-name="Omicron" unicode="&#x39f;" horiz-adv-x="543" 
d="M482 506v-321.001c0 -67.333 -20.5 -116.833 -61.5 -148.5s-90.167 -47.5 -147.5 -47.5s-106.833 15.833 -148.5 47.5s-62.5 81.167 -62.5 148.5v322c0 68.667 18.833 120.667 56.5 156s89.5 53 155.5 53s117.167 -18.667 153.5 -56s54.5 -88.666 54.5 -153.999z
M427 186.999v328.999c0 48.667 -14.167 85.334 -42.5 110.001s-65.833 37 -112.5 37s-84 -12.333 -112 -37s-42 -61.334 -42 -110.001v-330c0 -47.333 14.5 -83.166 43.5 -107.499s66 -36.5 111 -36.5s82 11.833 111 35.5s43.5 60.167 43.5 109.5z" />
    <glyph glyph-name="Pi" unicode="&#x3a0;" horiz-adv-x="581" 
d="M510 0h-56v645h-318v-645h-56v700h430v-700z" />
    <glyph glyph-name="Rho" unicode="&#x3a1;" horiz-adv-x="545" 
d="M134 300h198c24 0 44.333 4.83301 61 14.5s29 20.5 37 32.5s14 28.333 18 49c5.33301 23.333 8 53.333 8 90c0 54 -11.5 94.333 -34.5 121s-54.167 40 -93.5 40h-194v-347zM134 0h-56v700h246c63.333 0 110.5 -19.333 141.5 -58s46.5 -90.667 46.5 -156
c0 -23.333 -0.5 -43.166 -1.5 -59.499s-4.83301 -37 -11.5 -62s-16 -45.333 -28 -61s-30 -29.334 -54 -41.001s-52.667 -17.5 -86 -17.5h-197v-245z" />
    <glyph glyph-name="Sigma" unicode="&#x3a3;" horiz-adv-x="579" 
d="M401 0h-323.001l226 384l-210 318h428l-18 -53h-309l176 -262l-200 -336h226c25.333 0 47.333 6.16699 66 18.5s32 29.833 40 52.5l43 -16c-10.667 -37.333 -27.667 -64.333 -51 -81s-54.666 -25 -93.999 -25z" />
    <glyph glyph-name="Tau" unicode="&#x3a4;" horiz-adv-x="513" 
d="M304 0h-56v650h-170v50h402v-50h-176v-650z" />
    <glyph glyph-name="Upsilon" unicode="&#x3a5;" horiz-adv-x="556" 
d="M399 -7l-12.999 37.002c40.667 15.333 61 56 61 122v142c-18 -16 -42 -28.167 -72 -36.5s-58.667 -12.5 -86 -12.5c-70.667 0 -126.5 17.5 -167.5 52.5s-61.5 86.833 -61.5 155.5v247h56v-257c0 -46.667 16 -82.167 48 -106.5s70.667 -36.5 116 -36.5
s82.666 8.33301 111.999 25s47.666 41.667 54.999 75v300h57v-544c0 -48.667 -9.16699 -86.834 -27.5 -114.501s-44.166 -43.834 -77.499 -48.501z" />
    <glyph glyph-name="Phi" unicode="&#x3a6;" horiz-adv-x="638" 
d="M368 -35l-57.999 13v52h-44c-63.333 0 -110.5 17.333 -141.5 52s-46.5 82.334 -46.5 143.001v292c0 101.333 38.667 164.333 116 189l30 -45c-60 -15.333 -90 -63.333 -90 -144v-302c0 -44 12 -77.333 36 -100s56 -34 96 -34h44v524c2 33.333 12.667 59.333 32 78
s44.666 28 75.999 28c58 0 103.667 -18.167 137 -54.5s50 -84.833 50 -145.5v-286c0 -60.667 -15.5 -108.334 -46.5 -143.001s-78.167 -52 -141.5 -52h-49v-65zM549.001 215l0.000976562 306c0 45.333 -12.833 79.5 -38.5 102.5s-53.834 34.5 -84.501 34.5
c-38.667 0 -58 -20.667 -58 -62v-515h49c40 0 72 11.333 96 34s36 56 36 100z" />
    <glyph glyph-name="Chi" unicode="&#x3a7;" horiz-adv-x="618" 
d="M585 0h-69l-184 294l-185 -294h-69l221 352l-202 348h63l172 -294l174 294h63l-203 -348z" />
    <glyph glyph-name="Psi" unicode="&#x3a8;" horiz-adv-x="632" 
d="M351 0l-56.999 -0.000976562l-1 212h-44c-63.333 0 -110.5 17.167 -141.5 51.5s-46.5 81.833 -46.5 142.5v294h56v-304c0 -44 12 -77.333 36 -100s56 -34 96 -34h44v438h58v-438h49c40 0 72 11.333 96 34s36 56 36 100v168c0 26.667 -2.33301 48.834 -7 66.501
s-9.33398 29.5 -14.001 35.5s-12.667 15 -24 27l45 16c18 -11.333 31.333 -26.833 40 -46.5s13.5 -36.5 14.5 -50.5s1.5 -35 1.5 -63v-143c0 -60.667 -15.5 -108.167 -46.5 -142.5s-78.167 -51.5 -141.5 -51.5h-49v-212z" />
    <glyph glyph-name="Iotadieresis" unicode="&#x3aa;" horiz-adv-x="373" 
d="M113 731c-8.66699 0 -16.334 3.16699 -23.001 9.5s-10 14.166 -10 23.499s3.33301 17.166 10 23.499s14.334 9.5 23.001 9.5s16.334 -3.16699 23.001 -9.5s10 -14.166 10 -23.499s-3.33301 -17.166 -10 -23.499s-14.334 -9.5 -23.001 -9.5zM269 731
c-8.66699 0 -16.334 3.16699 -23.001 9.5s-10 14.166 -10 23.499s3.33301 17.166 10 23.499s14.334 9.5 23.001 9.5s16.334 -3.16699 23.001 -9.5s10 -14.166 10 -23.499s-3.33301 -17.166 -10 -23.499s-14.334 -9.5 -23.001 -9.5zM220 0h-56v649l-67 2v49h123v-700z" />
    <glyph glyph-name="Upsilondieresis_alt" unicode="&#x3ab;" horiz-adv-x="507" 
d="M154 729c-9.33301 0 -17.166 3.16699 -23.499 9.5s-9.5 14.166 -9.5 23.499s3.16699 17.166 9.5 23.499s14.166 9.5 23.499 9.5s17.166 -3.16699 23.499 -9.5s9.5 -14.166 9.5 -23.499s-3.16699 -17.166 -9.5 -23.499s-14.166 -9.5 -23.499 -9.5zM310 729
c-9.33301 0 -17.166 3.16699 -23.499 9.5s-9.5 14.166 -9.5 23.499s3.16699 17.166 9.5 23.499s14.166 9.5 23.499 9.5s17.166 -3.16699 23.499 -9.5s9.5 -14.166 9.5 -23.499s-3.16699 -17.166 -9.5 -23.499s-14.166 -9.5 -23.499 -9.5zM266 0h-56v340l-208 360h63
l172 -294l174 294h63l-208 -358v-342z" />
    <glyph glyph-name="alphatonos" unicode="&#x3ac;" horiz-adv-x="506" 
d="M226 508c53.333 0 106.999 -13.6689 160.999 -41.002l19 41l44 -22c-4.66699 -43.333 -7 -75.666 -7 -96.999v-312c4 -18.667 14 -32.667 30 -42l-27 -33c-4 0 -10.5 0.5 -19.5 1.5s-22.5 0.5 -40.5 -1.5c-49.333 -4.66699 -87.5 -7 -114.5 -7s-47.5 1.66699 -61.5 5
s-30.833 8.83301 -50.5 16.5s-34.5 17.834 -44.5 30.501c-24.667 31.333 -37 72 -37 122v185c0 37.333 7.16699 68 21.5 92s32.333 40.333 54 49s45.834 13 72.501 13zM386.999 414.998c-69.333 27.333 -124.001 41.001 -164.001 41.001c-12 0 -24.333 -1.83301 -37 -5.5
s-24.667 -13.834 -36 -30.501s-17 -39.667 -17 -69v-189c0 -75.333 39.667 -114 119 -116c4.66699 -0.666992 16.834 -1 36.501 -1s52.5 3 98.5 9v361zM280.998 537.999h-44l51 118c7.33301 15.333 18 23 32 23c18 0 29.333 -7.66699 34 -23c0.666992 -4 1 -8.33301 1 -13
s-1.66699 -9 -5 -13z" />
    <glyph glyph-name="epsilontonos" unicode="&#x3ad;" horiz-adv-x="456" 
d="M269 538l-44.001 0.000976562l51 118c7.33301 15.333 18 23 32 23c18 0 29.333 -7.66699 34 -23c2.66699 -10.667 1.33398 -19.334 -3.99902 -26.001zM352.999 445.001c-28.667 8.66699 -59.333 12.999 -92 12.999l-31 -1c-21.333 -2 -39 -9 -53 -21s-21 -28.5 -21 -49.5
s6.66699 -40.5 20 -58.5s32.333 -27 57 -27h119l-19 -54h-100c-31.333 0 -55.666 -8.66699 -72.999 -26s-26 -42.166 -26 -74.499s10.333 -58 31 -77s51.667 -28.5 93 -28.5c44 0 87 8.33301 129 25l20 8l16 -51c-52 -22.667 -106.167 -34 -162.5 -34
s-99.833 13.667 -130.5 41c-34.667 30.667 -52 71 -52 121c0 64.667 25 107.334 75 128.001c-16.667 8.66699 -30 23.5 -40 44.5s-15 38.167 -15 51.5s0.666992 23.666 2 30.999c5.33301 34 22.166 60 50.499 78s59.833 27 94.5 27s70.667 -5 108 -15v-51z" />
    <glyph glyph-name="etatonos" unicode="&#x3ae;" horiz-adv-x="480" 
d="M293 538l-44.001 0.000976562l51 118c7.33301 15.333 18 23 32 23c18 0 29.333 -7.66699 34 -23c2.66699 -10.667 1.33398 -19.334 -3.99902 -26.001zM129.999 467.001c34 28.667 81.666 43 142.999 43c34.667 0 64.334 -6.33301 89.001 -19
c56.667 -26 85 -74.333 85 -145v-556l-55 24v529c0 34.667 -9.33301 61.667 -28 81c-22.667 23.333 -56.5 35 -101.5 35s-87.833 -11.333 -128.5 -34v-425h-56v501h56z" />
    <glyph glyph-name="iotatonos" unicode="&#x3af;" horiz-adv-x="239" 
d="M132 538h-44l51 118c7.33301 15.333 18 23 32 23c18 0 29 -7.66699 33 -23c1.33301 -4 2 -8.33301 2 -13s-1.66699 -9 -5 -13zM134 0h-56v501h56v-501z" />
    <glyph glyph-name="upsilondieresistonos" unicode="&#x3b0;" horiz-adv-x="491" 
d="M183 541c-8.66699 0 -16.334 3.16699 -23.001 9.5s-10 14.166 -10 23.499s3.33301 17.166 10 23.499s14.334 9.5 23.001 9.5s16.334 -3.16699 23.001 -9.5s10 -14.166 10 -23.499s-3.33301 -17.166 -10 -23.499s-14.334 -9.5 -23.001 -9.5zM339 541
c-8.66699 0 -16.334 3.16699 -23.001 9.5s-10 14.166 -10 23.499s3.33301 17.166 10 23.499s14.334 9.5 23.001 9.5s16.334 -3.16699 23.001 -9.5s10 -14.166 10 -23.499s-3.33301 -17.166 -10 -23.499s-14.334 -9.5 -23.001 -9.5zM285 579l-44.001 0.000976562l51 118
c7.33301 15.333 18 23 32 23c18 0 29.333 -7.66699 34 -23c2.66699 -10.667 1.33398 -19.334 -3.99902 -26.001zM401.999 165.001l-0.000976562 336h56v-329c0 -121.333 -63.333 -182 -190 -182s-190 60.667 -190 182v329h56v-336c0 -42.667 11.833 -74.167 35.5 -94.5
s55.834 -30.5 96.501 -30.5c90.667 0 136 41.667 136 125z" />
    <glyph glyph-name="alpha" unicode="&#x3b1;" horiz-adv-x="506" 
d="M226 508c53.333 0 106.999 -13.6689 160.999 -41.002l19 41l44 -22c-4.66699 -43.333 -7 -75.666 -7 -96.999v-312c4 -18.667 14 -32.667 30 -42l-27 -33c-4 0 -10.5 0.5 -19.5 1.5s-22.5 0.5 -40.5 -1.5c-49.333 -4.66699 -87.5 -7 -114.5 -7s-47.5 1.66699 -61.5 5
s-30.833 8.83301 -50.5 16.5s-34.5 17.834 -44.5 30.501c-24.667 31.333 -37 72 -37 122v185c0 37.333 7.16699 68 21.5 92s32.333 40.333 54 49s45.834 13 72.501 13zM386.999 414.998c-69.333 27.333 -124.001 41.001 -164.001 41.001c-12 0 -24.333 -1.83301 -37 -5.5
s-24.667 -13.834 -36 -30.501s-17 -39.667 -17 -69v-189c0 -75.333 39.667 -114 119 -116c4.66699 -0.666992 16.834 -1 36.501 -1s52.5 3 98.5 9v361z" />
    <glyph glyph-name="beta" unicode="&#x3b2;" horiz-adv-x="481" 
d="M313 494c39.333 -7.33301 71.666 -25.333 96.999 -54s38 -65.334 38 -110.001v-184c0 -42 -9.83301 -75.833 -29.5 -101.5s-46.167 -42.667 -79.5 -51s-66.333 -12.5 -99 -12.5s-68 3.33301 -106 10v-152h-56v698c0 51.333 11.5 91.5 34.5 120.5s58.167 43.5 105.5 43.5
c28.667 0 53.334 -7.66699 74.001 -23c35.333 -25.333 53 -57.166 53 -95.499s-10.667 -67.833 -32 -88.5zM267 443c-50 0 -94 -10.002 -132 -30.002v-373c39.333 -6.66699 74 -10 104 -10c102.667 0 154 37 154 111v186c0 34.667 -9.33301 61.834 -28 81.501
s-41.667 30.834 -69 33.501c-10 0.666992 -19.667 1 -29 1zM135 540.998l0.000976562 -78c33.333 17.333 70.666 32.333 111.999 45c27.333 8 41 28.667 41 62c0 16 -5.66699 32.833 -17 50.5s-29 26.5 -53 26.5c-55.333 0 -83 -35.333 -83 -106z" />
    <glyph glyph-name="gamma" unicode="&#x3b3;" horiz-adv-x="479" 
d="M222 -198c-19.333 16.667 -28.999 40.3311 -28.999 70.998c0 16 3 32.333 9 49l22 73c-18 12.667 -30.5 22.167 -37.5 28.5s-16 18.333 -27 36s-21.167 40.834 -30.5 69.501l-108 372h57l106 -361c8.66699 -32 17.5 -54.5 26.5 -67.5s19.167 -22.5 30.5 -28.5l104 344
c10.667 36 23 63.833 37 83.5s35.667 32.834 65 39.501l37 -31c-2.66699 -1.33301 -7.83398 -3.66602 -15.501 -6.99902s-12.834 -5.83301 -15.501 -7.5s-7.16699 -5.16699 -13.5 -10.5s-11.5 -11 -15.5 -17c-11.333 -18.667 -20.666 -39.334 -27.999 -62.001l-125 -418
c-14.667 -43.333 -22 -72.5 -22 -87.5s3.66699 -27.833 11 -38.5z" />
    <glyph glyph-name="delta" unicode="&#x3b4;" 
d="M215 504c-26.667 25.333 -40 53.8311 -40 85.498s9.83301 58.834 29.5 81.501s49.167 34 88.5 34h45l-21 -51h-33c-18 0 -30.833 -6 -38.5 -18s-11.5 -22.667 -11.5 -32c0 -33.333 15 -60 45 -80c72.667 -48 119 -88 139 -120c22 -35.333 33 -74 33 -116v-104
c0 -129.333 -61.667 -194 -185 -194c-63.333 0 -110.5 17.167 -141.5 51.5s-46.5 81.833 -46.5 142.5v126c0 53.333 11.667 96.833 35 130.5s57.333 54.834 102 63.501zM395 173.998v127.001c0 24.667 -10.167 53.167 -30.5 85.5s-51.5 58.166 -93.5 77.499
c-91.333 -8 -137 -59.333 -137 -154v-136c0 -44 12 -77.333 36 -100s56 -34 96 -34c86 0 129 44.667 129 134z" />
    <glyph glyph-name="epsilon" unicode="&#x3b5;" horiz-adv-x="456" 
d="M353 445c-28.667 8.66699 -59.333 12.999 -92 12.999l-31 -1c-21.333 -2 -39 -9 -53 -21s-21 -28.5 -21 -49.5s6.66699 -40.5 20 -58.5s32.333 -27 57 -27h119l-19 -54h-100c-31.333 0 -55.666 -8.66699 -72.999 -26s-26 -42.166 -26 -74.499s10.333 -58 31 -77
s51.667 -28.5 93 -28.5c44 0 87 8.33301 129 25l20 8l16 -51c-52 -22.667 -106.167 -34 -162.5 -34s-99.833 13.667 -130.5 41c-34.667 30.667 -52 71 -52 121c0 64.667 25 107.334 75 128.001c-16.667 8.66699 -30 23.5 -40 44.5s-15 38.167 -15 51.5
s0.666992 23.666 2 30.999c5.33301 34 22.166 60 50.499 78s59.833 27 94.5 27s70.667 -5 108 -15v-51z" />
    <glyph glyph-name="zeta" unicode="&#x3b6;" horiz-adv-x="467" 
d="M407 -183l-56.002 -26v217c-30 -6.66699 -61.167 -10 -93.5 -10s-62.833 8 -91.5 24c-58.667 32 -88 83.667 -88 155c0 56 12 109 36 159c50.667 105.333 131.334 211 242.001 317h-210v47h272l16 -49c-39.333 -30.667 -82.333 -73 -129 -127
c-83.333 -96 -136.333 -185 -159 -267c-7.33301 -24 -11 -44.333 -11 -61s0.666992 -29.667 2 -39c8.66699 -70 55.334 -105 140.001 -105c36.667 0 80 6.66699 130 20v-255z" />
    <glyph glyph-name="eta" unicode="&#x3b7;" horiz-adv-x="480" 
d="M130 467c34 28.667 81.666 43 142.999 43c34.667 0 64.334 -6.33301 89.001 -19c56.667 -26 85 -74.333 85 -145v-556l-55 24v529c0 34.667 -9.33301 61.667 -28 81c-22.667 23.333 -56.5 35 -101.5 35s-87.833 -11.333 -128.5 -34v-425h-56v501h56z" />
    <glyph glyph-name="theta" unicode="&#x3b8;" horiz-adv-x="503" 
d="M442 505l0.000976562 -314c0 -59.333 -16.5 -107 -49.5 -143s-80 -53.833 -141 -53.5s-107.833 18.333 -140.5 54s-49 83.167 -49 142.5v150c1.33301 42.667 19 75 53 97c-22.667 44 -34 85.333 -34 124c0 43.333 15.667 78.833 47 106.5s72 41.5 122 41.5
c63.333 -1.33301 111.166 -20 143.499 -56s48.5 -85.667 48.5 -149zM386.001 185l-0.000976562 267.001c-7.33301 0.666992 -19.5 1 -36.5 1s-43.667 -3.66699 -80 -11s-70.666 -20.333 -102.999 -39s-48.5 -39.334 -48.5 -62.001v-156c0 -34.667 9.33301 -64 28 -88
c24.667 -32.667 60 -49 106 -49l40 4c26 6 48.167 21 66.5 45s27.5 53.333 27.5 88zM165 463.001c60.667 29.333 123.333 44 188 44c10.667 0 21.667 -0.333008 33 -1c0 54 -13 92.667 -39 116s-58 35 -96 35s-66 -10 -84 -30s-27 -43.333 -27 -70
c0 -30 8.33301 -61.333 25 -94z" />
    <glyph glyph-name="iota" unicode="&#x3b9;" horiz-adv-x="159" 
d="M122 0h-56v501h56v-501z" />
    <glyph glyph-name="kappa" unicode="&#x3ba;" horiz-adv-x="481" 
d="M446 47l2 -48.001c-23.333 0 -45 6.16699 -65 18.5s-35.167 24.5 -45.5 36.5s-24.833 30.667 -43.5 56l-105 144l-55 -56v-198h-56v512l56 -13v-225l208 227h74l-188 -205l127 -179c34 -45.333 64.333 -68.666 91 -69.999z" />
    <glyph glyph-name="lambda" unicode="&#x3bb;" horiz-adv-x="574" 
d="M541 21l-37.0039 -31.0039c-29.333 6.66699 -51 19.834 -65 39.501s-26.333 47.5 -37 83.5l-104 344c-19.333 -10 -34 -28 -44 -54c-3.33301 -8.66699 -7.66602 -22.667 -12.999 -42l-106 -361h-57l108 372c9.33301 28.667 19.5 51.834 30.5 69.501s20 29.667 27 36
s19.5 15.833 37.5 28.5l-23 71c-17.333 50.667 -48.666 77.334 -93.999 80.001v43h5c38 0 67.833 -8 89.5 -24s39.167 -43.667 52.5 -83l142 -468c15.333 -45.333 34.333 -75 57 -89c2.66699 -2 7.83398 -4.66699 15.501 -8s12.834 -5.66602 15.501 -6.99902z" />
    <glyph glyph-name="uni03BC" unicode="&#x3bc;" horiz-adv-x="518" 
d="M485 27l-27 -33c-17.333 0 -32 10.333 -44 31c-24.667 -24.667 -62 -37 -112 -37c-50.667 0 -100.667 13.667 -150 41c-10 5.33301 -15.667 8.33301 -17 9v-248l-57 9v702h57v-396c16 -16 38.667 -30.333 68 -43c33.333 -14.667 65 -22 95 -22
c68.667 0 103 37.667 103 113v345l57 12v-441c2 -18.667 11 -32.667 27 -42z" />
    <glyph glyph-name="nu" unicode="&#x3bd;" horiz-adv-x="496" 
d="M308 0h-77l-153 501h59l133 -443l134 443h59z" />
    <glyph glyph-name="xi" unicode="&#x3be;" horiz-adv-x="413" 
d="M270 50c36 0 72.6699 6 110.003 18v-260l-54 -26v220c-22.667 -4 -44 -6 -64 -6c-64.667 0 -114 19.333 -148 58c-24 27.333 -36 64 -36 110v184c0 46.667 14.167 85 42.5 115s61.833 47 100.5 51c-25.333 21.333 -38 47.333 -38 78s9.66699 57.667 29 81
s48.666 35 87.999 35h45l-21 -51h-33c-18 0 -31.667 -7.66699 -41 -23c-6 -10 -9 -19.667 -9 -29c0 -34 15 -61 45 -81c14 -8.66699 38 -18.667 72 -30l-16 -44c-32.667 8 -64.334 12 -95.001 12s-57.334 -10 -80.001 -30s-34 -49 -34 -87v-186
c0 -72.667 45.667 -109 137 -109z" />
    <glyph glyph-name="omicron" unicode="&#x3bf;" 
d="M451 316l0.000976562 -132c0 -56 -15.333 -102.333 -46 -139s-77 -55 -139 -55s-108.833 18.5 -140.5 55.5s-47.5 83.167 -47.5 138.5v132c0 63.333 16.167 111.833 48.5 145.5s78.166 50.5 137.499 50.5s105.333 -17.5 138 -52.5s49 -82.833 49 -143.5zM395.001 174v142
c0 96.667 -43 145 -129 145c-88 0 -132 -48.333 -132 -145v-142c0 -40 11.833 -72.333 35.5 -97s56 -37 97 -37s72.667 12.167 95 36.5s33.5 56.833 33.5 97.5z" />
    <glyph glyph-name="pi" unicode="&#x3c0;" horiz-adv-x="511" 
d="M474 27l-27 -33c-1.33301 0.666992 -3.33301 1.33398 -6 2.00098s-7.5 3 -14.5 7s-13.167 9 -18.5 15c-13.333 15.333 -20 35.666 -20 60.999l1 375h-267v-454h-56v501h379v-432c3.33301 -18.667 13 -32.667 29 -42z" />
    <glyph glyph-name="rho" unicode="&#x3c1;" 
d="M132 -195l-54.001 -15.999v526c0 59.333 16.333 106.166 49 140.499s79.834 51.5 141.501 51.5s107.5 -17.833 137.5 -53.5s45 -84.5 45 -146.5v-135c0 -58.667 -15.5 -103.667 -46.5 -135s-76.833 -47 -137.5 -47s-105.667 18 -135 54v-239zM394.999 165.001v147.999
c0 94.667 -43.667 142 -131 142c-36.667 0 -67.5 -10.667 -92.5 -32s-37.5 -57.666 -37.5 -108.999v-149c0 -42 12 -73.333 36 -94s56 -31 96 -31s71.5 10.167 94.5 30.5s34.5 51.833 34.5 94.5z" />
    <glyph glyph-name="sigma1" unicode="&#x3c2;" horiz-adv-x="409" 
d="M357 -147l-43.0039 27.001c6.66699 9.33301 10 19 10 29c0 36 -14.667 63.333 -44 82c-71.333 44.667 -111.666 71.667 -120.999 81l-29.5 28.5c-10.333 9.66699 -17.666 18.667 -21.999 27l-15.5 28.5c-9.33301 19.333 -14 43 -14 71v140
c0 35.333 13.833 67.166 41.5 95.499s71.167 42.5 130.5 42.5c21.333 0 41.333 -2.16699 60 -6.5s32 -8.83301 40 -13.5l12 -7l-19 -46c-22 16 -50.667 24 -86 24s-64.666 -7.83301 -87.999 -23.5s-35 -36.5 -35 -62.5v-124c0 -44 11.333 -79.5 34 -106.5
s67.334 -61.167 134.001 -102.5c24.667 -15.333 43.167 -34 55.5 -56s18.5 -44.167 18.5 -66.5s-6.33301 -42.833 -19 -61.5z" />
    <glyph glyph-name="sigma" unicode="&#x3c3;" horiz-adv-x="532" 
d="M451 310v-135c0 -129.333 -61.667 -194 -185 -194c-63.333 0 -110.5 17.167 -141.5 51.5s-46.5 81.833 -46.5 142.5v179c0 32 6.16699 59.167 18.5 81.5s28.5 38.5 48.5 48.5c32.667 16.667 67 25 103 25l38 -4c22 -3.33301 40.833 -5 56.5 -5s29.167 1 40.5 3
c26 4.66699 51 18 75 40l41 -15c-23.333 -40.667 -55 -66 -95 -76c13.333 -9.33301 24.5 -27 33.5 -53s13.5 -55.667 13.5 -89zM341 448c-42.667 6.66699 -78.333 10 -107 10s-52.5 -8.66699 -71.5 -26s-28.5 -44.333 -28.5 -81v-186c0 -44 12 -77.333 36 -100
s56 -34 96 -34c86 0 129 44.667 129 134v145c0 28.667 -4.33301 54.334 -13 77.001s-17 38.667 -25 48s-13.333 13.666 -16 12.999z" />
    <glyph glyph-name="tau" unicode="&#x3c4;" horiz-adv-x="412" 
d="M320 30l-16 -42.999c-37.333 10.667 -64.333 27.667 -81 51s-25 54.666 -25 93.999v315h-120v53h301v-53h-125v-315c0 -53.333 22 -87.333 66 -102z" />
    <glyph glyph-name="upsilon" unicode="&#x3c5;" horiz-adv-x="483" 
d="M390 165l-0.000976562 336h56v-329c0 -121.333 -63.333 -182 -190 -182s-190 60.667 -190 182v329h56v-336c0 -42.667 11.833 -74.167 35.5 -94.5s55.834 -30.5 96.501 -30.5c90.667 0 136 41.667 136 125z" />
    <glyph glyph-name="phi" unicode="&#x3c6;" horiz-adv-x="638" 
d="M368 -216l-56.999 13l-1 198h-44c-63.333 0 -110.5 17.167 -141.5 51.5s-46.5 81.833 -46.5 142.5v125c0 101.333 38.667 164.333 116 189l30 -45c-60 -15.333 -90 -63.333 -90 -144v-135c0 -44 12 -77.333 36 -100s56 -34 96 -34h44v356c2 33.333 12.667 59.333 32 78
s44.666 28 75.999 28c58 0 103.667 -18.167 137 -54.5s50 -84.833 50 -145.5v-118c0 -60.667 -15.5 -108.167 -46.5 -142.5s-78.167 -51.5 -141.5 -51.5h-49v-211zM549.001 179l0.000976562 138c0 45.333 -12.833 79.5 -38.5 102.5s-53.834 34.5 -84.501 34.5
c-38.667 0 -58 -20.667 -58 -62v-347h49c40 0 72 11.333 96 34s36 56 36 100z" />
    <glyph glyph-name="chi" unicode="&#x3c7;" horiz-adv-x="577" 
d="M544 -172l-28.001 -40h-2c-54 0 -97.333 32 -130 96l-102 208l-151 -296l-53 20l173 339l-168 346h63l137 -284l145 284h63l-178 -348l121 -249c14 -29.333 29 -48.333 45 -57c14.667 -8 28.334 -13 41.001 -15s20.667 -3.33301 24 -4z" />
    <glyph glyph-name="psi" unicode="&#x3c8;" horiz-adv-x="639" 
d="M368 -219l-57.999 12.999v201h-44c-63.333 0 -110.5 17.167 -141.5 51.5s-46.5 81.833 -46.5 142.5v311h56v-321c0 -44 12 -77.333 36 -100s56 -34 96 -34h44v455h58v-455h49c40 0 72 11.333 96 34s36 56 36 100v182c0 26.667 -2.33301 48.834 -7 66.501
s-9.33398 29.5 -14.001 35.5s-12.667 15 -24 27l45 16c18 -11.333 31.333 -26.833 40 -46.5s13.5 -36.5 14.5 -50.5s1.5 -35 1.5 -63v-157c0 -60.667 -15.5 -108.167 -46.5 -142.5s-78.167 -51.5 -141.5 -51.5h-49v-214z" />
    <glyph glyph-name="omega" unicode="&#x3c9;" horiz-adv-x="635" 
d="M542 178v149c0 69.333 -27.667 112.333 -83 129l32 44c71.333 -26.667 107 -87.667 107 -183v-129c0 -133.333 -53.667 -200 -161 -200c-46.667 0 -81.667 17.667 -105 53c-24.667 -35.333 -59.667 -53 -105 -53c-107.333 0 -161 66.667 -161 200v129
c0 95.333 35.667 156.333 107 183l32 -44c-55.333 -16.667 -83 -59.667 -83 -129v-149c0 -46.667 9.83301 -81.167 29.5 -103.5s43.5 -33.5 71.5 -33.5s48 9.66699 60 29s18.667 48.666 20 87.999v141h58v-141c0.666992 -39.333 7 -68.666 19 -87.999s32.167 -29 60.5 -29
s52.333 11.167 72 33.5s29.5 56.833 29.5 103.5z" />
    <glyph glyph-name="iotadieresis" unicode="&#x3ca;" horiz-adv-x="276" 
d="M161 0h-56v501h56v-501zM54 539c-9.33301 0 -17.166 3.16699 -23.499 9.5s-9.5 14.166 -9.5 23.499s3.16699 17.166 9.5 23.499s14.166 9.5 23.499 9.5s17.166 -3.16699 23.499 -9.5s9.5 -14.166 9.5 -23.499s-3.16699 -17.166 -9.5 -23.499s-14.166 -9.5 -23.499 -9.5z
M210 539c-9.33301 0 -17.166 3.16699 -23.499 9.5s-9.5 14.166 -9.5 23.499s3.16699 17.166 9.5 23.499s14.166 9.5 23.499 9.5s17.166 -3.16699 23.499 -9.5s9.5 -14.166 9.5 -23.499s-3.16699 -17.166 -9.5 -23.499s-14.166 -9.5 -23.499 -9.5z" />
    <glyph glyph-name="upsilondieresis" unicode="&#x3cb;" horiz-adv-x="491" 
d="M191 539c-8.66699 0 -16.334 3.16699 -23.001 9.5s-10 14.166 -10 23.499s3.33301 17.166 10 23.499s14.334 9.5 23.001 9.5s16.334 -3.16699 23.001 -9.5s10 -14.166 10 -23.499s-3.33301 -17.166 -10 -23.499s-14.334 -9.5 -23.001 -9.5zM347 539
c-8.66699 0 -16.334 3.16699 -23.001 9.5s-10 14.166 -10 23.499s3.33301 17.166 10 23.499s14.334 9.5 23.001 9.5s16.334 -3.16699 23.001 -9.5s10 -14.166 10 -23.499s-3.33301 -17.166 -10 -23.499s-14.334 -9.5 -23.001 -9.5zM402 165l-0.000976562 336h56v-329
c0 -121.333 -63.333 -182 -190 -182s-190 60.667 -190 182v329h56v-336c0 -42.667 11.833 -74.167 35.5 -94.5s55.834 -30.5 96.501 -30.5c90.667 0 136 41.667 136 125z" />
    <glyph glyph-name="omicrontonos" unicode="&#x3cc;" 
d="M283 538l-44.001 0.000976562l51 118c7.33301 15.333 18 23 32 23c18 0 29.333 -7.66699 34 -23c2.66699 -10.667 1.33398 -19.334 -3.99902 -26.001zM450.999 316.001l0.000976562 -132c0 -56 -15.333 -102.333 -46 -139s-77 -55 -139 -55s-108.833 18.5 -140.5 55.5
s-47.5 83.167 -47.5 138.5v132c0 63.333 16.167 111.833 48.5 145.5s78.166 50.5 137.499 50.5s105.333 -17.5 138 -52.5s49 -82.833 49 -143.5zM395 174.001v142c0 96.667 -43 145 -129 145c-88 0 -132 -48.333 -132 -145v-142c0 -40 11.833 -72.333 35.5 -97
s56 -37 97 -37s72.667 12.167 95 36.5s33.5 56.833 33.5 97.5z" />
    <glyph glyph-name="upsilontonos" unicode="&#x3cd;" horiz-adv-x="491" 
d="M293 538l-44.001 0.000976562l51 118c7.33301 15.333 18 23 32 23c18 0 29.333 -7.66699 34 -23c2.66699 -10.667 1.33398 -19.334 -3.99902 -26.001zM401.999 165.001l-0.000976562 336h56v-329c0 -121.333 -63.333 -182 -190 -182s-190 60.667 -190 182v329h56v-336
c0 -42.667 11.833 -74.167 35.5 -94.5s55.834 -30.5 96.501 -30.5c90.667 0 136 41.667 136 125z" />
    <glyph glyph-name="omegatonos" unicode="&#x3ce;" horiz-adv-x="643" 
d="M367 538l-44.001 0.000976562l51 118c7.33301 15.333 18 23 32 23c18 0 29.333 -7.66699 34 -23c2.66699 -10.667 1.33398 -19.334 -3.99902 -26.001zM553.999 178.001v149c0 69.333 -27.667 112.333 -83 129l32 44c71.333 -26.667 107 -87.667 107 -183v-129
c0 -133.333 -53.667 -200 -161 -200c-46.667 0 -81.667 17.667 -105 53c-24.667 -35.333 -59.667 -53 -105 -53c-107.333 0 -161 66.667 -161 200v129c0 95.333 35.667 156.333 107 183l32 -44c-55.333 -16.667 -83 -59.667 -83 -129v-149
c0 -46.667 9.83301 -81.167 29.5 -103.5s43.5 -33.5 71.5 -33.5s48 9.66699 60 29s18.667 48.666 20 87.999v141h58v-141c0.666992 -39.333 7 -68.666 19 -87.999s32.167 -29 60.5 -29s52.333 11.167 72 33.5s29.5 56.833 29.5 103.5z" />
    <glyph glyph-name="quoteleft" unicode="&#x2018;" horiz-adv-x="101" 
d="M40 631l10 -3.00098c12 -8.66699 17.833 -19 17.5 -31s-3.66602 -20.833 -9.99902 -26.5s-11.833 -8.5 -16.5 -8.5s-9.33398 0.166992 -14.001 0.5s-10.5 4.33301 -17.5 12s-10.5 16.5 -10.5 26.5c0 38.667 21.333 75.667 64 111l40 -28
c-30 -17.333 -49.333 -32.666 -58 -45.999z" />
    <glyph glyph-name="quoteright" unicode="&#x2019;" horiz-adv-x="101" 
d="M38 560l-40 28.001c30 17.333 49.333 32.666 58 45.999l5 7l-10 3c-12 8.66699 -17.833 19 -17.5 31s3.66602 20.833 9.99902 26.5s11.833 8.5 16.5 8.5s9.33398 -0.166992 14.001 -0.5s10.5 -4.33301 17.5 -12s10.5 -16.5 10.5 -26.5
c0 -38.667 -21.333 -75.667 -64 -111z" />
    <glyph glyph-name="quotesinglbase" unicode="&#x201a;" horiz-adv-x="159" 
d="M51 -84l-40 28.001c30 17.333 49.333 32.666 58 45.999l5 7l-10 3c-12 8.66699 -17.833 19 -17.5 31s3.66602 20.833 9.99902 26.5s11.833 8.5 16.5 8.5s9.33398 -0.166992 14.001 -0.5s10.5 -4.33301 17.5 -12s10.5 -16.5 10.5 -26.5
c0 -38.667 -21.333 -75.667 -64 -111z" />
    <glyph glyph-name="quotedblleft" unicode="&#x201c;" horiz-adv-x="252" 
d="M40 635l10 -3.00098c12 -8.66699 17.833 -19 17.5 -31s-3.66602 -20.833 -9.99902 -26.5s-11.833 -8.5 -16.5 -8.5s-9.33398 0.166992 -14.001 0.5s-10.5 4.33301 -17.5 12s-10.5 16.5 -10.5 26.5c0 38.667 21.333 75.667 64 111l40 -28
c-30 -17.333 -49.333 -32.666 -58 -45.999zM191 634.999l10 -3.00098c12 -8.66699 17.833 -19 17.5 -31s-3.66602 -20.833 -9.99902 -26.5s-11.833 -8.5 -16.5 -8.5s-9.33398 0.166992 -14.001 0.5s-10.5 4.33301 -17.5 12s-10.5 16.5 -10.5 26.5
c0 38.667 21.333 75.667 64 111l40 -28c-30 -17.333 -49.333 -32.666 -58 -45.999z" />
    <glyph glyph-name="quotedblright" unicode="&#x201d;" horiz-adv-x="252" 
d="M38 560l-40 28.001c30 17.333 49.333 32.666 58 45.999l5 7l-10 3c-12 8.66699 -17.833 19 -17.5 31s3.66602 20.833 9.99902 26.5s11.833 8.5 16.5 8.5s9.33398 -0.166992 14.001 -0.5s10.5 -4.33301 17.5 -12s10.5 -16.5 10.5 -26.5
c0 -38.667 -21.333 -75.667 -64 -111zM189 560.001l-40 28.001c30 17.333 49.333 32.666 58 45.999l5 7l-10 3c-12 8.66699 -17.833 19 -17.5 31s3.66602 20.833 9.99902 26.5s11.833 8.5 16.5 8.5s9.33398 -0.166992 14.001 -0.5s10.5 -4.33301 17.5 -12
s10.5 -16.5 10.5 -26.5c0 -38.667 -21.333 -75.667 -64 -111z" />
    <glyph glyph-name="quotedblbase" unicode="&#x201e;" horiz-adv-x="310" 
d="M51 -82l-40 28.001c30 17.333 49.333 32.666 58 45.999l5 7l-10 3c-12 8.66699 -17.833 19 -17.5 31s3.66602 20.833 9.99902 26.5s11.833 8.5 16.5 8.5s9.33398 -0.166992 14.001 -0.5s10.5 -4.33301 17.5 -12s10.5 -16.5 10.5 -26.5
c0 -38.667 -21.333 -75.667 -64 -111zM202 -81.999l-40 28c28 16 47.333 31.333 58 46l5 7l-10 3c-12 8.66699 -17.833 19 -17.5 31s3.66602 20.833 9.99902 26.5s11.833 8.5 16.5 8.5s9.33398 -0.166992 14.001 -0.5s10.5 -4.33301 17.5 -12s10.5 -16.5 10.5 -26.5
c0 -38.667 -21.333 -75.667 -64 -111z" />
    <glyph glyph-name="bullet" unicode="&#x2022;" horiz-adv-x="468" 
d="M256 158c-49.333 0 -91.333 17.5 -126 52.5s-52 77.167 -52 126.5s17.333 91.333 52 126s76.667 52 126 52s91.5 -17.333 126.5 -52s52.5 -76.667 52.5 -126s-17.5 -91.5 -52.5 -126.5s-77.167 -52.5 -126.5 -52.5z" />
    <glyph glyph-name="ellipsis" unicode="&#x2026;" horiz-adv-x="477" 
d="M44 0c-9.33301 0 -17.166 3.33301 -23.499 10s-9.5 14.334 -9.5 23.001s3.16699 16.334 9.5 23.001s14.166 10 23.499 10s17.166 -3.33301 23.499 -10s9.5 -14.334 9.5 -23.001s-3.16699 -16.334 -9.5 -23.001s-14.166 -10 -23.499 -10zM221 0
c-8.66699 0 -16.334 3.33301 -23.001 10s-10 14.334 -10 23.001s3.33301 16.334 10 23.001s14.334 10 23.001 10s16.334 -3.33301 23.001 -10s10 -14.334 10 -23.001s-3.33301 -16.334 -10 -23.001s-14.334 -10 -23.001 -10zM401 0c-8.66699 0 -16.334 3.33301 -23.001 10
s-10 14.334 -10 23.001s3.33301 16.334 10 23.001s14.334 10 23.001 10s16.334 -3.33301 23.001 -10s10 -14.334 10 -23.001s-3.33301 -16.334 -10 -23.001s-14.334 -10 -23.001 -10z" />
    <glyph glyph-name="perthousand" unicode="&#x2030;" horiz-adv-x="1047" 
d="M870 -11c-40 0 -74 14 -102 42s-42 62 -42 102s14 74 42 102s62 42 102 42s74 -14 102 -42s42 -62 42 -102s-14 -74 -42 -102s-62 -42 -102 -42zM964 133c0 24.667 -8.66699 46.5 -26 65.5s-40 28.5 -68 28.5s-50.667 -9.5 -68 -28.5s-26 -40.833 -26 -65.5
s8.66699 -46.5 26 -65.5s40 -28.5 68 -28.5s50.667 9.5 68 28.5s26 40.833 26 65.5zM113 1l-35 40l567 699l40 -41zM539 -11c-40 0 -74 14 -102 42s-42 62 -42 102s14 74 42 102s62 42 102 42s74 -14 102 -42s42 -62 42 -102s-14 -74 -42 -102s-62 -42 -102 -42zM633 133
c0 24.667 -8.66699 46.5 -26 65.5s-40 28.5 -68 28.5s-50.667 -9.5 -68 -28.5s-26 -40.833 -26 -65.5s8.66699 -46.5 26 -65.5s40 -28.5 68 -28.5s50.667 9.5 68 28.5s26 40.833 26 65.5zM228 439c-40 0 -74 14 -102 42s-42 62 -42 102s14 74 42 102s62 42 102 42
s74 -14 102 -42s42 -62 42 -102s-14 -74 -42 -102s-62 -42 -102 -42zM322 583c0 24.667 -8.66699 46.5 -26 65.5s-40 28.5 -68 28.5s-50.667 -9.5 -68 -28.5s-26 -40.833 -26 -65.5s8.66699 -46.5 26 -65.5s40 -28.5 68 -28.5s50.667 9.5 68 28.5s26 40.833 26 65.5z" />
    <glyph glyph-name="guilsinglleft" unicode="&#x2039;" horiz-adv-x="268" 
d="M264 114l-35 -34l-187 187v1l187 187l37 -38l-150 -150z" />
    <glyph glyph-name="guilsinglright" unicode="&#x203a;" horiz-adv-x="292" 
d="M40 80l-35 34l148 153l-150 150l37 38l187 -187v-1z" />
    <glyph glyph-name="fraction" unicode="&#x2044;" horiz-adv-x="492" 
d="M139 -114h-61l324 931h57z" />
    <glyph glyph-name="Euro" unicode="&#x20ac;" horiz-adv-x="527" 
d="M494 23c-56.667 -22 -110.664 -33 -161.997 -33c-10.667 0 -26.834 1 -48.501 3s-44.667 9.5 -69 22.5s-44 33.667 -59 62s-22.5 63.5 -22.5 105.5v70h-55v55h55v50h-55v55h55v91c0 50.667 7.16699 89 21.5 115s36.166 48 65.499 66c30 16.667 65.667 25 107 25
c51.333 0 98.666 -11 141.999 -33l-16 -38c-38 14 -74 21 -108 21c-104 0 -156 -49 -156 -147v-100h209v-55h-209v-50h209v-55h-209v-68c0 -87.333 42.333 -135 127 -143c6.66699 -1.33301 13.667 -2 21 -2c40 0 88.333 10 145 30z" />
    <glyph glyph-name="trademark" unicode="&#x2122;" horiz-adv-x="585" 
d="M477 512h-46v120l-40 -120h-31l-40 120v-120h-48v142h-56v-142h-48v142h-63v46h231l39 -108l38 108h64v-188z" />
    <glyph glyph-name="Omega" unicode="&#x2126;" horiz-adv-x="625" 
d="M592 0l-228.002 0.00195312v51c50.667 10 85 20.333 103 31c37.333 22 56 60 56 114v317c0 44.667 -12.167 79.667 -36.5 105s-56.166 38 -95.499 38h-112c-39.333 0 -71.166 -12.667 -95.499 -38s-36.5 -60.333 -36.5 -105v-317c0 -40 10.667 -72 32 -96
c18 -20.667 57 -36.334 117 -47.001c4.66699 -0.666992 8 -1.33398 10 -2.00098v-51h-228l17 51h65c-46 28.667 -69 77 -69 145v307c0 61.333 15.667 110.666 47 147.999s78.333 56 141 56h112c62.667 0 109.667 -18.667 141 -56s47 -86.666 47 -147.999v-307
c0 -66.667 -24.333 -115 -73 -145h69z" />
    <glyph glyph-name="Delta" unicode="&#x2206;" horiz-adv-x="616" 
d="M583 0h-505l224 700h53zM507 50l-179 563l-176 -563h355z" />
    <glyph glyph-name="f_f" unicode="&#xfb00;" horiz-adv-x="545" 
d="M351 664c26.667 24 59.667 35.999 99 35.999c25.333 0 46 -5.66699 62 -17l-20 -49c-16 8 -31.333 12 -46 12s-28.667 -4.33301 -42 -13c-24.667 -16.667 -37 -44.667 -37 -84v-48h114l-24 -53h-90v-448h-56v561c0 20.667 3.66699 40.334 11 59.001
c-29.333 18 -57 27 -83 27c-30 0 -55 -9.83301 -75 -29.5s-30 -42.5 -30 -68.5v-48h114l-24 -53h-90v-448h-56v561c0 32.667 8.66699 61 26 85c28 40 66.333 60 115 60s92.667 -14 132 -42z" />
    <glyph glyph-name="f_i" unicode="&#xfb01;" horiz-adv-x="395" 
d="M362 0h-56v501h56v-501zM134 0l-56 0.000976562v561c0 45.333 14.333 81.333 43 108s62.667 40 102 40c44.667 0 84.667 -16.333 120 -49l-36 -37c-30.667 16.667 -55.667 25 -75 25s-35.333 -3.33301 -48 -10c-33.333 -16.667 -50 -46.334 -50 -89.001v-48h114l-24 -53
h-90v-448z" />
    <glyph glyph-name="f_l" unicode="&#xfb02;" horiz-adv-x="395" 
d="M78 561c0 45.333 14.332 81 42.999 107s65.334 39 110.001 39s88.334 -16.667 131.001 -50v-657h-56v623c-30 16 -54.833 24 -74.5 24s-35.834 -3.33301 -48.501 -10c-32.667 -16.667 -49 -46 -49 -88v-48h114l-24 -53h-90v-448h-56v561z" />
    <glyph glyph-name="f_f_l" unicode="&#xfb04;" horiz-adv-x="625" 
d="M351 664c28 27.333 66.001 40.999 114.001 40.999s90.333 -13 127 -39v-666h-56v629c-26.667 13.333 -49.834 20 -69.501 20s-36.5 -3.66699 -50.5 -11c-32.667 -18 -49 -45 -49 -81v-56h114l-24 -53h-90v-448h-56v561c0 20.667 3.66699 40.334 11 59.001
c-29.333 18 -57 27 -83 27c-30 0 -55 -9.83301 -75 -29.5s-30 -42.5 -30 -68.5v-48h114l-24 -53h-90v-448h-56v561c0 32.667 8.66699 61 26 85c28 40 66.333 60 115 60s92.667 -14 132 -42z" />
    <glyph glyph-name=".null" horiz-adv-x="0" 
 />
    <glyph glyph-name="nonmarkingreturn" horiz-adv-x="333" 
 />
    <glyph glyph-name="CR" horiz-adv-x="278" 
 />
    <glyph glyph-name="Upsilondieresis" horiz-adv-x="555" 
d="M417 -7l-12.999 37.002c40.667 15.333 61 56 61 122v142c-18 -16 -42 -28.167 -72 -36.5s-58.667 -12.5 -86 -12.5c-70.667 0 -126.5 17.5 -167.5 52.5s-61.5 86.833 -61.5 155.5v247h56v-257c0 -46.667 16 -82.167 48 -106.5s70.667 -36.5 116 -36.5
s82.666 8.33301 111.999 25s47.666 41.667 54.999 75v300h57v-544c0 -48.667 -9.16699 -86.834 -27.5 -114.501s-44.166 -43.834 -77.499 -48.501zM223.001 731.002c-8.66699 0 -16.334 3.16699 -23.001 9.5s-10 14.166 -10 23.499s3.33301 17.166 10 23.499
s14.334 9.5 23.001 9.5s16.334 -3.16699 23.001 -9.5s10 -14.166 10 -23.499s-3.33301 -17.166 -10 -23.499s-14.334 -9.5 -23.001 -9.5zM379.001 731.002c-8.66699 0 -16.334 3.16699 -23.001 9.5s-10 14.166 -10 23.499s3.33301 17.166 10 23.499s14.334 9.5 23.001 9.5
s16.334 -3.16699 23.001 -9.5s10 -14.166 10 -23.499s-3.33301 -17.166 -10 -23.499s-14.334 -9.5 -23.001 -9.5z" />
    <glyph glyph-name="_196" horiz-adv-x="616" 
d="M583 0h-505l224 700h53zM507 50l-179 563l-176 -563h355z" />
    <glyph glyph-name="w_w_w" horiz-adv-x="1925" 
d="M1904 501l-155 -501h-77l-50.5 203l-50.5 202l-102 -405h-77l-63.5 207.5l-63.5 207.5l-128 -415h-77l-50.5 203l-50.5 202l-102 -405h-77l-62.5 205l-62.5 205l-127 -410h-77l-50.5 203l-50.5 202l-102 -405h-77l-153 501h59l66.5 -221.5l66.5 -221.5l113 443h57
l110 -443l134 443h62l66.5 -221.5l66.5 -221.5l113 443h57l110 -443l134 443h65l66.5 -221.5l66.5 -221.5l113 443h57l110 -443l134 443h59z" />
    <glyph glyph-name="f_t" horiz-adv-x="515" 
d="M78 561c0 45.333 14.332 81.001 42.999 107.001s65.334 39 110.001 39s88.334 -16.667 131.001 -50v-156h120l-24 -53h-96v-316c0 -53.333 22 -87.333 66 -102l-16 -43c-37.333 10.667 -64.333 27.667 -81 51s-25 54.666 -25 93.999v491c-30 16 -54.833 24 -74.5 24
s-35.834 -3.33301 -48.501 -10c-32.667 -16.667 -49 -46 -49 -88v-48h114l-24 -53h-90v-448h-56v561z" />
    <glyph glyph-name="t_t" horiz-adv-x="478" 
d="M401 30c-3.33301 -11.333 -8.66797 -25.666 -16.001 -42.999c-37.333 10.667 -64.333 27.667 -81 51s-25 54.666 -25 93.999l-1 317v-1h-178v-316c0 -52.667 22 -86.667 66 -102c-3.33301 -11.333 -8.66602 -25.666 -15.999 -42.999
c-37.333 10.667 -64.333 27.667 -81 51s-25 54.666 -25 93.999v568h56v-199h179v199h56v-199h120l-24 -53h-96v-316c0 -52.667 22 -86.667 66 -102z" />
    <glyph glyph-name="Y_alt" horiz-adv-x="507" 
d="M266 0h-56v340l-208 360h63l172 -294l174 294h63l-208 -358v-342z" />
    <glyph glyph-name="y_alt" horiz-adv-x="514" 
d="M178 -198h-59l92 218l-198 481h63l164 -414l178 414h63z" />
    <glyph glyph-name="Ydieresis_alt" horiz-adv-x="502" 
d="M261 0h-56v340l-208 360h63l172 -294l174 294h63l-208 -358v-342zM153 731c-8.66699 0 -16.334 3.16699 -23.001 9.5s-10 14.166 -10 23.499s3.33301 17.166 10 23.499s14.334 9.5 23.001 9.5s16.334 -3.16699 23.001 -9.5s10 -14.166 10 -23.499
s-3.33301 -17.166 -10 -23.499s-14.334 -9.5 -23.001 -9.5zM309 731c-8.66699 0 -16.334 3.16699 -23.001 9.5s-10 14.166 -10 23.499s3.33301 17.166 10 23.499s14.334 9.5 23.001 9.5s16.334 -3.16699 23.001 -9.5s10 -14.166 10 -23.499s-3.33301 -17.166 -10 -23.499
s-14.334 -9.5 -23.001 -9.5z" />
    <glyph glyph-name="Yacute_alt" horiz-adv-x="507" 
d="M260 731l-44 0.000976562l51 118c7.33301 15.333 18 23 32 23c18 0 29 -7.66699 33 -23c3.33301 -10.667 2.33301 -19.334 -3 -26.001zM266 0.000976562h-56v340l-208 360h63l172 -294l174 294h63l-208 -358v-342z" />
    <glyph glyph-name="yacute_alt" horiz-adv-x="509" 
d="M173 -198h-59l92 218l-198 481h63l164 -414l178 414h63zM254 543h-44l51 118c7.33301 15.333 18 23 32 23c18 0 29 -7.66699 33 -23c1.33301 -4 2 -8.33301 2 -13s-1.66699 -9 -5 -13z" />
    <glyph glyph-name="ydieresis_alt" horiz-adv-x="503" 
d="M160 539c-9.33301 0 -17.166 3.16699 -23.499 9.5s-9.5 14.166 -9.5 23.499s3.16699 17.166 9.5 23.499s14.166 9.5 23.499 9.5s17.166 -3.16699 23.499 -9.5s9.5 -14.166 9.5 -23.499s-3.16699 -17.166 -9.5 -23.499s-14.166 -9.5 -23.499 -9.5zM316 539
c-9.33301 0 -17.166 3.16699 -23.499 9.5s-9.5 14.166 -9.5 23.499s3.16699 17.166 9.5 23.499s14.166 9.5 23.499 9.5s17.166 -3.16699 23.499 -9.5s9.5 -14.166 9.5 -23.499s-3.16699 -17.166 -9.5 -23.499s-14.166 -9.5 -23.499 -9.5zM167 -198h-59l92 218l-198 481h63
l164 -414l178 414h63z" />
    <glyph glyph-name="Upsilon_alt" horiz-adv-x="505" 
d="M264 0h-56v340l-208 360h63l172 -294l174 294h63l-208 -358v-342z" />
    <glyph glyph-name="dotlessj" horiz-adv-x="242" 
d="M153 -56l-0.00195312 502.001l-45 3l-23 52h124v-576c-1.33301 -38.667 -13.333 -70.667 -36 -96s-52 -38 -88 -38l-7 43c4.66699 0 12.334 2.66699 23.001 8s19.334 11.666 26.001 18.999c17.333 19.333 26 47 26 83z" />
    <glyph glyph-name="sigma_chi" horiz-adv-x="993" 
d="M960 -172l-28.001 -39.9971h-2c-54 0 -97.333 32 -130 96l-102 208l-151 -296l-53 20l173 339l-77 158c-20 41.333 -30 77.666 -30 108.999c0 35.333 14.667 69.666 44 102.999l37 -35c-14.667 -22 -22 -44.333 -22 -67c0 -26.667 10.667 -62.334 32 -107.001l48 -99
l145 284h63l-178 -348l121 -249c14 -29.333 29 -48.333 45 -57c14.667 -8 28.334 -13 41.001 -15s20.667 -3.33301 24 -4zM450.999 310.003v-135c0 -129.333 -61.667 -194 -185 -194c-63.333 0 -110.5 17.167 -141.5 51.5s-46.5 81.833 -46.5 142.5v179
c0 32 6.16699 59.167 18.5 81.5s28.5 38.5 48.5 48.5c32.667 16.667 67 25 103 25l38 -4c22 -3.33301 40.833 -5 56.5 -5s29.167 1 40.5 3c26 4.66699 51 18 75 40l41 -15c-23.333 -40.667 -55 -66 -95 -76c13.333 -9.33301 24.5 -27 33.5 -53s13.5 -55.667 13.5 -89z
M340.999 448.003c-42.667 6.66699 -78.333 10 -107 10s-52.5 -8.66699 -71.5 -26s-28.5 -44.333 -28.5 -81v-186c0 -44 12 -77.333 36 -100s56 -34 96 -34c86 0 129 44.667 129 134v145c0 28.667 -4.33301 54.334 -13 77.001s-17 38.667 -25 48s-13.333 13.666 -16 12.999z
" />
    <glyph glyph-name="sigma_tau" horiz-adv-x="822" 
d="M730 30c-3.33301 -11.333 -8.66797 -25.668 -16.001 -43.001c-37.333 10.667 -64.333 27.667 -81 51s-25 54.666 -25 93.999v315h-94l-55 27c-13.333 -9.33301 -31.666 -16.666 -54.999 -21.999c12.667 -9.33301 23.667 -27.166 33 -53.499s14 -55.833 14 -88.5v-135
c0 -129.333 -61.667 -194 -185 -194c-63.333 0 -110.5 17.167 -141.5 51.5s-46.5 81.833 -46.5 142.5v179c0 32 6.16699 59.167 18.5 81.5s28.5 38.5 48.5 48.5c32.667 16.667 67 25 103 25l38 -4c22 -3.33301 40.833 -5 56.5 -5s29.167 1 40.5 3c26 4.66699 51 18 75 40
c22.667 -23.333 37.667 -36.333 45 -39s13.333 -4 18 -4h268v-53h-125v-315c0 -53.333 22 -87.333 66 -102zM340.998 447.998c-42.667 6.66699 -78.333 10 -107 10s-52.5 -8.66699 -71.5 -26s-28.5 -44.333 -28.5 -81v-186c0 -44 12 -77.333 36 -100s56 -34 96 -34
c86 0 129 44.667 129 134v145c0 28.667 -4.33301 54.334 -13 77.001s-17 38.667 -25 48s-13.333 13.666 -16 12.999z" />
    <glyph glyph-name="lambda_lambda" horiz-adv-x="985" 
d="M952 21l-37.001 -31.0029c-29.333 6.66699 -51 19.834 -65 39.501s-26.667 48.167 -38 85.5l-103 342c-16 -8.66699 -27.667 -20.167 -35 -34.5s-14.666 -34.833 -21.999 -61.5l-96 -338l-52 -35c-28.667 7.33301 -50.167 21.166 -64.5 41.499
s-27.166 48.833 -38.499 85.5l-103 342c-19.333 -10 -34 -28 -44 -54c-4 -10 -21.833 -69.667 -53.5 -179l-65.5 -224h-57l108 372c9.33301 28.667 19.5 51.834 30.5 69.501s20 29.667 27 36s19.5 15.833 37.5 28.5l-10 31c-5.33301 16.667 -10.333 30.667 -15 42
s-11.334 24 -20.001 38s-18.667 23.833 -30 29.5s-25.333 9.16699 -42 10.5v43h5c38 0 67.833 -8 89.5 -24s39.167 -43.667 52.5 -83l154 -498c4 -12.667 9 -23 15 -31s13 -14 21 -18l48 163l47 157c10 32.667 20.5 57.834 31.5 75.501s20 29.667 27 36
s19.5 15.833 37.5 28.5l-10 31c-5.33301 16.667 -10.333 30.667 -15 42s-11.334 24 -20.001 38s-18.667 23.833 -30 29.5s-25.333 9.16699 -42 10.5v43h5c38 0 67.833 -8 89.5 -24s39.167 -43.667 52.5 -83c91.333 -310.667 143.666 -479 156.999 -505
c10.667 -20.667 19.667 -34.167 27 -40.5s12.333 -10.333 15 -12s7.83398 -4.16699 15.501 -7.5s12.834 -5.66602 15.501 -6.99902z" />
    <glyph glyph-name="gamma_gamma" horiz-adv-x="879" 
d="M222 -198c-18.667 15.333 -27.998 38.6699 -27.998 70.0029c0 16 2.33301 31.167 7 45.5s12.334 40.166 23.001 77.499c-18 12.667 -30.5 22.167 -37.5 28.5s-16 18.333 -27 36s-21.167 40.834 -30.5 69.501l-108 372h57c8 -28.667 20.667 -71.667 38 -129
s28.666 -95.5 33.999 -114.5l19 -70.5c7.33301 -28 13.166 -48.833 17.499 -62.5s11.5 -28.834 21.5 -45.501s21 -28.334 33 -35.001l104 344c10.667 36 23 63.833 37 83.5s35.667 32.834 65 39.501v-1l39 -30c38.667 -131.333 62.667 -215.333 72 -252
s15.833 -61.5 19.5 -74.5s8.5 -27.833 14.5 -44.5c12.667 -32.667 29 -54.334 49 -65.001l104 344c10.667 36 23 63.833 37 83.5s35.667 32.834 65 39.501l18.5 -15.5l18.5 -15.5c-2.66699 -1.33301 -7.83398 -3.66602 -15.501 -6.99902s-12.834 -5.83301 -15.501 -7.5
s-7.16699 -5.16699 -13.5 -10.5s-11.5 -11 -15.5 -17c-11.333 -18.667 -20.666 -39.334 -27.999 -62.001l-125 -418c-14.667 -43.333 -22 -72.5 -22 -87.5s3.66699 -27.833 11 -38.5l-38 -30c-18.667 15.333 -28 38.666 -28 69.999c0 16 2.33301 31.167 7 45.5
s12.334 40.166 23.001 77.499c-18 12.667 -30.5 22.167 -37.5 28.5s-16 18.333 -27 36s-21.5 42.5 -31.5 74.5l-93 318c-14.667 -16 -28.334 -44.167 -41.001 -84.5l-60.5 -200.5l-62.5 -209c-14.667 -43.333 -22 -72.5 -22 -87.5s3.66699 -27.833 11 -38.5
c-16 -13.333 -28.667 -23.333 -38 -30z" />
    <glyph glyph-name="gamma_kappa" horiz-adv-x="914" 
d="M849 501l-188 -204.999l130 -183.5c30.667 -42.333 60 -64.166 88 -65.499c0.666992 -5.33301 1 -13.333 1 -24s0.333008 -18.667 1 -24c-23.333 0 -45 6.16699 -65 18.5s-35.167 24.5 -45.5 36.5s-24.833 30.667 -43.5 56l-105 144l-55 -56v-198h-56v466
c-23.333 -12.667 -42.333 -42.334 -57 -89.001l-63.5 -210l-62.5 -209c-14.667 -43.333 -22 -72.5 -22 -87.5s3.66699 -27.833 11 -38.5c-9.33301 -6.66699 -22 -16.667 -38 -30c-18.667 15.333 -28 38.666 -28 69.999c0 16 2.33301 31.167 7 45.5
s12.334 40.166 23.001 77.499c-18 12.667 -30.5 22.167 -37.5 28.5s-16 18.333 -27 36s-21.167 40.834 -30.5 69.501l-108 372h57l52 -179c18.667 -62 31.667 -107 39 -135s13.166 -48.833 17.499 -62.5s11.5 -28.834 21.5 -45.501s21 -28.334 33 -35.001l94 313
c17.333 56.667 33 94.834 47 114.501s35.667 32.834 65 39.501l63 -12v-225l208 227h74z" />
    <glyph glyph-name="Upsilontonos_alt" horiz-adv-x="728" 
d="M122 568l-44 0.000976562l51 118c7.33301 15.333 18 23 32 23c18 0 29 -7.66699 33 -23c3.33301 -10.667 2.33301 -19.334 -3 -26.001zM502 0.000976562h-56v340l-208 360h63l172 -294l174 294h63l-208 -358v-342z" />
    </font>
</defs>
</svg>
